<?xml version="1.0" encoding="UTF-8" standalone="no"?>
<!-- Created with Inkscape (http://www.inkscape.org/) -->

<svg
   width="92.524643mm"
   height="125.57504mm"
   viewBox="0 0 92.524643 125.57504"
   version="1.1"
   id="svg45918"
   inkscape:version="1.1 (c68e22c387, 2021-05-23)"
   sodipodi:docname="Bentuk_Entah.jpg.svg"
   xmlns:inkscape="http://www.inkscape.org/namespaces/inkscape"
   xmlns:sodipodi="http://sodipodi.sourceforge.net/DTD/sodipodi-0.dtd"
   xmlns="http://www.w3.org/2000/svg"
   xmlns:svg="http://www.w3.org/2000/svg">
  <sodipodi:namedview
     id="namedview45920"
     pagecolor="#505050"
     bordercolor="#eeeeee"
     borderopacity="1"
     inkscape:pageshadow="0"
     inkscape:pageopacity="0"
     inkscape:pagecheckerboard="0"
     inkscape:document-units="mm"
     showgrid="false"
     inkscape:zoom="0.44542649"
     inkscape:cx="372.67654"
     inkscape:cy="305.32535"
     inkscape:window-width="1366"
     inkscape:window-height="705"
     inkscape:window-x="-8"
     inkscape:window-y="-8"
     inkscape:window-maximized="1"
     inkscape:current-layer="layer1" />
  <defs
     id="defs45915">
    <inkscape:path-effect
       effect="spiro"
       id="path-effect46358"
       is_visible="true"
       lpeversion="1" />
    <inkscape:path-effect
       effect="bspline"
       id="path-effect46352"
       is_visible="true"
       lpeversion="1"
       weight="33.333333"
       steps="2"
       helper_size="0"
       apply_no_weight="true"
       apply_with_weight="true"
       only_selected="false" />
    <inkscape:path-effect
       effect="mirror_symmetry"
       start_point="106.54,100"
       end_point="101.14,244.24"
       center_point="103.84,172.12"
       id="path-effect46346"
       is_visible="true"
       lpeversion="1.1"
       mode="free"
       discard_orig_path="false"
       fuse_paths="false"
       oposite_fuse="false"
       split_items="false"
       split_open="false" />
    <inkscape:path-effect
       effect="mirror_symmetry"
       start_point="102.88,211.85381"
       end_point="102.78,217.44"
       center_point="102.83,214.64691"
       id="path-effect46344"
       is_visible="true"
       lpeversion="1.1"
       mode="free"
       discard_orig_path="false"
       fuse_paths="false"
       oposite_fuse="false"
       split_items="false"
       split_open="false" />
    <inkscape:path-effect
       effect="bspline"
       id="path-effect46220"
       is_visible="true"
       lpeversion="1"
       weight="33.333333"
       steps="2"
       helper_size="0"
       apply_no_weight="true"
       apply_with_weight="true"
       only_selected="false" />
    <inkscape:path-effect
       effect="bspline"
       id="path-effect46216"
       is_visible="true"
       lpeversion="1"
       weight="33.333333"
       steps="2"
       helper_size="0"
       apply_no_weight="true"
       apply_with_weight="true"
       only_selected="false" />
    <inkscape:path-effect
       effect="spiro"
       id="path-effect46192"
       is_visible="true"
       lpeversion="1" />
  </defs>
  <g
     inkscape:label="Layer 1"
     inkscape:groupmode="layer"
     id="layer1"
     transform="translate(-59.360848,-159.9056)">
    <g
       id="g50726"
       transform="matrix(14.937442,0,0,14.937442,-1432.6914,-3004.6484)"
       inkscape:export-filename="D:\Niskala's Void\Project\Design\LapanEnam\Bentuk_Entah.webp"
       inkscape:export-xdpi="300"
       inkscape:export-ydpi="300">
      <path
         style="fill:#000000;stroke:none;stroke-width:0.198019px;stroke-linecap:butt;stroke-linejoin:miter;stroke-opacity:1"
         d="m 103.13084,217.21837 c 0.47329,-0.81392 0.71556,-1.76051 0.69147,-2.70173 -0.0241,-0.94122 -0.31444,-1.87418 -0.82874,-2.66283 -0.5143,0.78865 -0.80466,1.72161 -0.82874,2.66283 -0.0241,0.94122 0.21818,1.88781 0.69147,2.70173 0.0438,0.0754 0.0896,0.14969 0.13727,0.22275 0.0476,-0.0731 0.0934,-0.14735 0.13727,-0.22275 z"
         id="path46190"
         inkscape:original-d="m 103.13084,217.21837 c 0.18689,-1.66605 -0.0427,-4.08801 -0.13727,-5.36456 -0.1166,1.78845 -0.12702,3.57664 -0.13727,5.36456 -0.0102,1.78793 0.13727,0.22275 0.13727,0.22275 0,0 -0.1312,2.17055 0.13727,-0.22275 z"
         inkscape:path-effect="#path-effect46192"
         sodipodi:nodetypes="scscs" />
      <path
         id="path46218"
         style="fill:#000000;stroke:none;stroke-width:0.264583px;stroke-linecap:butt;stroke-linejoin:miter;stroke-opacity:1"
         inkscape:path-effect="#path-effect46220"
         inkscape:original-d="m 104.88722,218.62111 c 0.0659,-0.061 0.13149,-0.12226 0.19689,-0.18376 0.0178,-0.10474 0.0353,-0.20975 0.0525,-0.31502 -0.0522,-0.10036 -0.10471,-0.20099 -0.15751,-0.30189 -0.16162,-0.008 -0.3235,-0.0172 -0.48565,-0.0262 -0.13974,0.14464 -0.27974,0.28902 -0.42002,0.43314 -0.14412,0.26716 -0.2885,0.53404 -0.43315,0.80067 -0.19662,0.42903 -0.3935,0.85781 -0.59065,1.28631 h -0.13168 c -0.19671,-0.4287 -0.39403,-0.85728 -0.59065,-1.28631 -0.14465,-0.26663 -0.28903,-0.53351 -0.43315,-0.80067 -0.14028,-0.14412 -0.28028,-0.2885 -0.42002,-0.43314 -0.16215,0.009 -0.32403,0.0178 -0.48565,0.0262 -0.0528,0.1009 -0.10527,0.20153 -0.15751,0.30189 0.0172,0.10527 0.0347,0.21028 0.0525,0.31502 0.0654,0.0615 0.13099,0.12277 0.19689,0.18376 0.1355,0.0788 0.271,0.15775 0.40689,0.23625 -0.13589,0.0441 -0.27152,0.0878 -0.40689,0.13129 -0.21903,-0.0304 -0.43779,-0.061 -0.65629,-0.0919 -0.12277,-0.096 -0.24527,-0.19226 -0.3675,-0.28876 -0.07902,-0.1835 -0.157775,-0.36725 -0.236275,-0.55128 0.05662,-0.17912 0.11344,-0.3585 0.17064,-0.53815 0.08287,-0.1485 0.165975,-0.29725 0.249375,-0.44628 0.201,-0.10036 0.40226,-0.20099 0.60379,-0.30189 0.21849,0.0266 0.43725,0.0528 0.65628,0.0788 0.17474,0.0878 0.34975,0.17531 0.52503,0.26251 0.11349,0.14465 0.22724,0.28903 0.34126,0.43315 0.0829,0.14902 0.16599,0.29778 0.24939,0.44627 0.094,0.12787 0.18798,0.25586 0.282,0.38397 0.0638,0.002 0.12695,0.003 0.19002,0.005 0.0881,-0.12928 0.17589,-0.25882 0.26344,-0.38861 0.0834,-0.14849 0.16652,-0.29725 0.24939,-0.44627 0.11402,-0.14412 0.22777,-0.2885 0.34126,-0.43315 0.17528,-0.0872 0.35029,-0.17474 0.52503,-0.26251 0.21903,-0.026 0.43779,-0.0522 0.65628,-0.0788 0.20153,0.1009 0.40279,0.20153 0.60379,0.30189 0.0834,0.14903 0.16652,0.29778 0.24938,0.44628 0.0572,0.17965 0.11402,0.35903 0.17064,0.53815 -0.0785,0.18403 -0.15725,0.36778 -0.23627,0.55128 -0.12224,0.0965 -0.24474,0.19277 -0.36751,0.28876 -0.2185,0.0309 -0.43726,0.0615 -0.65629,0.0919 -0.13537,-0.0436 -0.271,-0.0872 -0.40689,-0.13146 0.13589,-0.0787 0.27152,-0.15744 0.40689,-0.23644 z"
         d="m 104.85229,218.62985 c 0.10058,-0.07 0.16619,-0.13125 0.20774,-0.21427 0.0415,-0.083 0.059,-0.18804 0.0417,-0.29079 -0.0174,-0.10275 -0.0699,-0.20339 -0.17703,-0.25823 -0.10713,-0.0548 -0.26904,-0.0636 -0.42012,0.004 -0.15109,0.0678 -0.29109,0.2122 -0.43331,0.41788 -0.14223,0.20569 -0.28661,0.47257 -0.45724,0.82041 -0.17064,0.34784 -0.36752,0.77662 -0.46594,0.99095 -0.0984,0.21432 -0.23009,0.21432 -0.3285,0 -0.0984,-0.21433 -0.2953,-0.64311 -0.46594,-0.99095 -0.17063,-0.34784 -0.31501,-0.61472 -0.45724,-0.82041 -0.14222,-0.20568 -0.28222,-0.35006 -0.43331,-0.41788 -0.15108,-0.0678 -0.31297,-0.0591 -0.42011,-0.004 -0.10714,0.0548 -0.15963,0.15546 -0.17703,0.25822 -0.0174,0.10276 1e-4,0.20777 0.0416,0.2908 0.0416,0.083 0.10717,0.14426 0.20777,0.21425 0.10059,0.07 0.23621,0.14873 0.23609,0.21007 -1.2e-4,0.0613 -0.13574,0.10509 -0.31289,0.11159 -0.17715,0.006 -0.39591,-0.0241 -0.56645,-0.0876 -0.17054,-0.0635 -0.29305,-0.1597 -0.39363,-0.29963 -0.100575,-0.13993 -0.179329,-0.32368 -0.190347,-0.50516 -0.01102,-0.18148 0.04586,-0.36084 0.115827,-0.52493 0.07,-0.16408 0.15308,-0.31283 0.29521,-0.4376 0.14212,-0.12478 0.34339,-0.22541 0.55344,-0.26268 0.21006,-0.0373 0.42882,-0.011 0.62577,0.0459 0.19695,0.0569 0.37197,0.14438 0.51641,0.26036 0.14444,0.11599 0.25819,0.26037 0.35665,0.40697 0.0985,0.14661 0.18158,0.29535 0.27009,0.43364 0.0885,0.13829 0.18251,0.26627 0.26144,0.33115 0.0789,0.0649 0.14207,0.0665 0.2175,0.003 0.0754,-0.0639 0.16324,-0.19344 0.24871,-0.33257 0.0855,-0.13913 0.16859,-0.28788 0.26704,-0.43448 0.0985,-0.1466 0.21221,-0.29098 0.35665,-0.40697 0.14444,-0.11598 0.31947,-0.20349 0.51642,-0.26036 0.19694,-0.0569 0.4157,-0.0831 0.62576,-0.0459 0.21005,0.0373 0.41132,0.1379 0.55344,0.26268 0.14213,0.12477 0.22525,0.27352 0.29522,0.4376 0.07,0.16409 0.12684,0.34345 0.11582,0.52493 -0.011,0.18149 -0.0898,0.36523 -0.19035,0.50516 -0.10058,0.13993 -0.22309,0.23619 -0.39363,0.29963 -0.17054,0.0634 -0.3893,0.0941 -0.56646,0.0875 -0.17716,-0.007 -0.31273,-0.0503 -0.31284,-0.11175 -10e-5,-0.0614 0.13549,-0.14021 0.23608,-0.21022 z"
         sodipodi:nodetypes="ccccccccccccccccccccccccccccccccccccccccccc" />
    </g>
  </g>
</svg>
