<?xml version="1.0" encoding="UTF-8" standalone="no"?>
<!-- Created with Inkscape (http://www.inkscape.org/) -->

<svg
   width="16.0px"
   height="16.0px"
   viewBox="0 0 16.0 16.0"
   version="1.1"
   id="SVGRoot"
   sodipodi:docname="ShiraLogoJepun.svg"
   inkscape:version="1.1 (c68e22c387, 2021-05-23)"
   xmlns:inkscape="http://www.inkscape.org/namespaces/inkscape"
   xmlns:sodipodi="http://sodipodi.sourceforge.net/DTD/sodipodi-0.dtd"
   xmlns="http://www.w3.org/2000/svg"
   xmlns:svg="http://www.w3.org/2000/svg">
  <sodipodi:namedview
     id="namedview844"
     pagecolor="#505050"
     bordercolor="#eeeeee"
     borderopacity="1"
     inkscape:pageshadow="0"
     inkscape:pageopacity="0"
     inkscape:pagecheckerboard="0"
     inkscape:document-units="px"
     showgrid="true"
     inkscape:zoom="3.6203869"
     inkscape:cx="-8.4245141"
     inkscape:cy="87.559703"
     inkscape:window-width="1366"
     inkscape:window-height="705"
     inkscape:window-x="-8"
     inkscape:window-y="-8"
     inkscape:window-maximized="1"
     inkscape:current-layer="layer1">
    <inkscape:grid
       type="xygrid"
       id="grid907" />
  </sodipodi:namedview>
  <defs
     id="defs839" />
  <g
     inkscape:label="Layer 1"
     inkscape:groupmode="layer"
     id="layer1">
    <g
       aria-label="シラユキ"
       transform="matrix(0.86596972,0,0,0.9102646,-318.08246,-269.47678)"
       id="text3354"
       style="font-size:53.3333px;line-height:1.25;font-family:'07LightNovelPOP';-inkscape-font-specification:'07LightNovelPOP';text-align:end;direction:rtl;text-anchor:end;white-space:pre;shape-inside:url(#rect3356);display:inline"
       inkscape:export-filename="D:\Niskala's Void\Project\Design\Shirayuki\Logo\website.webp"
       inkscape:export-xdpi="300.01199"
       inkscape:export-ydpi="300.01199">
      <path
         d="m 172.64053,380.49726 -22.93332,-5.65333 -2.08,7.94666 23.03999,5.70666 z m -3.52,11.19999 -21.65332,-0.10667 v 8.32 l 21.59999,0.10666 z m 16.63999,11.51999 c 2.66667,-3.14666 4.58667,-6.82666 6.66666,-10.66666 l -7.41333,-3.78666 c -2.77333,5.11999 -5.59999,9.49333 -9.70666,13.17332 -3.89333,3.46667 -8.31999,6.4 -12.90665,8.58666 l -1.28,-3.19999 -5.6,2.29333 4.42666,10.66666 c 10.34666,-4.05333 19.09333,-9.28 25.81332,-17.06666 z"
         id="path6630"
         sodipodi:nodetypes="ccccccccccccccccccc"
         style="fill:#2979ff;fill-opacity:1" />
      <path
         d="m 213.4405,419.91057 16.53332,-31.14665 h -44.95997 v 8.10667 h 31.03998 l -10.13333,19.25332 z m 10.98666,-45.1733 -29.17332,2.13333 -0.10666,-3.09333 -5.92,0.32 0.64,11.30666 35.09331,-2.50667 z"
         id="path6632"
         sodipodi:nodetypes="cccccccccccccc"
         style="fill:#2979ff;fill-opacity:1" />
      <path
         d="m 229.28049,408.12391 h -6.02667 v 10.82666 h 45.91998 v -7.84 h -10.82666 l 4.42666,-30.29331 h -32.79998 v 7.94666 h 22.93332 l -3.14666,22.34665 h -20.47999 z"
         id="path6634"
         style="fill:#ffffff" />
      <path
         d="m 310.45381,396.61958 -15.62666,0.0533 -1.06666,-6.34666 16.74665,-0.0533 -0.0533,-7.94667 h -17.92002 l -1.65333,-10.66666 -8.26666,1.28 1.43999,9.38666 H 267.8405 l 0.0533,8.05333 17.38666,-0.0533 1.06667,6.34666 -11.2,0.0533 v -4.10666 h -5.97333 v 11.99999 h 18.39999 l 2.24,13.54666 8.21333,-1.28 -1.92,-12.31999 h 14.39999 z"
         id="path6636"
         style="fill:#ffffff" />
    </g>
    <g
       id="g43115"
       transform="matrix(1.3328887,0,0,1.3328887,-15.082704,-29.959983)"
       inkscape:export-filename="D:\Niskala's Void\Project\Design\Shirayuki\Logo\Jawi1.png"
       inkscape:export-xdpi="300.01697"
       inkscape:export-ydpi="300.01697">
      <path
         d="m 91.707643,93.584617 h -3.12308 q -2.43077,0 -4.46154,-1.35385 v 1.35385 h -3.12307 q -2.44616,0 -4.46154,-1.35385 v 1.35385 H 67.584566 V 90 h 5.369227 v -6.692308 h 3.58462 v 2.23077 q 0,1.723077 1.15385,3 1.16923,1.261538 2.84615,1.430769 v -6.661539 h 3.58461 v 2.23077 q 0,1.723077 1.15385,3 1.16923,1.261538 2.84615,1.430769 v -6.661539 h 3.58462 z"
         id="path30127"
         style="font-weight:bold;font-size:32px;line-height:0.85;font-family:Zeytoon;-inkscape-font-specification:'Zeytoon Bold';direction:rtl;fill:#2979ff;fill-opacity:1" />
      <path
         d="m 68.969231,93.584617 h -1.384615 q -2.169231,0 -4,-1.32308 v 1.32308 H 54.630769 V 90 H 60 v -6.692308 h 3.584616 v 2.23077 q 0,1.923077 1.107692,3.2 Q 65.8,90 67.584616,90 h 1.384615 z"
         id="path30115"
         style="font-weight:bold;font-size:32px;line-height:0.85;font-family:Zeytoon;-inkscape-font-specification:'Zeytoon Bold';direction:rtl;fill:#2979ff;fill-opacity:1" />
      <path
         d="m 56.015417,93.584617 h -1.384616 q -2.153846,0 -4,-1.32308 v 0.86154 q 0,3.36923 -2.430769,5.70769 -2.430769,2.338463 -6.076923,2.338463 v -3.584613 q 2.169231,0 3.553846,-1.29231 1.384616,-1.29231 1.384616,-3.16923 v -9.815385 h 3.56923 v 2.23077 q 0,1.923077 1.107693,3.2 Q 52.861571,90 54.630801,90 h 1.384616 z"
         id="path30113"
         style="font-weight:bold;font-size:32px;line-height:0.85;font-family:Zeytoon;-inkscape-font-specification:'Zeytoon Bold';direction:rtl;fill:#2979ff;fill-opacity:1" />
      <path
         d="M 41.923135,93.584617 H 38.33852 V 76.6 h 3.584615 z"
         id="path30111"
         style="font-weight:bold;font-size:32px;line-height:0.85;font-family:Zeytoon;-inkscape-font-specification:'Zeytoon Bold';direction:rtl;fill:#2979ff;fill-opacity:1" />
      <path
         d="M 33.076986,93.584617 H 24.12314 V 90 h 5.369231 v -6.692308 h 3.584615 z"
         id="path30105"
         style="font-weight:bold;font-size:32px;line-height:0.85;font-family:Zeytoon;-inkscape-font-specification:'Zeytoon Bold';direction:rtl;fill:#ffffff" />
      <path
         id="path30101"
         style="font-weight:bold;font-size:32px;line-height:0.85;font-family:Zeytoon;-inkscape-font-specification:'Zeytoon Bold';direction:rtl;fill:#ffffff"
         d="m 25.507816,93.584617 h -3.138462 q -0.184615,3.21538 -2.584615,5.4 -2.4,2.184613 -5.923077,2.184613 v -3.584613 q 2.015384,0 3.4,-1.15385 1.338461,-1.12307 1.507692,-2.84615 h -1.6 q -2.138462,0 -3.661538,-1.53846 -1.507693,-1.553849 -1.507693,-3.692311 0,-2.153846 1.507693,-3.676923 1.523076,-1.523077 3.661538,-1.523077 2.246154,0 3.753846,1.615385 1.461539,1.569231 1.461539,3.769231 V 90 h 3.123077 z m -6.707693,-3.646155 v -1.584616 q 0,-0.676923 -0.476923,-1.153846 -0.476923,-0.476923 -1.153846,-0.476923 -0.661538,0 -1.123077,0.476923 -0.461538,0.461539 -0.461538,1.153846 0,0.661539 0.461538,1.123077 0.461539,0.461539 1.123077,0.461539 z" />
      <path
         d="m 10.400152,78.723077 -5.36923,4.384615 q 2.153846,0.969231 3.461538,2.953847 1.307692,1.984615 1.307692,4.4 v 3.123078 h -15.2 V 90 H 6.184768 q -0.153846,-1.615385 -1.353846,-2.753846 -1.184616,-1.153846 -2.8,-1.261539 l -4,3.123077 -2.307693,-2.723077 12.353846,-10.4 z"
         id="path30099"
         style="font-weight:bold;font-size:32px;line-height:0.85;font-family:Zeytoon;-inkscape-font-specification:'Zeytoon Bold';direction:rtl;fill:#ffffff" />
      <path
         d="m -4.10749,93.584617 h -3.138462 q -0.184615,3.18461 -2.507692,5.38461 -2.323077,2.200003 -5.523077,2.200003 -3.323077,0 -5.692308,-2.369233 -2.353846,-2.35384 -2.353846,-5.67692 0,-3.046154 2.323077,-5.676923 l 2.630769,2.4 q -1.369231,1.6 -1.369231,3.276923 0,1.84615 1.307693,3.15385 1.307692,1.30769 3.153846,1.30769 1.723077,0 2.984615,-1.15385 1.276923,-1.15384 1.446154,-2.84615 H -15.73826 V 90 h 11.63077 z"
         id="path30056"
         style="font-weight:bold;font-size:32px;line-height:0.85;font-family:Zeytoon;-inkscape-font-specification:'Zeytoon Bold';direction:rtl;fill:#ffffff" />
      <g
         id="g42843">
        <circle
           style="fill:#2979ff;fill-opacity:1;stroke:none;stroke-width:15.2432;stroke-linejoin:round;paint-order:markers fill stroke"
           id="path39506"
           cx="59.392307"
           cy="98.715385"
           r="1.7924805" />
        <circle
           style="fill:#2979ff;fill-opacity:1;stroke:none;stroke-width:15.2432;stroke-linejoin:round;paint-order:markers fill stroke"
           id="circle39730"
           cx="63.453846"
           cy="98.715385"
           r="1.7924805" />
      </g>
      <g
         id="g42824">
        <circle
           style="opacity:1;fill:#ffffff;fill-opacity:1;stroke:none;stroke-width:15.2432;stroke-linejoin:round;paint-order:markers fill stroke"
           id="circle40109"
           cx="32.946217"
           cy="98.715385"
           r="1.7924805" />
        <circle
           style="opacity:1;fill:#ffffff;fill-opacity:1;stroke:none;stroke-width:15.2432;stroke-linejoin:round;paint-order:markers fill stroke"
           id="circle42572"
           cx="28.884678"
           cy="98.715385"
           r="1.7924805" />
      </g>
      <g
         id="g42820">
        <circle
           style="opacity:1;fill:#ffffff;fill-opacity:1;stroke:none;stroke-width:15.2432;stroke-linejoin:round;paint-order:markers fill stroke"
           id="circle42654"
           cx="-12.792308"
           cy="105.20769"
           r="1.7924805" />
        <circle
           style="opacity:1;fill:#ffffff;fill-opacity:1;stroke:none;stroke-width:15.2432;stroke-linejoin:round;paint-order:markers fill stroke"
           id="circle42736"
           cx="-16.853846"
           cy="105.20769"
           r="1.7924805" />
      </g>
      <g
         id="g43092">
        <circle
           style="fill:#2979ff;fill-opacity:1;stroke:none;stroke-width:15.2432;stroke-linejoin:round;paint-order:markers fill stroke"
           id="circle42836"
           cx="80.376869"
           cy="77.900002"
           r="1.7924805" />
        <circle
           style="fill:#2979ff;fill-opacity:1;stroke:none;stroke-width:15.2432;stroke-linejoin:round;paint-order:markers fill stroke"
           id="circle42925"
           cx="84.438416"
           cy="77.900002"
           r="1.7924805" />
        <circle
           style="fill:#2979ff;fill-opacity:1;stroke:none;stroke-width:15.2432;stroke-linejoin:round;paint-order:markers fill stroke"
           id="circle43007"
           cx="82.176872"
           cy="74.223076"
           r="1.7924805" />
      </g>
    </g>
  </g>
</svg>
