<?xml version="1.0" encoding="UTF-8" standalone="no"?>
<!-- Created with Inkscape (http://www.inkscape.org/) -->

<svg
   width="210mm"
   height="297mm"
   viewBox="0 0 210 297"
   version="1.1"
   id="svg5"
   sodipodi:docname="ShiraLogo.svg"
   inkscape:version="1.1 (c68e22c387, 2021-05-23)"
   xmlns:inkscape="http://www.inkscape.org/namespaces/inkscape"
   xmlns:sodipodi="http://sodipodi.sourceforge.net/DTD/sodipodi-0.dtd"
   xmlns="http://www.w3.org/2000/svg"
   xmlns:svg="http://www.w3.org/2000/svg">
  <sodipodi:namedview
     id="namedview7"
     pagecolor="#505050"
     bordercolor="#eeeeee"
     borderopacity="1"
     inkscape:pageshadow="0"
     inkscape:pageopacity="0"
     inkscape:pagecheckerboard="0"
     inkscape:document-units="mm"
     showgrid="false"
     inkscape:zoom="2.8284271"
     inkscape:cx="154.67961"
     inkscape:cy="509.11689"
     inkscape:window-width="1366"
     inkscape:window-height="705"
     inkscape:window-x="-8"
     inkscape:window-y="-8"
     inkscape:window-maximized="1"
     inkscape:current-layer="layer2" />
  <defs
     id="defs2">
    <rect
       x="142.56"
       y="363.69638"
       width="309.81543"
       height="163.88787"
       id="rect3356" />
    <inkscape:path-effect
       effect="fill_between_many"
       method="originald"
       linkedpaths="#path3956,0,1|"
       id="path-effect7396" />
    <inkscape:path-effect
       effect="fill_between_many"
       method="originald"
       linkedpaths="#path3956,0,1|"
       id="path-effect7514" />
  </defs>
  <g
     inkscape:label="Layer 1"
     inkscape:groupmode="layer"
     id="layer1"
     style="display:inline"
     sodipodi:insensitive="true">
    <g
       aria-label="シラユキ"
       transform="matrix(0.40761659,0,0,0.40761659,-9.064216,-48.992323)"
       id="text3354"
       style="font-size:53.3333px;line-height:1.25;font-family:'07LightNovelPOP';-inkscape-font-specification:'07LightNovelPOP';text-align:end;direction:rtl;text-anchor:end;white-space:pre;shape-inside:url(#rect3356)">
      <path
         d="m 172.64053,380.49726 -22.93332,-5.65333 -2.08,7.94666 23.03999,5.70666 z m -3.52,11.19999 -21.65332,-0.10667 v 8.32 l 21.59999,0.10666 z m 16.63999,11.51999 c 2.66667,-3.14666 4.58667,-6.82666 6.66666,-10.66666 l -7.41333,-3.78666 c -2.77333,5.11999 -5.59999,9.49333 -9.70666,13.17332 -3.89333,3.46667 -8.31999,6.4 -12.90665,8.58666 l -1.28,-3.19999 -5.6,2.29333 4.42666,10.66666 c 10.34666,-4.05333 19.09333,-9.28 25.81332,-17.06666 z"
         id="path6630"
         sodipodi:nodetypes="ccccccccccccccccccc"
         style="fill:#2979ff;fill-opacity:1" />
      <path
         d="m 213.4405,419.91057 16.53332,-31.14665 h -44.95997 v 8.10667 h 31.03998 l -10.13333,19.25332 z m 10.98666,-45.1733 -29.17332,2.13333 -0.10666,-3.09333 -5.92,0.32 0.64,11.30666 35.09331,-2.50667 z"
         id="path6632"
         sodipodi:nodetypes="cccccccccccccc"
         style="fill:#2979ff;fill-opacity:1" />
      <path
         d="m 229.28049,408.12391 h -6.02667 v 10.82666 h 45.91998 v -7.84 h -10.82666 l 4.42666,-30.29331 h -32.79998 v 7.94666 h 22.93332 l -3.14666,22.34665 h -20.47999 z"
         id="path6634"
         style="fill:#ffffff" />
      <path
         d="m 310.45381,396.61958 -15.62666,0.0533 -1.06666,-6.34666 16.74665,-0.0533 -0.0533,-7.94667 h -17.92002 l -1.65333,-10.66666 -8.26666,1.28 1.43999,9.38666 H 267.8405 l 0.0533,8.05333 17.38666,-0.0533 1.06667,6.34666 -11.2,0.0533 v -4.10666 h -5.97333 v 11.99999 h 18.39999 l 2.24,13.54666 8.21333,-1.28 -1.92,-12.31999 h 14.39999 z"
         id="path6636"
         style="fill:#ffffff" />
    </g>
  </g>
  <g
     inkscape:groupmode="layer"
     id="layer2"
     inkscape:label="Layer 2"
     style="display:inline">
    <path
       style="opacity:0.75;fill:#2979ff;fill-opacity:1;stroke-width:1.5;paint-order:markers fill stroke"
       id="path11858"
       d="m 127.19457,126.15623 c 1.20944,2.61647 3.45318,4.67348 4.26983,7.48268 0.28195,1.13115 0.46192,2.32084 0.34791,3.48365 -0.11802,0.53028 0.20139,-0.72988 0.25307,-0.93481 0.22069,-0.92012 0.48683,-1.84366 0.6481,-2.76836 -0.60319,-0.34675 -0.99151,-1.0101 -1.57648,-1.41159 -1.6163,-1.37491 -3.29835,-2.25296 -5.12223,-3.29309 -2.08493,-1.26101 -3.06171,-3.90892 -3.14572,-6.29469 0.005,-0.0604 -0.0825,0.0241 -0.0944,0.0592 -1.27722,2.8685 -0.1523,7.9106 1.8782,9.58608 1.75356,1.15629 3.3571,2.11989 5.01651,3.43176 0.70688,0.48566 1.26874,1.1369 1.88882,1.71725 0.43247,-0.095 0.45705,-1.28521 0.7207,-1.77809 0.21695,-0.85133 0.5289,-1.69767 0.60006,-2.57386 0.0126,-1.81778 -0.3814,-3.65726 -1.32881,-5.22391 -1.31909,-2.28428 -3.21151,-4.28989 -3.9203,-6.88783 -0.20069,-0.7702 -0.13463,-2.18459 -0.15338,-2.32366 -0.0233,-0.17312 -0.13408,-0.0342 -0.16238,0.0711 -0.71124,2.64993 -1.32396,5.30215 -0.11958,7.65809 z"
       sodipodi:nodetypes="ccccccccccccccccsscc" />
    <path
       style="opacity:0.75;fill:#2979ff;fill-opacity:1;stroke-width:1.5;paint-order:markers fill stroke"
       id="path12764"
       d="m 127.92666,132.75907 c -0.85321,2.17671 -2.86466,3.19485 -4.73093,3.06848 -1.26013,-0.16252 -2.7097,-1.26235 -3.22481,-2.46109 -0.98285,-2.42388 -0.88209,-5.1421 -0.3974,-7.489 -0.38588,1.34582 -0.79243,2.68503 -1.04438,3.93135 -0.36506,1.66293 -0.62612,3.41873 -0.25984,5.07126 0.97866,5.20007 6.51919,6.31103 8.37273,2.33793 0.62243,-1.4639 1.04317,-3.01362 1.16391,-3.73627 z"
       sodipodi:nodetypes="ccccccccc" />
    <path
       style="opacity:0.75;fill:#2979ff;fill-opacity:1;stroke-width:1.5;paint-order:markers fill stroke"
       id="path14369"
       d="m 110.08774,134.94891 c 3.25757,-0.30089 7.20878,-4.56361 8.85668,-6.7754 0.2165,-0.37024 0.53075,-0.70736 0.62395,-1.1351 l 0.98649,-3.48114 c 0.0342,-0.12062 0.0115,-0.19586 -0.0452,-0.0895 -0.88364,1.53033 -9.89276,9.52683 -11.83733,7.52335 -0.53521,-0.73042 -0.37698,-1.66822 -0.40199,-2.51637 l -0.15535,0.0123 c -0.838,2.25249 -1.4759,6.30503 1.97274,6.46182 z"
       sodipodi:nodetypes="cccscccccc" />
    <path
       style="opacity:0.75;fill:#2979ff;stroke-width:1.5;paint-order:markers fill stroke"
       id="path2618"
       d="m 110.9711,126.05189 c -7.68219,-0.16708 -15.111914,2.10272 -22.654193,3.20633 -9.484442,1.63039 -19.172475,2.13159 -28.774397,1.53108 -4.874699,-0.42852 -9.89999,-1.56278 -13.809654,-4.67268 l -1.02719,3.83352 c 5.569104,4.34988 12.964405,4.86347 19.762506,4.9092 9.364914,0.14231 18.712143,-0.83382 27.890534,-2.66622 5.821861,-1.01249 11.629564,-2.50846 17.585204,-2.30771 0.43626,-0.9118 1.00477,-1.30778 1.02719,-3.83352 z"
       sodipodi:nodetypes="ccccccccc" />
    <path
       inkscape:original-d="M 0,0"
       inkscape:path-effect="#path-effect7396"
       d="m 45.06805,122.36721 c -0.342394,1.27784 -0.684416,2.55551 -1.026811,3.83336 -0.08368,1.71928 0.217525,3.57297 1.442805,4.86946 0.689216,0.92604 1.412634,1.60405 1.748732,2.44585 -1.093396,2.02004 -2.463602,4.27244 -4.029729,5.4684 -2.591157,3.00523 -9.375944,4.67116 -11.727965,5.38055 0.1071,1.27546 -0.569402,2.37081 -1.126549,3.45715 2.991922,-0.53703 5.808816,-1.75457 8.582422,-2.9564 3.020081,-1.43077 5.586391,-3.80525 7.152537,-6.766 0.566351,-0.87241 1.023091,-1.79664 1.247984,-2.81792 0.04016,-0.15924 0.08991,-0.34448 0.142629,-0.5395 0.234169,-0.8507 0.505849,-1.69746 0.667141,-2.56057 0.04948,-0.23386 0.08244,-0.42895 0.08733,-0.55655 0.03134,-2.12 -1.33523,-3.86546 -2.495971,-5.50819 -0.636981,-1.13643 -0.67497,-2.4795 -0.664559,-3.74964 z"
       id="path7398" />
    <path
       inkscape:original-d="M 0,0"
       inkscape:path-effect="#path-effect7514"
       d="m 45.06805,122.36721 c -0.342394,1.27784 -0.684416,2.55551 -1.026811,3.83336 -0.08368,1.71928 0.217525,3.57297 1.442805,4.86946 0.689216,0.92604 1.412634,1.60405 1.748732,2.44585 -1.093396,2.02004 -2.463602,4.27244 -4.029729,5.4684 -2.591157,3.00523 -9.375944,4.67116 -11.727965,5.38055 0.1071,1.27546 -0.569402,2.37081 -1.126549,3.45715 2.991922,-0.53703 5.808816,-1.75457 8.582422,-2.9564 3.020081,-1.43077 5.586391,-3.80525 7.152537,-6.766 0.566351,-0.87241 1.023091,-1.79664 1.247984,-2.81792 0.04016,-0.15924 0.08991,-0.34448 0.142629,-0.5395 0.234169,-0.8507 0.505849,-1.69746 0.667141,-2.56057 0.04948,-0.23386 0.08244,-0.42895 0.08733,-0.55655 0.03134,-2.12 -1.33523,-3.86546 -2.495971,-5.50819 -0.636981,-1.13643 -0.67497,-2.4795 -0.664559,-3.74964 z"
       id="path7516" />
    <path
       style="opacity:0.75;fill:#2979ff;stroke-width:1.5;paint-order:markers fill stroke"
       d="m 23.657469,133.83472 c -0.265059,0.58728 -0.454588,1.2001 -0.62425,1.82004 0.01196,-0.0585 0.02408,-0.11708 0.03566,-0.1757 -0.178478,0.65488 -0.349252,1.31166 -0.519348,1.96887 -0.02406,0.0822 -0.04703,0.16475 -0.07235,0.2465 -0.522982,1.87729 -1.048225,3.83523 -0.777213,5.79861 0.277124,1.70191 0.993615,3.45519 2.457731,4.46898 0.799481,0.54419 2.256192,0.74518 2.256192,0.74518 l 0.988571,-3.3998 c 0,0 -1.14808,-0.52437 -1.747181,-0.84852 -1.050044,-0.64549 -1.903505,-1.60529 -2.355411,-2.75797 -0.571402,-1.37041 -0.789136,-2.88625 -0.568441,-4.3584 0.0021,-0.0197 0.005,-0.0392 0.0072,-0.0589 0.01958,-0.0716 0.03749,-0.14348 0.05271,-0.21652 0.288706,-1.07747 0.577406,-2.1549 0.866098,-3.23236 z"
       id="path8243" />
    <path
       style="opacity:0.75;fill:#2979ff;stroke-width:1.5;paint-order:markers fill stroke"
       d="m 45.06805,122.36721 c -0.342394,1.27784 -0.684416,2.55551 -1.026811,3.83336 -0.08368,1.71928 0.217525,3.57297 1.442805,4.86946 0.689216,0.92604 1.412634,1.60405 1.748732,2.44585 -1.093396,2.02004 -2.463602,4.27244 -4.029729,5.4684 -2.591157,3.00523 -9.375944,4.67116 -11.727965,5.38055 0.1071,1.27546 -0.569402,2.37081 -1.126549,3.45715 2.991922,-0.53703 5.808816,-1.75457 8.582422,-2.9564 3.020081,-1.43077 5.586391,-3.80525 7.152537,-6.766 0.566351,-0.87241 1.023091,-1.79664 1.247984,-2.81792 0.04016,-0.15924 0.08991,-0.34448 0.142629,-0.5395 0.234169,-0.8507 0.505849,-1.69746 0.667141,-2.56057 0.04948,-0.23386 0.08244,-0.42895 0.08733,-0.55655 0.03134,-2.12 -1.33523,-3.86546 -2.495971,-5.50819 -0.636981,-1.13643 -0.67497,-2.4795 -0.664559,-3.74964 z"
       id="path3956" />
    <path
       id="path6818"
       style="opacity:0.75;fill:#2979ff;stroke-width:1.5;paint-order:markers fill stroke"
       d="m 45.789053,117.83521 c -0.02169,-0.71858 0.35851,-2.64364 0.302028,-2.61833 -0.281876,1.06034 -0.55567,2.12282 -0.840108,3.18249 0.186758,-1.44515 0.987373,-2.86052 1.012725,-4.27028 -0.974354,0.35233 -1.872128,1.06207 -2.911193,1.39491 -2.886652,1.22777 -5.90429,2.29684 -9.042328,2.6016 -1.549901,0.0975 -3.132595,-0.68709 -3.810327,-2.12144 -0.541333,-0.51415 -0.51482,-2.46241 -0.574857,-2.235 -0.305946,1.08952 -0.987002,3.17422 -1.040726,3.64707 0.349882,-0.78293 0.873775,-2.45563 1.357307,-2.5796 0.03637,1.81628 1.956848,2.59198 3.183581,3.56175 1.283551,0.90553 2.383684,2.31603 2.289481,3.96539 0.105552,1.42405 0.118967,2.8835 -0.274919,4.26868 0.181155,-0.881 0.901204,-3.06646 0.785358,-3.12397 -1.243647,3.14359 -4.06054,5.42605 -7.224634,6.46431 -2.894653,1.09847 -6.254085,1.32176 -9.086779,-0.0799 -0.935433,-0.77806 -1.390082,0.0882 -1.447742,0.94508 -0.220345,0.82234 -0.440691,1.64468 -0.661036,2.46702 2.403264,1.1094 5.132476,1.84504 7.765252,1.16349 3.738476,-0.71953 7.487888,-2.74403 9.231024,-6.27147 0.901298,-1.76352 1.18336,-3.75058 1.729883,-5.63395 0.347773,-1.85872 0.437515,-3.83238 -0.07916,-5.66465 -0.806134,-1.88449 -2.793234,-2.79251 -4.322826,-3.97466 -0.78852,-0.43845 -0.783356,-3.04379 -1.395454,-1.27133 -0.938713,1.9579 -1.460868,4.10331 -1.809627,6.23202 0.04345,2.17113 1.974273,4.33149 4.249735,4.04107 3.010827,-0.13346 5.85374,-1.28246 8.637157,-2.34017 1.216603,-0.54475 2.499034,-1.04303 3.565035,-1.843 0.354711,-0.94615 0.70236,-2.76813 0.910515,-3.24959 -0.628066,2.36115 -1.44169,4.71121 -1.524568,7.17584 0.342412,-1.27777 0.68474,-2.55572 1.027205,-3.83338 z" />
  </g>
</svg>
