<?xml version="1.0" encoding="UTF-8" standalone="no"?>
<!-- Created with Inkscape (http://www.inkscape.org/) -->

<svg
   width="210mm"
   height="297mm"
   viewBox="0 0 210 297"
   version="1.1"
   id="svg2094"
   inkscape:version="1.1 (c68e22c387, 2021-05-23)"
   sodipodi:docname="TIDAK WUJUD.svg"
   xmlns:inkscape="http://www.inkscape.org/namespaces/inkscape"
   xmlns:sodipodi="http://sodipodi.sourceforge.net/DTD/sodipodi-0.dtd"
   xmlns="http://www.w3.org/2000/svg"
   xmlns:svg="http://www.w3.org/2000/svg">
  <sodipodi:namedview
     id="namedview2096"
     pagecolor="#505050"
     bordercolor="#eeeeee"
     borderopacity="1"
     inkscape:pageshadow="0"
     inkscape:pageopacity="0"
     inkscape:pagecheckerboard="0"
     inkscape:document-units="mm"
     showgrid="false"
     inkscape:snap-grids="true"
     inkscape:snap-global="true"
     inkscape:snap-bbox="true"
     inkscape:zoom="0.15748205"
     inkscape:cx="-2476.4728"
     inkscape:cy="552.44393"
     inkscape:window-width="1366"
     inkscape:window-height="705"
     inkscape:window-x="-8"
     inkscape:window-y="-8"
     inkscape:window-maximized="1"
     inkscape:current-layer="layer1" />
  <defs
     id="defs2091">
    <rect
       x="1425.9823"
       y="412.80341"
       width="483.46786"
       height="94.264372"
       id="rect44891" />
  </defs>
  <g
     inkscape:label="Layer 1"
     inkscape:groupmode="layer"
     id="layer1">
    <rect
       style="fill:#eff8f7;fill-opacity:1;stroke:none;stroke-width:1.10152;stroke-linejoin:round;stroke-dasharray:13.2183, 1.10152;paint-order:markers fill stroke"
       id="rect225233"
       width="285.75"
       height="635"
       x="-373.358"
       y="-194.21877"
       inkscape:export-filename="D:\Niskala's Void\Project\Design\PRPM\tidak wujud.png"
       inkscape:export-xdpi="96"
       inkscape:export-ydpi="96" />
    <rect
       style="display:inline;fill:#d3f1e5;fill-opacity:1;stroke:none;stroke-width:0.478466;stroke-linejoin:round;stroke-dasharray:5.74158, 0.478466;paint-order:markers fill stroke"
       id="rect225235"
       width="285.75"
       height="46.037487"
       x="-373.358"
       y="394.74371" />
    <text
       xml:space="preserve"
       style="font-style:normal;font-variant:normal;font-weight:bold;font-stretch:normal;font-size:9.87778px;line-height:1.25;font-family:Lato;-inkscape-font-specification:'Lato Bold';text-align:end;letter-spacing:0.105833px;direction:ltr;text-anchor:end;display:inline;fill:#13524a;fill-opacity:1;stroke-width:0.409205"
       x="-327.7977"
       y="434.4057"
       id="text225239"><tspan
         id="tspan225237"
         style="font-style:normal;font-variant:normal;font-weight:bold;font-stretch:normal;font-size:9.87778px;font-family:Lato;-inkscape-font-specification:'Lato Bold';direction:ltr;fill:#13524a;fill-opacity:1;stroke-width:0.409205"
         x="-327.69186"
         y="434.4057"
         rotate="0 0 0 0 0 0 0"
         sodipodi:role="line">Carian</tspan></text>
    <text
       xml:space="preserve"
       style="font-style:normal;font-variant:normal;font-weight:normal;font-stretch:normal;font-size:9.87778px;line-height:1.25;font-family:Lateef;-inkscape-font-specification:Lateef;text-align:start;letter-spacing:0.105833px;direction:ltr;text-anchor:start;display:inline;fill:#656e6b;fill-opacity:1;stroke-width:0.409205"
       x="-312.11911"
       y="434.45361"
       id="text225243"><tspan
         sodipodi:role="line"
         id="tspan225241"
         style="font-style:normal;font-variant:normal;font-weight:normal;font-stretch:normal;font-size:9.87778px;font-family:Lato;-inkscape-font-specification:Lato;text-align:start;direction:ltr;text-anchor:start;fill:#656e6b;fill-opacity:1;stroke-width:0.409205"
         x="-312.11911"
         y="434.45361"
         rotate="0 0 0 0 0 0 0 0 0 0">Kegemaran</tspan></text>
    <text
       xml:space="preserve"
       style="font-style:normal;font-variant:normal;font-weight:normal;font-stretch:normal;font-size:9.87778px;line-height:1.25;font-family:Lateef;-inkscape-font-specification:Lateef;text-align:start;letter-spacing:0.105833px;direction:ltr;text-anchor:start;display:inline;fill:#656e6b;fill-opacity:1;stroke-width:0.409205"
       x="-247.41368"
       y="434.45361"
       id="text225247"><tspan
         sodipodi:role="line"
         id="tspan225245"
         style="font-style:normal;font-variant:normal;font-weight:normal;font-stretch:normal;font-size:9.87778px;font-family:Lato;-inkscape-font-specification:Lato;text-align:start;direction:ltr;text-anchor:start;fill:#656e6b;fill-opacity:1;stroke-width:0.409205"
         x="-247.41368"
         y="434.45361"
         rotate="0 0 0 0 0 0 0 0">Sejarah</tspan></text>
    <text
       xml:space="preserve"
       style="font-style:normal;font-variant:normal;font-weight:normal;font-stretch:normal;font-size:9.87778px;line-height:1.25;font-family:Lateef;-inkscape-font-specification:Lateef;text-align:end;letter-spacing:0.105833px;direction:ltr;text-anchor:end;display:inline;fill:#656e6b;fill-opacity:1;stroke-width:0.409205"
       x="-137.14513"
       y="434.05621"
       id="text225251"><tspan
         sodipodi:role="line"
         id="tspan225249"
         style="font-style:normal;font-variant:normal;font-weight:normal;font-stretch:normal;font-size:9.87778px;font-family:Lato;-inkscape-font-specification:Lato;text-align:start;direction:ltr;text-anchor:start;fill:#656e6b;fill-opacity:1;stroke-width:0.409205"
         x="-137.14513"
         y="434.05621"
         rotate="0 0 0 0 0 0 0 0">Tetapan</tspan></text>
    <text
       xml:space="preserve"
       style="font-style:normal;font-variant:normal;font-weight:normal;font-stretch:normal;font-size:9.87778px;line-height:0.85em;font-family:Lato;-inkscape-font-specification:Lato;text-align:center;letter-spacing:0.105833px;direction:ltr;text-anchor:middle;display:inline;fill:#656e6b;fill-opacity:1;stroke-width:0.409205"
       x="-175.75743"
       y="434.45361"
       id="text225257"><tspan
         sodipodi:role="line"
         style="font-style:normal;font-variant:normal;font-weight:normal;font-stretch:normal;font-size:9.87778px;font-family:Lato;-inkscape-font-specification:Lato;text-align:center;direction:ltr;text-anchor:middle;fill:#656e6b;fill-opacity:1;stroke-width:0.409205"
         x="-175.70457"
         y="434.45361"
         rotate="0 0 0 0 0 0 0 0 0 0 0 0 0 0 0"
         id="tspan225255"><tspan
           rotate="0 0 0 0 0 0 0 0"
           id="tspan225253"
           style="font-style:normal;font-variant:normal;font-weight:normal;font-stretch:normal;font-size:9.87778px;font-family:Lato;-inkscape-font-specification:Lato;text-align:center;direction:ltr;text-anchor:middle;fill:#656e6b;fill-opacity:1;stroke-width:0.409205">Penukar</tspan></tspan></text>
    <g
       id="g225269"
       transform="translate(-717.43542,-192.68583)"
       style="display:inline">
      <rect
         style="display:inline;fill:#abe5d9;fill-opacity:1;stroke-width:0.529696;stroke-linejoin:round;stroke-dasharray:6.35635, 0.529696;paint-order:markers fill stroke"
         id="rect225267"
         width="44.979168"
         height="23.812513"
         x="352.41013"
         y="592.19208"
         ry="11.906257" />
    </g>
    <g
       style="display:inline;fill:#000000"
       id="g225275"
       transform="matrix(0.66145836,0,0,0.66145836,-294.7783,403.475)">
      <path
         d="M 0,0 H 24 V 24 H 0 Z"
         fill="none"
         id="path225271" />
      <path
         d="M 16.5,3 C 14.76,3 13.09,3.81 12,5.09 10.91,3.81 9.24,3 7.5,3 4.42,3 2,5.42 2,8.5 c 0,3.78 3.4,6.86 8.55,11.54 L 12,21.35 13.45,20.03 C 18.6,15.36 22,12.28 22,8.5 22,5.42 19.58,3 16.5,3 Z m -4.4,15.55 -0.1,0.1 -0.1,-0.1 C 7.14,14.24 4,11.39 4,8.5 4,6.5 5.5,5 7.5,5 c 1.54,0 3.04,0.99 3.57,2.36 h 1.87 C 13.46,5.99 14.96,5 16.5,5 c 2,0 3.5,1.5 3.5,3.5 0,2.89 -3.14,5.74 -7.9,10.05 z"
         id="path225273"
         style="fill:#656e6b;fill-opacity:1" />
    </g>
    <g
       style="display:inline;fill:#000000"
       id="g225281"
       transform="matrix(0.66145836,0,0,0.66145836,-239.0835,403.475)">
      <path
         d="M 0,0 H 24 V 24 H 0 Z"
         fill="none"
         id="path225277" />
      <path
         d="M 11.99,2 C 6.47,2 2,6.48 2,12 2,17.52 6.47,22 11.99,22 17.52,22 22,17.52 22,12 22,6.48 17.52,2 11.99,2 Z M 12,20 C 7.58,20 4,16.42 4,12 4,7.58 7.58,4 12,4 c 4.42,0 8,3.58 8,8 0,4.42 -3.58,8 -8,8 z M 12.5,7 H 11 v 6 l 5.25,3.15 0.75,-1.23 -4.5,-2.67 z"
         id="path225279"
         style="fill:#656e6b;fill-opacity:1" />
    </g>
    <g
       style="display:inline;fill:#000000"
       id="g225287"
       transform="matrix(0.66145836,0,0,0.66145836,-127.6938,403.475)">
      <path
         d="M 0,0 H 24 V 24 H 0 Z"
         fill="none"
         id="path225283" />
      <path
         d="m 19.43,12.98 c 0.04,-0.32 0.07,-0.64 0.07,-0.98 0,-0.34 -0.03,-0.66 -0.07,-0.98 l 2.11,-1.65 c 0.19,-0.15 0.24,-0.42 0.12,-0.64 l -2,-3.46 C 19.57,5.11 19.4,5.02 19.22,5.02 c -0.06,0 -0.12,0.01 -0.17,0.03 l -2.49,1 C 16.04,5.65 15.48,5.32 14.87,5.07 L 14.49,2.42 C 14.46,2.18 14.25,2 14,2 H 10 C 9.75,2 9.54,2.18 9.51,2.42 L 9.13,5.07 C 8.52,5.32 7.96,5.66 7.44,6.05 l -2.49,-1 C 4.89,5.03 4.83,5.02 4.77,5.02 4.6,5.02 4.43,5.11 4.34,5.27 l -2,3.46 C 2.21,8.95 2.27,9.22 2.46,9.37 l 2.11,1.65 C 4.53,11.34 4.5,11.67 4.5,12 c 0,0.33 0.03,0.66 0.07,0.98 l -2.11,1.65 c -0.19,0.15 -0.24,0.42 -0.12,0.64 l 2,3.46 c 0.09,0.16 0.26,0.25 0.44,0.25 0.06,0 0.12,-0.01 0.17,-0.03 l 2.49,-1 c 0.52,0.4 1.08,0.73 1.69,0.98 l 0.38,2.65 C 9.54,21.82 9.75,22 10,22 h 4 c 0.25,0 0.46,-0.18 0.49,-0.42 l 0.38,-2.65 c 0.61,-0.25 1.17,-0.59 1.69,-0.98 l 2.49,1 c 0.06,0.02 0.12,0.03 0.18,0.03 0.17,0 0.34,-0.09 0.43,-0.25 l 2,-3.46 c 0.12,-0.22 0.07,-0.49 -0.12,-0.64 z m -1.98,-1.71 c 0.04,0.31 0.05,0.52 0.05,0.73 0,0.21 -0.02,0.43 -0.05,0.73 l -0.14,1.13 0.89,0.7 1.08,0.84 -0.7,1.21 -1.27,-0.51 -1.04,-0.42 -0.9,0.68 c -0.43,0.32 -0.84,0.56 -1.25,0.73 L 13.06,17.52 12.9,18.65 12.7,20 H 11.3 L 11.11,18.65 10.95,17.52 9.89,17.09 C 9.46,16.91 9.06,16.68 8.66,16.38 L 7.75,15.68 6.69,16.11 5.42,16.62 4.72,15.41 5.8,14.57 6.69,13.87 6.55,12.74 C 6.52,12.43 6.5,12.2 6.5,12 6.5,11.8 6.52,11.57 6.55,11.27 L 6.69,10.14 5.8,9.44 4.72,8.6 5.42,7.39 6.69,7.9 7.73,8.32 8.63,7.64 C 9.06,7.32 9.47,7.08 9.88,6.91 L 10.94,6.48 11.1,5.35 11.3,4 h 1.39 l 0.19,1.35 0.16,1.13 1.06,0.43 c 0.43,0.18 0.83,0.41 1.23,0.71 l 0.91,0.7 1.06,-0.43 1.27,-0.51 0.7,1.21 -1.07,0.85 -0.89,0.7 z M 12,8 c -2.21,0 -4,1.79 -4,4 0,2.21 1.79,4 4,4 2.21,0 4,-1.79 4,-4 0,-2.21 -1.79,-4 -4,-4 z m 0,6 c -1.1,0 -2,-0.9 -2,-2 0,-1.1 0.9,-2 2,-2 1.1,0 2,0.9 2,2 0,1.1 -0.9,2 -2,2 z"
         id="path225285"
         style="fill:#656e6b;fill-opacity:1" />
    </g>
    <g
       style="display:inline;fill:#13524a;fill-opacity:1"
       id="g225291"
       transform="matrix(0.29202876,0,0,0.29202876,-351.582,406.45059)">
      <path
         d="M 42.648742,24 H 40.193324 L 39.32305,23.160806 c 3.045961,-3.543261 4.879754,-8.143284 4.879754,-13.147364 0,-11.1581642 -9.04464,-20.202804 -20.202804,-20.202804 -11.158165,0 -20.2028054,9.0446398 -20.2028054,20.202804 0,11.158165 9.0446404,20.202805 20.2028054,20.202805 5.004079,0 9.604102,-1.833793 13.147363,-4.879754 l 0.839194,0.870274 v 2.455418 L 53.527175,44.171723 58.15828,39.540618 Z M 24,24 C 16.260771,24 10.013443,17.752671 10.013443,10.013442 10.013443,2.274214 16.260771,-3.9731148 24,-3.9731148 c 7.739228,0 13.986557,6.2473288 13.986557,13.9865568 C 37.986557,17.752671 31.739228,24 24,24 Z"
         id="path225289"
         style="fill:#13524a;fill-opacity:1;stroke-width:3.10812" />
    </g>
    <text
       xml:space="preserve"
       style="font-style:normal;font-variant:normal;font-weight:normal;font-stretch:normal;font-size:12.1727px;line-height:0.85;font-family:'Droid Arabic Kufi';-inkscape-font-specification:'Droid Arabic Kufi';text-align:center;direction:ltr;text-anchor:middle;display:inline;fill:#656e6b;fill-opacity:1;stroke:none;stroke-width:0.257175;stroke-miterlimit:4;stroke-dasharray:none"
       x="-175.45128"
       y="413.35907"
       id="text225295"><tspan
         sodipodi:role="line"
         style="font-style:normal;font-variant:normal;font-weight:normal;font-stretch:normal;font-size:12.1727px;font-family:'Droid Arabic Kufi';-inkscape-font-specification:'Droid Arabic Kufi';text-align:center;direction:ltr;text-anchor:middle;fill:#656e6b;fill-opacity:1;stroke:none;stroke-width:0.257175;stroke-miterlimit:4;stroke-dasharray:none"
         x="-175.45128"
         y="413.35907"
         rotate="0 0 0 0 0 0 0 0 0 0 0 0"
         id="tspan225293">جاوي</tspan></text>
    <rect
       style="display:inline;fill:#eff8f7;fill-opacity:1;stroke:none;stroke-width:0.461864;stroke-linejoin:round;stroke-dasharray:5.54235, 0.461864;paint-order:markers fill stroke"
       id="rect225297"
       width="285.75"
       height="42.898067"
       x="-373.358"
       y="-166.02849" />
    <g
       id="g248845"
       transform="translate(-1717.296,-192.68584)">
      <rect
         style="fill:#d3f1e5;fill-opacity:1;stroke-width:1.76408;stroke-linejoin:round;paint-order:markers fill stroke"
         id="rect225311"
         width="272.58353"
         height="31.424963"
         x="1350.5211"
         y="32.045486"
         ry="15.712481" />
      <path
         d="m 1371.9975,49.202119 h -0.5335 l -0.1891,-0.182319 c 0.6618,-0.769791 1.0602,-1.76917 1.0602,-2.856331 0,-2.424168 -1.965,-4.389161 -4.3892,-4.389161 -2.4241,0 -4.3891,1.964993 -4.3891,4.389161 0,2.424167 1.965,4.389161 4.3891,4.389161 1.0872,0 2.0866,-0.398401 2.8564,-1.060151 l 0.1823,0.189071 v 0.533452 l 3.3762,3.369525 1.0062,-1.00613 z m -4.0516,0 c -1.6814,0 -3.0386,-1.357264 -3.0386,-3.03865 0,-1.681387 1.3572,-3.03865 3.0386,-3.03865 1.6814,0 3.0387,1.357263 3.0387,3.03865 0,1.681386 -1.3573,3.03865 -3.0387,3.03865 z"
         id="path225317"
         style="display:inline;fill:#13524a;fill-opacity:1;stroke-width:0.675255" />
      <text
         xml:space="preserve"
         style="font-style:normal;font-variant:normal;font-weight:normal;font-stretch:normal;font-size:11.2889px;line-height:1.25;font-family:Lato;-inkscape-font-specification:Lato;text-align:start;direction:ltr;text-anchor:start;display:inline;opacity:0.75;fill:#13524a;fill-opacity:1;stroke-width:0.204313"
         x="1387.2429"
         y="51.736431"
         id="text372013"><tspan
           sodipodi:role="line"
           id="tspan372011"
           style="font-style:normal;font-variant:normal;font-weight:normal;font-stretch:normal;font-size:11.2889px;font-family:Lato;-inkscape-font-specification:Lato;text-align:start;direction:ltr;text-anchor:start;fill:#13524a;fill-opacity:1;stroke-width:0.204313"
           x="1387.2429"
           y="51.736431">aplikasi ini tidak wujud</tspan></text>
    </g>
    <rect
       style="fill:#eff8f7;fill-opacity:1;stroke:none;stroke-width:0.941688;stroke-linejoin:round;stroke-dasharray:11.3003, 0.941688;paint-order:markers fill stroke"
       id="rect225457"
       width="285.75"
       height="464.09116"
       x="-373.358"
       y="-94.398262" />
    <rect
       style="fill:#d3f1e5;fill-opacity:1;stroke:none;stroke-width:0.820494;stroke-linejoin:round;stroke-dasharray:9.84605, 0.820494;paint-order:markers fill stroke"
       id="rect225497"
       width="271.14716"
       height="371.29663"
       x="-365.95139"
       y="-94.735428"
       ry="27.168041" />
    <rect
       style="fill:#d3f1e5;fill-opacity:1;stroke:none;stroke-width:0.478705;stroke-linejoin:round;stroke-dasharray:5.74453, 0.478705;paint-order:markers fill stroke"
       id="rect242928"
       width="231.293"
       height="148.16666"
       x="-346.90146"
       y="-82.035423"
       ry="10.841461" />
    <text
       xml:space="preserve"
       style="font-style:normal;font-variant:normal;font-weight:normal;font-stretch:normal;font-size:11.2889px;line-height:1.25;font-family:Lato;-inkscape-font-specification:Lato;text-align:start;direction:ltr;text-anchor:start;white-space:pre;inline-size:232.596;fill:#656e6b;stroke-width:0.0540578"
       x="1142.6979"
       y="237.29724"
       id="text392955"
       transform="translate(-1817.1995,-176.37426)"><tspan
         x="1142.6979"
         y="237.29724"
         id="tspan67629">memberi perincian ini pd suatu ketentuan atas; </tspan><tspan
         x="1142.6979"
         y="251.40838"
         id="tspan67631">peniskalaan perihal, proses atau perbuatan </tspan><tspan
         x="1142.6979"
         y="265.51951"
         id="tspan67633">meniskalakan. (Kamus Dewan Edisi Keempat)</tspan></text>
    <text
       xml:space="preserve"
       style="font-style:normal;font-variant:normal;font-weight:bold;font-stretch:normal;font-size:19.7556px;line-height:1.25;font-family:Lato;-inkscape-font-specification:'Lato Bold';text-align:start;direction:ltr;text-anchor:start;display:inline;fill:#13524a;fill-opacity:1;stroke-width:0.204313"
       x="-347.12875"
       y="-67.485443"
       id="text248849"><tspan
         sodipodi:role="line"
         id="tspan248847"
         style="font-style:normal;font-variant:normal;font-weight:bold;font-stretch:normal;font-size:19.7556px;font-family:Lato;-inkscape-font-specification:'Lato Bold';text-align:start;direction:ltr;text-anchor:start;fill:#13524a;fill-opacity:1;stroke-width:0.204313"
         x="-347.12875"
         y="-67.485443"
         rotate="0 0 0 0 0 0">Wujud //</tspan></text>
    <text
       xml:space="preserve"
       style="font-style:normal;font-variant:normal;font-weight:bold;font-stretch:normal;font-size:19.7556px;line-height:1.25;font-family:'Droid Arabic Kufi';-inkscape-font-specification:'Droid Arabic Kufi Bold';text-align:end;direction:ltr;text-anchor:end;display:inline;fill:#13524a;fill-opacity:1;stroke-width:0.204313"
       x="-219.19579"
       y="-66.948616"
       id="text252999"><tspan
         sodipodi:role="line"
         id="tspan252997"
         style="font-style:normal;font-variant:normal;font-weight:bold;font-stretch:normal;font-size:19.7556px;font-family:'Droid Arabic Kufi';-inkscape-font-specification:'Droid Arabic Kufi Bold';direction:ltr;fill:#13524a;fill-opacity:1;stroke-width:0.204313"
         x="-219.19579"
         y="-66.948616">وجود</tspan></text>
    <text
       xml:space="preserve"
       style="font-style:normal;font-variant:normal;font-weight:normal;font-stretch:normal;font-size:8.46667px;line-height:1.25;font-family:Lato;-inkscape-font-specification:Lato;text-align:start;direction:ltr;text-anchor:start;display:inline;fill:#656e6b;fill-opacity:1;stroke-width:0.204313"
       x="-346.85068"
       y="-49.923923"
       id="text257315"><tspan
         sodipodi:role="line"
         id="tspan257313"
         style="font-style:normal;font-variant:normal;font-weight:normal;font-stretch:normal;font-size:8.46667px;font-family:Lato;-inkscape-font-specification:Lato;text-align:start;direction:ltr;text-anchor:start;fill:#656e6b;fill-opacity:1;stroke-width:0.204313"
         x="-346.85068"
         y="-49.923923">/wu.jud/</tspan></text>
    <text
       xml:space="preserve"
       style="font-style:normal;font-variant:normal;font-weight:normal;font-stretch:normal;font-size:11.2889px;line-height:1.25;font-family:Lato;-inkscape-font-specification:Lato;text-align:start;direction:ltr;text-anchor:start;white-space:pre;inline-size:232.596;fill:#656e6b;stroke-width:0.0540578"
       x="1142.6979"
       y="237.29724"
       id="text12203"
       transform="translate(-1490.4228,-263.06501)"><tspan
         x="1142.6979"
         y="237.29724"
         id="tspan67641">1. <tspan
   style="fill:#13524a"
   id="tspan67635">ada</tspan> (sesuatu), <tspan
   style="fill:#13524a"
   id="tspan67637">sedia ada</tspan>; 2. <tspan
   style="fill:#13524a"
   id="tspan67639">sesuatu yg ada </tspan></tspan><tspan
         x="1142.6979"
         y="251.40838"
         id="tspan67645"><tspan
   style="fill:#13524a"
   id="tspan67643">bentuknya</tspan> (dapat dilihat, dipegang, dll); 3. </tspan><tspan
         x="1142.6979"
         y="265.51951"
         id="tspan67651"><tspan
   style="fill:#13524a"
   id="tspan67647">benda yg nyata</tspan> (bukan roh dll), <tspan
   style="fill:#13524a"
   id="tspan67649">rupa dll yg </tspan></tspan><tspan
         x="1142.6979"
         y="279.63064"
         id="tspan67659"><tspan
   style="fill:#13524a"
   id="tspan67653">dapat dilihat</tspan>; <tspan
   style="fill:#13524a"
   id="tspan67655">berwujud</tspan> 1. <tspan
   style="fill:#13524a"
   id="tspan67657">memang ada</tspan> (boleh </tspan><tspan
         x="1142.6979"
         y="293.74175"
         id="tspan67661">dipandang, dipegang, dll), berupa benda yg </tspan><tspan
         x="1142.6979"
         y="307.85286"
         id="tspan67669">nyata; 2. <tspan
   style="fill:#13524a"
   id="tspan67663">konkrit</tspan>, <tspan
   style="fill:#13524a"
   id="tspan67665">maujud</tspan>, <tspan
   style="fill:#13524a"
   id="tspan67667">nyata</tspan>; mewujudkan 1. </tspan><tspan
         x="1142.6979"
         y="321.96398"
         id="tspan67671">menjadikan berwujud (berbentuk, berupa, dll), </tspan><tspan
         x="1142.6979"
         y="336.07509"
         id="tspan67673">mengadakan: kadang kadang amanah </tspan><tspan
         x="1142.6979"
         y="350.18621"
         id="tspan67675">diwujudkan melalui perjanjian secara lisan di </tspan><tspan
         x="1142.6979"
         y="364.29732"
         id="tspan67679">kalangan keluarga; 2. <tspan
   style="fill:#13524a"
   id="tspan67677">melaksanakan</tspan> (cita-cita </tspan><tspan
         x="1142.6979"
         y="378.40844"
         id="tspan67683">dll); 3. <tspan
   style="fill:#13524a"
   id="tspan67681">menerangkan</tspan> (memperlihatkan) dgn </tspan><tspan
         x="1142.6979"
         y="392.51955"
         id="tspan67685">benda yg nyata; terwujud sudah diwujudkan </tspan><tspan
         x="1142.6979"
         y="406.63067"
         id="tspan67687">(dilaksanakan): ada suatu waktu ketika alam </tspan><tspan
         x="1142.6979"
         y="420.74178"
         id="tspan67689">belum lagi ~; kewujudan perihal wujud </tspan><tspan
         x="1142.6979"
         y="434.85289"
         id="tspan67691">(sesuatu), adanya (sesuatu); perwujudan 1. </tspan><tspan
         x="1142.6979"
         y="448.96401"
         id="tspan67695"><tspan
           dx="0 0 0 0 0 0 0 0 0 0 0 0 0 0 0 0 0 0 0 0 0 0 0 0 0 0 0 4.5494232"
           id="tspan67693">bentuk atau rupa (yg benar­benar dapat dilihat </tspan></tspan><tspan
         x="1142.6979"
         y="463.07512"
         id="tspan67699">dll); 2. <tspan
   style="fill:#13524a"
   id="tspan67697">sesuatu yg berwujud</tspan> (kelihatan dlm </tspan><tspan
         x="1142.6979"
         y="477.18624"
         id="tspan67703">mimpi dll); 3. <tspan
   style="fill:#13524a"
   id="tspan67701">sesuatu yg konkrit</tspan> (maujud, </tspan><tspan
         x="1142.6979"
         y="491.29735"
         id="tspan67707">nyata); 4. <tspan
   style="fill:#13524a"
   id="tspan67705">pelaksanaan</tspan> (cita-cita dll); pewujudan </tspan><tspan
         x="1142.6979"
         y="505.40847"
         id="tspan67709">perbuatan atau proses mewujudkan. (Kamus </tspan><tspan
         x="1142.6979"
         y="519.51958"
         id="tspan67711">Dewan Edisi Keempat)</tspan></text>
    <text
       xml:space="preserve"
       transform="matrix(0.5364582,0,0,0.52201714,-1119.7473,130.04564)"
       id="text44889"
       style="font-style:normal;font-variant:normal;font-weight:bold;font-stretch:normal;font-size:21.3325px;line-height:1.25;font-family:Lato;-inkscape-font-specification:'Lato Bold';text-align:start;direction:ltr;white-space:pre;shape-inside:url(#rect44891);display:inline;fill:#656e6b;fill-opacity:1"
       x="-36.937187"
       y="0"><tspan
         x="1425.9824"
         y="432.64196"
         id="tspan67713">Aplikasi ini tidak wujud, ini hanyalah reka bentuk</tspan></text>
    <path
       d="m -230.48296,317.81684 c -0.58515,0 -1.17031,0.22249 -1.65014,0.69047 l -9.36258,9.36258 c -0.92455,0.91283 -0.92455,2.38745 0,3.30028 l 9.36258,9.36258 c 0.91283,0.92455 2.38745,0.92455 3.30028,0 l 9.36258,-9.36258 c 0.92455,-0.91283 0.92455,-2.38745 0,-3.30028 l -9.36258,-9.36258 c -0.47984,-0.46811 -1.06499,-0.69047 -1.65014,-0.69047 m 0,2.34061 9.36258,9.36258 -9.36258,9.36258 -9.36258,-9.36258 m 8.19227,-5.85162 v 7.02193 h 2.34061 v -7.02193 m -2.34061,9.36258 v 2.34066 h 2.34061 v -2.34066 z"
       id="path34953"
       style="stroke-width:1.17032;fill:#656e6b;fill-opacity:1" />
    <text
       xml:space="preserve"
       style="font-style:normal;font-variant:normal;font-weight:normal;font-stretch:normal;font-size:11.2889px;line-height:1.25;font-family:Lato;-inkscape-font-specification:Lato;text-align:start;direction:ltr;text-anchor:start;white-space:pre;inline-size:232.596;fill:#656e6b;stroke-width:0.0540578"
       x="1142.6979"
       y="237.29724"
       id="text939"
       transform="translate(-1200.608,-263.06501)"><tspan
         x="1142.6979"
         y="237.29724"
         id="tspan67715">1. ada (sesuatu), sedia ada; 2. sesuatu yg ada </tspan><tspan
         x="1142.6979"
         y="251.40838"
         id="tspan67717">bentuknya (dapat dilihat, dipegang, dll); 3. </tspan><tspan
         x="1142.6979"
         y="265.51951"
         id="tspan67719">benda yg nyata (bukan roh dll), rupa dll yg </tspan><tspan
         x="1142.6979"
         y="279.63064"
         id="tspan67721">dapat dilihat; berwujud 1. memang ada (boleh </tspan><tspan
         x="1142.6979"
         y="293.74175"
         id="tspan67723">dipandang, dipegang, dll), berupa benda yg </tspan><tspan
         x="1142.6979"
         y="307.85286"
         id="tspan67725">nyata; 2. konkrit, maujud, nyata; mewujudkan 1. </tspan><tspan
         x="1142.6979"
         y="321.96398"
         id="tspan67727">menjadikan berwujud (berbentuk, berupa, dll), </tspan><tspan
         x="1142.6979"
         y="336.07509"
         id="tspan67729">mengadakan: kadang kadang amanah </tspan><tspan
         x="1142.6979"
         y="350.18621"
         id="tspan67731">diwujudkan melalui perjanjian secara lisan di </tspan><tspan
         x="1142.6979"
         y="364.29732"
         id="tspan67733">kalangan keluarga; 2. melaksanakan (cita-cita </tspan><tspan
         x="1142.6979"
         y="378.40844"
         id="tspan67735">dll); 3. menerangkan (memperlihatkan) dgn </tspan><tspan
         x="1142.6979"
         y="392.51955"
         id="tspan67737">benda yg nyata; terwujud sudah diwujudkan </tspan><tspan
         x="1142.6979"
         y="406.63067"
         id="tspan67739">(dilaksanakan): ada suatu waktu ketika alam </tspan><tspan
         x="1142.6979"
         y="420.74178"
         id="tspan67741">belum lagi ~; kewujudan perihal wujud </tspan><tspan
         x="1142.6979"
         y="434.85289"
         id="tspan67743">(sesuatu), adanya (sesuatu); perwujudan 1. </tspan><tspan
         x="1142.6979"
         y="448.96401"
         id="tspan67747"><tspan
           dx="0 0 0 0 0 0 0 0 0 0 0 0 0 0 0 0 0 0 0 0 0 0 0 0 0 0 0 4.5494232"
           id="tspan67745">bentuk atau rupa (yg benar­benar dapat dilihat </tspan></tspan><tspan
         x="1142.6979"
         y="463.07512"
         id="tspan67749">dll); 2. sesuatu yg berwujud (kelihatan dlm </tspan><tspan
         x="1142.6979"
         y="477.18624"
         id="tspan67751">mimpi dll); 3. sesuatu yg konkrit (maujud, </tspan><tspan
         x="1142.6979"
         y="491.29735"
         id="tspan67753">nyata); 4. pelaksanaan (cita-cita dll); pewujudan </tspan><tspan
         x="1142.6979"
         y="505.40847"
         id="tspan67755">perbuatan atau proses mewujudkan. (Kamus </tspan><tspan
         x="1142.6979"
         y="519.51958"
         id="tspan67757">Dewan Edisi Keempat)</tspan></text>
  </g>
</svg>
