<?xml version="1.0" encoding="UTF-8" standalone="no"?>
<!-- Created with Inkscape (http://www.inkscape.org/) -->

<svg
   width="1920"
   height="1080"
   viewBox="0 0 508 285.75"
   version="1.1"
   id="svg5"
   inkscape:version="1.2.1 (9c6d41e410, 2022-07-14)"
   sodipodi:docname="laila.svg"
   xml:space="preserve"
   xmlns:inkscape="http://www.inkscape.org/namespaces/inkscape"
   xmlns:sodipodi="http://sodipodi.sourceforge.net/DTD/sodipodi-0.dtd"
   xmlns:xlink="http://www.w3.org/1999/xlink"
   xmlns="http://www.w3.org/2000/svg"
   xmlns:svg="http://www.w3.org/2000/svg"><sodipodi:namedview
     id="namedview7"
     pagecolor="#505050"
     bordercolor="#eeeeee"
     borderopacity="1"
     inkscape:showpageshadow="0"
     inkscape:pageopacity="0"
     inkscape:pagecheckerboard="0"
     inkscape:deskcolor="#505050"
     inkscape:document-units="mm"
     showgrid="true"
     inkscape:zoom="0.4204826"
     inkscape:cx="57.077272"
     inkscape:cy="1007.176"
     inkscape:window-width="1920"
     inkscape:window-height="1053"
     inkscape:window-x="-9"
     inkscape:window-y="-9"
     inkscape:window-maximized="1"
     inkscape:current-layer="layer2" /><defs
     id="defs2"><linearGradient
       inkscape:collect="always"
       id="linearGradient32519"><stop
         style="stop-color:#b6d5e6;stop-opacity:1;"
         offset="0"
         id="stop32515" /><stop
         style="stop-color:#93c2e1;stop-opacity:0;"
         offset="1"
         id="stop32517" /></linearGradient><rect
       x="517.85733"
       y="141.50407"
       width="34.484185"
       height="52.320833"
       id="rect31701" /><clipPath
       clipPathUnits="userSpaceOnUse"
       id="clipPath5527"><rect
         style="fill:#e5f3ff;fill-opacity:1;stroke-width:1;stroke-linecap:round;stroke-linejoin:round;stroke-miterlimit:5;paint-order:stroke markers fill"
         id="rect5529"
         width="508"
         height="285.75"
         x="0"
         y="0"
         rx="0.078654639"
         ry="2.6458342" /></clipPath><style
       id="style30513">.cls-1{fill:#4cc2f1;}.cls-2{fill:none;}</style><linearGradient
       inkscape:collect="always"
       xlink:href="#linearGradient32519"
       id="linearGradient32521"
       x1="492.80917"
       y1="-99.509163"
       x2="416.27914"
       y2="92.133553"
       gradientUnits="userSpaceOnUse" /><style
       id="style49896">.cls-1{fill:#9fd6e3;}.cls-2{fill:none;}</style></defs><g
     inkscape:label="BG"
     inkscape:groupmode="layer"
     id="layer1"
     style="display:inline"><rect
       style="fill:#e5f3ff;fill-opacity:1;stroke-width:1;stroke-linecap:round;stroke-linejoin:round;stroke-miterlimit:5;paint-order:stroke markers fill"
       id="rect5531"
       width="508"
       height="285.75"
       x="0"
       y="0"
       rx="0.078654639"
       ry="2.645834" /><rect
       style="opacity:1;fill:url(#linearGradient32521);fill-opacity:1;stroke:none;stroke-width:1;stroke-linecap:round;stroke-linejoin:round;stroke-miterlimit:5;paint-order:stroke markers fill"
       id="rect32513"
       width="508"
       height="285.75"
       x="0"
       y="0"
       rx="0.078654639"
       ry="2.645834" /><rect
       style="display:inline;opacity:1;fill:#3f49b7;fill-opacity:1;stroke:none;stroke-width:1.20992;stroke-linecap:round;stroke-linejoin:round;stroke-miterlimit:5;paint-order:stroke markers fill"
       id="rect47257"
       width="508"
       height="178.70338"
       x="0"
       y="53.485165" /><image
       width="260.07083"
       height="254.30428"
       preserveAspectRatio="none"
       style="display:inline;image-rendering:optimizeQuality"
       xlink:href="../../../../../Users/Niskala5570/Pictures/GI/Splash/laila.png"
       id="image9912"
       x="226.76248"
       y="15.684719" /><image
       width="508"
       height="285.75"
       preserveAspectRatio="none"
       style="display:inline;opacity:1;image-rendering:optimizeQuality"
       xlink:href="../../../../../Users/Niskala5570/Pictures/Screenshots/Screenshot%202022-10-15%20010143.png"
       id="image48386"
       x="508"
       y="0" /></g><g
     inkscape:groupmode="layer"
     id="layer2"
     inkscape:label="bry"><path
       id="path18361"
       style="opacity:1;fill:#3f49b7;fill-opacity:1;stroke:none;stroke-width:1.74546;stroke-linecap:round;stroke-linejoin:round;stroke-miterlimit:5;paint-order:stroke markers fill"
       d="m -51.322286,86.956597 c -0.0568,-0.694002 -0.26553,-0.806246 -0.43357,-0.466409 -1.02097,2.064809 -1.87071,4.337337 -2.47864,6.544778 -0.26686,3.023372 0.50273,6.163931 1.43062,9.099854 4.79136,13.16654 13.2543,24.567 18.75938,37.40937 2.58948,5.7811 3.99554,12.03209 4.80706,18.2937 -3.42306,-1.59465 -5.74163,-5.00242 -8.22394,-7.75343 -0.96485,2.08986 -2.37131,5.03698 -3.06349,7.37947 -0.5052,3.54095 7.76722,9.37453 9.96865,9.26592 1.77572,-2.02491 2.64559,-4.10592 3.69076,-9.68334 1.04517,-5.57742 -0.41627,-14.08245 -2.23812,-20.79098 -3.30635,-9.79661 -8.79705,-18.64372 -13.71852,-27.68149 -3.97588,-7.00586 -8.34804,-14.942749 -8.50019,-21.617443 z m 19.37051,88.836583 c -6.44306,1.39066 -12.76038,3.30112 -19.01212,5.37566 -0.97613,0.34745 -1.96361,0.7527 -2.87539,1.20044 -0.96952,1.3346 -1.39689,2.97857 -1.88906,4.53253 -0.19776,0.93331 -0.6266,1.93034 -0.37315,2.87942 0.61801,-0.12302 1.27891,-0.56115 1.93255,-0.75973 2.79434,-1.01989 5.65702,-1.84092 8.49508,-2.7286 3.77045,-1.12472 7.59026,-2.12815 11.42826,-2.96075 0.84275,-0.93721 1.16617,-2.21981 1.60697,-3.37664 0.37963,-1.27143 0.85836,-2.56554 0.83084,-3.90845 -0.0176,-0.092 -0.0413,-0.21631 -0.14395,-0.25388 z m -93.456174,-63.73719 c -2.34264,0.005 -3.38209,2.46065 -4.45915,4.15331 -1.59831,3.33791 -3.23578,6.71745 -4.15475,10.31489 -0.12995,0.35924 0.29576,0.48228 0.57849,-0.11369 1.30988,-2.76144 3.45722,-7.57569 6.70326,-6.66815 5.61286,1.26474 9.69868,5.78118 13.0674,10.16138 6.45483,8.45355 10.34156,18.46141 13.825704,28.41503 0.76111,1.24773 1.53257,-1.98892 1.89799,-2.72646 0.58737,-1.74607 1.18013,-2.23853 0.29119,-5.62072 -3.440094,-9.80148 -7.355854,-19.62444 -13.756784,-27.91458 -3.32494,-4.27841 -7.36449,-8.66091 -12.86351,-9.89282 -0.37461,-0.0476 -0.75058,-0.11805 -1.12984,-0.10811 z m 26.335264,-17.883722 c -1.534154,3.382388 -3.173664,7.129072 -1.809304,10.853802 1.895654,5.87049 4.448744,11.51342 6.222804,17.43419 3.12463,9.51376 5.17817,19.86149 2.65812,29.76565 -1.50387,3.09313 -3.44351,7.27329 -5.70991,10.4769 -3.921024,5.83285 -9.059824,10.9979 -15.402994,14.14691 -2.66763,1.18403 -3.8704,1.52993 -4.21036,2.26212 -1.09275,2.3535 -1.39673,4.65698 -1.30071,6.36965 10.18941,-3.10491 17.10814,-12.22343 22.009714,-21.1968 3.88416,-7.90074 6.67509,-16.42475 8.0054,-25.12892 0.45215,-1.42773 1.95654,4.62252 2.91632,6.26057 3.81038,8.79127 7.35804,18.23204 14.53698,24.88426 5.07286,4.69258 13.13189,5.49553 18.91526,1.64356 5.58817,-3.35214 11.14941,-11.10897 13.84854,-16.44173 0.45255,-1.78441 1.45982,-6.97965 0.61486,-5.42229 -3.74598,6.97178 -9.01024,14.1253 -16.9866,16.40712 -7.85726,1.84106 -15.6037,-3.42495 -19.26518,-10.13883 -9.051,-14.359 -13.69089,-30.85653 -19.33973,-46.71475 -1.67018,-5.0483 -3.28994,-10.114108 -5.06983,-15.125335 -0.28552,-0.718875 -0.46661,-0.59045 -0.63338,-0.336077 z" /><text
       xml:space="preserve"
       style="font-size:7.05556px;line-height:0.9;font-family:Calibri;-inkscape-font-specification:Calibri;text-align:end;direction:rtl;text-anchor:end;opacity:1;fill:#3f49b7;fill-opacity:1;stroke:none;stroke-width:1;stroke-linecap:round;stroke-linejoin:round;stroke-miterlimit:5;paint-order:stroke markers fill"
       x="140.31992"
       y="60.092159"
       id="text31707"><tspan
         sodipodi:role="line"
         id="tspan31705"
         style="stroke-width:1"
         x="140.31992"
         y="60.092159" /></text><g
       id="Livello_10"
       data-name="Livello 10"
       transform="matrix(0.26458333,0,0,0.26458333,-121.64032,-39.061929)"><path
         class="cls-1"
         d="m 157.22,11.84 c 0,0 -24.09,53.85 -39,69.77 0.31,-0.11 5.29,-2 11.64,-5.16 5.67,8 27.32,39.91 27.32,62.7 0,-22.79 21.65,-54.73 27.32,-62.7 6.35,3.11 11.33,5 11.64,5.16 C 181.31,65.69 157.22,11.84 157.22,11.84 Z m 0,105.58 A 106.72,106.72 0 0 0 143.71,68.71 c 5.93,-3.88 11.19,-8.34 13.51,-12.91 2.32,4.57 7.58,9 13.51,12.91 a 106.72,106.72 0 0 0 -13.51,48.71 z"
         id="path49900" /><path
         class="cls-1"
         d="m 282.88,84.59 c 0,0 -58.68,6.07 -79.88,1.15 0.25,0.21 4.42,3.56 10.28,7.5 -4.06,8.89 -20.9,43.61 -40.63,55 19.73,-11.4 58.22,-8.62 68,-7.69 0.49,7.05 1.3,12.34 1.36,12.66 6.28,-20.83 40.87,-68.62 40.87,-68.62 z m -91.44,52.79 a 106.58,106.58 0 0 0 35.43,-36 c 6.33,3.19 12.82,5.52 17.94,5.24 -2.8,4.3 -4,11.08 -4.43,18.16 -26.75,0.01 -47.65,11.86 -48.94,12.6 z"
         id="path49902" /><path
         class="cls-1"
         d="m 282.7,229.8 c 0,0 -34.59,-47.8 -40.94,-68.63 -0.06,0.32 -0.87,5.61 -1.35,12.66 -9.74,0.93 -48.22,3.71 -68,-7.69 19.74,11.4 36.57,46.11 40.64,55 -5.87,3.94 -10,7.29 -10.29,7.5 21.24,-4.91 79.94,1.16 79.94,1.16 z M 191.27,177 a 106.79,106.79 0 0 0 48.94,12.65 c 0.39,7.08 1.63,13.86 4.42,18.16 -5.11,-0.28 -11.61,2 -17.93,5.24 A 106.77,106.77 0 0 0 191.27,177 Z"
         id="path49904" /><path
         class="cls-1"
         d="m 156.87,302.24 c 0,0 24.09,-53.85 39,-69.77 -0.31,0.11 -5.29,2.05 -11.64,5.16 -5.67,-8 -27.32,-39.91 -27.32,-62.7 0,22.79 -21.65,54.73 -27.32,62.7 -6.35,-3.11 -11.33,-5 -11.64,-5.16 14.83,15.92 38.92,69.77 38.92,69.77 z m 0,-105.58 a 106.72,106.72 0 0 0 13.51,48.71 c -5.93,3.88 -11.19,8.34 -13.51,12.91 -2.32,-4.57 -7.58,-9 -13.51,-12.91 a 106.72,106.72 0 0 0 13.51,-48.71 z"
         id="path49906" /><path
         class="cls-1"
         d="m 31.21,229.49 c 0,0 58.68,-6.06 79.9,-1.14 -0.25,-0.22 -4.42,-3.56 -10.29,-7.5 4.07,-8.9 20.91,-43.62 40.64,-55 -19.73,11.39 -58.22,8.61 -68,7.69 -0.48,-7.06 -1.29,-12.34 -1.35,-12.66 -6.31,20.83 -40.9,68.61 -40.9,68.61 z m 91.43,-52.79 a 106.74,106.74 0 0 0 -35.43,36.06 c -6.32,-3.2 -12.81,-5.52 -17.93,-5.25 2.8,-4.29 4,-11.08 4.42,-18.15 a 106.73,106.73 0 0 0 48.94,-12.66 z"
         id="path49908" /><path
         class="cls-1"
         d="m 31.38,84.29 c 0,0 34.59,47.79 41,68.63 0.06,-0.33 0.87,-5.61 1.35,-12.66 9.73,-0.93 48.22,-3.71 68,7.69 -19.74,-11.4 -36.58,-46.12 -40.64,-55 5.87,-4 10,-7.29 10.29,-7.5 -21.32,4.9 -80,-1.16 -80,-1.16 z m 91.44,52.79 A 106.65,106.65 0 0 0 73.88,124.43 c -0.4,-7.08 -1.63,-13.86 -4.43,-18.16 5.12,0.28 11.61,-2 17.94,-5.24 a 106.77,106.77 0 0 0 35.43,36.05 z"
         id="path49910" /><circle
         class="cls-1"
         cx="157.22"
         cy="158.05"
         r="5.6500001"
         id="circle49912" /><path
         class="cls-1"
         d="m 153.85,138 2,17.62 -14.29,-10.5 a 15.63,15.63 0 0 1 -6.37,-12 l -0.45,-12.36 a 1,1 0 0 1 1.44,-0.83 l 10.48,6.56 a 15.64,15.64 0 0 1 7.19,11.51 z"
         id="path49914" /><path
         class="cls-1"
         d="m 172.93,145.09 -14.29,10.5 1.94,-17.59 a 15.68,15.68 0 0 1 7.25,-11.55 l 10.48,-6.56 a 0.94,0.94 0 0 1 1.43,0.83 l -0.44,12.36 a 15.63,15.63 0 0 1 -6.37,12.01 z"
         id="path49916" /><path
         class="cls-1"
         d="m 176.29,165.18 -16.23,-7.13 16.23,-7.13 a 15.62,15.62 0 0 1 13.62,0.51 l 10.92,5.79 a 0.94,0.94 0 0 1 0,1.66 l -10.92,5.79 a 15.65,15.65 0 0 1 -13.62,0.51 z"
         id="path49918" /><path
         class="cls-1"
         d="m 160.58,178.13 -1.94,-17.62 14.29,10.49 a 15.65,15.65 0 0 1 6.37,12.05 l 0.44,12.35 a 0.93,0.93 0 0 1 -1.43,0.83 l -10.48,-6.56 a 15.68,15.68 0 0 1 -7.25,-11.54 z"
         id="path49920" /><path
         class="cls-1"
         d="m 141.51,171 14.29,-10.49 -2,17.62 a 15.63,15.63 0 0 1 -7.24,11.54 l -10.48,6.56 a 0.94,0.94 0 0 1 -1.44,-0.83 l 0.45,-12.35 A 15.65,15.65 0 0 1 141.51,171 Z"
         id="path49922" /><path
         class="cls-1"
         d="m 138.15,150.92 16.23,7.13 -16.23,7.13 a 15.65,15.65 0 0 1 -13.62,-0.51 l -10.92,-5.79 a 0.94,0.94 0 0 1 0,-1.66 l 10.92,-5.79 a 15.62,15.62 0 0 1 13.62,-0.51 z"
         id="path49924" /><rect
         class="cls-2"
         width="314.09"
         height="314.09"
         id="rect49926"
         x="0"
         y="0" /></g><text
       xml:space="preserve"
       style="font-style:normal;font-variant:normal;font-weight:normal;font-stretch:normal;font-size:71.1138px;line-height:0.9;font-family:'NKL El Messiri';-inkscape-font-specification:'NKL El Messiri';text-align:end;direction:rtl;text-anchor:end;opacity:1;fill:#ddeefe;fill-opacity:1;stroke:none;stroke-width:10.0791;stroke-linecap:round;stroke-linejoin:round;stroke-miterlimit:5;paint-order:stroke markers fill"
       x="61.19083"
       y="111.0036"
       id="text50330"><tspan
         sodipodi:role="line"
         id="tspan50328"
         style="font-style:normal;font-variant:normal;font-weight:normal;font-stretch:normal;font-family:'NKL El Messiri';-inkscape-font-specification:'NKL El Messiri';fill:#ddeefe;fill-opacity:1;stroke-width:10.0791"
         x="61.19083"
         y="111.0036">ليلا</tspan></text></g></svg>
