<?xml version="1.0" encoding="UTF-8" standalone="no"?>
<!-- Created with Inkscape (http://www.inkscape.org/) -->

<svg
   version="1.1"
   id="svg99"
   width="1080"
   height="1080"
   viewBox="0 0 1080 1080"
   sodipodi:docname="10v2.svg"
   inkscape:version="1.2.1 (9c6d41e410, 2022-07-14)"
   inkscape:export-filename="D:\Niskala's Void\Project\Design\Jumaat Jawi\9_jumaatjawiwebp.webp"
   inkscape:export-xdpi="300.01199"
   inkscape:export-ydpi="300.01199"
   xmlns:inkscape="http://www.inkscape.org/namespaces/inkscape"
   xmlns:sodipodi="http://sodipodi.sourceforge.net/DTD/sodipodi-0.dtd"
   xmlns:xlink="http://www.w3.org/1999/xlink"
   xmlns="http://www.w3.org/2000/svg"
   xmlns:svg="http://www.w3.org/2000/svg">
  <defs
     id="defs103">
    <linearGradient
       inkscape:collect="always"
       id="linearGradient73498">
      <stop
         style="stop-color:#eeeeee;stop-opacity:1;"
         offset="0"
         id="stop73494" />
      <stop
         style="stop-color:#eeeeee;stop-opacity:0;"
         offset="1"
         id="stop73496" />
    </linearGradient>
    <rect
       x="137.82857"
       y="100.8"
       width="944.22858"
       height="166.62857"
       id="rect3427" />
    <rect
       x="137.82857"
       y="100.8"
       width="944.22858"
       height="166.62857"
       id="rect13459" />
    <linearGradient
       inkscape:collect="always"
       xlink:href="#linearGradient73498"
       id="linearGradient73500"
       x1="2118.0774"
       y1="241.2832"
       x2="2726.6321"
       y2="241.2832"
       gradientUnits="userSpaceOnUse" />
  </defs>
  <sodipodi:namedview
     id="namedview101"
     pagecolor="#505050"
     bordercolor="#eeeeee"
     borderopacity="1"
     inkscape:pageshadow="0"
     inkscape:pageopacity="0"
     inkscape:pagecheckerboard="0"
     showgrid="false"
     inkscape:snap-global="false"
     inkscape:snap-bbox="true"
     showguides="true"
     inkscape:guide-bbox="true"
     inkscape:zoom="0.35355339"
     inkscape:cx="882.46926"
     inkscape:cy="544.47222"
     inkscape:window-width="1920"
     inkscape:window-height="1053"
     inkscape:window-x="-9"
     inkscape:window-y="-9"
     inkscape:window-maximized="1"
     inkscape:current-layer="g4097"
     inkscape:lockguides="false"
     inkscape:showpageshadow="0"
     inkscape:deskcolor="#505050">
    <sodipodi:guide
       position="1291.7022,931.6288"
       orientation="0.67344266,0.73923947"
       id="guide72695"
       inkscape:label=""
       inkscape:locked="false"
       inkscape:color="rgb(87,227,137)" />
    <sodipodi:guide
       position="-244.3761,806.53151"
       orientation="0.79863551,-0.60181502"
       id="guide72697"
       inkscape:label=""
       inkscape:locked="false"
       inkscape:color="rgb(87,227,137)" />
    <sodipodi:guide
       position="-468.38752,928.71956"
       orientation="0.79863551,-0.60181502"
       id="guide33"
       inkscape:label=""
       inkscape:locked="false"
       inkscape:color="rgb(87,227,137)" />
    <sodipodi:guide
       position="1218.9713,1088.7277"
       orientation="0.67344266,0.73923947"
       id="guide35"
       inkscape:label=""
       inkscape:locked="false"
       inkscape:color="rgb(87,227,137)" />
    <sodipodi:guide
       position="656,342"
       orientation="0,-1"
       id="guide133091"
       inkscape:locked="false" />
    <sodipodi:guide
       position="806.10173,546"
       orientation="0,-1"
       id="guide133841"
       inkscape:locked="false" />
    <sodipodi:guide
       position="668,198"
       orientation="-1,0"
       id="guide145159"
       inkscape:label=""
       inkscape:locked="false"
       inkscape:color="rgb(255,190,111)" />
    <sodipodi:guide
       position="882,486"
       orientation="1,0"
       id="guide209830"
       inkscape:locked="false" />
    <sodipodi:guide
       position="1010.4556,376.42875"
       orientation="0.34202014,-0.93969262"
       id="guide19395"
       inkscape:label=""
       inkscape:locked="false"
       inkscape:color="rgb(192,97,203)" />
  </sodipodi:namedview>
  <g
     inkscape:groupmode="layer"
     inkscape:label="BG"
     id="g105"
     style="display:inline"
     sodipodi:insensitive="true">
    <rect
       style="fill:#358597;fill-opacity:1;stroke-width:0;stroke-linejoin:round;paint-order:markers fill stroke"
       id="rect291"
       width="1080"
       height="1080"
       x="0"
       y="0" />
    <g
       id="g40440"
       style="display:inline">
      <circle
         style="fill:#fcffff;fill-opacity:1;stroke:none;stroke-width:8.54173;stroke-linejoin:round;stroke-miterlimit:4;stroke-dasharray:none;stroke-dashoffset:0;stroke-opacity:1;paint-order:markers fill stroke"
         id="path24123"
         cx="271.54285"
         cy="-95.657143"
         r="43.200001" />
      <circle
         style="fill:#747474;fill-opacity:1;stroke:none;stroke-width:8.54173;stroke-linejoin:round;stroke-miterlimit:4;stroke-dasharray:none;stroke-dashoffset:0;stroke-opacity:1;paint-order:markers fill stroke"
         id="circle25029"
         cx="333.25714"
         cy="-95.657143"
         r="43.200001" />
      <circle
         style="fill:#000000;fill-opacity:1;stroke:none;stroke-width:8.54173;stroke-linejoin:round;stroke-miterlimit:4;stroke-dasharray:none;stroke-dashoffset:0;stroke-opacity:1;paint-order:markers fill stroke"
         id="circle34900"
         cx="386.74286"
         cy="-95.657143"
         r="43.200001" />
      <circle
         style="fill:#f4a896;fill-opacity:1;stroke:none;stroke-width:8.54173;stroke-linejoin:round;stroke-miterlimit:4;stroke-dasharray:none;stroke-dashoffset:0;stroke-opacity:1;paint-order:markers fill stroke"
         id="circle34902"
         cx="443.3143"
         cy="-94.628571"
         r="43.200001" />
      <circle
         style="fill:#358597;fill-opacity:1;stroke:none;stroke-width:8.54173;stroke-linejoin:round;stroke-miterlimit:4;stroke-dasharray:none;stroke-dashoffset:0;stroke-opacity:1;paint-order:markers fill stroke"
         id="circle37753"
         cx="499.88574"
         cy="-94.628571"
         r="43.200001" />
    </g>
  </g>
  <g
     inkscape:groupmode="layer"
     id="layer5"
     inkscape:label="Malap"
     style="display:inline;opacity:0.055">
    <text
       xml:space="preserve"
       style="font-size:734.779px;line-height:1.25;font-family:MadaniArabic-Regular;-inkscape-font-specification:MadaniArabic-Regular;text-align:end;letter-spacing:-34.7929px;text-anchor:end;white-space:pre;display:inline;fill:none;fill-opacity:1;stroke:#fcffff;stroke-width:6.30555;stroke-miterlimit:4;stroke-dasharray:none;stroke-opacity:1"
       x="1111.1439"
       y="1102.4227"
       id="text90115"><tspan
         sodipodi:role="line"
         id="tspan90113"
         x="1076.351"
         y="1102.4227"
         style="font-style:normal;font-variant:normal;font-weight:normal;font-stretch:normal;font-family:Montserrat-Arabic;-inkscape-font-specification:Montserrat-Arabic;fill:none;fill-opacity:1;stroke:#fcffff;stroke-width:6.30555;stroke-miterlimit:4;stroke-dasharray:none;stroke-opacity:1"
         dx="0">#10</tspan></text>
    <g
       aria-label="جاوي"
       id="text95260"
       style="font-size:369.142px;line-height:1.25;font-family:MadaniArabic-Regular;-inkscape-font-specification:MadaniArabic-Regular;text-align:end;letter-spacing:-17.4795px;text-anchor:end;white-space:pre;display:inline;fill:none;fill-opacity:1;stroke:#fcffff;stroke-width:7.55906;stroke-opacity:1"
       transform="translate(2)">
      <path
         id="path108596"
         d="m 760.4082,288.84131 v 174.02002 c 0,21.90242 5.66011,39.49799 16.98047,52.78711 8.35301,9.59707 18.90037,15.71065 31.61719,18.37695 v 1.55664 h 15.63281 9.22852 198.83791 v -35.4375 l -0.3692,-27.31641 c 0,-35.68372 -11.5663,-64.84561 -34.69918,-87.48632 -23.13289,-22.8868 -52.29479,-34.33008 -87.48633,-34.33008 h -76.41211 v 35.06836 h 74.56641 c 26.82432,0 48.35736,7.99799 64.59961,23.99414 16.24224,15.99615 24.36328,37.5292 24.36328,64.59961 v 25.4707 h -163.40039 -9.22852 c -19.44148,0 -29.16211,-12.42764 -29.16211,-37.2832 V 288.84131 Z m 171.52149,277.01025 c -6.15237,0 -11.44334,2.09179 -15.87305,6.27539 -4.18361,4.42971 -6.27539,9.59959 -6.27539,15.50586 0,6.15237 2.09178,11.3203 6.27539,15.50391 4.42971,4.42971 9.72068,6.64453 15.87305,6.64453 5.90627,0 11.0742,-2.21482 15.5039,-6.64453 4.42971,-4.18361 6.64453,-9.35154 6.64453,-15.50391 0,-5.90627 -2.21482,-11.07615 -6.64453,-15.50586 -4.4297,-4.1836 -9.59763,-6.27539 -15.5039,-6.27539 z"
         sodipodi:nodetypes="cscccccccccsccsssccssccscssscscs"
         style="fill:none;fill-opacity:1;stroke:#fcffff;stroke-opacity:1" />
      <path
         d="m 571.53818,376.85177 q 26.94737,-26.94737 65.33813,-26.94737 40.97476,0 66.8147,28.05479 26.20909,27.68565 26.20909,71.61355 v 76.04325 q 0,40.23648 -24.73252,67.18384 -24.73251,26.94737 -66.44556,26.94737 -23.25594,0 -44.66618,-9.96683 -21.04109,-9.5977 -33.96106,-26.57823 l 24.73251,-23.25594 q 8.85941,11.4434 23.25595,17.71881 14.39654,6.64456 29.9005,6.64456 24.36337,0 39.12905,-14.0274 15.13482,-14.02739 16.98053,-34.69935 h -52.41816 q -42.08219,0 -69.76784,-26.57822 -27.68565,-26.57822 -27.68565,-66.8147 0,-38.39077 27.31651,-65.33813 z m 25.4708,107.05117 q 16.98053,16.24225 44.66618,16.24225 h 52.7873 v -53.15644 q 0,-27.31651 -15.8731,-44.66619 -15.87311,-17.34967 -41.71305,-17.34967 -23.62508,0 -40.60562,16.61139 -16.61139,16.61139 -16.61139,40.60562 0,25.83994 17.34968,41.71304 z"
         id="path108600"
         style="fill:none;fill-opacity:1;stroke:#fcffff;stroke-opacity:1" />
      <path
         d="m 225.782,424.84023 v -36.9142 h 35.43763 v 36.9142 q 0,37.28334 19.56453,56.47872 19.56453,18.82624 57.21701,18.82624 h 35.80677 v -49.09588 q 0,-49.46503 25.83994,-74.56669 25.83994,-25.47079 74.56669,-25.47079 h 46.14275 V 535.58282 H 484.91968 V 385.34203 h -9.96683 q -33.96106,0 -49.83417,15.87311 -15.87311,15.50396 -15.87311,49.83417 v 84.53351 h -71.2444 q -53.52559,0 -83.05695,-29.53136 Q 225.782,476.5201 225.782,424.84023 Z m 72.35183,148.02594 q 6.27542,-6.27542 15.13483,-6.27542 8.49026,0 14.76568,6.27542 6.64455,6.27541 6.64455,15.13482 0,8.49026 -6.64455,14.76568 -6.27542,6.64455 -14.76568,6.64455 -8.85941,0 -15.13483,-6.64455 -6.27541,-6.27542 -6.27541,-14.76568 0,-8.85941 6.27541,-15.13482 z m 64.23071,0 q 5.90627,-6.27542 14.76568,-6.27542 8.49027,0 14.76568,6.27542 6.64456,6.27541 6.64456,15.13482 0,8.49026 -6.64456,14.76568 -6.27541,6.64455 -14.76568,6.64455 -8.85941,0 -15.13482,-6.27541 -5.90627,-6.27541 -5.90627,-15.13482 0,-8.85941 6.27541,-15.13482 z"
         id="path108602"
         style="fill:none;fill-opacity:1;stroke:#fcffff;stroke-opacity:1" />
    </g>
  </g>
  <g
     inkscape:groupmode="layer"
     id="layer2"
     inkscape:label="Objek"
     style="display:inline;opacity:1">
    <a
       id="a9953"
       style="fill:#393e46;fill-opacity:1"
       transform="translate(-881.4995,-2.9092393)">
      <path
         id="path72753"
         style="fill:#393e46;fill-opacity:1;stroke:#00adb5;stroke-width:2;stroke-linejoin:round;stroke-opacity:1;paint-order:markers fill stroke"
         d="M -233.16096,1144.9297 639.75538,-13.469414 H 817.94627 L -54.970058,1144.9297 Z"
         sodipodi:nodetypes="ccccc" />
    </a>
    <g
       id="g121909"
       transform="translate(0,0.70710678)">
      <path
         sodipodi:type="star"
         style="display:inline;fill:none;fill-opacity:1;stroke:#f4a896;stroke-width:3.77953;stroke-linejoin:round;stroke-miterlimit:4;stroke-dasharray:none;stroke-dashoffset:0;stroke-opacity:1;paint-order:markers fill stroke"
         id="path70110"
         inkscape:flatsided="false"
         sodipodi:sides="3"
         sodipodi:cx="148.40916"
         sodipodi:cy="53.396969"
         sodipodi:r1="46.010868"
         sodipodi:r2="23.005434"
         sodipodi:arg1="0.046121116"
         sodipodi:arg2="1.0933187"
         inkscape:rounded="0"
         inkscape:randomized="0"
         d="m 194.3711,55.518289 -35.39001,18.311114 -35.39001,18.311114 1.83711,-39.804209 1.83712,-39.804207 33.5529,21.493094 z"
         inkscape:transform-center-x="-10.571926"
         inkscape:transform-center-y="-1.0606602" />
      <path
         sodipodi:type="star"
         style="display:inline;fill:none;fill-opacity:1;stroke:#f4a896;stroke-width:8.396;stroke-linejoin:round;stroke-miterlimit:4;stroke-dasharray:none;stroke-dashoffset:0;stroke-opacity:1;paint-order:markers fill stroke"
         id="path73181"
         inkscape:flatsided="false"
         sodipodi:sides="3"
         sodipodi:cx="190.21172"
         sodipodi:cy="67.17514"
         sodipodi:r1="46.010868"
         sodipodi:r2="23.005434"
         sodipodi:arg1="0.046121116"
         sodipodi:arg2="1.0933187"
         inkscape:rounded="0"
         inkscape:randomized="0"
         d="m 236.17366,69.296461 -35.39002,18.311114 -35.39001,18.311115 1.83712,-39.804211 1.83711,-39.804207 33.5529,21.493095 z"
         inkscape:transform-center-x="-2.599139"
         inkscape:transform-center-y="-2.7613879"
         transform="matrix(0.43893306,0.09990132,-0.09990132,0.43893306,15.949771,-6.1584163)" />
      <path
         sodipodi:type="star"
         style="display:inline;fill:none;fill-opacity:1;stroke:#f4a896;stroke-width:15.7049;stroke-linejoin:round;stroke-miterlimit:4;stroke-dasharray:none;stroke-dashoffset:0;stroke-opacity:1;paint-order:markers fill stroke"
         id="path73263"
         inkscape:flatsided="false"
         sodipodi:sides="3"
         sodipodi:cx="190.21172"
         sodipodi:cy="67.17514"
         sodipodi:r1="46.010868"
         sodipodi:r2="23.005434"
         sodipodi:arg1="0.046121116"
         sodipodi:arg2="1.0933187"
         inkscape:rounded="0"
         inkscape:randomized="0"
         d="m 236.17366,69.296461 -35.39002,18.311114 -35.39001,18.311115 1.83712,-39.804211 1.83711,-39.804207 33.5529,21.493095 z"
         inkscape:transform-center-x="2.3288084"
         inkscape:transform-center-y="0.49463153"
         transform="matrix(0.11118702,0.21343504,-0.21343504,0.11118702,142.95354,65.102307)" />
      <path
         sodipodi:type="star"
         style="display:inline;fill:none;fill-opacity:1;stroke:#f4a896;stroke-width:4.8092;stroke-linejoin:round;stroke-miterlimit:4;stroke-dasharray:none;stroke-dashoffset:0;stroke-opacity:1;paint-order:markers fill stroke"
         id="path73265"
         inkscape:flatsided="false"
         sodipodi:sides="3"
         sodipodi:cx="190.21172"
         sodipodi:cy="67.17514"
         sodipodi:r1="46.010868"
         sodipodi:r2="23.005434"
         sodipodi:arg1="0.046121116"
         sodipodi:arg2="1.0933187"
         inkscape:rounded="0"
         inkscape:randomized="0"
         d="m 236.17366,69.296461 -35.39002,18.311114 -35.39001,18.311115 1.83712,-39.804211 1.83711,-39.804207 33.5529,21.493095 z"
         inkscape:transform-center-x="-2.694854"
         inkscape:transform-center-y="6.6051222"
         transform="matrix(0.7175567,-0.32053489,0.32053489,0.7175567,49.272772,119.38812)" />
      <path
         sodipodi:type="star"
         style="display:inline;fill:none;fill-opacity:1;stroke:#f4a896;stroke-width:4.8092;stroke-linejoin:round;stroke-miterlimit:4;stroke-dasharray:none;stroke-dashoffset:0;stroke-opacity:1;paint-order:markers fill stroke"
         id="path73267"
         inkscape:flatsided="false"
         sodipodi:sides="3"
         sodipodi:cx="190.21172"
         sodipodi:cy="67.17514"
         sodipodi:r1="46.010868"
         sodipodi:r2="23.005434"
         sodipodi:arg1="0.046121116"
         sodipodi:arg2="1.0933187"
         inkscape:rounded="0"
         inkscape:randomized="0"
         d="m 236.17366,69.296461 -35.39002,18.311114 -35.39001,18.311115 1.83712,-39.804211 1.83711,-39.804207 33.5529,21.493095 z"
         inkscape:transform-center-x="5.5488342"
         inkscape:transform-center-y="3.7982305"
         transform="matrix(0.49972675,-0.60655041,0.60655041,0.49972675,113.21275,124.78477)" />
      <path
         sodipodi:type="star"
         style="display:inline;fill:none;fill-opacity:1;stroke:#f4a896;stroke-width:2.88654;stroke-linejoin:round;stroke-miterlimit:4;stroke-dasharray:none;stroke-dashoffset:0;stroke-opacity:1;paint-order:markers fill stroke"
         id="path73360"
         inkscape:flatsided="false"
         sodipodi:sides="3"
         sodipodi:cx="190.21172"
         sodipodi:cy="67.17514"
         sodipodi:r1="46.010868"
         sodipodi:r2="23.005434"
         sodipodi:arg1="0.046121116"
         sodipodi:arg2="1.0933187"
         inkscape:rounded="0"
         inkscape:randomized="0"
         d="m 236.17366,69.296461 -35.39002,18.311114 -35.39001,18.311115 1.83712,-39.804211 1.83711,-39.804207 33.5529,21.493095 z"
         inkscape:transform-center-x="6.3281491"
         inkscape:transform-center-y="-9.244794"
         transform="matrix(0.215759,-1.2914655,1.2914655,0.215759,-92.04249,326.3726)" />
      <path
         sodipodi:type="star"
         style="display:inline;fill:none;fill-opacity:1;stroke:#f4a896;stroke-width:15.7049;stroke-linejoin:round;stroke-miterlimit:4;stroke-dasharray:none;stroke-dashoffset:0;stroke-opacity:1;paint-order:markers fill stroke"
         id="path73362"
         inkscape:flatsided="false"
         sodipodi:sides="3"
         sodipodi:cx="190.21172"
         sodipodi:cy="67.17514"
         sodipodi:r1="46.010868"
         sodipodi:r2="23.005434"
         sodipodi:arg1="0.046121116"
         sodipodi:arg2="1.0933187"
         inkscape:rounded="0"
         inkscape:randomized="0"
         d="m 236.17366,69.296461 -35.39002,18.311114 -35.39001,18.311115 1.83712,-39.804211 1.83711,-39.804207 33.5529,21.493095 z"
         inkscape:transform-center-x="-1.8108818"
         inkscape:transform-center-y="-1.0477064"
         transform="matrix(0.2381597,0.03459813,-0.03459813,0.2381597,58.788458,56.589777)" />
      <path
         sodipodi:type="star"
         style="display:inline;fill:#f4a896;fill-opacity:1;stroke:none;stroke-width:3.77953;stroke-linejoin:round;stroke-miterlimit:4;stroke-dasharray:none;stroke-dashoffset:0;stroke-opacity:1;paint-order:markers fill stroke"
         id="path75696"
         inkscape:flatsided="false"
         sodipodi:sides="3"
         sodipodi:cx="175.27922"
         sodipodi:cy="42.790367"
         sodipodi:r1="46.010868"
         sodipodi:r2="23.005434"
         sodipodi:arg1="0.046121116"
         sodipodi:arg2="1.0933187"
         inkscape:rounded="0"
         inkscape:randomized="0"
         d="m 221.24116,44.911687 -35.39001,18.311115 -35.39002,18.311113 1.83712,-39.804209 1.83712,-39.8042072 33.5529,21.4930952 z"
         inkscape:transform-center-x="-10.472087"
         inkscape:transform-center-y="-1.1727985"
         transform="rotate(0.2796151,4952.1385,-1852.4802)" />
      <path
         sodipodi:type="star"
         style="display:inline;fill:#f4a896;fill-opacity:1;stroke:none;stroke-width:15.7049;stroke-linejoin:round;stroke-miterlimit:4;stroke-dasharray:none;stroke-dashoffset:0;stroke-opacity:1;paint-order:markers fill stroke"
         id="path87223"
         inkscape:flatsided="false"
         sodipodi:sides="3"
         sodipodi:cx="190.21172"
         sodipodi:cy="67.17514"
         sodipodi:r1="46.010868"
         sodipodi:r2="23.005434"
         sodipodi:arg1="0.046121116"
         sodipodi:arg2="1.0933187"
         inkscape:rounded="0"
         inkscape:randomized="0"
         d="m 236.17366,69.296461 -35.39002,18.311114 -35.39001,18.311115 1.83712,-39.804211 1.83711,-39.804207 33.5529,21.493095 z"
         inkscape:transform-center-x="2.0611258"
         inkscape:transform-center-y="0.43777691"
         transform="matrix(0.09840672,0.18890193,-0.18890193,0.09840672,98.468805,73.086321)" />
    </g>
    <path
       sodipodi:type="star"
       style="display:inline;fill:#f4a896;fill-opacity:1;stroke:none;stroke-width:7.55906;stroke-linejoin:round;stroke-opacity:0.1;paint-order:markers fill stroke"
       id="path7097"
       inkscape:flatsided="false"
       sodipodi:sides="3"
       sodipodi:cx="-2.8284297"
       sodipodi:cy="526.60211"
       sodipodi:r1="132"
       sodipodi:r2="66"
       sodipodi:arg1="0.78539816"
       sodipodi:arg2="1.8325957"
       inkscape:rounded="0"
       inkscape:randomized="0"
       d="M 90.509666,619.94021 -19.910486,590.35322 -130.33064,560.76623 -49.497478,479.93306 31.335684,399.0999 60.922675,509.52005 Z"
       inkscape:transform-center-x="17.082057"
       inkscape:transform-center-y="-17.082057" />
    <path
       sodipodi:type="star"
       style="display:inline;fill:#000000;fill-opacity:0;stroke:#f4a896;stroke-width:3.77953;stroke-linejoin:round;stroke-miterlimit:4;stroke-dasharray:none;stroke-opacity:1;paint-order:markers fill stroke"
       id="path10925"
       inkscape:flatsided="false"
       sodipodi:sides="3"
       sodipodi:cx="57.225395"
       sodipodi:cy="589.60211"
       sodipodi:r1="132"
       sodipodi:r2="66"
       sodipodi:arg1="0.78539816"
       sodipodi:arg2="1.8325957"
       inkscape:rounded="0"
       inkscape:randomized="0"
       d="M 150.56349,682.94021 40.143339,653.35322 -70.276814,623.76623 10.556347,542.93306 91.389509,462.0999 120.9765,572.52005 Z"
       inkscape:transform-center-x="17.082057"
       inkscape:transform-center-y="-17.082057" />
    <path
       sodipodi:type="star"
       style="display:inline;fill:#f4a896;fill-opacity:1;stroke:none;stroke-width:7.55906;stroke-linejoin:round;stroke-opacity:0.1;paint-order:markers fill stroke"
       id="path15751"
       inkscape:flatsided="false"
       sodipodi:sides="3"
       sodipodi:cx="140.71425"
       sodipodi:cy="500.43915"
       sodipodi:r1="132"
       sodipodi:r2="66"
       sodipodi:arg1="0.78539816"
       sodipodi:arg2="1.8325957"
       inkscape:rounded="0"
       inkscape:randomized="0"
       d="M 234.05234,593.77724 123.63219,564.19025 13.21204,534.60326 94.0452,453.7701 l 80.83316,-80.83316 29.58699,110.42015 z"
       inkscape:transform-center-x="-5.4643324"
       inkscape:transform-center-y="1.3454605"
       transform="matrix(0.12763929,-0.15646905,0.15646905,0.12763929,-17.10211,391.76687)" />
    <path
       sodipodi:type="star"
       style="display:inline;fill:#f4a896;fill-opacity:1;stroke:none;stroke-width:7.55906;stroke-linejoin:round;stroke-opacity:0.1;paint-order:markers fill stroke"
       id="path15753"
       inkscape:flatsided="false"
       sodipodi:sides="3"
       sodipodi:cx="140.71425"
       sodipodi:cy="500.43915"
       sodipodi:r1="132"
       sodipodi:r2="66"
       sodipodi:arg1="0.78539816"
       sodipodi:arg2="1.8325957"
       inkscape:rounded="0"
       inkscape:randomized="0"
       d="M 234.05234,593.77724 123.63219,564.19025 13.21204,534.60326 94.0452,453.7701 l 80.83316,-80.83316 29.58699,110.42015 z"
       inkscape:transform-center-x="4.4965482"
       inkscape:transform-center-y="-1.7171594"
       transform="matrix(0.18187813,0.02179876,-0.02179876,0.18187813,105.86903,319.56409)" />
    <path
       sodipodi:type="star"
       style="display:inline;fill:#f4a896;fill-opacity:1;stroke:none;stroke-width:7.55906;stroke-linejoin:round;stroke-opacity:0.1;paint-order:markers fill stroke"
       id="path15755"
       inkscape:flatsided="false"
       sodipodi:sides="3"
       sodipodi:cx="140.71425"
       sodipodi:cy="500.43915"
       sodipodi:r1="132"
       sodipodi:r2="66"
       sodipodi:arg1="0.78539816"
       sodipodi:arg2="1.8325957"
       inkscape:rounded="0"
       inkscape:randomized="0"
       d="M 234.05234,593.77724 123.63219,564.19025 13.21204,534.60326 94.0452,453.7701 l 80.83316,-80.83316 29.58699,110.42015 z"
       inkscape:transform-center-x="-5.4643324"
       inkscape:transform-center-y="1.3454605"
       transform="matrix(0.12763929,-0.15646905,0.15646905,0.12763929,-54.10211,663.76687)" />
    <path
       sodipodi:type="star"
       style="display:inline;fill:#000000;fill-opacity:0;stroke:#f4a896;stroke-width:18.7173;stroke-linejoin:round;stroke-miterlimit:4;stroke-dasharray:none;stroke-opacity:1;paint-order:markers fill stroke"
       id="path15757"
       inkscape:flatsided="false"
       sodipodi:sides="3"
       sodipodi:cx="140.71425"
       sodipodi:cy="500.43915"
       sodipodi:r1="132"
       sodipodi:r2="66"
       sodipodi:arg1="0.78539816"
       sodipodi:arg2="1.8325957"
       inkscape:rounded="0"
       inkscape:randomized="0"
       d="M 234.05234,593.77724 123.63219,564.19025 13.21204,534.60326 94.0452,453.7701 l 80.83316,-80.83316 29.58699,110.42015 z"
       inkscape:transform-center-x="-5.4643324"
       inkscape:transform-center-y="1.3454605"
       transform="matrix(0.12763929,-0.15646905,0.15646905,0.12763929,-66.10211,647.76687)" />
    <g
       id="g121655"
       transform="rotate(180,595.84059,155.73066)">
      <path
         sodipodi:type="star"
         style="display:inline;fill:#000000;fill-opacity:0;stroke:#f4a896;stroke-width:3.77953;stroke-linejoin:round;stroke-miterlimit:4;stroke-dasharray:none;stroke-dashoffset:0;stroke-opacity:1;paint-order:markers fill stroke"
         id="path121637"
         inkscape:flatsided="false"
         sodipodi:sides="3"
         sodipodi:cx="148.40916"
         sodipodi:cy="53.396969"
         sodipodi:r1="46.010868"
         sodipodi:r2="23.005434"
         sodipodi:arg1="0.046121116"
         sodipodi:arg2="1.0933187"
         inkscape:rounded="0"
         inkscape:randomized="0"
         d="m 194.3711,55.518289 -35.39001,18.311114 -35.39001,18.311114 1.83711,-39.804209 1.83712,-39.804207 33.5529,21.493094 z"
         inkscape:transform-center-x="-10.571926"
         inkscape:transform-center-y="-1.0606602" />
      <path
         sodipodi:type="star"
         style="display:inline;fill:#000000;fill-opacity:0;stroke:#f4a896;stroke-width:8.396;stroke-linejoin:round;stroke-miterlimit:4;stroke-dasharray:none;stroke-dashoffset:0;stroke-opacity:1;paint-order:markers fill stroke"
         id="path121639"
         inkscape:flatsided="false"
         sodipodi:sides="3"
         sodipodi:cx="190.21172"
         sodipodi:cy="67.17514"
         sodipodi:r1="46.010868"
         sodipodi:r2="23.005434"
         sodipodi:arg1="0.046121116"
         sodipodi:arg2="1.0933187"
         inkscape:rounded="0"
         inkscape:randomized="0"
         d="m 236.17366,69.296461 -35.39002,18.311114 -35.39001,18.311115 1.83712,-39.804211 1.83711,-39.804207 33.5529,21.493095 z"
         inkscape:transform-center-x="-2.599139"
         inkscape:transform-center-y="-2.7613879"
         transform="matrix(0.43893306,0.09990132,-0.09990132,0.43893306,15.949771,-6.1584163)" />
      <path
         sodipodi:type="star"
         style="display:inline;fill:#000000;fill-opacity:0;stroke:#f4a896;stroke-width:15.7049;stroke-linejoin:round;stroke-miterlimit:4;stroke-dasharray:none;stroke-dashoffset:0;stroke-opacity:1;paint-order:markers fill stroke"
         id="path121641"
         inkscape:flatsided="false"
         sodipodi:sides="3"
         sodipodi:cx="190.21172"
         sodipodi:cy="67.17514"
         sodipodi:r1="46.010868"
         sodipodi:r2="23.005434"
         sodipodi:arg1="0.046121116"
         sodipodi:arg2="1.0933187"
         inkscape:rounded="0"
         inkscape:randomized="0"
         d="m 236.17366,69.296461 -35.39002,18.311114 -35.39001,18.311115 1.83712,-39.804211 1.83711,-39.804207 33.5529,21.493095 z"
         inkscape:transform-center-x="2.3288084"
         inkscape:transform-center-y="0.49463153"
         transform="matrix(0.11118702,0.21343504,-0.21343504,0.11118702,142.95354,65.102307)" />
      <path
         sodipodi:type="star"
         style="display:inline;fill:#000000;fill-opacity:0;stroke:#f4a896;stroke-width:4.8092;stroke-linejoin:round;stroke-miterlimit:4;stroke-dasharray:none;stroke-dashoffset:0;stroke-opacity:1;paint-order:markers fill stroke"
         id="path121643"
         inkscape:flatsided="false"
         sodipodi:sides="3"
         sodipodi:cx="190.21172"
         sodipodi:cy="67.17514"
         sodipodi:r1="46.010868"
         sodipodi:r2="23.005434"
         sodipodi:arg1="0.046121116"
         sodipodi:arg2="1.0933187"
         inkscape:rounded="0"
         inkscape:randomized="0"
         d="m 236.17366,69.296461 -35.39002,18.311114 -35.39001,18.311115 1.83712,-39.804211 1.83711,-39.804207 33.5529,21.493095 z"
         inkscape:transform-center-x="-2.694854"
         inkscape:transform-center-y="6.6051222"
         transform="matrix(0.7175567,-0.32053489,0.32053489,0.7175567,49.272772,119.38812)" />
      <path
         sodipodi:type="star"
         style="display:inline;fill:#000000;fill-opacity:0;stroke:#f4a896;stroke-width:4.8092;stroke-linejoin:round;stroke-miterlimit:4;stroke-dasharray:none;stroke-dashoffset:0;stroke-opacity:1;paint-order:markers fill stroke"
         id="path121645"
         inkscape:flatsided="false"
         sodipodi:sides="3"
         sodipodi:cx="190.21172"
         sodipodi:cy="67.17514"
         sodipodi:r1="46.010868"
         sodipodi:r2="23.005434"
         sodipodi:arg1="0.046121116"
         sodipodi:arg2="1.0933187"
         inkscape:rounded="0"
         inkscape:randomized="0"
         d="m 236.17366,69.296461 -35.39002,18.311114 -35.39001,18.311115 1.83712,-39.804211 1.83711,-39.804207 33.5529,21.493095 z"
         inkscape:transform-center-x="5.5488342"
         inkscape:transform-center-y="3.7982305"
         transform="matrix(0.49972675,-0.60655041,0.60655041,0.49972675,113.21275,124.78477)" />
      <path
         sodipodi:type="star"
         style="display:inline;fill:#000000;fill-opacity:0;stroke:#f4a896;stroke-width:2.88654;stroke-linejoin:round;stroke-miterlimit:4;stroke-dasharray:none;stroke-dashoffset:0;stroke-opacity:1;paint-order:markers fill stroke"
         id="path121647"
         inkscape:flatsided="false"
         sodipodi:sides="3"
         sodipodi:cx="190.21172"
         sodipodi:cy="67.17514"
         sodipodi:r1="46.010868"
         sodipodi:r2="23.005434"
         sodipodi:arg1="0.046121116"
         sodipodi:arg2="1.0933187"
         inkscape:rounded="0"
         inkscape:randomized="0"
         d="m 236.17366,69.296461 -35.39002,18.311114 -35.39001,18.311115 1.83712,-39.804211 1.83711,-39.804207 33.5529,21.493095 z"
         inkscape:transform-center-x="6.3281491"
         inkscape:transform-center-y="-9.244794"
         transform="matrix(0.215759,-1.2914655,1.2914655,0.215759,-92.04249,326.3726)" />
      <path
         sodipodi:type="star"
         style="display:inline;fill:#000000;fill-opacity:0;stroke:#f4a896;stroke-width:15.7049;stroke-linejoin:round;stroke-miterlimit:4;stroke-dasharray:none;stroke-dashoffset:0;stroke-opacity:1;paint-order:markers fill stroke"
         id="path121649"
         inkscape:flatsided="false"
         sodipodi:sides="3"
         sodipodi:cx="190.21172"
         sodipodi:cy="67.17514"
         sodipodi:r1="46.010868"
         sodipodi:r2="23.005434"
         sodipodi:arg1="0.046121116"
         sodipodi:arg2="1.0933187"
         inkscape:rounded="0"
         inkscape:randomized="0"
         d="m 236.17366,69.296461 -35.39002,18.311114 -35.39001,18.311115 1.83712,-39.804211 1.83711,-39.804207 33.5529,21.493095 z"
         inkscape:transform-center-x="-1.8108818"
         inkscape:transform-center-y="-1.0477064"
         transform="matrix(0.2381597,0.03459813,-0.03459813,0.2381597,58.788458,56.589777)" />
      <path
         sodipodi:type="star"
         style="display:inline;fill:#f4a896;fill-opacity:1;stroke:none;stroke-width:3.77953;stroke-linejoin:round;stroke-miterlimit:4;stroke-dasharray:none;stroke-dashoffset:0;stroke-opacity:1;paint-order:markers fill stroke"
         id="path121651"
         inkscape:flatsided="false"
         sodipodi:sides="3"
         sodipodi:cx="175.27922"
         sodipodi:cy="42.790367"
         sodipodi:r1="46.010868"
         sodipodi:r2="23.005434"
         sodipodi:arg1="0.046121116"
         sodipodi:arg2="1.0933187"
         inkscape:rounded="0"
         inkscape:randomized="0"
         d="m 221.24116,44.911687 -35.39001,18.311115 -35.39002,18.311113 1.83712,-39.804209 1.83712,-39.8042072 33.5529,21.4930952 z"
         inkscape:transform-center-x="-10.472087"
         inkscape:transform-center-y="-1.1727985"
         transform="rotate(0.2796151,4952.1385,-1852.4802)" />
      <path
         sodipodi:type="star"
         style="display:inline;fill:#f4a896;fill-opacity:1;stroke:none;stroke-width:15.7049;stroke-linejoin:round;stroke-miterlimit:4;stroke-dasharray:none;stroke-dashoffset:0;stroke-opacity:1;paint-order:markers fill stroke"
         id="path121653"
         inkscape:flatsided="false"
         sodipodi:sides="3"
         sodipodi:cx="190.21172"
         sodipodi:cy="67.17514"
         sodipodi:r1="46.010868"
         sodipodi:r2="23.005434"
         sodipodi:arg1="0.046121116"
         sodipodi:arg2="1.0933187"
         inkscape:rounded="0"
         inkscape:randomized="0"
         d="m 236.17366,69.296461 -35.39002,18.311114 -35.39001,18.311115 1.83712,-39.804211 1.83711,-39.804207 33.5529,21.493095 z"
         inkscape:transform-center-x="2.0611258"
         inkscape:transform-center-y="0.43777691"
         transform="matrix(0.09840672,0.18890193,-0.18890193,0.09840672,98.468805,73.086321)" />
    </g>
    <path
       sodipodi:type="star"
       style="display:inline;fill:#f4a896;fill-opacity:1;stroke:none;stroke-width:7.55906;stroke-linejoin:round;stroke-opacity:0.1;paint-order:markers fill stroke"
       id="path121657"
       inkscape:flatsided="false"
       sodipodi:sides="3"
       sodipodi:cx="-1000.9509"
       sodipodi:cy="532.60211"
       sodipodi:r1="132"
       sodipodi:r2="66"
       sodipodi:arg1="0.78539816"
       sodipodi:arg2="1.8325957"
       inkscape:rounded="0"
       inkscape:randomized="0"
       d="m -907.61283,625.94021 -110.42017,-29.58699 -110.4201,-29.58699 80.8331,-80.83317 80.83319,-80.83316 29.58699,110.42015 z"
       inkscape:transform-center-x="-17.08207"
       inkscape:transform-center-y="17.082055"
       transform="rotate(180,41,529.93274)" />
    <path
       sodipodi:type="star"
       style="display:inline;fill:#000000;fill-opacity:0;stroke:#f4a896;stroke-width:3.77953;stroke-linejoin:round;stroke-miterlimit:4;stroke-dasharray:none;stroke-opacity:1;paint-order:markers fill stroke"
       id="path121659"
       inkscape:flatsided="false"
       sodipodi:sides="3"
       sodipodi:cx="-940.89716"
       sodipodi:cy="595.60211"
       sodipodi:r1="132"
       sodipodi:r2="66"
       sodipodi:arg1="0.78539816"
       sodipodi:arg2="1.8325957"
       inkscape:rounded="0"
       inkscape:randomized="0"
       d="m -847.55906,688.94021 -110.42015,-29.58699 -110.42019,-29.58699 80.8332,-80.83317 80.83316,-80.83316 29.58699,110.42015 z"
       inkscape:transform-center-x="-17.08207"
       inkscape:transform-center-y="17.082055"
       transform="rotate(180,41,529.93274)" />
    <path
       sodipodi:type="star"
       style="display:inline;fill:#000000;fill-opacity:0;stroke:#f4a896;stroke-width:18.7173;stroke-linejoin:round;stroke-miterlimit:4;stroke-dasharray:none;stroke-opacity:1;paint-order:markers fill stroke"
       id="path121661"
       inkscape:flatsided="false"
       sodipodi:sides="3"
       sodipodi:cx="140.71425"
       sodipodi:cy="500.43915"
       sodipodi:r1="132"
       sodipodi:r2="66"
       sodipodi:arg1="0.78539816"
       sodipodi:arg2="1.8325957"
       inkscape:rounded="0"
       inkscape:randomized="0"
       d="M 234.05234,593.77724 123.63219,564.19025 13.21204,534.60326 94.0452,453.7701 l 80.83316,-80.83316 29.58699,110.42015 z"
       inkscape:transform-center-x="-5.4643324"
       inkscape:transform-center-y="1.3454605"
       transform="matrix(0.12763929,-0.15646905,0.15646905,0.12763929,863.89789,623.76687)" />
    <path
       sodipodi:type="star"
       style="display:inline;fill:#000000;fill-opacity:0;stroke:#f4a896;stroke-width:18.7173;stroke-linejoin:round;stroke-miterlimit:4;stroke-dasharray:none;stroke-opacity:1;paint-order:markers fill stroke"
       id="path121663"
       inkscape:flatsided="false"
       sodipodi:sides="3"
       sodipodi:cx="140.71425"
       sodipodi:cy="500.43915"
       sodipodi:r1="132"
       sodipodi:r2="66"
       sodipodi:arg1="0.78539816"
       sodipodi:arg2="1.8325957"
       inkscape:rounded="0"
       inkscape:randomized="0"
       d="M 234.05234,593.77724 123.63219,564.19025 13.21204,534.60326 94.0452,453.7701 l 80.83316,-80.83316 29.58699,110.42015 z"
       inkscape:transform-center-x="-5.4643324"
       inkscape:transform-center-y="1.3454651"
       transform="matrix(0.12763929,-0.15646905,0.15646905,0.12763929,889.89789,621.76687)" />
    <path
       sodipodi:type="star"
       style="display:inline;fill:#f4a896;fill-opacity:1;stroke:none;stroke-width:7.55906;stroke-linejoin:round;stroke-opacity:0.1;paint-order:markers fill stroke"
       id="path121665"
       inkscape:flatsided="false"
       sodipodi:sides="3"
       sodipodi:cx="140.71425"
       sodipodi:cy="500.43915"
       sodipodi:r1="132"
       sodipodi:r2="66"
       sodipodi:arg1="0.78539816"
       sodipodi:arg2="1.8325957"
       inkscape:rounded="0"
       inkscape:randomized="0"
       d="M 234.05234,593.77724 123.63219,564.19025 13.21204,534.60326 94.0452,453.7701 l 80.83316,-80.83316 29.58699,110.42015 z"
       inkscape:transform-center-x="-5.4643324"
       inkscape:transform-center-y="1.3454605"
       transform="matrix(0.12763929,-0.15646905,0.15646905,0.12763929,844.89789,517.76687)" />
    <path
       sodipodi:type="star"
       style="display:inline;fill:#f4a896;fill-opacity:1;stroke:none;stroke-width:7.55906;stroke-linejoin:round;stroke-opacity:0.1;paint-order:markers fill stroke"
       id="path121667"
       inkscape:flatsided="false"
       sodipodi:sides="3"
       sodipodi:cx="140.71425"
       sodipodi:cy="500.43915"
       sodipodi:r1="132"
       sodipodi:r2="66"
       sodipodi:arg1="0.78539816"
       sodipodi:arg2="1.8325957"
       inkscape:rounded="0"
       inkscape:randomized="0"
       d="M 234.05234,593.77724 123.63219,564.19025 13.21204,534.60326 94.0452,453.7701 l 80.83316,-80.83316 29.58699,110.42015 z"
       inkscape:transform-center-x="4.4965482"
       inkscape:transform-center-y="-1.7171594"
       transform="matrix(0.18187813,0.02179876,-0.02179876,0.18187813,967.86903,445.56409)" />
  </g>
  <g
     inkscape:groupmode="layer"
     id="layer1"
     inkscape:label="JumaatJawi"
     style="display:inline">
    <path
       d="M 6.4478499,989.2394 H 33.268598 l -5.279674,25.976 h 17.317333 l 5.490862,-25.976 h 36.324164 l -5.068488,25.976 h 17.52852 l 5.068485,-25.976 h 26.39838 l 3.59018,-17.10614 h -26.39838 l 7.18036,-35.26823 h 26.39837 l 3.80137,-16.89496 h -26.82075 l 5.27968,-26.18719 h -17.52852 l -5.27968,26.18719 H 64.735461 l 5.279675,-26.18719 H 52.697802 L 47.20694,919.97007 H 21.019753 l -3.801366,16.89496 H 44.039135 L 36.64759,972.13326 H 10.038029 Z M 90.500275,972.13326 H 54.176111 l 7.180358,-35.26823 h 36.53535 z"
       style="font-size:211.187px;line-height:1.25;font-family:'NKL MadaniArabic-Regular';-inkscape-font-specification:'NKL MadaniArabic-Regular';text-align:end;letter-spacing:-10px;text-anchor:end;white-space:pre;fill:#f4a896;stroke-width:2.93316"
       id="path88409" />
    <path
       id="path88411"
       style="font-size:211.187px;line-height:1.25;font-family:'NKL MadaniArabic-Regular';-inkscape-font-specification:'NKL MadaniArabic-Regular';text-align:end;letter-spacing:-10px;text-anchor:end;white-space:pre;fill:#f4a896;stroke-width:2.93316"
       d="m 209.95703,875.19922 c -15.62784,0 -28.72165,5.27854 -39.49219,15.83789 -10.98172,10.77054 -16.47265,23.8646 -16.47265,39.28125 0,16.68377 5.49239,29.77809 16.89648,39.07031 6.29659,5.22736 12.65911,8.98283 19.12695,11.26953 v -21.91797 c -1.7435,-1.20369 -3.41143,-2.56768 -4.97851,-4.13476 -6.96917,-6.75798 -10.34766,-14.7837 -10.34766,-24.28711 0,-9.29223 3.37849,-17.52913 10.34766,-24.28711 6.75799,-6.75799 15.20532,-10.13672 24.91992,-10.13672 9.50341,0 17.74007,3.37873 24.49805,10.13672 6.75798,6.75798 10.34765,14.99488 10.34765,24.28711 0,9.50341 -3.58967,17.52913 -10.34765,24.28711 -2.32514,2.32514 -4.83738,4.21898 -7.50391,5.74414 2.89976,1.08127 5.46334,2.7027 7.69141,4.86523 4.25263,4.06774 6.50479,9.03378 6.75781,14.89844 L 253.25,964.95312 c 1.82848,-2.15666 3.44826,-4.4122 4.87891,-6.7539 -3.8818,-4.33029 -5.78907,-9.71676 -5.78907,-16.01953 v -30.16211 h 8.22657 v 30.16211 c 0,2.85248 0.56963,5.38508 1.69336,7.60547 2.28366,-6.00754 3.45117,-12.50342 3.45117,-19.4668 0,-15.41665 -5.49094,-28.51096 -16.47266,-39.07031 -10.98172,-10.55935 -24.07579,-16.04883 -39.28125,-16.04883 z m 52.30274,74.58594 c -1.11101,2.92267 -2.49,5.72827 -4.13086,8.41406 0.23464,0.26175 0.47355,0.5214 0.72265,0.77539 4.37015,4.54153 9.85507,6.76953 16.45313,6.76953 6.68376,0 12.16866,-2.22775 16.45312,-6.68359 4.28446,-4.45584 6.51172,-10.9677 6.51172,-19.36524 v -36.24609 h -8.14062 v 36.24609 c 0,6.16962 -1.37122,10.62564 -4.11329,13.53907 -2.74205,2.91342 -6.25509,4.36914 -10.71093,4.36914 -4.37014,0 -7.88294,-1.45571 -10.625,-4.36914 -0.98668,-1.04835 -1.78828,-2.20116 -2.41992,-3.44922 z m -20.85938,30.32812 -18.08984,23.14262 c 4.43446,-0.9086 8.21347,-2.8716 11.33203,-5.89848 4.52166,-4.3906 6.7832,-9.76455 6.7832,-16.12109 0,-0.37821 -0.009,-0.75204 -0.0254,-1.12305 z m -18.08984,23.14262 c -1.90198,0.3896 -3.92236,0.5898 -6.06641,0.5898 h -17.10352 v 27.8465 l -10.125,0.011 v -17.8927 l -14.26953,17.877 h 25.3418 z m -33.29493,10.5546 15.87891,-19.89253 h -5.75391 v -10.9043 c -3.40574,-0.39612 -6.7803,-1.17295 -10.125,-2.35547 z m 10.125,-30.79683 c 1.71557,0.19954 3.43689,0.3125 5.16993,0.3125 3.16781,0 6.33584,-0.21214 9.71484,-0.8457 l -9.13086,11.4375 h 11.15235 c 4.194,0 7.56927,-1.21206 10.125,-3.63672 2.55572,-2.49019 3.83398,-5.50623 3.83398,-9.04492 0,-3.47316 -1.27826,-6.42104 -3.83398,-8.84571 -2.55573,-2.49019 -5.931,-3.73632 -10.125,-3.73632 h -16.90626 z m 26.81055,-22.66406 c -2.89976,-1.08127 -6.13557,-1.62305 -9.70703,-1.62305 h -27.22852 v 0.0137 c 5.77531,3.98721 12.47949,6.00196 19.94141,6.00196 6.23368,0 11.91044,-1.48489 16.99414,-4.39258 z m 48.35352,-72.49609 c -1.45671,0 -2.65703,0.51469 -3.59961,1.54296 -1.02827,1.02827 -1.45508,2.1407 -1.45508,3.51172 0,1.45672 0.42681,2.65728 1.45508,3.68555 0.94258,1.02827 2.1429,1.45703 3.59961,1.45703 1.37103,0 2.65727,-0.5147 3.68554,-1.54297 0.94258,-0.94258 1.45508,-2.14289 1.45508,-3.59961 0,-1.37102 -0.51274,-2.48345 -1.54101,-3.51172 -1.02827,-1.02827 -2.22858,-1.54296 -3.59961,-1.54296 z"
       sodipodi:nodetypes="scsccccscsssscccccsccscssscccsssccssssccccsccccccccccccccccccccscscsccccccscscscsssssss" />
    <path
       d="m -744.64953,1016.9043 h 26.8207 l -5.2796,25.976 h 17.3173 l 5.4909,-25.976 h 36.3241 l -5.0685,25.976 h 17.5286 l 5.0684,-25.976 h 26.3984 l 3.5902,-17.10621 h -26.3984 l 7.1804,-35.2682 h 26.3984 l 3.8013,-16.8949 h -26.8207 l 5.2797,-26.1872 h -17.5286 l -5.2796,26.1872 h -36.5354 l 5.2797,-26.1872 h -17.3174 l -5.4908,26.1872 h -26.1872 l -3.8014,16.8949 h 26.8208 l -7.3916,35.2682 h -26.6095 z m 84.0524,-17.10621 h -36.3241 l 7.1803,-35.2682 h 36.5354 z"
       style="font-size:211.187px;line-height:1.25;font-family:'NKL MadaniArabic-Regular';-inkscape-font-specification:'NKL MadaniArabic-Regular';text-align:end;letter-spacing:-10px;text-anchor:end;white-space:pre;fill:#f4a896;stroke-width:2.93316"
       id="path2484" />
    <g
       id="g71457"
       style="fill:#f4a896;fill-opacity:1">
      <g
         aria-label="Jumaat Jawi"
         transform="translate(-141.42812,28.908904)"
         id="text3425"
         style="font-size:144px;line-height:1.25;font-family:MadaniArabic-Regular;-inkscape-font-specification:MadaniArabic-Regular;white-space:pre;shape-inside:url(#rect3427);fill:#f4a896;fill-opacity:1;stroke-width:2">
        <path
           d="m 141.42812,220.46478 10.8,-9.216 q 5.904,5.616 13.824,5.616 8.928,0 14.256,-6.192 5.328,-6.192 5.328,-16.56 v -68.832 h 14.832 v 68.832 q 0,16.992 -9.648,27.216 -9.504,10.224 -24.768,10.224 -14.976,0 -24.624,-11.088 z"
           id="path30693"
           style="fill:#f4a896;fill-opacity:1" />
        <path
           d="m 219.33193,151.20078 h 14.112 v 40.176 q 0,12.96 6.048,19.584 6.048,6.624 15.408,6.624 9.216,0 15.264,-6.624 6.192,-6.624 6.192,-19.584 v -40.176 h 13.968 v 79.2 h -12.96 l -0.72,-14.112 q -3.456,6.768 -9.936,11.088 -6.48,4.176 -14.976,4.176 -14.544,0 -23.472,-10.224 -8.928,-10.224 -8.928,-29.952 z"
           id="path30695"
           style="fill:#f4a896;fill-opacity:1" />
        <path
           d="m 310.91573,230.40078 v -79.2 h 12.96 l 0.72,13.104 q 2.88,-6.768 8.784,-10.512 6.048,-3.744 12.816,-3.744 9.072,0 15.264,4.752 6.336,4.608 8.928,12.096 2.592,-7.344 8.64,-12.096 6.048,-4.752 14.4,-4.752 13.392,0 21.312,9.36 8.064,9.216 8.064,28.944 v 42.048 h -14.112 v -42.048 q 0,-12.816 -4.896,-18.576 -4.752,-5.904 -12.528,-5.904 -7.344,0 -12.384,5.904 -5.04,5.904 -5.04,18.576 v 42.048 h -14.112 v -42.048 q 0,-12.816 -4.896,-18.576 -4.752,-5.904 -12.528,-5.904 -7.488,0 -12.528,6.624 -4.896,6.624 -4.896,19.584 v 40.32 z"
           id="path30697"
           style="fill:#f4a896;fill-opacity:1" />
        <path
           d="m 448.43551,162.00078 q 11.232,-11.952 27.216,-11.952 9.504,0 17.568,5.04 8.208,5.04 11.952,12.816 l 0.72,-16.704 h 12.96 v 79.2 h -12.96 l -0.72,-16.56 q -3.744,7.632 -11.952,12.672 -8.064,4.896 -17.568,4.896 -15.984,0 -27.36,-11.952 -11.232,-11.952 -11.232,-28.656 0,-16.848 11.376,-28.8 z m 10.656,47.664 q 7.776,7.776 18.864,7.776 11.088,0 18.864,-7.776 7.92,-7.776 7.92,-18.864 0,-11.088 -7.92,-19.008 -7.776,-7.92 -18.864,-7.92 -10.944,0 -18.864,7.92 -7.776,7.92 -7.776,19.008 0,11.088 7.776,18.864 z"
           id="path30699"
           style="fill:#f4a896;fill-opacity:1" />
        <path
           d="m 546.06744,162.00078 q 11.232,-11.952 27.216,-11.952 9.504,0 17.568,5.04 8.208,5.04 11.952,12.816 l 0.72,-16.704 h 12.96 v 79.2 h -12.96 l -0.72,-16.56 q -3.744,7.632 -11.952,12.672 -8.064,4.896 -17.568,4.896 -15.984,0 -27.36,-11.952 -11.232,-11.952 -11.232,-28.656 0,-16.848 11.376,-28.8 z m 10.656,47.664 q 7.776,7.776 18.864,7.776 11.088,0 18.864,-7.776 7.92,-7.776 7.92,-18.864 0,-11.088 -7.92,-19.008 -7.776,-7.92 -18.864,-7.92 -10.944,0 -18.864,7.92 -7.776,7.92 -7.776,19.008 0,11.088 7.776,18.864 z"
           id="path30701"
           style="fill:#f4a896;fill-opacity:1" />
        <path
           d="m 630.01937,151.20078 h 11.088 l 1.728,-25.92 h 11.808 v 25.92 h 19.008 v 12.672 h -19.008 v 36.864 q 0,8.352 3.888,12.816 3.888,4.464 10.656,4.464 3.456,0 6.048,-1.008 l 3.6,12.528 q -4.896,2.16 -11.52,2.16 -11.808,0 -19.296,-7.488 -7.344,-7.632 -7.344,-23.328 v -37.008 h -10.656 z"
           id="path30703"
           style="fill:#f4a896;fill-opacity:1" />
        <path
           d="m 726.35507,220.46478 10.8,-9.216 q 5.904,5.616 13.824,5.616 8.928,0 14.256,-6.192 5.328,-6.192 5.328,-16.56 v -68.832 h 14.832 v 68.832 q 0,16.992 -9.648,27.216 -9.504,10.224 -24.768,10.224 -14.976,0 -24.624,-11.088 z"
           id="path30705"
           style="fill:#f4a896;fill-opacity:1" />
        <path
           d="m 812.6109,162.00078 q 11.232,-11.952 27.216,-11.952 9.504,0 17.568,5.04 8.208,5.04 11.952,12.816 l 0.72,-16.704 h 12.96 v 79.2 h -12.96 l -0.72,-16.56 q -3.744,7.632 -11.952,12.672 -8.064,4.896 -17.568,4.896 -15.984,0 -27.36,-11.952 -11.232,-11.952 -11.232,-28.656 0,-16.848 11.376,-28.8 z m 10.656,47.664 q 7.776,7.776 18.864,7.776 11.088,0 18.864,-7.776 7.92,-7.776 7.92,-18.864 0,-11.088 -7.92,-19.008 -7.776,-7.92 -18.864,-7.92 -10.944,0 -18.864,7.92 -7.776,7.92 -7.776,19.008 0,11.088 7.776,18.864 z"
           id="path30707"
           style="fill:#f4a896;fill-opacity:1" />
        <path
           d="m 895.84279,151.20078 h 14.976 l 19.728,57.6 19.152,-57.6 h 14.256 l 19.296,57.6 19.72801,-57.6 h 14.976 l -27.79201,79.2 h -13.824 l -19.44,-56.88 -19.44,56.88 h -13.968 z"
           id="path30709"
           style="fill:#f4a896;fill-opacity:1" />
        <path
           d="m 1030.7707,230.40078 v -79.2 h 13.968 v 79.2 z m -1.872,-96.192 q 0,-3.744 2.592,-6.336 2.736,-2.592 6.336,-2.592 3.6,0 6.192,2.736 2.592,2.592 2.592,6.192 0,3.6 -2.592,6.192 -2.592,2.736 -6.192,2.736 -3.6,0 -6.336,-2.592 -2.592,-2.592 -2.592,-6.336 z"
           id="path30711"
           style="fill:#f4a896;fill-opacity:1" />
      </g>
      <g
         aria-label="جمعة جاوي"
         transform="translate(181.34768,-114.11985)"
         id="text13457"
         style="font-size:144px;line-height:1.25;font-family:MadaniArabic-Regular;-inkscape-font-specification:MadaniArabic-Regular;white-space:pre;shape-inside:url(#rect13459);fill:#f4a896;fill-opacity:1">
        <path
           d="m 884.89905,216.57678 v -9.936 q 0,-15.84 -9.504,-25.2 -9.504,-9.36 -25.2,-9.36 h -29.088 v -13.68 h 29.808 q 20.592,0 34.128,13.392 13.536,13.248 13.536,34.128 l 0.144,10.656 v 13.824 h -87.264 v -13.824 z m -34.128,34.128 q 0,-3.456 2.448,-6.048 2.592,-2.448 6.192,-2.448 3.456,0 6.048,2.448 2.592,2.592 2.592,6.048 0,3.6 -2.592,6.048 -2.592,2.592 -6.048,2.592 -3.6,0 -6.192,-2.592 -2.448,-2.448 -2.448,-6.048 z"
           id="path30657"
           style="fill:#f4a896;fill-opacity:1" />
        <path
           d="m 718.14716,216.57678 h 21.6 q -5.328,-3.6 -8.496,-9.36 -3.168,-5.904 -3.168,-12.816 0,-14.976 10.512,-25.488 10.656,-10.512 25.488,-10.512 14.832,0 25.344,10.512 10.656,10.512 10.656,25.488 v 10.944 q 0,5.04 2.736,8.208 2.736,3.024 7.632,3.024 h 3.888 v 13.824 h -3.888 q -7.488,0 -12.24,-3.744 -4.752,-3.744 -6.336,-10.368 -4.752,6.48 -12.096,10.368 -7.344,3.744 -15.696,3.744 h -45.936 z m 30.24,-6.48 q 6.48,6.48 15.696,6.48 9.216,0 15.696,-6.48 6.48,-6.48 6.48,-15.696 0,-9.216 -6.48,-15.696 -6.48,-6.624 -15.696,-6.624 -9.216,0 -15.696,6.624 -6.48,6.48 -6.48,15.696 0,9.216 6.48,15.696 z"
           id="path30659"
           style="fill:#f4a896;fill-opacity:1" />
        <path
           d="m 616.33933,216.57678 h 33.696 l -22.896,-34.128 v -24.048 h 54.144 q 28.8,0 28.8,20.448 0,4.464 -1.872,9.216 -1.728,4.608 -6.048,10.224 -4.176,5.472 -6.912,8.64 -2.592,3.024 -8.784,9.648 h 34.416 l 0.144,13.824 h -104.688 z m 26.928,-34.848 23.04,34.848 h 4.32 q 1.584,-1.728 4.896,-5.328 3.456,-3.6 5.04,-5.472 1.728,-1.872 4.464,-4.896 2.736,-3.024 4.032,-5.04 1.44,-2.016 2.88,-4.464 1.584,-2.448 2.16,-4.464 0.72,-2.016 0.72,-3.888 0,-6.48 -4.464,-8.64 -4.464,-2.304 -13.824,-2.304 h -33.264 z"
           id="path30661"
           style="fill:#f4a896;fill-opacity:1" />
        <path
           d="m 544.19549,168.91278 q 10.512,-10.512 25.344,-10.512 h 34.272 v 43.632 q 0,14.544 11.232,14.544 h 4.176 v 13.824 h -4.176 q -14.832,0 -19.584,-13.536 -8.928,13.536 -25.92,13.536 -14.976,0 -25.488,-10.512 -10.512,-10.512 -10.512,-25.488 0,-14.976 10.656,-25.488 z m 9.648,41.184 q 6.48,6.48 15.696,6.48 8.784,0 14.544,-6.048 5.904,-6.048 5.904,-16.128 v -22.32 h -20.448 q -9.216,0 -15.696,6.624 -6.48,6.48 -6.48,15.696 0,9.216 6.48,15.696 z m -2.736,-67.968 q 0,-3.456 2.448,-5.904 2.448,-2.448 5.76,-2.448 3.456,0 5.904,2.448 2.592,2.448 2.592,5.904 0,3.456 -2.592,5.904 -2.448,2.448 -5.904,2.448 -3.312,0 -5.76,-2.448 -2.448,-2.448 -2.448,-5.904 z m 24.336,0 q 0,-3.456 2.304,-5.904 2.448,-2.448 5.904,-2.448 3.456,0 5.904,2.448 2.448,2.448 2.448,5.904 0,3.456 -2.448,5.904 -2.448,2.448 -5.904,2.448 -3.456,0 -5.904,-2.448 -2.304,-2.448 -2.304,-5.904 z"
           id="path30663"
           style="fill:#f4a896;fill-opacity:1" />
        <path
           d="m 466.29187,216.57678 v -9.936 c 0,-10.56 -3.168,-18.96 -9.504,-25.2 -6.336,-6.24 -14.736,-9.36 -25.2,-9.36 h -29.088 v -13.68 h 29.808 c 13.728,0 25.104,4.464 34.128,13.392 9.024,8.832 13.536,20.208 13.536,34.128 l 0.144,10.656 v 13.824 h -87.264 v -13.824 z m -38.128,34.128 c 0,-2.304 0.816,-4.32 2.448,-6.048 1.728,-1.632 3.792,-2.448 6.192,-2.448 2.304,0 4.32,0.816 6.048,2.448 1.728,1.728 2.592,3.744 2.592,6.048 0,2.4 -0.864,4.416 -2.592,6.048 -1.728,1.728 -3.744,2.592 -6.048,2.592 -2.4,0 -4.464,-0.864 -6.192,-2.592 -1.632,-1.632 -2.448,-3.648 -2.448,-6.048 z"
           id="path30665"
           sodipodi:nodetypes="csssccscccccccscscscsss"
           style="fill:#f4a896;fill-opacity:1" />
        <path
           d="m 367.07588,118.08078 h 13.68 v 83.952 q 0,14.544 11.376,14.544 h 3.6 v 13.824 h -3.6 q -11.664,0 -18.432,-7.776 -6.624,-7.776 -6.624,-20.592 z"
           id="path30667"
           style="fill:#f4a896;fill-opacity:1" />
        <path
           d="m 286.5801,168.48078 q 10.512,-10.512 25.488,-10.512 15.984,0 26.064,10.944 10.224,10.8 10.224,27.936 v 29.664 q 0,15.696 -9.648,26.208 -9.648,10.512 -25.92,10.512 -9.072,0 -17.424,-3.888 -8.208,-3.744 -13.248,-10.368 l 9.648,-9.072 q 3.456,4.464 9.072,6.912 5.616,2.592 11.664,2.592 9.504,0 15.264,-5.472 5.904,-5.472 6.624,-13.536 h -20.448 q -16.416,0 -27.216,-10.368 -10.8,-10.368 -10.8,-26.064 0,-14.976 10.656,-25.488 z m 9.936,41.76 q 6.624,6.336 17.424,6.336 h 20.592 v -20.736 q 0,-10.656 -6.192,-17.424 -6.192,-6.768 -16.272,-6.768 -9.216,0 -15.84,6.48 -6.48,6.48 -6.48,15.84 0,10.08 6.768,16.272 z"
           id="path30669"
           style="fill:#f4a896;fill-opacity:1" />
        <path
           d="m 144.88412,187.20078 v -14.4 h 13.824 v 14.4 q 0,14.544 7.632,22.032 7.632,7.344 22.32,7.344 h 13.968 v -19.152 q 0,-19.296 10.08,-29.088 10.08,-9.936 29.088,-9.936 h 18 v 72 h -13.824 v -58.608 h -3.888 q -13.248,0 -19.44,6.192 -6.19199,6.048 -6.19199,19.44 v 32.976 h -27.79201 q -20.88,0 -32.39999,-11.52 -11.37601,-11.52 -11.37601,-31.68 z m 28.224,57.744 q 2.448,-2.448 5.904,-2.448 3.312,0 5.76001,2.448 2.59199,2.448 2.59199,5.904 0,3.312 -2.59199,5.76 -2.44801,2.592 -5.76001,2.592 -3.456,0 -5.904,-2.592 -2.448,-2.448 -2.448,-5.76 0,-3.456 2.448,-5.904 z m 25.05601,0 q 2.30399,-2.448 5.75999,-2.448 3.31201,0 5.76,2.448 2.592,2.448 2.592,5.904 0,3.312 -2.592,5.76 -2.44799,2.592 -5.76,2.592 -3.456,0 -5.904,-2.448 -2.304,-2.448 -2.304,-5.904 0,-3.456 2.44801,-5.904 z"
           id="path30671"
           style="fill:#f4a896;fill-opacity:1" />
      </g>
    </g>
    <g
       inkscape:groupmode="layer"
       id="layer3"
       inkscape:label="JumaatJawi 1"
       style="display:inline">
      <g
         id="g71435"
         style="stroke:#f4a896;stroke-opacity:1">
        <g
           aria-label="جمعة جاوي"
           transform="translate(173.00482,-104.80557)"
           id="g10180"
           style="font-size:144px;line-height:1.25;font-family:MadaniArabic-Regular;-inkscape-font-specification:MadaniArabic-Regular;white-space:pre;shape-inside:url(#rect13459);display:inline;fill:none;stroke:#f4a896;stroke-width:1.88976;stroke-miterlimit:4;stroke-dasharray:none;stroke-opacity:1">
          <path
             id="path10164"
             style="fill:none;stroke:#f4a896;stroke-width:1.88976;stroke-miterlimit:4;stroke-dasharray:none;stroke-opacity:1"
             d="m 728.32031,30.970703 c -2.208,0 -4.12776,0.817219 -5.75976,2.449219 -1.632,1.632 -2.44727,3.598344 -2.44727,5.902344 0,2.304 0.81527,4.272297 2.44727,5.904296 1.632,1.632001 3.55176,2.449219 5.75976,2.449219 2.304,0 4.2723,-0.817218 5.9043,-2.449219 1.728,-1.631999 2.5918,-3.600296 2.5918,-5.904296 0,-2.304 -0.8638,-4.270344 -2.5918,-5.902344 -1.632,-1.632 -3.6003,-2.449219 -5.9043,-2.449219 z m 24.33594,0 c -2.304,0 -4.2723,0.817219 -5.9043,2.449219 -1.536,1.632 -2.30273,3.598344 -2.30273,5.902344 0,2.304 0.76673,4.272297 2.30273,5.904296 1.632,1.632001 3.6003,2.449219 5.9043,2.449219 2.304,0 4.2723,-0.817218 5.9043,-2.449219 1.632,-1.631999 2.44726,-3.600296 2.44726,-5.904296 0,-2.304 -0.81526,-4.270344 -2.44726,-5.902344 -1.632,-1.632 -3.6003,-2.449219 -5.9043,-2.449219 z m -14.11133,24.625 c -9.888,0 -18.33575,3.503719 -25.34375,10.511719 -7.104,7.008 -10.65625,15.504281 -10.65625,25.488281 0,9.983997 3.50372,18.480277 10.51172,25.488277 7.008,7.008 15.50428,10.51172 25.48828,10.51172 11.328,0 19.96792,-4.51311 25.91992,-13.53711 3.168,9.024 9.69599,13.53711 19.58399,13.53711 h 1.29492 2.88086 101.80664 43.05664 c 5.568,0 10.79931,-1.24814 15.69531,-3.74414 4.896,-2.592 8.92966,-6.04914 12.09766,-10.36914 1.056,4.416 3.16794,7.87314 6.33594,10.36914 3.168,2.496 7.24628,3.74414 12.23828,3.74414 h 1.00976 2.87891 84.38475 v -13.82422 l -0.1445,-10.65625 c 0,-13.919996 -4.5112,-25.296902 -13.5352,-34.128902 -9.024,-8.928 -20.4009,-13.390625 -34.1289,-13.390625 h -29.80857 v 13.679688 h 29.08787 c 10.464,0 18.8652,3.119375 25.2012,9.359375 6.336,6.24 9.5039,14.641171 9.5039,25.201174 v 9.93554 h -70.56055 -2.87891 -1.00976 c -3.264,0 -5.80686,-1.00743 -7.63086,-3.02343 -1.824,-2.112 -2.73633,-4.84899 -2.73633,-8.20899 V 91.595703 c 0,-9.984 -3.55225,-18.480281 -10.65625,-25.488281 -7.008,-7.008 -15.45575,-10.511719 -25.34375,-10.511719 -9.888,0 -18.38428,3.503719 -25.48828,10.511719 -7.008,7.008 -10.51172,15.504281 -10.51172,25.488281 0,4.608 1.05597,8.880407 3.16797,12.816407 2.112,3.84 4.94409,6.95937 8.49609,9.35937 h -18.86328 -34.41601 c 4.128,-4.416 7.0552,-7.63243 8.7832,-9.64843 1.824,-2.112 4.12811,-4.992628 6.91211,-8.640628 2.88,-3.744 4.89683,-7.150656 6.04883,-10.222656 1.248,-3.168 1.87109,-6.240797 1.87109,-9.216797 0,-13.632 -9.59883,-20.447266 -28.79883,-20.447266 h -54.14453 v 24.046875 l 22.89649,34.128902 h -30.81641 -2.88086 -1.29492 c -7.488,0 -11.23242,-4.84892 -11.23242,-14.544918 V 55.595703 Z m 0,13.679688 h 20.44727 v 22.320312 c 0,6.72 -1.9683,12.094957 -5.9043,16.126957 -3.84,4.032 -8.68697,6.04882 -14.54297,6.04882 -6.144,0 -11.37726,-2.16046 -15.69726,-6.48046 -4.32,-4.32 -6.47852,-9.551317 -6.47852,-15.695317 0,-6.144 2.15852,-11.377267 6.47852,-15.697265 4.32,-4.416001 9.55326,-6.623047 15.69726,-6.623047 z m 73.72656,0 h 33.26563 c 6.24,0 10.84626,0.768687 13.82227,2.304687 2.97599,1.44 4.46484,4.318672 4.46484,8.638672 0,1.248 -0.2407,2.544672 -0.7207,3.888672 -0.384,1.344 -1.10416,2.830891 -2.16016,4.46289 -0.96,1.632002 -1.91891,3.120844 -2.87891,4.464844 -0.864,1.344 -2.2092,3.025016 -4.0332,5.041016 -1.824,2.015998 -3.31089,3.646528 -4.46289,4.894528 -1.056,1.248 -2.73702,3.07266 -5.04102,5.47266 -2.208,2.4 -3.83853,4.17612 -4.89453,5.32812 H 835.3125 L 812.27148,78.923828 Z m 120.81641,0 c 6.144,0 11.37531,2.207047 15.69531,6.623047 4.32,4.32 6.48047,9.553265 6.48047,15.697265 0,6.144 -2.16047,11.375317 -6.48047,15.695317 -4.32,4.32 -9.55131,6.48046 -15.69531,6.48046 -6.144,0 -11.37531,-2.16046 -15.69531,-6.48046 -4.32,-4.32 -6.48047,-9.551317 -6.48047,-15.695317 0,-6.144 2.16047,-11.377266 6.48047,-15.697265 4.32,-4.416 9.55131,-6.623047 15.69531,-6.623047 z m 95.32811,70.126949 c -2.4,0 -4.4634,0.81722 -6.1914,2.44922 -1.632,1.728 -2.4492,3.74288 -2.4492,6.04688 0,2.4 0.8172,4.41683 2.4492,6.04883 1.728,1.728 3.7914,2.59179 6.1914,2.59179 2.304,0 4.3208,-0.86379 6.0488,-2.59179 1.728,-1.632 2.5918,-3.64883 2.5918,-6.04883 0,-2.304 -0.8638,-4.31888 -2.5918,-6.04688 -1.728,-1.632 -3.7448,-2.44922 -6.0488,-2.44922 z"
             transform="translate(-169.00482,102.80557)" />
          <path
             id="path10172"
             style="fill:none;stroke:#f4a896;stroke-width:1.88976;stroke-miterlimit:4;stroke-dasharray:none;stroke-opacity:1"
             d="m 536.08008,15.275391 v 83.951171 c 0,8.543998 2.209,15.407798 6.625,20.591798 4.512,5.184 10.65564,7.77734 18.43164,7.77734 h 0.7207 2.87891 84.38476 v -13.82422 l -0.14453,-10.65625 c 0,-13.919996 -4.51115,-25.296902 -13.53515,-34.128902 -9.024,-8.928 -20.40091,-13.390625 -34.12891,-13.390625 h -29.80859 v 13.679688 h 29.08789 c 10.464,0 18.86517,3.119375 25.20117,9.359375 6.336,6.24 9.50391,14.641171 9.50391,25.201174 v 9.93554 h -70.56055 -2.87891 -0.7207 c -7.584,0 -11.37695,-4.84892 -11.37695,-14.544918 V 15.275391 Z m 69.72851,124.126949 c -2.4,0 -4.4634,0.81722 -6.1914,2.44922 -1.632,1.728 -2.44922,3.74288 -2.44922,6.04688 0,2.4 0.81722,4.41683 2.44922,6.04883 1.728,1.728 3.7914,2.59179 6.1914,2.59179 2.304,0 4.32083,-0.86379 6.04883,-2.59179 1.728,-1.632 2.5918,-3.64883 2.5918,-6.04883 0,-2.304 -0.8638,-4.31888 -2.5918,-6.04688 -1.728,-1.632 -3.74483,-2.44922 -6.04883,-2.44922 z"
             transform="translate(-169.00482,102.80557)" />
          <path
             d="m 286.5801,168.48078 q 10.512,-10.512 25.488,-10.512 15.984,0 26.064,10.944 10.224,10.8 10.224,27.936 v 29.664 q 0,15.696 -9.648,26.208 -9.648,10.512 -25.92,10.512 -9.072,0 -17.424,-3.888 -8.208,-3.744 -13.248,-10.368 l 9.648,-9.072 q 3.456,4.464 9.072,6.912 5.616,2.592 11.664,2.592 9.504,0 15.264,-5.472 5.904,-5.472 6.624,-13.536 h -20.448 q -16.416,0 -27.216,-10.368 -10.8,-10.368 -10.8,-26.064 0,-14.976 10.656,-25.488 z m 9.936,41.76 q 6.624,6.336 17.424,6.336 h 20.592 v -20.736 q 0,-10.656 -6.192,-17.424 -6.192,-6.768 -16.272,-6.768 -9.216,0 -15.84,6.48 -6.48,6.48 -6.48,15.84 0,10.08 6.768,16.272 z"
             id="path10176"
             style="fill:none;stroke:#f4a896;stroke-width:1.88976;stroke-miterlimit:4;stroke-dasharray:none;stroke-opacity:1" />
          <path
             d="m 144.88412,187.20078 v -14.4 h 13.824 v 14.4 q 0,14.544 7.632,22.032 7.632,7.344 22.32,7.344 h 13.968 v -19.152 q 0,-19.296 10.08,-29.088 10.08,-9.936 29.088,-9.936 h 18 v 72 h -13.824 v -58.608 h -3.888 q -13.248,0 -19.44,6.192 -6.19199,6.048 -6.19199,19.44 v 32.976 h -27.79201 q -20.88,0 -32.39999,-11.52 -11.37601,-11.52 -11.37601,-31.68 z m 28.224,57.744 q 2.448,-2.448 5.904,-2.448 3.312,0 5.76001,2.448 2.59199,2.448 2.59199,5.904 0,3.312 -2.59199,5.76 -2.44801,2.592 -5.76001,2.592 -3.456,0 -5.904,-2.592 -2.448,-2.448 -2.448,-5.76 0,-3.456 2.448,-5.904 z m 25.05601,0 q 2.30399,-2.448 5.75999,-2.448 3.31201,0 5.76,2.448 2.592,2.448 2.592,5.904 0,3.312 -2.592,5.76 -2.44799,2.592 -5.76,2.592 -3.456,0 -5.904,-2.448 -2.304,-2.448 -2.304,-5.904 0,-3.456 2.44801,-5.904 z"
             id="path10178"
             style="fill:none;stroke:#f4a896;stroke-width:1.88976;stroke-miterlimit:4;stroke-dasharray:none;stroke-opacity:1" />
        </g>
        <g
           aria-label="Jumaat Jawi"
           transform="translate(-149.42812,36.908904)"
           id="g13600"
           style="font-size:144px;line-height:1.25;font-family:MadaniArabic-Regular;-inkscape-font-specification:MadaniArabic-Regular;white-space:pre;shape-inside:url(#rect3427);display:inline;fill:none;stroke:#f4a896;stroke-width:1.88976;stroke-miterlimit:4;stroke-dasharray:none;stroke-opacity:1">
          <path
             d="m 141.42812,220.46478 10.8,-9.216 q 5.904,5.616 13.824,5.616 8.928,0 14.256,-6.192 5.328,-6.192 5.328,-16.56 v -68.832 h 14.832 v 68.832 q 0,16.992 -9.648,27.216 -9.504,10.224 -24.768,10.224 -14.976,0 -24.624,-11.088 z"
             id="path13580"
             style="fill:none;stroke:#f4a896;stroke-width:1.88976;stroke-miterlimit:4;stroke-dasharray:none;stroke-opacity:1" />
          <path
             d="m 219.33193,151.20078 h 14.112 v 40.176 q 0,12.96 6.048,19.584 6.048,6.624 15.408,6.624 9.216,0 15.264,-6.624 6.192,-6.624 6.192,-19.584 v -40.176 h 13.968 v 79.2 h -12.96 l -0.72,-14.112 q -3.456,6.768 -9.936,11.088 -6.48,4.176 -14.976,4.176 -14.544,0 -23.472,-10.224 -8.928,-10.224 -8.928,-29.952 z"
             id="path13582"
             style="fill:none;stroke:#f4a896;stroke-width:1.88976;stroke-miterlimit:4;stroke-dasharray:none;stroke-opacity:1" />
          <path
             d="m 310.91573,230.40078 v -79.2 h 12.96 l 0.72,13.104 q 2.88,-6.768 8.784,-10.512 6.048,-3.744 12.816,-3.744 9.072,0 15.264,4.752 6.336,4.608 8.928,12.096 2.592,-7.344 8.64,-12.096 6.048,-4.752 14.4,-4.752 13.392,0 21.312,9.36 8.064,9.216 8.064,28.944 v 42.048 h -14.112 v -42.048 q 0,-12.816 -4.896,-18.576 -4.752,-5.904 -12.528,-5.904 -7.344,0 -12.384,5.904 -5.04,5.904 -5.04,18.576 v 42.048 h -14.112 v -42.048 q 0,-12.816 -4.896,-18.576 -4.752,-5.904 -12.528,-5.904 -7.488,0 -12.528,6.624 -4.896,6.624 -4.896,19.584 v 40.32 z"
             id="path13584"
             style="fill:none;stroke:#f4a896;stroke-width:1.88976;stroke-miterlimit:4;stroke-dasharray:none;stroke-opacity:1" />
          <path
             d="m 448.43551,162.00078 q 11.232,-11.952 27.216,-11.952 9.504,0 17.568,5.04 8.208,5.04 11.952,12.816 l 0.72,-16.704 h 12.96 v 79.2 h -12.96 l -0.72,-16.56 q -3.744,7.632 -11.952,12.672 -8.064,4.896 -17.568,4.896 -15.984,0 -27.36,-11.952 -11.232,-11.952 -11.232,-28.656 0,-16.848 11.376,-28.8 z m 10.656,47.664 q 7.776,7.776 18.864,7.776 11.088,0 18.864,-7.776 7.92,-7.776 7.92,-18.864 0,-11.088 -7.92,-19.008 -7.776,-7.92 -18.864,-7.92 -10.944,0 -18.864,7.92 -7.776,7.92 -7.776,19.008 0,11.088 7.776,18.864 z"
             id="path13586"
             style="fill:none;stroke:#f4a896;stroke-width:1.88976;stroke-miterlimit:4;stroke-dasharray:none;stroke-opacity:1" />
          <path
             d="m 546.06744,162.00078 q 11.232,-11.952 27.216,-11.952 9.504,0 17.568,5.04 8.208,5.04 11.952,12.816 l 0.72,-16.704 h 12.96 v 79.2 h -12.96 l -0.72,-16.56 q -3.744,7.632 -11.952,12.672 -8.064,4.896 -17.568,4.896 -15.984,0 -27.36,-11.952 -11.232,-11.952 -11.232,-28.656 0,-16.848 11.376,-28.8 z m 10.656,47.664 q 7.776,7.776 18.864,7.776 11.088,0 18.864,-7.776 7.92,-7.776 7.92,-18.864 0,-11.088 -7.92,-19.008 -7.776,-7.92 -18.864,-7.92 -10.944,0 -18.864,7.92 -7.776,7.92 -7.776,19.008 0,11.088 7.776,18.864 z"
             id="path13588"
             style="fill:none;stroke:#f4a896;stroke-width:1.88976;stroke-miterlimit:4;stroke-dasharray:none;stroke-opacity:1" />
          <path
             d="m 630.01937,151.20078 h 11.088 l 1.728,-25.92 h 11.808 v 25.92 h 19.008 v 12.672 h -19.008 v 36.864 q 0,8.352 3.888,12.816 3.888,4.464 10.656,4.464 3.456,0 6.048,-1.008 l 3.6,12.528 q -4.896,2.16 -11.52,2.16 -11.808,0 -19.296,-7.488 -7.344,-7.632 -7.344,-23.328 v -37.008 h -10.656 z"
             id="path13590"
             style="fill:none;stroke:#f4a896;stroke-width:1.88976;stroke-miterlimit:4;stroke-dasharray:none;stroke-opacity:1" />
          <path
             d="m 726.35507,220.46478 10.8,-9.216 q 5.904,5.616 13.824,5.616 8.928,0 14.256,-6.192 5.328,-6.192 5.328,-16.56 v -68.832 h 14.832 v 68.832 q 0,16.992 -9.648,27.216 -9.504,10.224 -24.768,10.224 -14.976,0 -24.624,-11.088 z"
             id="path13592"
             style="fill:none;stroke:#f4a896;stroke-width:1.88976;stroke-miterlimit:4;stroke-dasharray:none;stroke-opacity:1" />
          <path
             d="m 812.6109,162.00078 q 11.232,-11.952 27.216,-11.952 9.504,0 17.568,5.04 8.208,5.04 11.952,12.816 l 0.72,-16.704 h 12.96 v 79.2 h -12.96 l -0.72,-16.56 q -3.744,7.632 -11.952,12.672 -8.064,4.896 -17.568,4.896 -15.984,0 -27.36,-11.952 -11.232,-11.952 -11.232,-28.656 0,-16.848 11.376,-28.8 z m 10.656,47.664 q 7.776,7.776 18.864,7.776 11.088,0 18.864,-7.776 7.92,-7.776 7.92,-18.864 0,-11.088 -7.92,-19.008 -7.776,-7.92 -18.864,-7.92 -10.944,0 -18.864,7.92 -7.776,7.92 -7.776,19.008 0,11.088 7.776,18.864 z"
             id="path13594"
             style="fill:none;stroke:#f4a896;stroke-width:1.88976;stroke-miterlimit:4;stroke-dasharray:none;stroke-opacity:1" />
          <path
             d="m 895.84279,151.20078 h 14.976 l 19.728,57.6 19.152,-57.6 h 14.256 l 19.296,57.6 19.72801,-57.6 h 14.976 l -27.79201,79.2 h -13.824 l -19.44,-56.88 -19.44,56.88 h -13.968 z"
             id="path13596"
             style="fill:none;stroke:#f4a896;stroke-width:1.88976;stroke-miterlimit:4;stroke-dasharray:none;stroke-opacity:1" />
          <path
             d="m 1030.7707,230.40078 v -79.2 h 13.968 v 79.2 z m -1.872,-96.192 q 0,-3.744 2.592,-6.336 2.736,-2.592 6.336,-2.592 3.6,0 6.192,2.736 2.592,2.592 2.592,6.192 0,3.6 -2.592,6.192 -2.592,2.736 -6.192,2.736 -3.6,0 -6.336,-2.592 -2.592,-2.592 -2.592,-6.336 z"
             id="path13598"
             style="fill:none;stroke:#f4a896;stroke-width:1.88976;stroke-miterlimit:4;stroke-dasharray:none;stroke-opacity:1" />
        </g>
      </g>
      <text
         xml:space="preserve"
         style="font-size:24px;line-height:1.25;font-family:MadaniArabic-Regular;-inkscape-font-specification:MadaniArabic-Regular;text-align:end;text-anchor:end;display:inline;fill:#f4a896;fill-opacity:1"
         x="442.5"
         y="1068"
         id="text111985"><tspan
           sodipodi:role="line"
           id="tspan111983"
           x="442.5"
           y="1068"
           style="font-style:normal;font-variant:normal;font-weight:normal;font-stretch:normal;font-family:'NKL MadaniArabic-Regular';-inkscape-font-specification:'NKL MadaniArabic-Regular';fill:#f4a896;fill-opacity:1">Oleh Niskala5570@Shirayuki Project</tspan></text>
    </g>
    <g
       inkscape:groupmode="layer"
       id="layer4"
       inkscape:label="Nombor"
       style="display:inline" />
    <g
       aria-label="ڤــنتون"
       id="text61070"
       style="font-size:85.6892px;line-height:1.25;font-family:MadaniArabic-Regular;-inkscape-font-specification:MadaniArabic-Regular;text-align:end;letter-spacing:0px;text-anchor:end;white-space:pre;fill:#f4a896;stroke-width:3.49083">
      <path
         d="m 477.70226,938.06723 v 8.22617 h 49.1856 v -20.82248 c 0,-6.16962 -2.05654,-11.39666 -6.16962,-15.68112 -4.11308,-4.19877 -9.25443,-6.341 -15.25268,-6.341 -5.82686,0 -10.79684,1.97085 -14.73854,5.91255 -4.02739,3.9417 -5.99824,8.7403 -5.99824,14.22441 0,2.99912 0.59982,5.74117 1.97085,8.31185 1.37102,2.57068 3.1705,4.62722 5.48411,6.16962 z m 14.56717,-13.19613 c 0,-3.59895 1.28533,-6.76945 3.85601,-9.34013 2.57068,-2.57067 5.65549,-3.9417 9.34012,-3.9417 3.59895,0 6.76945,1.28534 9.34013,3.85601 2.57067,2.57068 3.85601,5.74118 3.85601,9.42582 v 13.19613 h -13.19614 c -3.68463,0 -6.76944,-1.28534 -9.34012,-3.85601 -2.57068,-2.57068 -3.85601,-5.65549 -3.85601,-9.34012 z m 16.79508,-34.10431 c -1.02827,1.02827 -1.45672,2.14223 -1.45672,3.42757 0,1.37103 0.42845,2.48499 1.45672,3.42757 0.94258,1.02827 2.05654,1.45672 3.42757,1.45672 1.28534,0 2.39929,-0.42845 3.42757,-1.45672 0.94258,-0.94258 1.45671,-2.05654 1.45671,-3.42757 0,-1.28534 -0.51413,-2.3993 -1.45671,-3.42757 -1.02828,-0.94258 -2.14223,-1.45671 -3.42757,-1.45671 -1.37103,0 -2.48499,0.51413 -3.42757,1.45671 z m -15.68112,3.42757 c 0,1.37103 0.42844,2.48499 1.37102,3.42757 0.94258,1.02827 2.05654,1.45672 3.42757,1.45672 1.28534,0 2.3993,-0.42845 3.42757,-1.45672 0.94258,-0.94258 1.45671,-2.05654 1.45671,-3.42757 0,-1.28534 -0.51413,-2.3993 -1.45671,-3.42757 -1.02827,-0.94258 -2.14223,-1.45671 -3.42757,-1.45671 -1.37103,0 -2.48499,0.51413 -3.42757,1.45671 -0.94258,1.02827 -1.37102,2.14223 -1.37102,3.42757 z m 8.82598,-14.39578 c -0.85689,0.85689 -1.28534,1.97085 -1.28534,3.1705 0,1.19965 0.42845,2.22792 1.28534,3.08481 0.85689,0.85689 1.88517,1.28534 3.1705,1.28534 1.19965,0 2.22792,-0.42845 3.08481,-1.28534 0.8569,-0.85689 1.28534,-1.88516 1.28534,-3.08481 0,-1.19965 -0.42844,-2.31361 -1.28534,-3.1705 -0.85689,-0.8569 -1.88516,-1.28534 -3.08481,-1.28534 -1.28533,0 -2.31361,0.42844 -3.1705,1.28534 z"
         style="font-family:'NKL MadaniArabic-Regular';-inkscape-font-specification:'NKL MadaniArabic-Regular'"
         id="path88414" />
      <path
         d="m 479.41611,946.2934 v -8.22617 h -34.27568 v 8.22617 z"
         style="font-family:'NKL MadaniArabic-Regular';-inkscape-font-specification:'NKL MadaniArabic-Regular'"
         id="path88416" />
      <path
         d="m 446.85428,946.2934 v -8.22617 H 412.5786 v 8.22617 z"
         style="font-family:'NKL MadaniArabic-Regular';-inkscape-font-specification:'NKL MadaniArabic-Regular'"
         id="path88418" />
      <path
         d="m 387.64319,946.2934 h 2.48499 c 4.7986,0 8.39754,-1.88517 10.88253,-5.82687 2.31361,3.9417 5.91255,5.82687 10.79684,5.82687 h 2.48499 v -8.22617 h -2.48499 c -4.54153,0 -6.76945,-2.82774 -6.76945,-8.65461 V 903.4488 h -8.14047 v 25.96382 c 0,5.82687 -2.31361,8.65461 -6.76945,8.65461 h -2.48499 z m 8.22617,-52.69886 c 0,1.45671 0.42844,2.65636 1.45671,3.68463 1.02827,1.02827 2.22792,1.45672 3.68464,1.45672 1.37103,0 2.65637,-0.51414 3.68464,-1.54241 0.94258,-0.94258 1.45671,-2.14223 1.45671,-3.59894 0,-1.37103 -0.51413,-2.57068 -1.5424,-3.59895 -1.02827,-1.02827 -2.22792,-1.5424 -3.59895,-1.5424 -1.45672,0 -2.65637,0.51413 -3.68464,1.5424 -1.02827,1.02827 -1.45671,2.22792 -1.45671,3.59895 z"
         style="font-family:'NKL MadaniArabic-Regular';-inkscape-font-specification:'NKL MadaniArabic-Regular'"
         id="path88420" />
      <path
         d="m 356.36665,946.2934 h 5.65549 c 4.79859,0 8.39754,-1.88517 10.88253,-5.82687 2.31361,3.9417 5.91255,5.82687 10.79684,5.82687 h 5.65548 v -8.22617 h -5.65548 c -4.54153,0 -6.76945,-2.82774 -6.76945,-8.65461 V 903.4488 h -8.14047 v 25.96382 c 0,5.82687 -2.31361,8.65461 -6.76945,8.65461 h -5.65549 z m 20.30834,-56.04074 c -1.02827,1.02827 -1.45671,2.14223 -1.45671,3.51326 0,1.37102 0.42844,2.57067 1.45671,3.51325 0.94258,1.02827 2.14223,1.45672 3.51326,1.45672 1.37103,0 2.48499,-0.42845 3.51326,-1.45672 0.94258,-0.94258 1.45671,-2.14223 1.45671,-3.51325 0,-1.37103 -0.51413,-2.48499 -1.45671,-3.51326 -1.02827,-0.94258 -2.14223,-1.45672 -3.51326,-1.45672 -1.37103,0 -2.57068,0.51414 -3.51326,1.45672 z m -15.8525,3.51326 c 0,1.37102 0.42845,2.57067 1.37103,3.51325 0.94258,1.02827 2.14223,1.45672 3.51325,1.45672 1.37103,0 2.48499,-0.42845 3.51326,-1.45672 0.94258,-0.94258 1.45672,-2.14223 1.45672,-3.51325 0,-1.37103 -0.51414,-2.48499 -1.45672,-3.51326 -1.02827,-0.94258 -2.14223,-1.45672 -3.51326,-1.45672 -1.37102,0 -2.57067,0.51414 -3.51325,1.45672 -0.94258,1.02827 -1.37103,2.14223 -1.37103,3.51326 z"
         style="font-family:'NKL MadaniArabic-Regular';-inkscape-font-specification:'NKL MadaniArabic-Regular'"
         id="path88422" />
      <path
         d="m 314.37901,909.44704 c -4.28446,4.19877 -6.341,9.25443 -6.341,15.16699 0,6.25531 2.14223,11.39666 6.42669,15.50974 4.28446,4.11309 9.68288,6.16963 16.19526,6.16963 h 12.16787 c -0.34276,3.08481 -1.71379,5.74117 -4.0274,7.96909 -2.3136,2.22792 -5.31273,3.34188 -8.99736,3.34188 -2.3993,0 -4.71291,-0.42845 -6.94083,-1.45672 -2.22792,-1.02827 -4.02739,-2.39929 -5.39842,-4.19877 l -5.74117,5.39842 c 1.97085,2.65637 4.62721,4.71291 7.8834,6.25531 3.25619,1.54241 6.76945,2.22792 10.3684,2.22792 5.99824,0 10.88252,-1.79947 14.65285,-5.56979 3.77032,-3.77033 5.91255,-8.39755 6.42669,-13.96734 h 7.02651 v -8.22617 h -6.94082 v -11.73942 c 0,-6.76944 -2.05654,-12.33924 -6.08393,-16.6237 -4.0274,-4.28446 -9.16875,-6.51238 -15.50975,-6.51238 -5.99824,0 -11.05391,2.14223 -15.16699,6.25531 z m 5.91256,24.84987 c -2.74206,-2.3993 -4.0274,-5.65549 -4.0274,-9.68288 0,-3.68464 1.28534,-6.85514 3.85602,-9.42581 2.57067,-2.57068 5.74117,-3.85602 9.42581,-3.85602 3.9417,0 7.19789,1.37103 9.68288,4.02739 2.3993,2.74206 3.68464,6.16963 3.68464,10.3684 v 12.33924 h -12.25356 c -4.28446,0 -7.79772,-1.19965 -10.36839,-3.77032 z"
         style="font-family:'NKL MadaniArabic-Regular';-inkscape-font-specification:'NKL MadaniArabic-Regular'"
         id="path88424" />
    </g>
    <g
       aria-label="Pantun"
       id="g22548"
       style="font-size:72px;line-height:1.25;font-family:MadaniArabic-Regular;-inkscape-font-specification:MadaniArabic-Regular;text-align:end;letter-spacing:0px;text-anchor:end;white-space:pre;fill:#f4a896;fill-opacity:1;stroke-width:2.93316"
       transform="matrix(1.3652366,0,0,1.3652366,-194.86023,541.3687)">
      <path
         d="m 330.51155,324.06401 q 5.616,-5.976 13.608,-5.976 4.752,0 8.784,2.52 4.104,2.52 5.976,6.408 l 0.36,-8.352 h 6.48 v 39.6 h -6.48 l -0.36,-8.28 q -1.872,3.816 -5.976,6.336 -4.032,2.448 -8.784,2.448 -7.992,0 -13.68,-5.976 -5.616,-5.976 -5.616,-14.328 0,-8.424 5.688,-14.4 z m 5.328,23.832 q 3.888,3.888 9.432,3.888 5.544,0 9.432,-3.888 3.96,-3.888 3.96,-9.432 0,-5.544 -3.96,-9.504 -3.888,-3.96 -9.432,-3.96 -5.472,0 -9.432,3.96 -3.888,3.96 -3.888,9.504 0,5.544 3.888,9.432 z"
         id="path22538"
         style="fill:#f4a896;fill-opacity:1" />
      <path
         d="m 376.01551,358.26401 v -39.6 h 6.48 l 0.36,6.984 q 1.728,-3.384 4.896,-5.472 3.24,-2.088 7.56,-2.088 7.272,0 11.736,5.112 4.464,5.04 4.464,14.904 v 20.16 h -7.056 v -20.16 q 0,-6.408 -3.024,-9.72 -3.024,-3.384 -7.704,-3.384 -4.608,0 -7.704,3.312 -3.024,3.312 -3.024,9.792 v 20.16 z"
         id="path22540"
         style="fill:#f4a896;fill-opacity:1" />
      <path
         d="m 417.41541,318.66401 h 5.544 l 0.864,-12.96 h 5.904 v 12.96 h 9.504 v 6.336 h -9.504 v 18.432 q 0,4.176 1.944,6.408 1.944,2.232 5.328,2.232 1.728,0 3.024,-0.504 l 1.8,6.264 q -2.448,1.08 -5.76,1.08 -5.904,0 -9.648,-3.744 -3.672,-3.816 -3.672,-11.664 v -18.504 h -5.328 z"
         id="path22542"
         style="fill:#f4a896;fill-opacity:1" />
      <path
         d="m 448.44735,318.66401 h 7.056 v 20.088 q 0,6.48 3.024,9.792 3.024,3.312 7.704,3.312 4.608,0 7.632,-3.312 3.096,-3.312 3.096,-9.792 v -20.088 h 6.984 v 39.6 h -6.48 l -0.36,-7.056 q -1.728,3.384 -4.968,5.544 -3.24,2.088 -7.488,2.088 -7.272,0 -11.736,-5.112 -4.464,-5.112 -4.464,-14.976 z"
         id="path22544"
         style="fill:#f4a896;fill-opacity:1" />
      <path
         d="m 494.23925,358.26401 v -39.6 h 6.48 l 0.36,6.984 q 1.728,-3.384 4.896,-5.472 3.24,-2.088 7.56,-2.088 7.272,0 11.736,5.112 4.464,5.04 4.464,14.904 v 20.16 h -7.056 v -20.16 q 0,-6.408 -3.024,-9.72 -3.024,-3.384 -7.704,-3.384 -4.608,0 -7.704,3.312 -3.024,3.312 -3.024,9.792 v 20.16 z"
         id="path22546"
         style="fill:#f4a896;fill-opacity:1" />
    </g>
    <text
       xml:space="preserve"
       style="font-style:normal;font-variant:normal;font-weight:normal;font-stretch:normal;font-size:197.021px;line-height:0.9;font-family:Montserrat-Arabic;-inkscape-font-specification:Montserrat-Arabic;text-align:end;direction:rtl;text-anchor:end;opacity:1;fill:#f4a896;fill-opacity:1;stroke-width:11.1697;stroke-linecap:round;stroke-linejoin:round;stroke-miterlimit:5;paint-order:stroke markers fill"
       x="-604.65948"
       y="1051.1213"
       id="text2474"><tspan
         sodipodi:role="line"
         id="tspan2472"
         x="-604.65948"
         y="1051.1213"
         style="fill:#f4a896;fill-opacity:1;stroke-width:11.1697"
         dx="0 -20">10</tspan></text>
    <g
       id="g4071"
       transform="translate(-330.19667,-428.84575)">
      <text
         xml:space="preserve"
         style="font-style:normal;font-variant:normal;font-weight:normal;font-stretch:normal;font-size:85.6892px;line-height:1.25;font-family:Montserrat-Arabic;-inkscape-font-specification:Montserrat-Arabic;text-align:end;letter-spacing:0px;text-anchor:end;white-space:pre;fill:#f4a896;fill-opacity:1;stroke-width:3.49083"
         x="269.07095"
         y="1406.9204"
         id="text2482"><tspan
           sodipodi:role="line"
           id="tspan2480"
           x="269.07095"
           y="1406.9204"
           style="font-style:normal;font-variant:normal;font-weight:normal;font-stretch:normal;font-size:85.6892px;font-family:Montserrat-Arabic;-inkscape-font-specification:Montserrat-Arabic;fill:#f4a896;fill-opacity:1;stroke-width:3.49083">ڤـــنتون</tspan></text>
      <g
         aria-label="Pantun"
         id="g2501"
         style="font-size:72px;line-height:1.25;font-family:MadaniArabic-Regular;-inkscape-font-specification:MadaniArabic-Regular;text-align:end;letter-spacing:0px;text-anchor:end;white-space:pre;fill:#f4a896;fill-opacity:1;stroke-width:2.93316"
         transform="matrix(1.3652366,0,0,1.3652366,-455.57061,998.10645)">
        <path
           d="m 301.85555,305.70401 q 7.848,0 12.744,4.752 4.968,4.752 4.968,11.736 0,6.984 -4.968,11.808 -4.896,4.752 -12.744,4.752 h -12.528 v 19.512 h -7.416 v -52.56 z m -0.144,25.776 q 4.608,0 7.416,-2.664 2.808,-2.736 2.808,-6.624 0,-3.816 -2.808,-6.48 -2.808,-2.736 -7.416,-2.736 h -12.384 v 18.504 z"
           id="path2489"
           style="fill:#f4a896;fill-opacity:1" />
        <path
           d="m 330.51155,324.06401 q 5.616,-5.976 13.608,-5.976 4.752,0 8.784,2.52 4.104,2.52 5.976,6.408 l 0.36,-8.352 h 6.48 v 39.6 h -6.48 l -0.36,-8.28 q -1.872,3.816 -5.976,6.336 -4.032,2.448 -8.784,2.448 -7.992,0 -13.68,-5.976 -5.616,-5.976 -5.616,-14.328 0,-8.424 5.688,-14.4 z m 5.328,23.832 q 3.888,3.888 9.432,3.888 5.544,0 9.432,-3.888 3.96,-3.888 3.96,-9.432 0,-5.544 -3.96,-9.504 -3.888,-3.96 -9.432,-3.96 -5.472,0 -9.432,3.96 -3.888,3.96 -3.888,9.504 0,5.544 3.888,9.432 z"
           id="path2491"
           style="fill:#f4a896;fill-opacity:1" />
        <path
           d="m 376.01551,358.26401 v -39.6 h 6.48 l 0.36,6.984 q 1.728,-3.384 4.896,-5.472 3.24,-2.088 7.56,-2.088 7.272,0 11.736,5.112 4.464,5.04 4.464,14.904 v 20.16 h -7.056 v -20.16 q 0,-6.408 -3.024,-9.72 -3.024,-3.384 -7.704,-3.384 -4.608,0 -7.704,3.312 -3.024,3.312 -3.024,9.792 v 20.16 z"
           id="path2493"
           style="fill:#f4a896;fill-opacity:1" />
        <path
           d="m 417.41541,318.66401 h 5.544 l 0.864,-12.96 h 5.904 v 12.96 h 9.504 v 6.336 h -9.504 v 18.432 q 0,4.176 1.944,6.408 1.944,2.232 5.328,2.232 1.728,0 3.024,-0.504 l 1.8,6.264 q -2.448,1.08 -5.76,1.08 -5.904,0 -9.648,-3.744 -3.672,-3.816 -3.672,-11.664 v -18.504 h -5.328 z"
           id="path2495"
           style="fill:#f4a896;fill-opacity:1" />
        <path
           d="m 448.44735,318.66401 h 7.056 v 20.088 q 0,6.48 3.024,9.792 3.024,3.312 7.704,3.312 4.608,0 7.632,-3.312 3.096,-3.312 3.096,-9.792 v -20.088 h 6.984 v 39.6 h -6.48 l -0.36,-7.056 q -1.728,3.384 -4.968,5.544 -3.24,2.088 -7.488,2.088 -7.272,0 -11.736,-5.112 -4.464,-5.112 -4.464,-14.976 z"
           id="path2497"
           style="fill:#f4a896;fill-opacity:1" />
        <path
           d="m 494.23925,358.26401 v -39.6 h 6.48 l 0.36,6.984 q 1.728,-3.384 4.896,-5.472 3.24,-2.088 7.56,-2.088 7.272,0 11.736,5.112 4.464,5.04 4.464,14.904 v 20.16 h -7.056 v -20.16 q 0,-6.408 -3.024,-9.72 -3.024,-3.384 -7.704,-3.384 -4.608,0 -7.704,3.312 -3.024,3.312 -3.024,9.792 v 20.16 z"
           id="path2499"
           style="fill:#f4a896;fill-opacity:1" />
      </g>
    </g>
    <path
       d="m -414.45287,1688.384 h 26.82075 l -5.27968,25.976 h 17.31733 l 5.49087,-25.976 h 36.32416 l -5.06849,25.976 h 17.52852 l 5.06849,-25.976 h 26.39838 l 3.59018,-17.1062 h -26.39838 l 7.18036,-35.2682 h 26.39837 l 3.80137,-16.8949 h -26.82075 l 5.27968,-26.1872 h -17.52852 l -5.27968,26.1872 h -36.53535 l 5.27967,-26.1872 h -17.31733 l -5.49086,26.1872 h -26.18719 l -3.80137,16.8949 h 26.82075 l -7.39154,35.2682 h -26.60956 z m 84.05242,-17.1062 h -36.32416 l 7.18036,-35.2682 h 36.53535 z"
       style="font-size:211.187px;line-height:1.25;font-family:'NKL MadaniArabic-Regular';-inkscape-font-specification:'NKL MadaniArabic-Regular';text-align:end;letter-spacing:-10px;text-anchor:end;white-space:pre;fill:#f4a896;stroke-width:2.93316"
       id="path4073" />
    <text
       xml:space="preserve"
       style="font-style:normal;font-variant:normal;font-weight:normal;font-stretch:normal;font-size:197.021px;line-height:0.9;font-family:Montserrat-Arabic;-inkscape-font-specification:Montserrat-Arabic;text-align:end;direction:rtl;text-anchor:end;opacity:1;fill:#f4a896;fill-opacity:1;stroke-width:11.1697;stroke-linecap:round;stroke-linejoin:round;stroke-miterlimit:5;paint-order:stroke markers fill"
       x="-274.46277"
       y="1722.6011"
       id="text4077"><tspan
         sodipodi:role="line"
         id="tspan4075"
         x="-274.46277"
         y="1722.6011"
         style="fill:#f4a896;fill-opacity:1;stroke-width:11.1697"
         dx="0 -20">10</tspan></text>
    <g
       id="g4097"
       transform="translate(0,242.63399)">
      <text
         xml:space="preserve"
         style="font-style:normal;font-variant:normal;font-weight:normal;font-stretch:normal;font-size:85.6892px;line-height:1.25;font-family:Montserrat-Arabic;-inkscape-font-specification:Montserrat-Arabic;text-align:end;letter-spacing:0px;text-anchor:end;white-space:pre;fill:#f4a896;fill-opacity:1;stroke-width:3.49083"
         x="269.07095"
         y="1406.9204"
         id="text4081"><tspan
           sodipodi:role="line"
           id="tspan4079"
           x="269.07095"
           y="1406.9204"
           style="font-style:normal;font-variant:normal;font-weight:normal;font-stretch:normal;font-size:85.6892px;font-family:Montserrat-Arabic;-inkscape-font-specification:Montserrat-Arabic;fill:#f4a896;fill-opacity:1;stroke-width:3.49083">ڤـــنتون</tspan></text>
      <g
         aria-label="Pantun"
         id="g4095"
         style="font-size:72px;line-height:1.25;font-family:MadaniArabic-Regular;-inkscape-font-specification:MadaniArabic-Regular;text-align:end;letter-spacing:0px;text-anchor:end;white-space:pre;fill:#f4a896;fill-opacity:1;stroke-width:2.93316"
         transform="matrix(1.3652366,0,0,1.3652366,-455.57061,998.10645)">
        <path
           d="m 301.85555,305.70401 q 7.848,0 12.744,4.752 4.968,4.752 4.968,11.736 0,6.984 -4.968,11.808 -4.896,4.752 -12.744,4.752 h -12.528 v 19.512 h -7.416 v -52.56 z m -0.144,25.776 q 4.608,0 7.416,-2.664 2.808,-2.736 2.808,-6.624 0,-3.816 -2.808,-6.48 -2.808,-2.736 -7.416,-2.736 h -12.384 v 18.504 z"
           id="path4083"
           style="fill:#f4a896;fill-opacity:1" />
        <path
           d="m 330.51155,324.06401 q 5.616,-5.976 13.608,-5.976 4.752,0 8.784,2.52 4.104,2.52 5.976,6.408 l 0.36,-8.352 h 6.48 v 39.6 h -6.48 l -0.36,-8.28 q -1.872,3.816 -5.976,6.336 -4.032,2.448 -8.784,2.448 -7.992,0 -13.68,-5.976 -5.616,-5.976 -5.616,-14.328 0,-8.424 5.688,-14.4 z m 5.328,23.832 q 3.888,3.888 9.432,3.888 5.544,0 9.432,-3.888 3.96,-3.888 3.96,-9.432 0,-5.544 -3.96,-9.504 -3.888,-3.96 -9.432,-3.96 -5.472,0 -9.432,3.96 -3.888,3.96 -3.888,9.504 0,5.544 3.888,9.432 z"
           id="path4085"
           style="fill:#f4a896;fill-opacity:1" />
        <path
           d="m 376.01551,358.26401 v -39.6 h 6.48 l 0.36,6.984 q 1.728,-3.384 4.896,-5.472 3.24,-2.088 7.56,-2.088 7.272,0 11.736,5.112 4.464,5.04 4.464,14.904 v 20.16 h -7.056 v -20.16 q 0,-6.408 -3.024,-9.72 -3.024,-3.384 -7.704,-3.384 -4.608,0 -7.704,3.312 -3.024,3.312 -3.024,9.792 v 20.16 z"
           id="path4087"
           style="fill:#f4a896;fill-opacity:1" />
        <path
           d="m 417.41541,318.66401 h 5.544 l 0.864,-12.96 h 5.904 v 12.96 h 9.504 v 6.336 h -9.504 v 18.432 q 0,4.176 1.944,6.408 1.944,2.232 5.328,2.232 1.728,0 3.024,-0.504 l 1.8,6.264 q -2.448,1.08 -5.76,1.08 -5.904,0 -9.648,-3.744 -3.672,-3.816 -3.672,-11.664 v -18.504 h -5.328 z"
           id="path4089"
           style="fill:#f4a896;fill-opacity:1" />
        <path
           d="m 448.44735,318.66401 h 7.056 v 20.088 q 0,6.48 3.024,9.792 3.024,3.312 7.704,3.312 4.608,0 7.632,-3.312 3.096,-3.312 3.096,-9.792 v -20.088 h 6.984 v 39.6 h -6.48 l -0.36,-7.056 q -1.728,3.384 -4.968,5.544 -3.24,2.088 -7.488,2.088 -7.272,0 -11.736,-5.112 -4.464,-5.112 -4.464,-14.976 z"
           id="path4091"
           style="fill:#f4a896;fill-opacity:1" />
        <path
           d="m 494.23925,358.26401 v -39.6 h 6.48 l 0.36,6.984 q 1.728,-3.384 4.896,-5.472 3.24,-2.088 7.56,-2.088 7.272,0 11.736,5.112 4.464,5.04 4.464,14.904 v 20.16 h -7.056 v -20.16 q 0,-6.408 -3.024,-9.72 -3.024,-3.384 -7.704,-3.384 -4.608,0 -7.704,3.312 -3.024,3.312 -3.024,9.792 v 20.16 z"
           id="path4093"
           style="fill:#f4a896;fill-opacity:1" />
      </g>
    </g>
  </g>
  <g
     inkscape:groupmode="layer"
     id="layer6"
     inkscape:label="Teks Utama"
     style="display:inline">
    <text
       xml:space="preserve"
       style="font-style:normal;font-variant:normal;font-weight:normal;font-stretch:normal;font-size:72px;line-height:1.25;font-family:Kitab;-inkscape-font-specification:Kitab;text-align:start;direction:rtl;text-anchor:start;fill:#eeeeee;fill-opacity:1"
       x="1930.8967"
       y="396.42642"
       id="text149079"><tspan
         sodipodi:role="line"
         x="1930.8967"
         y="396.42642"
         style="text-align:start;direction:rtl;text-anchor:start;fill:#eeeeee;fill-opacity:1"
         id="tspan1860"
         rotate="0 0 0 0 0 0 0 0 0 0 0 0 0 0 0 0 0 0 0 0 0 0">ماکن بقسو چمڤور چوک،⹁</tspan><tspan
         sodipodi:role="line"
         x="1930.8967"
         y="486.42642"
         style="text-align:start;direction:rtl;text-anchor:start;fill:#eeeeee;fill-opacity:1"
         id="tspan4178">مينتا ساتو دبري ليم؛</tspan><tspan
         sodipodi:role="line"
         x="1930.8967"
         y="576.42639"
         style="text-align:start;direction:rtl;text-anchor:start;fill:#eeeeee;fill-opacity:1"
         id="tspan1864">برسوڤن سنتون راماي يڠ سوک،</tspan><tspan
         sodipodi:role="line"
         x="1930.8967"
         y="666.42639"
         style="text-align:start;direction:rtl;text-anchor:start;fill:#eeeeee;fill-opacity:1"
         id="tspan2290">اخلق موليا ممڠ اوتام.</tspan></text>
    <text
       xml:space="preserve"
       style="font-size:26.4859px;line-height:1.25;font-family:MadaniArabic-Regular;-inkscape-font-specification:MadaniArabic-Regular;text-align:start;text-anchor:start;display:inline;fill:#f4a896;fill-opacity:1;stroke-width:1.10358"
       x="626.31006"
       y="937.32965"
       id="text164138"><tspan
         sodipodi:role="line"
         id="tspan164136"
         x="626.31006"
         y="937.32965"
         style="font-style:normal;font-variant:normal;font-weight:normal;font-stretch:normal;font-family:'NKL MadaniArabic-Regular';-inkscape-font-specification:'NKL MadaniArabic-Regular';fill:#f4a896;fill-opacity:1;stroke-width:1.10358">Sumber:</tspan><tspan
         sodipodi:role="line"
         x="626.31006"
         y="972.67175"
         id="tspan166100"
         style="font-style:normal;font-variant:normal;font-weight:normal;font-stretch:normal;font-family:'NKL MadaniArabic-Regular';-inkscape-font-specification:'NKL MadaniArabic-Regular';fill:#f4a896;fill-opacity:1;stroke-width:1.10358">AyanoKouji EDTZ</tspan><tspan
         sodipodi:role="line"
         x="626.31006"
         y="1008.0139"
         style="font-style:normal;font-variant:normal;font-weight:normal;font-stretch:normal;font-family:'NKL MadaniArabic-Regular';-inkscape-font-specification:'NKL MadaniArabic-Regular';fill:#f4a896;fill-opacity:1;stroke-width:1.10358"
         id="tspan10665"> - Terjumpa Di Ulasan Youtube</tspan></text>
    <text
       xml:space="preserve"
       style="font-style:normal;font-variant:normal;font-weight:normal;font-stretch:normal;font-size:28px;line-height:1.25;font-family:Kufam;-inkscape-font-specification:Kufam;text-align:center;text-anchor:middle;fill:#fcffff;fill-opacity:1"
       x="539.71997"
       y="798.01434"
       id="text167531"
       inkscape:export-filename="D:\Niskala's Void\Project\Design\Jumaat Jawi\7_jumaatjawiwebp.webp"
       inkscape:export-xdpi="300.01199"
       inkscape:export-ydpi="300.01199"><tspan
         sodipodi:role="line"
         x="539.71997"
         y="798.01434"
         style="font-style:normal;font-variant:normal;font-weight:normal;font-stretch:normal;font-size:28px;font-family:Kufam;-inkscape-font-specification:Kufam;text-align:center;text-anchor:middle;fill:#fcffff;fill-opacity:1"
         id="tspan23516">Makan bakso campur cuka, Minta satu diberi lima;</tspan><tspan
         sodipodi:role="line"
         x="539.71997"
         y="833.01434"
         style="font-style:normal;font-variant:normal;font-weight:normal;font-stretch:normal;font-size:28px;font-family:Kufam;-inkscape-font-specification:Kufam;text-align:center;text-anchor:middle;fill:#fcffff;fill-opacity:1"
         id="tspan1519">Bersopan santun ramai yang suka, Akhlak mulia memang utama.</tspan></text>
    <text
       xml:space="preserve"
       style="font-size:26.4859px;line-height:1.25;font-family:MadaniArabic-Regular;-inkscape-font-specification:MadaniArabic-Regular;text-align:start;text-anchor:start;display:inline;fill:#f4a896;fill-opacity:1;stroke-width:1.10358"
       x="1022.3101"
       y="1069.3297"
       id="text4720"
       inkscape:export-filename="D:\Niskala's Void\Project\Design\Jumaat Jawi\8_jumaatjawiwebp.webp"
       inkscape:export-xdpi="300.01199"
       inkscape:export-ydpi="300.01199"><tspan
         sodipodi:role="line"
         x="1022.3101"
         y="1069.3297"
         id="tspan4718"
         style="font-style:normal;font-variant:normal;font-weight:normal;font-stretch:normal;font-family:'NKL MadaniArabic-Regular';-inkscape-font-specification:'NKL MadaniArabic-Regular';fill:#f4a896;fill-opacity:1;stroke-width:1.10358">v2</tspan></text>
    <text
       xml:space="preserve"
       style="font-style:normal;font-variant:normal;font-weight:normal;font-stretch:normal;font-size:72px;line-height:1.25;font-family:Kitab;-inkscape-font-specification:Kitab;text-align:end;text-anchor:end;fill:#eeeeee;fill-opacity:1"
       x="1418.9949"
       y="589.12994"
       id="text102531"><tspan
         sodipodi:role="line"
         id="tspan102529"
         x="1418.9949"
         y="589.12994" /></text>
    <text
       xml:space="preserve"
       style="font-style:normal;font-variant:normal;font-weight:normal;font-stretch:normal;font-size:72px;line-height:1.25;font-family:Kitab;-inkscape-font-specification:Kitab;text-align:end;text-anchor:end;fill:#eeeeee;fill-opacity:1"
       x="2082.4133"
       y="372"
       id="text1046"><tspan
         sodipodi:role="line"
         id="tspan1044"
         x="2082.4133"
         y="372" /></text>
    <text
       xml:space="preserve"
       style="font-style:normal;font-variant:normal;font-weight:normal;font-stretch:normal;font-size:72px;line-height:1.25;font-family:Kitab;-inkscape-font-specification:Kitab;text-align:start;direction:rtl;text-anchor:start;fill:#eeeeee;fill-opacity:1"
       x="2779.4248"
       y="1191.958"
       id="text3927"><tspan
         sodipodi:role="line"
         x="2779.4248"
         y="1191.958"
         style="text-align:start;direction:rtl;text-anchor:start;fill:#eeeeee;fill-opacity:1"
         id="tspan3925">Asam kandis mari dihiris , Manis sekali rasa isinya ; Dilihat manis dipandang manis , Lebih manis hati budinya.</tspan><tspan
         sodipodi:role="line"
         x="2779.4248"
         y="1281.958"
         style="text-align:start;direction:rtl;text-anchor:start;fill:#eeeeee;fill-opacity:1"
         id="tspan3990"></tspan><tspan
         sodipodi:role="line"
         x="2779.4248"
         y="1371.958"
         style="text-align:start;direction:rtl;text-anchor:start;fill:#eeeeee;fill-opacity:1"
         id="tspan3992">© Sumber Asal Informasi Dari : https://www.irujukan.my/pantun-4-kerat/</tspan></text>
  </g>
</svg>
