<?xml version="1.0" encoding="UTF-8" standalone="no"?>
<!-- Created with Inkscape (http://www.inkscape.org/) -->

<svg
   version="1.1"
   id="svg99"
   width="1080"
   height="1080"
   viewBox="0 0 1080 1080"
   sodipodi:docname="desain.svg"
   inkscape:version="1.1 (c68e22c387, 2021-05-23)"
   inkscape:export-filename="D:\Niskala's Void\Project\Design\Jumaat Jawi\10_jumaatjawiwebp.webp"
   inkscape:export-xdpi="300.01199"
   inkscape:export-ydpi="300.01199"
   xmlns:inkscape="http://www.inkscape.org/namespaces/inkscape"
   xmlns:sodipodi="http://sodipodi.sourceforge.net/DTD/sodipodi-0.dtd"
   xmlns:xlink="http://www.w3.org/1999/xlink"
   xmlns="http://www.w3.org/2000/svg"
   xmlns:svg="http://www.w3.org/2000/svg">
  <defs
     id="defs103">
    <linearGradient
       inkscape:collect="always"
       id="linearGradient124960">
      <stop
         style="stop-color:#64c3c8;stop-opacity:1"
         offset="0"
         id="stop124956" />
      <stop
         style="stop-color:#7c79ba;stop-opacity:1"
         offset="1"
         id="stop124958" />
    </linearGradient>
    <rect
       x="137.82857"
       y="100.8"
       width="944.22858"
       height="166.62857"
       id="rect3427" />
    <rect
       x="137.82857"
       y="100.8"
       width="944.22858"
       height="166.62857"
       id="rect13459" />
    <linearGradient
       inkscape:collect="always"
       xlink:href="#linearGradient124960"
       id="linearGradient124962"
       x1="0"
       y1="540"
       x2="1080"
       y2="540"
       gradientUnits="userSpaceOnUse" />
  </defs>
  <sodipodi:namedview
     id="namedview101"
     pagecolor="#505050"
     bordercolor="#eeeeee"
     borderopacity="1"
     inkscape:pageshadow="0"
     inkscape:pageopacity="0"
     inkscape:pagecheckerboard="0"
     showgrid="false"
     inkscape:snap-global="false"
     inkscape:snap-bbox="true"
     showguides="true"
     inkscape:guide-bbox="true"
     inkscape:zoom="1"
     inkscape:cx="340.5"
     inkscape:cy="193"
     inkscape:window-width="1366"
     inkscape:window-height="705"
     inkscape:window-x="-8"
     inkscape:window-y="-8"
     inkscape:window-maximized="1"
     inkscape:current-layer="layer1">
    <sodipodi:guide
       position="1291.7022,931.6288"
       orientation="0.67344266,0.73923947"
       id="guide72695"
       inkscape:label=""
       inkscape:locked="false"
       inkscape:color="rgb(87,227,137)" />
    <sodipodi:guide
       position="-244.3761,806.53151"
       orientation="0.79863551,-0.60181502"
       id="guide72697"
       inkscape:label=""
       inkscape:locked="false"
       inkscape:color="rgb(87,227,137)" />
    <sodipodi:guide
       position="-468.38752,928.71956"
       orientation="0.79863551,-0.60181502"
       id="guide33"
       inkscape:label=""
       inkscape:locked="false"
       inkscape:color="rgb(87,227,137)" />
    <sodipodi:guide
       position="1218.9713,1088.7277"
       orientation="0.67344266,0.73923947"
       id="guide35"
       inkscape:label=""
       inkscape:locked="false"
       inkscape:color="rgb(87,227,137)" />
    <sodipodi:guide
       position="656,342"
       orientation="0,-1"
       id="guide133091" />
    <sodipodi:guide
       position="806.10173,546"
       orientation="0,-1"
       id="guide133841" />
    <sodipodi:guide
       position="668,198"
       orientation="-1,0"
       id="guide145159"
       inkscape:label=""
       inkscape:locked="false"
       inkscape:color="rgb(255,190,111)" />
    <sodipodi:guide
       position="882,486"
       orientation="1,0"
       id="guide209830" />
    <sodipodi:guide
       position="1010.4556,376.42875"
       orientation="0.34202014,-0.93969262"
       id="guide19395"
       inkscape:label=""
       inkscape:locked="false"
       inkscape:color="rgb(192,97,203)" />
  </sodipodi:namedview>
  <g
     inkscape:groupmode="layer"
     inkscape:label="BG"
     id="g105"
     style="display:inline"
     sodipodi:insensitive="true">
    <rect
       style="opacity:1;fill:url(#linearGradient124962);fill-opacity:1;stroke-width:0;stroke-linejoin:round;paint-order:markers fill stroke"
       id="rect291"
       width="1080"
       height="1080"
       x="0"
       y="0" />
    <g
       id="g40440"
       style="display:inline">
      <circle
         style="fill:#f0f3bd;fill-opacity:1;stroke:none;stroke-width:8.54173;stroke-linejoin:round;stroke-miterlimit:4;stroke-dasharray:none;stroke-dashoffset:0;stroke-opacity:1;paint-order:markers fill stroke"
         id="path24123"
         cx="271.54285"
         cy="-95.657143"
         r="43.200001" />
      <circle
         style="fill:#02c39a;fill-opacity:1;stroke:none;stroke-width:8.54173;stroke-linejoin:round;stroke-miterlimit:4;stroke-dasharray:none;stroke-dashoffset:0;stroke-opacity:1;paint-order:markers fill stroke"
         id="circle25029"
         cx="333.25714"
         cy="-95.657143"
         r="43.200001" />
      <circle
         style="fill:#028090;fill-opacity:1;stroke:none;stroke-width:8.54173;stroke-linejoin:round;stroke-miterlimit:4;stroke-dasharray:none;stroke-dashoffset:0;stroke-opacity:1;paint-order:markers fill stroke"
         id="circle34900"
         cx="386.74286"
         cy="-95.657143"
         r="43.200001" />
      <circle
         style="fill:#05668d;fill-opacity:1;stroke:none;stroke-width:8.54173;stroke-linejoin:round;stroke-miterlimit:4;stroke-dasharray:none;stroke-dashoffset:0;stroke-opacity:1;paint-order:markers fill stroke"
         id="circle34902"
         cx="443.3143"
         cy="-94.628571"
         r="43.200001" />
      <circle
         style="fill:#00c6a0;fill-opacity:1;stroke:none;stroke-width:8.54173;stroke-linejoin:round;stroke-miterlimit:4;stroke-dasharray:none;stroke-dashoffset:0;stroke-opacity:1;paint-order:markers fill stroke"
         id="circle37753"
         cx="499.88574"
         cy="-94.628571"
         r="43.200001" />
    </g>
  </g>
  <g
     inkscape:groupmode="layer"
     id="layer5"
     inkscape:label="Malap"
     style="display:inline;opacity:0.036"
     sodipodi:insensitive="true">
    <text
       xml:space="preserve"
       style="font-size:880.85px;line-height:1.25;font-family:MadaniArabic-Regular;-inkscape-font-specification:MadaniArabic-Regular;text-align:end;letter-spacing:-41.7096px;text-anchor:end;white-space:pre;display:inline;fill:none;stroke:#028090;stroke-width:7.55906;stroke-miterlimit:4;stroke-dasharray:none;stroke-opacity:1"
       x="1298.5511"
       y="1206.0294"
       id="text90115"><tspan
         sodipodi:role="line"
         id="tspan90113"
         x="1256.8416"
         y="1206.0294"
         style="font-style:normal;font-variant:normal;font-weight:normal;font-stretch:normal;font-family:'NKL MadaniArabic-Regular';-inkscape-font-specification:'NKL MadaniArabic-Regular';fill:none;stroke:#324b4c;stroke-width:7.55906;stroke-miterlimit:4;stroke-dasharray:none;stroke-opacity:1"
         dx="0">#10</tspan></text>
    <g
       aria-label="جاوي"
       id="text95260"
       style="font-size:369.142px;line-height:1.25;font-family:MadaniArabic-Regular;-inkscape-font-specification:MadaniArabic-Regular;text-align:end;letter-spacing:-17.4795px;text-anchor:end;white-space:pre;display:inline;fill:none;stroke:#324b4c;stroke-width:7.55906;stroke-opacity:1">
      <path
         id="path108596"
         d="m 760.4082,288.84131 v 174.02002 c 0,21.90242 5.66011,39.49799 16.98047,52.78711 8.35301,9.59707 18.90037,15.71065 31.61719,18.37695 v 1.55664 h 15.63281 9.22852 198.83791 v -35.4375 l -0.3692,-27.31641 c 0,-35.68372 -11.5663,-64.84561 -34.69918,-87.48632 -23.13289,-22.8868 -52.29479,-34.33008 -87.48633,-34.33008 h -76.41211 v 35.06836 h 74.56641 c 26.82432,0 48.35736,7.99799 64.59961,23.99414 16.24224,15.99615 24.36328,37.5292 24.36328,64.59961 v 25.4707 h -163.40039 -9.22852 c -19.44148,0 -29.16211,-12.42764 -29.16211,-37.2832 V 288.84131 Z m 171.52149,277.01025 c -6.15237,0 -11.44334,2.09179 -15.87305,6.27539 -4.18361,4.42971 -6.27539,9.59959 -6.27539,15.50586 0,6.15237 2.09178,11.3203 6.27539,15.50391 4.42971,4.42971 9.72068,6.64453 15.87305,6.64453 5.90627,0 11.0742,-2.21482 15.5039,-6.64453 4.42971,-4.18361 6.64453,-9.35154 6.64453,-15.50391 0,-5.90627 -2.21482,-11.07615 -6.64453,-15.50586 -4.4297,-4.1836 -9.59763,-6.27539 -15.5039,-6.27539 z"
         sodipodi:nodetypes="cscccccccccsccsssccssccscssscscs"
         style="stroke:#324b4c;stroke-opacity:1" />
      <path
         d="m 571.53818,376.85177 q 26.94737,-26.94737 65.33813,-26.94737 40.97476,0 66.8147,28.05479 26.20909,27.68565 26.20909,71.61355 v 76.04325 q 0,40.23648 -24.73252,67.18384 -24.73251,26.94737 -66.44556,26.94737 -23.25594,0 -44.66618,-9.96683 -21.04109,-9.5977 -33.96106,-26.57823 l 24.73251,-23.25594 q 8.85941,11.4434 23.25595,17.71881 14.39654,6.64456 29.9005,6.64456 24.36337,0 39.12905,-14.0274 15.13482,-14.02739 16.98053,-34.69935 h -52.41816 q -42.08219,0 -69.76784,-26.57822 -27.68565,-26.57822 -27.68565,-66.8147 0,-38.39077 27.31651,-65.33813 z m 25.4708,107.05117 q 16.98053,16.24225 44.66618,16.24225 h 52.7873 v -53.15644 q 0,-27.31651 -15.8731,-44.66619 -15.87311,-17.34967 -41.71305,-17.34967 -23.62508,0 -40.60562,16.61139 -16.61139,16.61139 -16.61139,40.60562 0,25.83994 17.34968,41.71304 z"
         id="path108600"
         style="stroke:#324b4c;stroke-opacity:1" />
      <path
         d="m 225.782,424.84023 v -36.9142 h 35.43763 v 36.9142 q 0,37.28334 19.56453,56.47872 19.56453,18.82624 57.21701,18.82624 h 35.80677 v -49.09588 q 0,-49.46503 25.83994,-74.56669 25.83994,-25.47079 74.56669,-25.47079 h 46.14275 V 535.58282 H 484.91968 V 385.34203 h -9.96683 q -33.96106,0 -49.83417,15.87311 -15.87311,15.50396 -15.87311,49.83417 v 84.53351 h -71.2444 q -53.52559,0 -83.05695,-29.53136 Q 225.782,476.5201 225.782,424.84023 Z m 72.35183,148.02594 q 6.27542,-6.27542 15.13483,-6.27542 8.49026,0 14.76568,6.27542 6.64455,6.27541 6.64455,15.13482 0,8.49026 -6.64455,14.76568 -6.27542,6.64455 -14.76568,6.64455 -8.85941,0 -15.13483,-6.64455 -6.27541,-6.27542 -6.27541,-14.76568 0,-8.85941 6.27541,-15.13482 z m 64.23071,0 q 5.90627,-6.27542 14.76568,-6.27542 8.49027,0 14.76568,6.27542 6.64456,6.27541 6.64456,15.13482 0,8.49026 -6.64456,14.76568 -6.27541,6.64455 -14.76568,6.64455 -8.85941,0 -15.13482,-6.27541 -5.90627,-6.27541 -5.90627,-15.13482 0,-8.85941 6.27541,-15.13482 z"
         id="path108602"
         style="stroke:#324b4c;stroke-opacity:1" />
    </g>
  </g>
  <g
     inkscape:groupmode="layer"
     id="layer2"
     inkscape:label="Objek"
     style="display:inline;opacity:1">
    <a
       id="a9953"
       style="fill:#393e46;fill-opacity:1"
       transform="translate(-881.4995,-2.9092393)">
      <path
         id="path72753"
         style="fill:#393e46;fill-opacity:1;stroke:#00adb5;stroke-width:2;stroke-linejoin:round;stroke-opacity:1;paint-order:markers fill stroke"
         d="M -233.16096,1144.9297 639.75538,-13.469414 H 817.94627 L -54.970058,1144.9297 Z"
         sodipodi:nodetypes="ccccc" />
    </a>
    <g
       id="g121909"
       transform="translate(0,0.70710678)">
      <path
         sodipodi:type="star"
         style="display:inline;fill:none;fill-opacity:1;stroke:#7490be;stroke-width:3.77953;stroke-linejoin:round;stroke-miterlimit:4;stroke-dasharray:none;stroke-dashoffset:0;stroke-opacity:1;paint-order:markers fill stroke"
         id="path70110"
         inkscape:flatsided="false"
         sodipodi:sides="3"
         sodipodi:cx="148.40916"
         sodipodi:cy="53.396969"
         sodipodi:r1="46.010868"
         sodipodi:r2="23.005434"
         sodipodi:arg1="0.046121116"
         sodipodi:arg2="1.0933187"
         inkscape:rounded="0"
         inkscape:randomized="0"
         d="m 194.3711,55.518289 -35.39001,18.311114 -35.39001,18.311114 1.83711,-39.804209 1.83712,-39.804207 33.5529,21.493094 z"
         inkscape:transform-center-x="-10.571926"
         inkscape:transform-center-y="-1.0606602" />
      <path
         sodipodi:type="star"
         style="display:inline;fill:none;fill-opacity:1;stroke:#7490be;stroke-width:8.396;stroke-linejoin:round;stroke-miterlimit:4;stroke-dasharray:none;stroke-dashoffset:0;stroke-opacity:1;paint-order:markers fill stroke"
         id="path73181"
         inkscape:flatsided="false"
         sodipodi:sides="3"
         sodipodi:cx="190.21172"
         sodipodi:cy="67.17514"
         sodipodi:r1="46.010868"
         sodipodi:r2="23.005434"
         sodipodi:arg1="0.046121116"
         sodipodi:arg2="1.0933187"
         inkscape:rounded="0"
         inkscape:randomized="0"
         d="m 236.17366,69.296461 -35.39002,18.311114 -35.39001,18.311115 1.83712,-39.804211 1.83711,-39.804207 33.5529,21.493095 z"
         inkscape:transform-center-x="-2.599139"
         inkscape:transform-center-y="-2.7613879"
         transform="matrix(0.43893306,0.09990132,-0.09990132,0.43893306,15.949771,-6.1584163)" />
      <path
         sodipodi:type="star"
         style="display:inline;fill:none;fill-opacity:1;stroke:#7490be;stroke-width:15.7049;stroke-linejoin:round;stroke-miterlimit:4;stroke-dasharray:none;stroke-dashoffset:0;stroke-opacity:1;paint-order:markers fill stroke"
         id="path73263"
         inkscape:flatsided="false"
         sodipodi:sides="3"
         sodipodi:cx="190.21172"
         sodipodi:cy="67.17514"
         sodipodi:r1="46.010868"
         sodipodi:r2="23.005434"
         sodipodi:arg1="0.046121116"
         sodipodi:arg2="1.0933187"
         inkscape:rounded="0"
         inkscape:randomized="0"
         d="m 236.17366,69.296461 -35.39002,18.311114 -35.39001,18.311115 1.83712,-39.804211 1.83711,-39.804207 33.5529,21.493095 z"
         inkscape:transform-center-x="2.3288084"
         inkscape:transform-center-y="0.49463153"
         transform="matrix(0.11118702,0.21343504,-0.21343504,0.11118702,142.95354,65.102307)" />
      <path
         sodipodi:type="star"
         style="display:inline;fill:none;fill-opacity:1;stroke:#7490be;stroke-width:4.8092;stroke-linejoin:round;stroke-miterlimit:4;stroke-dasharray:none;stroke-dashoffset:0;stroke-opacity:1;paint-order:markers fill stroke"
         id="path73265"
         inkscape:flatsided="false"
         sodipodi:sides="3"
         sodipodi:cx="190.21172"
         sodipodi:cy="67.17514"
         sodipodi:r1="46.010868"
         sodipodi:r2="23.005434"
         sodipodi:arg1="0.046121116"
         sodipodi:arg2="1.0933187"
         inkscape:rounded="0"
         inkscape:randomized="0"
         d="m 236.17366,69.296461 -35.39002,18.311114 -35.39001,18.311115 1.83712,-39.804211 1.83711,-39.804207 33.5529,21.493095 z"
         inkscape:transform-center-x="-2.694854"
         inkscape:transform-center-y="6.6051222"
         transform="matrix(0.7175567,-0.32053489,0.32053489,0.7175567,49.272772,119.38812)" />
      <path
         sodipodi:type="star"
         style="display:inline;fill:none;fill-opacity:1;stroke:#7490be;stroke-width:4.8092;stroke-linejoin:round;stroke-miterlimit:4;stroke-dasharray:none;stroke-dashoffset:0;stroke-opacity:1;paint-order:markers fill stroke"
         id="path73267"
         inkscape:flatsided="false"
         sodipodi:sides="3"
         sodipodi:cx="190.21172"
         sodipodi:cy="67.17514"
         sodipodi:r1="46.010868"
         sodipodi:r2="23.005434"
         sodipodi:arg1="0.046121116"
         sodipodi:arg2="1.0933187"
         inkscape:rounded="0"
         inkscape:randomized="0"
         d="m 236.17366,69.296461 -35.39002,18.311114 -35.39001,18.311115 1.83712,-39.804211 1.83711,-39.804207 33.5529,21.493095 z"
         inkscape:transform-center-x="5.5488342"
         inkscape:transform-center-y="3.7982305"
         transform="matrix(0.49972675,-0.60655041,0.60655041,0.49972675,113.21275,124.78477)" />
      <path
         sodipodi:type="star"
         style="display:inline;fill:none;fill-opacity:1;stroke:#7490be;stroke-width:2.88654;stroke-linejoin:round;stroke-miterlimit:4;stroke-dasharray:none;stroke-dashoffset:0;stroke-opacity:1;paint-order:markers fill stroke"
         id="path73360"
         inkscape:flatsided="false"
         sodipodi:sides="3"
         sodipodi:cx="190.21172"
         sodipodi:cy="67.17514"
         sodipodi:r1="46.010868"
         sodipodi:r2="23.005434"
         sodipodi:arg1="0.046121116"
         sodipodi:arg2="1.0933187"
         inkscape:rounded="0"
         inkscape:randomized="0"
         d="m 236.17366,69.296461 -35.39002,18.311114 -35.39001,18.311115 1.83712,-39.804211 1.83711,-39.804207 33.5529,21.493095 z"
         inkscape:transform-center-x="6.3281491"
         inkscape:transform-center-y="-9.244794"
         transform="matrix(0.215759,-1.2914655,1.2914655,0.215759,-92.04249,326.3726)" />
      <path
         sodipodi:type="star"
         style="display:inline;fill:none;fill-opacity:1;stroke:#7490be;stroke-width:15.7049;stroke-linejoin:round;stroke-miterlimit:4;stroke-dasharray:none;stroke-dashoffset:0;stroke-opacity:1;paint-order:markers fill stroke"
         id="path73362"
         inkscape:flatsided="false"
         sodipodi:sides="3"
         sodipodi:cx="190.21172"
         sodipodi:cy="67.17514"
         sodipodi:r1="46.010868"
         sodipodi:r2="23.005434"
         sodipodi:arg1="0.046121116"
         sodipodi:arg2="1.0933187"
         inkscape:rounded="0"
         inkscape:randomized="0"
         d="m 236.17366,69.296461 -35.39002,18.311114 -35.39001,18.311115 1.83712,-39.804211 1.83711,-39.804207 33.5529,21.493095 z"
         inkscape:transform-center-x="-1.8108818"
         inkscape:transform-center-y="-1.0477064"
         transform="matrix(0.2381597,0.03459813,-0.03459813,0.2381597,58.788458,56.589777)" />
      <path
         sodipodi:type="star"
         style="display:inline;fill:#7c79ba;fill-opacity:1;stroke:none;stroke-width:3.77953;stroke-linejoin:round;stroke-miterlimit:4;stroke-dasharray:none;stroke-dashoffset:0;stroke-opacity:1;paint-order:markers fill stroke"
         id="path75696"
         inkscape:flatsided="false"
         sodipodi:sides="3"
         sodipodi:cx="175.27922"
         sodipodi:cy="42.790367"
         sodipodi:r1="46.010868"
         sodipodi:r2="23.005434"
         sodipodi:arg1="0.046121116"
         sodipodi:arg2="1.0933187"
         inkscape:rounded="0"
         inkscape:randomized="0"
         d="m 221.24116,44.911687 -35.39001,18.311115 -35.39002,18.311113 1.83712,-39.804209 1.83712,-39.8042072 33.5529,21.4930952 z"
         inkscape:transform-center-x="-10.472087"
         inkscape:transform-center-y="-1.1727985"
         transform="rotate(0.2796151,4952.1385,-1852.4802)" />
      <path
         sodipodi:type="star"
         style="display:inline;fill:#7c79ba;fill-opacity:1;stroke:none;stroke-width:15.7049;stroke-linejoin:round;stroke-miterlimit:4;stroke-dasharray:none;stroke-dashoffset:0;stroke-opacity:1;paint-order:markers fill stroke"
         id="path87223"
         inkscape:flatsided="false"
         sodipodi:sides="3"
         sodipodi:cx="190.21172"
         sodipodi:cy="67.17514"
         sodipodi:r1="46.010868"
         sodipodi:r2="23.005434"
         sodipodi:arg1="0.046121116"
         sodipodi:arg2="1.0933187"
         inkscape:rounded="0"
         inkscape:randomized="0"
         d="m 236.17366,69.296461 -35.39002,18.311114 -35.39001,18.311115 1.83712,-39.804211 1.83711,-39.804207 33.5529,21.493095 z"
         inkscape:transform-center-x="2.0611258"
         inkscape:transform-center-y="0.43777691"
         transform="matrix(0.09840672,0.18890193,-0.18890193,0.09840672,98.468805,73.086321)" />
    </g>
    <path
       sodipodi:type="star"
       style="display:inline;fill:none;fill-opacity:1;stroke:#7490be;stroke-width:3.77953;stroke-linejoin:round;stroke-miterlimit:4;stroke-dasharray:none;stroke-opacity:1;paint-order:markers fill stroke"
       id="path10925"
       inkscape:flatsided="false"
       sodipodi:sides="3"
       sodipodi:cx="57.225395"
       sodipodi:cy="589.60211"
       sodipodi:r1="132"
       sodipodi:r2="66"
       sodipodi:arg1="0.78539816"
       sodipodi:arg2="1.8325957"
       inkscape:rounded="0"
       inkscape:randomized="0"
       d="M 150.56349,682.94021 40.143339,653.35322 -70.276814,623.76623 10.556347,542.93306 91.389509,462.0999 120.9765,572.52005 Z"
       inkscape:transform-center-x="17.082057"
       inkscape:transform-center-y="-17.082057" />
    <path
       sodipodi:type="star"
       style="display:inline;fill:#7c79ba;fill-opacity:1;stroke:none;stroke-width:7.55906;stroke-linejoin:round;stroke-opacity:0.1;paint-order:markers fill stroke"
       id="path7097"
       inkscape:flatsided="false"
       sodipodi:sides="3"
       sodipodi:cx="-2.8284297"
       sodipodi:cy="526.60211"
       sodipodi:r1="132"
       sodipodi:r2="66"
       sodipodi:arg1="0.78539816"
       sodipodi:arg2="1.8325957"
       inkscape:rounded="0"
       inkscape:randomized="0"
       d="M 90.509666,619.94021 -19.910486,590.35322 -130.33064,560.76623 -49.497478,479.93306 31.335684,399.0999 60.922675,509.52005 Z"
       inkscape:transform-center-x="17.082057"
       inkscape:transform-center-y="-17.082057" />
    <path
       sodipodi:type="star"
       style="display:inline;fill:#7c79ba;fill-opacity:1;stroke:none;stroke-width:7.55906;stroke-linejoin:round;stroke-opacity:0.1;paint-order:markers fill stroke"
       id="path15751"
       inkscape:flatsided="false"
       sodipodi:sides="3"
       sodipodi:cx="140.71425"
       sodipodi:cy="500.43915"
       sodipodi:r1="132"
       sodipodi:r2="66"
       sodipodi:arg1="0.78539816"
       sodipodi:arg2="1.8325957"
       inkscape:rounded="0"
       inkscape:randomized="0"
       d="M 234.05234,593.77724 123.63219,564.19025 13.21204,534.60326 94.0452,453.7701 l 80.83316,-80.83316 29.58699,110.42015 z"
       inkscape:transform-center-x="-5.4643324"
       inkscape:transform-center-y="1.3454605"
       transform="matrix(0.12763929,-0.15646905,0.15646905,0.12763929,-17.10211,391.76687)" />
    <path
       sodipodi:type="star"
       style="display:inline;fill:#7c79ba;fill-opacity:1;stroke:none;stroke-width:7.55906;stroke-linejoin:round;stroke-opacity:0.1;paint-order:markers fill stroke"
       id="path15753"
       inkscape:flatsided="false"
       sodipodi:sides="3"
       sodipodi:cx="140.71425"
       sodipodi:cy="500.43915"
       sodipodi:r1="132"
       sodipodi:r2="66"
       sodipodi:arg1="0.78539816"
       sodipodi:arg2="1.8325957"
       inkscape:rounded="0"
       inkscape:randomized="0"
       d="M 234.05234,593.77724 123.63219,564.19025 13.21204,534.60326 94.0452,453.7701 l 80.83316,-80.83316 29.58699,110.42015 z"
       inkscape:transform-center-x="4.4965482"
       inkscape:transform-center-y="-1.7171594"
       transform="matrix(0.18187813,0.02179876,-0.02179876,0.18187813,105.86903,319.56409)" />
    <path
       sodipodi:type="star"
       style="display:inline;fill:none;fill-opacity:1;stroke:#7490be;stroke-width:18.7173;stroke-linejoin:round;stroke-miterlimit:4;stroke-dasharray:none;stroke-opacity:1;paint-order:markers fill stroke"
       id="path15757"
       inkscape:flatsided="false"
       sodipodi:sides="3"
       sodipodi:cx="140.71425"
       sodipodi:cy="500.43915"
       sodipodi:r1="132"
       sodipodi:r2="66"
       sodipodi:arg1="0.78539816"
       sodipodi:arg2="1.8325957"
       inkscape:rounded="0"
       inkscape:randomized="0"
       d="M 234.05234,593.77724 123.63219,564.19025 13.21204,534.60326 94.0452,453.7701 l 80.83316,-80.83316 29.58699,110.42015 z"
       inkscape:transform-center-x="-5.4643324"
       inkscape:transform-center-y="1.3454605"
       transform="matrix(0.12763929,-0.15646905,0.15646905,0.12763929,-66.10211,647.76687)" />
    <path
       sodipodi:type="star"
       style="display:inline;fill:#7c79ba;fill-opacity:1;stroke:none;stroke-width:7.55906;stroke-linejoin:round;stroke-opacity:0.1;paint-order:markers fill stroke"
       id="path15755"
       inkscape:flatsided="false"
       sodipodi:sides="3"
       sodipodi:cx="140.71425"
       sodipodi:cy="500.43915"
       sodipodi:r1="132"
       sodipodi:r2="66"
       sodipodi:arg1="0.78539816"
       sodipodi:arg2="1.8325957"
       inkscape:rounded="0"
       inkscape:randomized="0"
       d="M 234.05234,593.77724 123.63219,564.19025 13.21204,534.60326 94.0452,453.7701 l 80.83316,-80.83316 29.58699,110.42015 z"
       inkscape:transform-center-x="-5.4643324"
       inkscape:transform-center-y="1.3454605"
       transform="matrix(0.12763929,-0.15646905,0.15646905,0.12763929,-54.10211,663.76687)" />
    <g
       id="g121655"
       transform="rotate(180,595.84059,155.73066)">
      <path
         sodipodi:type="star"
         style="display:inline;fill:none;fill-opacity:1;stroke:#69b4c5;stroke-width:3.77953;stroke-linejoin:round;stroke-miterlimit:4;stroke-dasharray:none;stroke-dashoffset:0;stroke-opacity:1;paint-order:markers fill stroke"
         id="path121637"
         inkscape:flatsided="false"
         sodipodi:sides="3"
         sodipodi:cx="148.40916"
         sodipodi:cy="53.396969"
         sodipodi:r1="46.010868"
         sodipodi:r2="23.005434"
         sodipodi:arg1="0.046121116"
         sodipodi:arg2="1.0933187"
         inkscape:rounded="0"
         inkscape:randomized="0"
         d="m 194.3711,55.518289 -35.39001,18.311114 -35.39001,18.311114 1.83711,-39.804209 1.83712,-39.804207 33.5529,21.493094 z"
         inkscape:transform-center-x="-10.571926"
         inkscape:transform-center-y="-1.0606602" />
      <path
         sodipodi:type="star"
         style="display:inline;fill:none;fill-opacity:1;stroke:#69b4c5;stroke-width:8.396;stroke-linejoin:round;stroke-miterlimit:4;stroke-dasharray:none;stroke-dashoffset:0;stroke-opacity:1;paint-order:markers fill stroke"
         id="path121639"
         inkscape:flatsided="false"
         sodipodi:sides="3"
         sodipodi:cx="190.21172"
         sodipodi:cy="67.17514"
         sodipodi:r1="46.010868"
         sodipodi:r2="23.005434"
         sodipodi:arg1="0.046121116"
         sodipodi:arg2="1.0933187"
         inkscape:rounded="0"
         inkscape:randomized="0"
         d="m 236.17366,69.296461 -35.39002,18.311114 -35.39001,18.311115 1.83712,-39.804211 1.83711,-39.804207 33.5529,21.493095 z"
         inkscape:transform-center-x="-2.599139"
         inkscape:transform-center-y="-2.7613879"
         transform="matrix(0.43893306,0.09990132,-0.09990132,0.43893306,15.949771,-6.1584163)" />
      <path
         sodipodi:type="star"
         style="display:inline;fill:none;fill-opacity:1;stroke:#69b4c5;stroke-width:15.7049;stroke-linejoin:round;stroke-miterlimit:4;stroke-dasharray:none;stroke-dashoffset:0;stroke-opacity:1;paint-order:markers fill stroke"
         id="path121641"
         inkscape:flatsided="false"
         sodipodi:sides="3"
         sodipodi:cx="190.21172"
         sodipodi:cy="67.17514"
         sodipodi:r1="46.010868"
         sodipodi:r2="23.005434"
         sodipodi:arg1="0.046121116"
         sodipodi:arg2="1.0933187"
         inkscape:rounded="0"
         inkscape:randomized="0"
         d="m 236.17366,69.296461 -35.39002,18.311114 -35.39001,18.311115 1.83712,-39.804211 1.83711,-39.804207 33.5529,21.493095 z"
         inkscape:transform-center-x="2.3288084"
         inkscape:transform-center-y="0.49463153"
         transform="matrix(0.11118702,0.21343504,-0.21343504,0.11118702,142.95354,65.102307)" />
      <path
         sodipodi:type="star"
         style="display:inline;fill:none;fill-opacity:1;stroke:#69b4c5;stroke-width:4.8092;stroke-linejoin:round;stroke-miterlimit:4;stroke-dasharray:none;stroke-dashoffset:0;stroke-opacity:1;paint-order:markers fill stroke"
         id="path121643"
         inkscape:flatsided="false"
         sodipodi:sides="3"
         sodipodi:cx="190.21172"
         sodipodi:cy="67.17514"
         sodipodi:r1="46.010868"
         sodipodi:r2="23.005434"
         sodipodi:arg1="0.046121116"
         sodipodi:arg2="1.0933187"
         inkscape:rounded="0"
         inkscape:randomized="0"
         d="m 236.17366,69.296461 -35.39002,18.311114 -35.39001,18.311115 1.83712,-39.804211 1.83711,-39.804207 33.5529,21.493095 z"
         inkscape:transform-center-x="-2.694854"
         inkscape:transform-center-y="6.6051222"
         transform="matrix(0.7175567,-0.32053489,0.32053489,0.7175567,49.272772,119.38812)" />
      <path
         sodipodi:type="star"
         style="display:inline;fill:none;fill-opacity:1;stroke:#69b4c5;stroke-width:4.8092;stroke-linejoin:round;stroke-miterlimit:4;stroke-dasharray:none;stroke-dashoffset:0;stroke-opacity:1;paint-order:markers fill stroke"
         id="path121645"
         inkscape:flatsided="false"
         sodipodi:sides="3"
         sodipodi:cx="190.21172"
         sodipodi:cy="67.17514"
         sodipodi:r1="46.010868"
         sodipodi:r2="23.005434"
         sodipodi:arg1="0.046121116"
         sodipodi:arg2="1.0933187"
         inkscape:rounded="0"
         inkscape:randomized="0"
         d="m 236.17366,69.296461 -35.39002,18.311114 -35.39001,18.311115 1.83712,-39.804211 1.83711,-39.804207 33.5529,21.493095 z"
         inkscape:transform-center-x="5.5488342"
         inkscape:transform-center-y="3.7982305"
         transform="matrix(0.49972675,-0.60655041,0.60655041,0.49972675,113.21275,124.78477)" />
      <path
         sodipodi:type="star"
         style="display:inline;fill:none;fill-opacity:1;stroke:#69b4c5;stroke-width:2.88654;stroke-linejoin:round;stroke-miterlimit:4;stroke-dasharray:none;stroke-dashoffset:0;stroke-opacity:1;paint-order:markers fill stroke"
         id="path121647"
         inkscape:flatsided="false"
         sodipodi:sides="3"
         sodipodi:cx="190.21172"
         sodipodi:cy="67.17514"
         sodipodi:r1="46.010868"
         sodipodi:r2="23.005434"
         sodipodi:arg1="0.046121116"
         sodipodi:arg2="1.0933187"
         inkscape:rounded="0"
         inkscape:randomized="0"
         d="m 236.17366,69.296461 -35.39002,18.311114 -35.39001,18.311115 1.83712,-39.804211 1.83711,-39.804207 33.5529,21.493095 z"
         inkscape:transform-center-x="6.3281491"
         inkscape:transform-center-y="-9.244794"
         transform="matrix(0.215759,-1.2914655,1.2914655,0.215759,-92.04249,326.3726)" />
      <path
         sodipodi:type="star"
         style="display:inline;fill:none;fill-opacity:1;stroke:#69b4c5;stroke-width:15.7049;stroke-linejoin:round;stroke-miterlimit:4;stroke-dasharray:none;stroke-dashoffset:0;stroke-opacity:1;paint-order:markers fill stroke"
         id="path121649"
         inkscape:flatsided="false"
         sodipodi:sides="3"
         sodipodi:cx="190.21172"
         sodipodi:cy="67.17514"
         sodipodi:r1="46.010868"
         sodipodi:r2="23.005434"
         sodipodi:arg1="0.046121116"
         sodipodi:arg2="1.0933187"
         inkscape:rounded="0"
         inkscape:randomized="0"
         d="m 236.17366,69.296461 -35.39002,18.311114 -35.39001,18.311115 1.83712,-39.804211 1.83711,-39.804207 33.5529,21.493095 z"
         inkscape:transform-center-x="-1.8108818"
         inkscape:transform-center-y="-1.0477064"
         transform="matrix(0.2381597,0.03459813,-0.03459813,0.2381597,58.788458,56.589777)" />
      <path
         sodipodi:type="star"
         style="display:inline;fill:#64c3c8;fill-opacity:1;stroke:none;stroke-width:3.77953;stroke-linejoin:round;stroke-miterlimit:4;stroke-dasharray:none;stroke-dashoffset:0;stroke-opacity:1;paint-order:markers fill stroke"
         id="path121651"
         inkscape:flatsided="false"
         sodipodi:sides="3"
         sodipodi:cx="175.27922"
         sodipodi:cy="42.790367"
         sodipodi:r1="46.010868"
         sodipodi:r2="23.005434"
         sodipodi:arg1="0.046121116"
         sodipodi:arg2="1.0933187"
         inkscape:rounded="0"
         inkscape:randomized="0"
         d="m 221.24116,44.911687 -35.39001,18.311115 -35.39002,18.311113 1.83712,-39.804209 1.83712,-39.8042072 33.5529,21.4930952 z"
         inkscape:transform-center-x="-10.472087"
         inkscape:transform-center-y="-1.1727985"
         transform="rotate(0.2796151,4952.1385,-1852.4802)" />
      <path
         sodipodi:type="star"
         style="display:inline;fill:#64c3c8;fill-opacity:1;stroke:none;stroke-width:15.7049;stroke-linejoin:round;stroke-miterlimit:4;stroke-dasharray:none;stroke-dashoffset:0;stroke-opacity:1;paint-order:markers fill stroke"
         id="path121653"
         inkscape:flatsided="false"
         sodipodi:sides="3"
         sodipodi:cx="190.21172"
         sodipodi:cy="67.17514"
         sodipodi:r1="46.010868"
         sodipodi:r2="23.005434"
         sodipodi:arg1="0.046121116"
         sodipodi:arg2="1.0933187"
         inkscape:rounded="0"
         inkscape:randomized="0"
         d="m 236.17366,69.296461 -35.39002,18.311114 -35.39001,18.311115 1.83712,-39.804211 1.83711,-39.804207 33.5529,21.493095 z"
         inkscape:transform-center-x="2.0611258"
         inkscape:transform-center-y="0.43777691"
         transform="matrix(0.09840672,0.18890193,-0.18890193,0.09840672,98.468805,73.086321)" />
    </g>
    <path
       sodipodi:type="star"
       style="display:inline;fill:none;fill-opacity:1;stroke:#69b4c5;stroke-width:3.77953;stroke-linejoin:round;stroke-miterlimit:4;stroke-dasharray:none;stroke-opacity:1;paint-order:markers fill stroke"
       id="path121659"
       inkscape:flatsided="false"
       sodipodi:sides="3"
       sodipodi:cx="-940.89716"
       sodipodi:cy="595.60211"
       sodipodi:r1="132"
       sodipodi:r2="66"
       sodipodi:arg1="0.78539816"
       sodipodi:arg2="1.8325957"
       inkscape:rounded="0"
       inkscape:randomized="0"
       d="m -847.55906,688.94021 -110.42015,-29.58699 -110.42019,-29.58699 80.8332,-80.83317 80.83316,-80.83316 29.58699,110.42015 z"
       inkscape:transform-center-x="-17.08207"
       inkscape:transform-center-y="17.082055"
       transform="rotate(180,41,529.93274)" />
    <path
       sodipodi:type="star"
       style="display:inline;fill:#64c3c8;fill-opacity:1;stroke:none;stroke-width:7.55906;stroke-linejoin:round;stroke-opacity:0.1;paint-order:markers fill stroke"
       id="path121657"
       inkscape:flatsided="false"
       sodipodi:sides="3"
       sodipodi:cx="-1000.9509"
       sodipodi:cy="532.60211"
       sodipodi:r1="132"
       sodipodi:r2="66"
       sodipodi:arg1="0.78539816"
       sodipodi:arg2="1.8325957"
       inkscape:rounded="0"
       inkscape:randomized="0"
       d="m -907.61283,625.94021 -110.42017,-29.58699 -110.4201,-29.58699 80.8331,-80.83317 80.83319,-80.83316 29.58699,110.42015 z"
       inkscape:transform-center-x="-17.08207"
       inkscape:transform-center-y="17.082055"
       transform="rotate(180,41,529.93274)" />
    <path
       sodipodi:type="star"
       style="display:inline;fill:none;fill-opacity:1;stroke:#69b4c5;stroke-width:18.7173;stroke-linejoin:round;stroke-miterlimit:4;stroke-dasharray:none;stroke-opacity:1;paint-order:markers fill stroke"
       id="path121661"
       inkscape:flatsided="false"
       sodipodi:sides="3"
       sodipodi:cx="140.71425"
       sodipodi:cy="500.43915"
       sodipodi:r1="132"
       sodipodi:r2="66"
       sodipodi:arg1="0.78539816"
       sodipodi:arg2="1.8325957"
       inkscape:rounded="0"
       inkscape:randomized="0"
       d="M 234.05234,593.77724 123.63219,564.19025 13.21204,534.60326 94.0452,453.7701 l 80.83316,-80.83316 29.58699,110.42015 z"
       inkscape:transform-center-x="-5.4643324"
       inkscape:transform-center-y="1.3454605"
       transform="matrix(0.12763929,-0.15646905,0.15646905,0.12763929,863.89789,623.76687)" />
    <path
       sodipodi:type="star"
       style="display:inline;fill:none;fill-opacity:1;stroke:#69b4c5;stroke-width:18.7173;stroke-linejoin:round;stroke-miterlimit:4;stroke-dasharray:none;stroke-opacity:1;paint-order:markers fill stroke"
       id="path121663"
       inkscape:flatsided="false"
       sodipodi:sides="3"
       sodipodi:cx="140.71425"
       sodipodi:cy="500.43915"
       sodipodi:r1="132"
       sodipodi:r2="66"
       sodipodi:arg1="0.78539816"
       sodipodi:arg2="1.8325957"
       inkscape:rounded="0"
       inkscape:randomized="0"
       d="M 234.05234,593.77724 123.63219,564.19025 13.21204,534.60326 94.0452,453.7701 l 80.83316,-80.83316 29.58699,110.42015 z"
       inkscape:transform-center-x="-5.4643324"
       inkscape:transform-center-y="1.3454651"
       transform="matrix(0.12763929,-0.15646905,0.15646905,0.12763929,889.89789,621.76687)" />
    <path
       sodipodi:type="star"
       style="display:inline;fill:#64c3c8;fill-opacity:1;stroke:none;stroke-width:7.55906;stroke-linejoin:round;stroke-opacity:0.1;paint-order:markers fill stroke"
       id="path121665"
       inkscape:flatsided="false"
       sodipodi:sides="3"
       sodipodi:cx="140.71425"
       sodipodi:cy="500.43915"
       sodipodi:r1="132"
       sodipodi:r2="66"
       sodipodi:arg1="0.78539816"
       sodipodi:arg2="1.8325957"
       inkscape:rounded="0"
       inkscape:randomized="0"
       d="M 234.05234,593.77724 123.63219,564.19025 13.21204,534.60326 94.0452,453.7701 l 80.83316,-80.83316 29.58699,110.42015 z"
       inkscape:transform-center-x="-5.4643324"
       inkscape:transform-center-y="1.3454605"
       transform="matrix(0.12763929,-0.15646905,0.15646905,0.12763929,844.89789,517.76687)" />
    <path
       sodipodi:type="star"
       style="display:inline;fill:#64c3c8;fill-opacity:1;stroke:none;stroke-width:7.55906;stroke-linejoin:round;stroke-opacity:0.1;paint-order:markers fill stroke"
       id="path121667"
       inkscape:flatsided="false"
       sodipodi:sides="3"
       sodipodi:cx="140.71425"
       sodipodi:cy="500.43915"
       sodipodi:r1="132"
       sodipodi:r2="66"
       sodipodi:arg1="0.78539816"
       sodipodi:arg2="1.8325957"
       inkscape:rounded="0"
       inkscape:randomized="0"
       d="M 234.05234,593.77724 123.63219,564.19025 13.21204,534.60326 94.0452,453.7701 l 80.83316,-80.83316 29.58699,110.42015 z"
       inkscape:transform-center-x="4.4965482"
       inkscape:transform-center-y="-1.7171594"
       transform="matrix(0.18187813,0.02179876,-0.02179876,0.18187813,967.86903,445.56409)" />
  </g>
  <g
     inkscape:groupmode="layer"
     id="layer1"
     inkscape:label="JumaatJawi"
     style="display:inline">
    <g
       inkscape:groupmode="layer"
       id="layer3"
       inkscape:label="JumaatJawi 1"
       style="display:inline">
      <g
         aria-label="جمعة جاوي"
         transform="translate(173.00482,-104.80557)"
         id="g10180"
         style="font-size:144px;line-height:1.25;font-family:MadaniArabic-Regular;-inkscape-font-specification:MadaniArabic-Regular;white-space:pre;shape-inside:url(#rect13459);display:inline;fill:none;stroke:#befcff;stroke-width:1.88976;stroke-miterlimit:4;stroke-dasharray:none;stroke-opacity:1">
        <path
           id="path10164"
           style="fill:none;stroke:#befcff;stroke-width:1.88976;stroke-miterlimit:4;stroke-dasharray:none;stroke-opacity:1"
           d="m 728.32031,30.970703 c -2.208,0 -4.12776,0.817219 -5.75976,2.449219 -1.632,1.632 -2.44727,3.598344 -2.44727,5.902344 0,2.304 0.81527,4.272297 2.44727,5.904296 1.632,1.632001 3.55176,2.449219 5.75976,2.449219 2.304,0 4.2723,-0.817218 5.9043,-2.449219 1.728,-1.631999 2.5918,-3.600296 2.5918,-5.904296 0,-2.304 -0.8638,-4.270344 -2.5918,-5.902344 -1.632,-1.632 -3.6003,-2.449219 -5.9043,-2.449219 z m 24.33594,0 c -2.304,0 -4.2723,0.817219 -5.9043,2.449219 -1.536,1.632 -2.30273,3.598344 -2.30273,5.902344 0,2.304 0.76673,4.272297 2.30273,5.904296 1.632,1.632001 3.6003,2.449219 5.9043,2.449219 2.304,0 4.2723,-0.817218 5.9043,-2.449219 1.632,-1.631999 2.44726,-3.600296 2.44726,-5.904296 0,-2.304 -0.81526,-4.270344 -2.44726,-5.902344 -1.632,-1.632 -3.6003,-2.449219 -5.9043,-2.449219 z m -14.11133,24.625 c -9.888,0 -18.33575,3.503719 -25.34375,10.511719 -7.104,7.008 -10.65625,15.504281 -10.65625,25.488281 0,9.983997 3.50372,18.480277 10.51172,25.488277 7.008,7.008 15.50428,10.51172 25.48828,10.51172 11.328,0 19.96792,-4.51311 25.91992,-13.53711 3.168,9.024 9.69599,13.53711 19.58399,13.53711 h 1.29492 2.88086 101.80664 43.05664 c 5.568,0 10.79931,-1.24814 15.69531,-3.74414 4.896,-2.592 8.92966,-6.04914 12.09766,-10.36914 1.056,4.416 3.16794,7.87314 6.33594,10.36914 3.168,2.496 7.24628,3.74414 12.23828,3.74414 h 1.00976 2.87891 84.38475 v -13.82422 l -0.1445,-10.65625 c 0,-13.919996 -4.5112,-25.296902 -13.5352,-34.128902 -9.024,-8.928 -20.4009,-13.390625 -34.1289,-13.390625 h -29.80857 v 13.679688 h 29.08787 c 10.464,0 18.8652,3.119375 25.2012,9.359375 6.336,6.24 9.5039,14.641171 9.5039,25.201174 v 9.93554 h -70.56055 -2.87891 -1.00976 c -3.264,0 -5.80686,-1.00743 -7.63086,-3.02343 -1.824,-2.112 -2.73633,-4.84899 -2.73633,-8.20899 V 91.595703 c 0,-9.984 -3.55225,-18.480281 -10.65625,-25.488281 -7.008,-7.008 -15.45575,-10.511719 -25.34375,-10.511719 -9.888,0 -18.38428,3.503719 -25.48828,10.511719 -7.008,7.008 -10.51172,15.504281 -10.51172,25.488281 0,4.608 1.05597,8.880407 3.16797,12.816407 2.112,3.84 4.94409,6.95937 8.49609,9.35937 h -18.86328 -34.41601 c 4.128,-4.416 7.0552,-7.63243 8.7832,-9.64843 1.824,-2.112 4.12811,-4.992628 6.91211,-8.640628 2.88,-3.744 4.89683,-7.150656 6.04883,-10.222656 1.248,-3.168 1.87109,-6.240797 1.87109,-9.216797 0,-13.632 -9.59883,-20.447266 -28.79883,-20.447266 h -54.14453 v 24.046875 l 22.89649,34.128902 h -30.81641 -2.88086 -1.29492 c -7.488,0 -11.23242,-4.84892 -11.23242,-14.544918 V 55.595703 Z m 0,13.679688 h 20.44727 v 22.320312 c 0,6.72 -1.9683,12.094957 -5.9043,16.126957 -3.84,4.032 -8.68697,6.04882 -14.54297,6.04882 -6.144,0 -11.37726,-2.16046 -15.69726,-6.48046 -4.32,-4.32 -6.47852,-9.551317 -6.47852,-15.695317 0,-6.144 2.15852,-11.377267 6.47852,-15.697265 4.32,-4.416001 9.55326,-6.623047 15.69726,-6.623047 z m 73.72656,0 h 33.26563 c 6.24,0 10.84626,0.768687 13.82227,2.304687 2.97599,1.44 4.46484,4.318672 4.46484,8.638672 0,1.248 -0.2407,2.544672 -0.7207,3.888672 -0.384,1.344 -1.10416,2.830891 -2.16016,4.46289 -0.96,1.632002 -1.91891,3.120844 -2.87891,4.464844 -0.864,1.344 -2.2092,3.025016 -4.0332,5.041016 -1.824,2.015998 -3.31089,3.646528 -4.46289,4.894528 -1.056,1.248 -2.73702,3.07266 -5.04102,5.47266 -2.208,2.4 -3.83853,4.17612 -4.89453,5.32812 H 835.3125 L 812.27148,78.923828 Z m 120.81641,0 c 6.144,0 11.37531,2.207047 15.69531,6.623047 4.32,4.32 6.48047,9.553265 6.48047,15.697265 0,6.144 -2.16047,11.375317 -6.48047,15.695317 -4.32,4.32 -9.55131,6.48046 -15.69531,6.48046 -6.144,0 -11.37531,-2.16046 -15.69531,-6.48046 -4.32,-4.32 -6.48047,-9.551317 -6.48047,-15.695317 0,-6.144 2.16047,-11.377266 6.48047,-15.697265 4.32,-4.416 9.55131,-6.623047 15.69531,-6.623047 z m 95.32811,70.126949 c -2.4,0 -4.4634,0.81722 -6.1914,2.44922 -1.632,1.728 -2.4492,3.74288 -2.4492,6.04688 0,2.4 0.8172,4.41683 2.4492,6.04883 1.728,1.728 3.7914,2.59179 6.1914,2.59179 2.304,0 4.3208,-0.86379 6.0488,-2.59179 1.728,-1.632 2.5918,-3.64883 2.5918,-6.04883 0,-2.304 -0.8638,-4.31888 -2.5918,-6.04688 -1.728,-1.632 -3.7448,-2.44922 -6.0488,-2.44922 z"
           transform="translate(-169.00482,102.80557)" />
        <path
           id="path10172"
           style="fill:none;stroke:#befcff;stroke-width:1.88976;stroke-miterlimit:4;stroke-dasharray:none;stroke-opacity:1"
           d="m 536.08008,15.275391 v 83.951171 c 0,8.543998 2.209,15.407798 6.625,20.591798 4.512,5.184 10.65564,7.77734 18.43164,7.77734 h 0.7207 2.87891 84.38476 v -13.82422 l -0.14453,-10.65625 c 0,-13.919996 -4.51115,-25.296902 -13.53515,-34.128902 -9.024,-8.928 -20.40091,-13.390625 -34.12891,-13.390625 h -29.80859 v 13.679688 h 29.08789 c 10.464,0 18.86517,3.119375 25.20117,9.359375 6.336,6.24 9.50391,14.641171 9.50391,25.201174 v 9.93554 h -70.56055 -2.87891 -0.7207 c -7.584,0 -11.37695,-4.84892 -11.37695,-14.544918 V 15.275391 Z m 69.72851,124.126949 c -2.4,0 -4.4634,0.81722 -6.1914,2.44922 -1.632,1.728 -2.44922,3.74288 -2.44922,6.04688 0,2.4 0.81722,4.41683 2.44922,6.04883 1.728,1.728 3.7914,2.59179 6.1914,2.59179 2.304,0 4.32083,-0.86379 6.04883,-2.59179 1.728,-1.632 2.5918,-3.64883 2.5918,-6.04883 0,-2.304 -0.8638,-4.31888 -2.5918,-6.04688 -1.728,-1.632 -3.74483,-2.44922 -6.04883,-2.44922 z"
           transform="translate(-169.00482,102.80557)" />
        <path
           d="m 286.5801,168.48078 q 10.512,-10.512 25.488,-10.512 15.984,0 26.064,10.944 10.224,10.8 10.224,27.936 v 29.664 q 0,15.696 -9.648,26.208 -9.648,10.512 -25.92,10.512 -9.072,0 -17.424,-3.888 -8.208,-3.744 -13.248,-10.368 l 9.648,-9.072 q 3.456,4.464 9.072,6.912 5.616,2.592 11.664,2.592 9.504,0 15.264,-5.472 5.904,-5.472 6.624,-13.536 h -20.448 q -16.416,0 -27.216,-10.368 -10.8,-10.368 -10.8,-26.064 0,-14.976 10.656,-25.488 z m 9.936,41.76 q 6.624,6.336 17.424,6.336 h 20.592 v -20.736 q 0,-10.656 -6.192,-17.424 -6.192,-6.768 -16.272,-6.768 -9.216,0 -15.84,6.48 -6.48,6.48 -6.48,15.84 0,10.08 6.768,16.272 z"
           id="path10176"
           style="fill:none;stroke:#befcff;stroke-width:1.88976;stroke-miterlimit:4;stroke-dasharray:none;stroke-opacity:1" />
        <path
           d="m 144.88412,187.20078 v -14.4 h 13.824 v 14.4 q 0,14.544 7.632,22.032 7.632,7.344 22.32,7.344 h 13.968 v -19.152 q 0,-19.296 10.08,-29.088 10.08,-9.936 29.088,-9.936 h 18 v 72 h -13.824 v -58.608 h -3.888 q -13.248,0 -19.44,6.192 -6.19199,6.048 -6.19199,19.44 v 32.976 h -27.79201 q -20.88,0 -32.39999,-11.52 -11.37601,-11.52 -11.37601,-31.68 z m 28.224,57.744 q 2.448,-2.448 5.904,-2.448 3.312,0 5.76001,2.448 2.59199,2.448 2.59199,5.904 0,3.312 -2.59199,5.76 -2.44801,2.592 -5.76001,2.592 -3.456,0 -5.904,-2.592 -2.448,-2.448 -2.448,-5.76 0,-3.456 2.448,-5.904 z m 25.05601,0 q 2.30399,-2.448 5.75999,-2.448 3.31201,0 5.76,2.448 2.592,2.448 2.592,5.904 0,3.312 -2.592,5.76 -2.44799,2.592 -5.76,2.592 -3.456,0 -5.904,-2.448 -2.304,-2.448 -2.304,-5.904 0,-3.456 2.44801,-5.904 z"
           id="path10178"
           style="fill:none;stroke:#befcff;stroke-width:1.88976;stroke-miterlimit:4;stroke-dasharray:none;stroke-opacity:1" />
      </g>
      <g
         aria-label="Jumaat Jawi"
         transform="translate(-149.42812,36.908904)"
         id="g13600"
         style="font-size:144px;line-height:1.25;font-family:MadaniArabic-Regular;-inkscape-font-specification:MadaniArabic-Regular;white-space:pre;shape-inside:url(#rect3427);display:inline;fill:none;stroke:#befcff;stroke-width:1.88976;stroke-miterlimit:4;stroke-dasharray:none;stroke-opacity:1">
        <path
           d="m 141.42812,220.46478 10.8,-9.216 q 5.904,5.616 13.824,5.616 8.928,0 14.256,-6.192 5.328,-6.192 5.328,-16.56 v -68.832 h 14.832 v 68.832 q 0,16.992 -9.648,27.216 -9.504,10.224 -24.768,10.224 -14.976,0 -24.624,-11.088 z"
           id="path13580"
           style="fill:none;stroke:#befcff;stroke-width:1.88976;stroke-miterlimit:4;stroke-dasharray:none;stroke-opacity:1" />
        <path
           d="m 219.33193,151.20078 h 14.112 v 40.176 q 0,12.96 6.048,19.584 6.048,6.624 15.408,6.624 9.216,0 15.264,-6.624 6.192,-6.624 6.192,-19.584 v -40.176 h 13.968 v 79.2 h -12.96 l -0.72,-14.112 q -3.456,6.768 -9.936,11.088 -6.48,4.176 -14.976,4.176 -14.544,0 -23.472,-10.224 -8.928,-10.224 -8.928,-29.952 z"
           id="path13582"
           style="fill:none;stroke:#befcff;stroke-width:1.88976;stroke-miterlimit:4;stroke-dasharray:none;stroke-opacity:1" />
        <path
           d="m 310.91573,230.40078 v -79.2 h 12.96 l 0.72,13.104 q 2.88,-6.768 8.784,-10.512 6.048,-3.744 12.816,-3.744 9.072,0 15.264,4.752 6.336,4.608 8.928,12.096 2.592,-7.344 8.64,-12.096 6.048,-4.752 14.4,-4.752 13.392,0 21.312,9.36 8.064,9.216 8.064,28.944 v 42.048 h -14.112 v -42.048 q 0,-12.816 -4.896,-18.576 -4.752,-5.904 -12.528,-5.904 -7.344,0 -12.384,5.904 -5.04,5.904 -5.04,18.576 v 42.048 h -14.112 v -42.048 q 0,-12.816 -4.896,-18.576 -4.752,-5.904 -12.528,-5.904 -7.488,0 -12.528,6.624 -4.896,6.624 -4.896,19.584 v 40.32 z"
           id="path13584"
           style="fill:none;stroke:#befcff;stroke-width:1.88976;stroke-miterlimit:4;stroke-dasharray:none;stroke-opacity:1" />
        <path
           d="m 448.43551,162.00078 q 11.232,-11.952 27.216,-11.952 9.504,0 17.568,5.04 8.208,5.04 11.952,12.816 l 0.72,-16.704 h 12.96 v 79.2 h -12.96 l -0.72,-16.56 q -3.744,7.632 -11.952,12.672 -8.064,4.896 -17.568,4.896 -15.984,0 -27.36,-11.952 -11.232,-11.952 -11.232,-28.656 0,-16.848 11.376,-28.8 z m 10.656,47.664 q 7.776,7.776 18.864,7.776 11.088,0 18.864,-7.776 7.92,-7.776 7.92,-18.864 0,-11.088 -7.92,-19.008 -7.776,-7.92 -18.864,-7.92 -10.944,0 -18.864,7.92 -7.776,7.92 -7.776,19.008 0,11.088 7.776,18.864 z"
           id="path13586"
           style="fill:none;stroke:#befcff;stroke-width:1.88976;stroke-miterlimit:4;stroke-dasharray:none;stroke-opacity:1" />
        <path
           d="m 546.06744,162.00078 q 11.232,-11.952 27.216,-11.952 9.504,0 17.568,5.04 8.208,5.04 11.952,12.816 l 0.72,-16.704 h 12.96 v 79.2 h -12.96 l -0.72,-16.56 q -3.744,7.632 -11.952,12.672 -8.064,4.896 -17.568,4.896 -15.984,0 -27.36,-11.952 -11.232,-11.952 -11.232,-28.656 0,-16.848 11.376,-28.8 z m 10.656,47.664 q 7.776,7.776 18.864,7.776 11.088,0 18.864,-7.776 7.92,-7.776 7.92,-18.864 0,-11.088 -7.92,-19.008 -7.776,-7.92 -18.864,-7.92 -10.944,0 -18.864,7.92 -7.776,7.92 -7.776,19.008 0,11.088 7.776,18.864 z"
           id="path13588"
           style="fill:none;stroke:#befcff;stroke-width:1.88976;stroke-miterlimit:4;stroke-dasharray:none;stroke-opacity:1" />
        <path
           d="m 630.01937,151.20078 h 11.088 l 1.728,-25.92 h 11.808 v 25.92 h 19.008 v 12.672 h -19.008 v 36.864 q 0,8.352 3.888,12.816 3.888,4.464 10.656,4.464 3.456,0 6.048,-1.008 l 3.6,12.528 q -4.896,2.16 -11.52,2.16 -11.808,0 -19.296,-7.488 -7.344,-7.632 -7.344,-23.328 v -37.008 h -10.656 z"
           id="path13590"
           style="fill:none;stroke:#befcff;stroke-width:1.88976;stroke-miterlimit:4;stroke-dasharray:none;stroke-opacity:1" />
        <path
           d="m 726.35507,220.46478 10.8,-9.216 q 5.904,5.616 13.824,5.616 8.928,0 14.256,-6.192 5.328,-6.192 5.328,-16.56 v -68.832 h 14.832 v 68.832 q 0,16.992 -9.648,27.216 -9.504,10.224 -24.768,10.224 -14.976,0 -24.624,-11.088 z"
           id="path13592"
           style="fill:none;stroke:#befcff;stroke-width:1.88976;stroke-miterlimit:4;stroke-dasharray:none;stroke-opacity:1" />
        <path
           d="m 812.6109,162.00078 q 11.232,-11.952 27.216,-11.952 9.504,0 17.568,5.04 8.208,5.04 11.952,12.816 l 0.72,-16.704 h 12.96 v 79.2 h -12.96 l -0.72,-16.56 q -3.744,7.632 -11.952,12.672 -8.064,4.896 -17.568,4.896 -15.984,0 -27.36,-11.952 -11.232,-11.952 -11.232,-28.656 0,-16.848 11.376,-28.8 z m 10.656,47.664 q 7.776,7.776 18.864,7.776 11.088,0 18.864,-7.776 7.92,-7.776 7.92,-18.864 0,-11.088 -7.92,-19.008 -7.776,-7.92 -18.864,-7.92 -10.944,0 -18.864,7.92 -7.776,7.92 -7.776,19.008 0,11.088 7.776,18.864 z"
           id="path13594"
           style="fill:none;stroke:#befcff;stroke-width:1.88976;stroke-miterlimit:4;stroke-dasharray:none;stroke-opacity:1" />
        <path
           d="m 895.84279,151.20078 h 14.976 l 19.728,57.6 19.152,-57.6 h 14.256 l 19.296,57.6 19.72801,-57.6 h 14.976 l -27.79201,79.2 h -13.824 l -19.44,-56.88 -19.44,56.88 h -13.968 z"
           id="path13596"
           style="fill:none;stroke:#befcff;stroke-width:1.88976;stroke-miterlimit:4;stroke-dasharray:none;stroke-opacity:1" />
        <path
           d="m 1030.7707,230.40078 v -79.2 h 13.968 v 79.2 z m -1.872,-96.192 q 0,-3.744 2.592,-6.336 2.736,-2.592 6.336,-2.592 3.6,0 6.192,2.736 2.592,2.592 2.592,6.192 0,3.6 -2.592,6.192 -2.592,2.736 -6.192,2.736 -3.6,0 -6.336,-2.592 -2.592,-2.592 -2.592,-6.336 z"
           id="path13598"
           style="fill:none;stroke:#befcff;stroke-width:1.88976;stroke-miterlimit:4;stroke-dasharray:none;stroke-opacity:1" />
      </g>
      <text
         xml:space="preserve"
         style="font-size:24px;line-height:1.25;font-family:MadaniArabic-Regular;-inkscape-font-specification:MadaniArabic-Regular;text-align:end;text-anchor:end;display:inline;fill:#befcff;fill-opacity:1"
         x="388.5"
         y="1068"
         id="text111985"><tspan
           sodipodi:role="line"
           id="tspan111983"
           x="388.5"
           y="1068"
           style="font-style:normal;font-variant:normal;font-weight:normal;font-stretch:normal;font-family:'NKL MadaniArabic-Regular';-inkscape-font-specification:'NKL MadaniArabic-Regular';fill:#befcff;fill-opacity:1">Niskala5570@Shirayuki Project</tspan></text>
    </g>
    <g
       aria-label="Jumaat Jawi"
       transform="translate(-141.42812,28.908904)"
       id="text3425"
       style="font-size:144px;line-height:1.25;font-family:MadaniArabic-Regular;-inkscape-font-specification:MadaniArabic-Regular;white-space:pre;shape-inside:url(#rect3427);fill:#e6feff;stroke-width:2;fill-opacity:1">
      <path
         d="m 141.42812,220.46478 10.8,-9.216 q 5.904,5.616 13.824,5.616 8.928,0 14.256,-6.192 5.328,-6.192 5.328,-16.56 v -68.832 h 14.832 v 68.832 q 0,16.992 -9.648,27.216 -9.504,10.224 -24.768,10.224 -14.976,0 -24.624,-11.088 z"
         id="path30693"
         style="fill:#e6feff;fill-opacity:1" />
      <path
         d="m 219.33193,151.20078 h 14.112 v 40.176 q 0,12.96 6.048,19.584 6.048,6.624 15.408,6.624 9.216,0 15.264,-6.624 6.192,-6.624 6.192,-19.584 v -40.176 h 13.968 v 79.2 h -12.96 l -0.72,-14.112 q -3.456,6.768 -9.936,11.088 -6.48,4.176 -14.976,4.176 -14.544,0 -23.472,-10.224 -8.928,-10.224 -8.928,-29.952 z"
         id="path30695"
         style="fill:#e6feff;fill-opacity:1" />
      <path
         d="m 310.91573,230.40078 v -79.2 h 12.96 l 0.72,13.104 q 2.88,-6.768 8.784,-10.512 6.048,-3.744 12.816,-3.744 9.072,0 15.264,4.752 6.336,4.608 8.928,12.096 2.592,-7.344 8.64,-12.096 6.048,-4.752 14.4,-4.752 13.392,0 21.312,9.36 8.064,9.216 8.064,28.944 v 42.048 h -14.112 v -42.048 q 0,-12.816 -4.896,-18.576 -4.752,-5.904 -12.528,-5.904 -7.344,0 -12.384,5.904 -5.04,5.904 -5.04,18.576 v 42.048 h -14.112 v -42.048 q 0,-12.816 -4.896,-18.576 -4.752,-5.904 -12.528,-5.904 -7.488,0 -12.528,6.624 -4.896,6.624 -4.896,19.584 v 40.32 z"
         id="path30697"
         style="fill:#e6feff;fill-opacity:1" />
      <path
         d="m 448.43551,162.00078 q 11.232,-11.952 27.216,-11.952 9.504,0 17.568,5.04 8.208,5.04 11.952,12.816 l 0.72,-16.704 h 12.96 v 79.2 h -12.96 l -0.72,-16.56 q -3.744,7.632 -11.952,12.672 -8.064,4.896 -17.568,4.896 -15.984,0 -27.36,-11.952 -11.232,-11.952 -11.232,-28.656 0,-16.848 11.376,-28.8 z m 10.656,47.664 q 7.776,7.776 18.864,7.776 11.088,0 18.864,-7.776 7.92,-7.776 7.92,-18.864 0,-11.088 -7.92,-19.008 -7.776,-7.92 -18.864,-7.92 -10.944,0 -18.864,7.92 -7.776,7.92 -7.776,19.008 0,11.088 7.776,18.864 z"
         id="path30699"
         style="fill:#e6feff;fill-opacity:1" />
      <path
         d="m 546.06744,162.00078 q 11.232,-11.952 27.216,-11.952 9.504,0 17.568,5.04 8.208,5.04 11.952,12.816 l 0.72,-16.704 h 12.96 v 79.2 h -12.96 l -0.72,-16.56 q -3.744,7.632 -11.952,12.672 -8.064,4.896 -17.568,4.896 -15.984,0 -27.36,-11.952 -11.232,-11.952 -11.232,-28.656 0,-16.848 11.376,-28.8 z m 10.656,47.664 q 7.776,7.776 18.864,7.776 11.088,0 18.864,-7.776 7.92,-7.776 7.92,-18.864 0,-11.088 -7.92,-19.008 -7.776,-7.92 -18.864,-7.92 -10.944,0 -18.864,7.92 -7.776,7.92 -7.776,19.008 0,11.088 7.776,18.864 z"
         id="path30701"
         style="fill:#e6feff;fill-opacity:1" />
      <path
         d="m 630.01937,151.20078 h 11.088 l 1.728,-25.92 h 11.808 v 25.92 h 19.008 v 12.672 h -19.008 v 36.864 q 0,8.352 3.888,12.816 3.888,4.464 10.656,4.464 3.456,0 6.048,-1.008 l 3.6,12.528 q -4.896,2.16 -11.52,2.16 -11.808,0 -19.296,-7.488 -7.344,-7.632 -7.344,-23.328 v -37.008 h -10.656 z"
         id="path30703"
         style="fill:#e6feff;fill-opacity:1" />
      <path
         d="m 726.35507,220.46478 10.8,-9.216 q 5.904,5.616 13.824,5.616 8.928,0 14.256,-6.192 5.328,-6.192 5.328,-16.56 v -68.832 h 14.832 v 68.832 q 0,16.992 -9.648,27.216 -9.504,10.224 -24.768,10.224 -14.976,0 -24.624,-11.088 z"
         id="path30705"
         style="fill:#e6feff;fill-opacity:1" />
      <path
         d="m 812.6109,162.00078 q 11.232,-11.952 27.216,-11.952 9.504,0 17.568,5.04 8.208,5.04 11.952,12.816 l 0.72,-16.704 h 12.96 v 79.2 h -12.96 l -0.72,-16.56 q -3.744,7.632 -11.952,12.672 -8.064,4.896 -17.568,4.896 -15.984,0 -27.36,-11.952 -11.232,-11.952 -11.232,-28.656 0,-16.848 11.376,-28.8 z m 10.656,47.664 q 7.776,7.776 18.864,7.776 11.088,0 18.864,-7.776 7.92,-7.776 7.92,-18.864 0,-11.088 -7.92,-19.008 -7.776,-7.92 -18.864,-7.92 -10.944,0 -18.864,7.92 -7.776,7.92 -7.776,19.008 0,11.088 7.776,18.864 z"
         id="path30707"
         style="fill:#e6feff;fill-opacity:1" />
      <path
         d="m 895.84279,151.20078 h 14.976 l 19.728,57.6 19.152,-57.6 h 14.256 l 19.296,57.6 19.72801,-57.6 h 14.976 l -27.79201,79.2 h -13.824 l -19.44,-56.88 -19.44,56.88 h -13.968 z"
         id="path30709"
         style="fill:#e6feff;fill-opacity:1" />
      <path
         d="m 1030.7707,230.40078 v -79.2 h 13.968 v 79.2 z m -1.872,-96.192 q 0,-3.744 2.592,-6.336 2.736,-2.592 6.336,-2.592 3.6,0 6.192,2.736 2.592,2.592 2.592,6.192 0,3.6 -2.592,6.192 -2.592,2.736 -6.192,2.736 -3.6,0 -6.336,-2.592 -2.592,-2.592 -2.592,-6.336 z"
         id="path30711"
         style="fill:#e6feff;fill-opacity:1" />
    </g>
    <g
       aria-label="جمعة جاوي"
       transform="translate(181.34768,-114.11985)"
       id="text13457"
       style="font-size:144px;line-height:1.25;font-family:MadaniArabic-Regular;-inkscape-font-specification:MadaniArabic-Regular;white-space:pre;shape-inside:url(#rect13459);fill:#e6feff;fill-opacity:1">
      <path
         d="m 884.89905,216.57678 v -9.936 q 0,-15.84 -9.504,-25.2 -9.504,-9.36 -25.2,-9.36 h -29.088 v -13.68 h 29.808 q 20.592,0 34.128,13.392 13.536,13.248 13.536,34.128 l 0.144,10.656 v 13.824 h -87.264 v -13.824 z m -34.128,34.128 q 0,-3.456 2.448,-6.048 2.592,-2.448 6.192,-2.448 3.456,0 6.048,2.448 2.592,2.592 2.592,6.048 0,3.6 -2.592,6.048 -2.592,2.592 -6.048,2.592 -3.6,0 -6.192,-2.592 -2.448,-2.448 -2.448,-6.048 z"
         id="path30657"
         style="fill:#e6feff;fill-opacity:1" />
      <path
         d="m 718.14716,216.57678 h 21.6 q -5.328,-3.6 -8.496,-9.36 -3.168,-5.904 -3.168,-12.816 0,-14.976 10.512,-25.488 10.656,-10.512 25.488,-10.512 14.832,0 25.344,10.512 10.656,10.512 10.656,25.488 v 10.944 q 0,5.04 2.736,8.208 2.736,3.024 7.632,3.024 h 3.888 v 13.824 h -3.888 q -7.488,0 -12.24,-3.744 -4.752,-3.744 -6.336,-10.368 -4.752,6.48 -12.096,10.368 -7.344,3.744 -15.696,3.744 h -45.936 z m 30.24,-6.48 q 6.48,6.48 15.696,6.48 9.216,0 15.696,-6.48 6.48,-6.48 6.48,-15.696 0,-9.216 -6.48,-15.696 -6.48,-6.624 -15.696,-6.624 -9.216,0 -15.696,6.624 -6.48,6.48 -6.48,15.696 0,9.216 6.48,15.696 z"
         id="path30659"
         style="fill:#e6feff;fill-opacity:1" />
      <path
         d="m 616.33933,216.57678 h 33.696 l -22.896,-34.128 v -24.048 h 54.144 q 28.8,0 28.8,20.448 0,4.464 -1.872,9.216 -1.728,4.608 -6.048,10.224 -4.176,5.472 -6.912,8.64 -2.592,3.024 -8.784,9.648 h 34.416 l 0.144,13.824 h -104.688 z m 26.928,-34.848 23.04,34.848 h 4.32 q 1.584,-1.728 4.896,-5.328 3.456,-3.6 5.04,-5.472 1.728,-1.872 4.464,-4.896 2.736,-3.024 4.032,-5.04 1.44,-2.016 2.88,-4.464 1.584,-2.448 2.16,-4.464 0.72,-2.016 0.72,-3.888 0,-6.48 -4.464,-8.64 -4.464,-2.304 -13.824,-2.304 h -33.264 z"
         id="path30661"
         style="fill:#e6feff;fill-opacity:1" />
      <path
         d="m 544.19549,168.91278 q 10.512,-10.512 25.344,-10.512 h 34.272 v 43.632 q 0,14.544 11.232,14.544 h 4.176 v 13.824 h -4.176 q -14.832,0 -19.584,-13.536 -8.928,13.536 -25.92,13.536 -14.976,0 -25.488,-10.512 -10.512,-10.512 -10.512,-25.488 0,-14.976 10.656,-25.488 z m 9.648,41.184 q 6.48,6.48 15.696,6.48 8.784,0 14.544,-6.048 5.904,-6.048 5.904,-16.128 v -22.32 h -20.448 q -9.216,0 -15.696,6.624 -6.48,6.48 -6.48,15.696 0,9.216 6.48,15.696 z m -2.736,-67.968 q 0,-3.456 2.448,-5.904 2.448,-2.448 5.76,-2.448 3.456,0 5.904,2.448 2.592,2.448 2.592,5.904 0,3.456 -2.592,5.904 -2.448,2.448 -5.904,2.448 -3.312,0 -5.76,-2.448 -2.448,-2.448 -2.448,-5.904 z m 24.336,0 q 0,-3.456 2.304,-5.904 2.448,-2.448 5.904,-2.448 3.456,0 5.904,2.448 2.448,2.448 2.448,5.904 0,3.456 -2.448,5.904 -2.448,2.448 -5.904,2.448 -3.456,0 -5.904,-2.448 -2.304,-2.448 -2.304,-5.904 z"
         id="path30663"
         style="fill:#e6feff;fill-opacity:1" />
      <path
         d="m 466.29187,216.57678 v -9.936 c 0,-10.56 -3.168,-18.96 -9.504,-25.2 -6.336,-6.24 -14.736,-9.36 -25.2,-9.36 h -29.088 v -13.68 h 29.808 c 13.728,0 25.104,4.464 34.128,13.392 9.024,8.832 13.536,20.208 13.536,34.128 l 0.144,10.656 v 13.824 h -87.264 v -13.824 z m -38.128,34.128 c 0,-2.304 0.816,-4.32 2.448,-6.048 1.728,-1.632 3.792,-2.448 6.192,-2.448 2.304,0 4.32,0.816 6.048,2.448 1.728,1.728 2.592,3.744 2.592,6.048 0,2.4 -0.864,4.416 -2.592,6.048 -1.728,1.728 -3.744,2.592 -6.048,2.592 -2.4,0 -4.464,-0.864 -6.192,-2.592 -1.632,-1.632 -2.448,-3.648 -2.448,-6.048 z"
         id="path30665"
         sodipodi:nodetypes="csssccscccccccscscscsss"
         style="fill:#e6feff;fill-opacity:1" />
      <path
         d="m 367.07588,118.08078 h 13.68 v 83.952 q 0,14.544 11.376,14.544 h 3.6 v 13.824 h -3.6 q -11.664,0 -18.432,-7.776 -6.624,-7.776 -6.624,-20.592 z"
         id="path30667"
         style="fill:#e6feff;fill-opacity:1" />
      <path
         d="m 286.5801,168.48078 q 10.512,-10.512 25.488,-10.512 15.984,0 26.064,10.944 10.224,10.8 10.224,27.936 v 29.664 q 0,15.696 -9.648,26.208 -9.648,10.512 -25.92,10.512 -9.072,0 -17.424,-3.888 -8.208,-3.744 -13.248,-10.368 l 9.648,-9.072 q 3.456,4.464 9.072,6.912 5.616,2.592 11.664,2.592 9.504,0 15.264,-5.472 5.904,-5.472 6.624,-13.536 h -20.448 q -16.416,0 -27.216,-10.368 -10.8,-10.368 -10.8,-26.064 0,-14.976 10.656,-25.488 z m 9.936,41.76 q 6.624,6.336 17.424,6.336 h 20.592 v -20.736 q 0,-10.656 -6.192,-17.424 -6.192,-6.768 -16.272,-6.768 -9.216,0 -15.84,6.48 -6.48,6.48 -6.48,15.84 0,10.08 6.768,16.272 z"
         id="path30669"
         style="fill:#e6feff;fill-opacity:1" />
      <path
         d="m 144.88412,187.20078 v -14.4 h 13.824 v 14.4 q 0,14.544 7.632,22.032 7.632,7.344 22.32,7.344 h 13.968 v -19.152 q 0,-19.296 10.08,-29.088 10.08,-9.936 29.088,-9.936 h 18 v 72 h -13.824 v -58.608 h -3.888 q -13.248,0 -19.44,6.192 -6.19199,6.048 -6.19199,19.44 v 32.976 h -27.79201 q -20.88,0 -32.39999,-11.52 -11.37601,-11.52 -11.37601,-31.68 z m 28.224,57.744 q 2.448,-2.448 5.904,-2.448 3.312,0 5.76001,2.448 2.59199,2.448 2.59199,5.904 0,3.312 -2.59199,5.76 -2.44801,2.592 -5.76001,2.592 -3.456,0 -5.904,-2.592 -2.448,-2.448 -2.448,-5.76 0,-3.456 2.448,-5.904 z m 25.05601,0 q 2.30399,-2.448 5.75999,-2.448 3.31201,0 5.76,2.448 2.592,2.448 2.592,5.904 0,3.312 -2.592,5.76 -2.44799,2.592 -5.76,2.592 -3.456,0 -5.904,-2.448 -2.304,-2.448 -2.304,-5.904 0,-3.456 2.44801,-5.904 z"
         id="path30671"
         style="fill:#e6feff;fill-opacity:1" />
    </g>
    <g
       inkscape:groupmode="layer"
       id="layer4"
       inkscape:label="Nombor"
       style="display:inline" />
    <g
       aria-label="Pantun"
       id="g60110"
       style="font-size:72px;line-height:1.25;font-family:MadaniArabic-Regular;-inkscape-font-specification:MadaniArabic-Regular;text-align:end;letter-spacing:0px;text-anchor:end;white-space:pre;fill:#00adb5;stroke-width:2.93316"
       transform="matrix(1.3652366,0,0,1.3652366,-827.61672,543.3687)">
      <path
         d="m 301.85555,305.70401 q 7.848,0 12.744,4.752 4.968,4.752 4.968,11.736 0,6.984 -4.968,11.808 -4.896,4.752 -12.744,4.752 h -12.528 v 19.512 h -7.416 v -52.56 z m -0.144,25.776 q 4.608,0 7.416,-2.664 2.808,-2.736 2.808,-6.624 0,-3.816 -2.808,-6.48 -2.808,-2.736 -7.416,-2.736 h -12.384 v 18.504 z"
         id="path60098" />
      <path
         d="m 330.51155,324.06401 q 5.616,-5.976 13.608,-5.976 4.752,0 8.784,2.52 4.104,2.52 5.976,6.408 l 0.36,-8.352 h 6.48 v 39.6 h -6.48 l -0.36,-8.28 q -1.872,3.816 -5.976,6.336 -4.032,2.448 -8.784,2.448 -7.992,0 -13.68,-5.976 -5.616,-5.976 -5.616,-14.328 0,-8.424 5.688,-14.4 z m 5.328,23.832 q 3.888,3.888 9.432,3.888 5.544,0 9.432,-3.888 3.96,-3.888 3.96,-9.432 0,-5.544 -3.96,-9.504 -3.888,-3.96 -9.432,-3.96 -5.472,0 -9.432,3.96 -3.888,3.96 -3.888,9.504 0,5.544 3.888,9.432 z"
         id="path60100" />
      <path
         d="m 376.01551,358.26401 v -39.6 h 6.48 l 0.36,6.984 q 1.728,-3.384 4.896,-5.472 3.24,-2.088 7.56,-2.088 7.272,0 11.736,5.112 4.464,5.04 4.464,14.904 v 20.16 h -7.056 v -20.16 q 0,-6.408 -3.024,-9.72 -3.024,-3.384 -7.704,-3.384 -4.608,0 -7.704,3.312 -3.024,3.312 -3.024,9.792 v 20.16 z"
         id="path60102" />
      <path
         d="m 417.41541,318.66401 h 5.544 l 0.864,-12.96 h 5.904 v 12.96 h 9.504 v 6.336 h -9.504 v 18.432 q 0,4.176 1.944,6.408 1.944,2.232 5.328,2.232 1.728,0 3.024,-0.504 l 1.8,6.264 q -2.448,1.08 -5.76,1.08 -5.904,0 -9.648,-3.744 -3.672,-3.816 -3.672,-11.664 v -18.504 h -5.328 z"
         id="path60104" />
      <path
         d="m 448.44735,318.66401 h 7.056 v 20.088 q 0,6.48 3.024,9.792 3.024,3.312 7.704,3.312 4.608,0 7.632,-3.312 3.096,-3.312 3.096,-9.792 v -20.088 h 6.984 v 39.6 h -6.48 l -0.36,-7.056 q -1.728,3.384 -4.968,5.544 -3.24,2.088 -7.488,2.088 -7.272,0 -11.736,-5.112 -4.464,-5.112 -4.464,-14.976 z"
         id="path60106" />
      <path
         d="m 494.23925,358.26401 v -39.6 h 6.48 l 0.36,6.984 q 1.728,-3.384 4.896,-5.472 3.24,-2.088 7.56,-2.088 7.272,0 11.736,5.112 4.464,5.04 4.464,14.904 v 20.16 h -7.056 v -20.16 q 0,-6.408 -3.024,-9.72 -3.024,-3.384 -7.704,-3.384 -4.608,0 -7.704,3.312 -3.024,3.312 -3.024,9.792 v 20.16 z"
         id="path60108" />
    </g>
    <text
       xml:space="preserve"
       style="font-size:85.6892px;line-height:1.25;font-family:MadaniArabic-Regular;-inkscape-font-specification:MadaniArabic-Regular;text-align:end;letter-spacing:0px;text-anchor:end;white-space:pre;fill:#00adb5;stroke-width:3.49083"
       x="-70.21405"
       y="946.2934"
       id="text60492"><tspan
         sodipodi:role="line"
         id="tspan60490"
         x="-70.21405"
         y="946.2934"
         style="font-style:normal;font-variant:normal;font-weight:normal;font-stretch:normal;font-size:85.6892px;font-family:'NKL MadaniArabic-Regular';-inkscape-font-specification:'NKL MadaniArabic-Regular';stroke-width:3.49083">ڤــنتون</tspan></text>
    <g
       aria-label="#10"
       id="text61066"
       style="font-size:211.187px;line-height:1.25;font-family:MadaniArabic-Regular;-inkscape-font-specification:MadaniArabic-Regular;text-align:end;letter-spacing:-10px;text-anchor:end;white-space:pre;fill:#befcff;stroke-width:2.93316;fill-opacity:1">
      <path
         d="M 5.7695284,989.48208 H 32.590277 l -5.279675,25.97602 h 17.317334 l 5.490862,-25.97602 h 36.324163 l -5.068488,25.97602 h 17.528521 l 5.068486,-25.97602 h 26.39838 l 3.59018,-17.10615 h -26.39838 l 7.18036,-35.26823 h 26.39837 l 3.80137,-16.89496 h -26.82075 l 5.27968,-26.18718 h -17.52853 l -5.27967,26.18718 H 64.057139 l 5.279675,-26.18718 H 52.019481 l -5.490862,26.18718 H 20.341431 l -3.801366,16.89496 h 26.820749 l -7.391545,35.26823 H 9.3597074 Z M 89.821953,972.37593 H 53.49779 l 7.180358,-35.26823 h 36.53535 z"
         style="font-family:'NKL MadaniArabic-Regular';-inkscape-font-specification:'NKL MadaniArabic-Regular';fill:#befcff;fill-opacity:1"
         id="path5412" />
      <path
         d="M 193.65145,1031.9307 V 877.76416 h -41.60384 v 19.4292 h 21.1187 v 134.73734 z"
         style="font-family:'NKL MadaniArabic-Regular';-inkscape-font-specification:'NKL MadaniArabic-Regular';fill:#befcff;fill-opacity:1"
         id="path5414" />
      <path
         id="path5416"
         style="font-family:'NKL MadaniArabic-Regular';-inkscape-font-specification:'NKL MadaniArabic-Regular';fill:#befcff;fill-opacity:1"
         d="M 276.57422 875.44141 C 258.62332 875.44141 244.05009 882.62195 233.06836 896.77148 C 221.66427 911.13219 216.17383 930.34997 216.17383 954.84766 C 216.17383 956.15777 216.19708 957.44544 216.22852 958.72656 L 228.48828 958.72656 C 231.66315 958.72656 234.57078 959.15726 237.21484 960.01172 C 237.14457 958.1831 237.08203 956.34508 237.08203 954.42578 C 237.08203 935.41895 240.67096 921.05665 248.0625 911.13086 C 255.45405 901.20507 264.95893 896.13672 276.57422 896.13672 C 279.1825 896.13672 281.67459 896.41563 284.06445 896.94336 C 283.94148 896.83523 283.82036 896.71951 283.70508 896.59375 C 282.67681 895.56548 282.25 894.36492 282.25 892.9082 C 282.25 891.53718 282.67681 890.42475 283.70508 889.39648 C 284.64766 888.36821 285.84798 887.85352 287.30469 887.85352 C 288.67572 887.85352 289.87603 888.36821 290.9043 889.39648 C 291.93257 890.42475 292.44531 891.53718 292.44531 892.9082 C 292.44531 894.36492 291.93281 895.56523 290.99023 896.50781 C 290.0945 897.40354 289.00267 897.90798 287.83008 898.02344 C 293.17494 899.92635 297.92852 903.2814 302.12891 908.03711 L 302.12891 903.44922 L 310.26953 903.44922 L 310.26953 921.37695 C 313.94134 930.27305 315.85352 941.23368 315.85352 954.42578 C 315.85352 962.5794 315.17685 969.90278 313.85352 976.41992 L 315.67773 976.41992 L 315.67773 1018.0117 C 317.11997 1016.4888 318.51745 1014.8665 319.86719 1013.1348 C 323.86439 1008.0063 327.14733 1002.2201 329.73438 995.79883 L 329.73438 976.41992 L 335.08008 976.41992 C 335.67854 972.83627 336.10537 969.09801 336.38477 965.22852 C 334.74703 964.86424 333.14624 964.33336 331.60547 963.60352 C 328.34928 962.06112 325.69351 960.00403 323.72266 957.34766 L 329.46289 951.94922 C 330.83392 953.7487 332.63341 955.12017 334.86133 956.14844 C 335.47544 956.43188 336.09747 956.6635 336.72461 956.85938 C 336.73347 956.18551 336.76172 955.52941 336.76172 954.84766 C 336.76172 951.67173 336.65995 948.58922 336.46875 945.58984 C 332.64442 944.67167 329.30805 942.85253 326.46484 940.12305 C 322.18038 936.00997 320.03711 930.86859 320.03711 924.61328 C 320.03711 918.70072 322.09445 913.64604 326.37891 909.44727 C 326.6767 909.14947 326.98139 908.86496 327.28906 908.58789 C 325.16641 904.33555 322.69347 900.39765 319.86719 896.77148 C 308.67428 882.62195 294.31392 875.44141 276.57422 875.44141 z M 327.28906 908.58789 C 328.58874 911.19155 329.74155 913.92701 330.77539 916.76953 C 331.17961 916.22195 331.61869 915.6899 332.12109 915.1875 C 334.69176 912.61682 337.86224 911.33203 341.54688 911.33203 C 345.48858 911.33203 348.74353 912.70301 351.22852 915.35938 C 353.62782 918.10144 354.91406 921.52975 354.91406 925.72852 L 354.91406 938.06641 L 342.66016 938.06641 C 339.98237 938.06641 337.60571 937.59821 335.57227 936.61914 C 335.97005 939.51864 336.27215 942.50563 336.46875 945.58984 C 338.40735 946.05528 340.46945 946.29297 342.66016 946.29297 L 354.82812 946.29297 C 354.48537 949.37778 353.11439 952.0338 350.80078 954.26172 C 348.48718 956.48964 345.48736 957.60352 341.80273 957.60352 C 340.06479 957.60352 338.37263 957.37411 336.72461 956.85938 C 336.68706 959.71667 336.58086 962.5127 336.38477 965.22852 C 338.20813 965.63408 340.07862 965.83008 341.97461 965.83008 C 347.97285 965.83008 352.85662 964.03009 356.62695 960.25977 C 360.39727 956.48944 362.54055 951.86276 363.05469 946.29297 L 370.08008 946.29297 L 370.08008 938.06641 L 363.14062 938.06641 L 363.14062 926.32812 C 363.14062 919.55868 361.08403 913.98954 357.05664 909.70508 C 353.02924 905.42062 347.88787 903.19141 341.54688 903.19141 C 335.98292 903.19141 331.23096 905.03816 327.28906 908.58789 z M 335.57227 936.61914 C 334.58775 929.44296 332.98164 922.83559 330.77539 916.76953 C 329.11133 919.0238 328.26367 921.64875 328.26367 924.61328 C 328.26367 928.64067 329.54896 931.89757 332.29102 934.29688 C 333.25502 935.26088 334.3522 936.0317 335.57227 936.61914 z M 335.08008 976.41992 C 333.90925 983.43096 332.11716 989.88452 329.73438 995.79883 L 329.73438 1030.4844 L 339.26758 1030.4844 L 339.26758 1002.9609 C 339.26758 997.06316 340.64417 992.60624 343.39648 989.5918 C 346.21433 986.57735 349.72006 985.07031 353.91406 985.07031 C 358.1736 985.07031 361.67932 986.61143 364.43164 989.69141 C 367.18396 992.70585 368.56055 997.12869 368.56055 1002.9609 L 368.56055 1030.4844 L 378.19336 1030.4844 L 378.19336 1002.9609 C 378.19336 993.98318 376.16255 987.20048 372.09961 982.61328 C 368.03667 977.96055 362.69484 975.63477 356.07617 975.63477 C 352.14429 975.63477 348.70477 976.58397 345.75586 978.48438 C 342.87248 980.38477 340.64502 982.8751 339.07227 985.95508 L 338.58008 976.41992 L 335.08008 976.41992 z M 315.67773 1018.0117 C 312.84242 1021.0056 309.82205 1023.5847 306.625 1025.7715 L 306.83008 1030.4844 L 315.67773 1030.4844 L 315.67773 1018.0117 z M 306.625 1025.7715 L 306.33789 1019.1797 C 304.63408 1022.6528 301.91497 1025.5365 298.17969 1027.8301 C 294.50993 1030.0581 290.51257 1031.1719 286.1875 1031.1719 C 278.91352 1031.1719 272.6887 1028.4528 267.51172 1023.0137 C 263.95187 1019.2256 261.63529 1014.9112 260.55469 1010.0742 C 255.87707 1007.5404 251.71102 1003.7771 248.0625 998.77344 C 247.55757 998.08097 247.07498 997.36278 246.60547 996.62695 C 246.37145 996.87324 246.13429 997.11703 245.88672 997.35742 C 241.43059 1001.6825 235.6312 1003.8457 228.48828 1003.8457 L 226.80664 1003.8457 C 228.59819 1007.1439 230.60631 1010.2466 232.85742 1013.1348 C 244.05033 1027.4955 258.62332 1034.6758 276.57422 1034.6758 C 287.96923 1034.6758 297.96241 1031.6968 306.625 1025.7715 z M 226.80664 1003.8457 C 225.10927 1000.7208 223.61793 997.4109 222.33008 993.91797 L 211.38477 993.91797 L 211.38477 968.6543 L 216.81445 968.6543 C 216.50695 965.44836 216.31224 962.13809 216.22852 958.72656 L 201.25977 958.72656 L 201.25977 1030.4844 L 211.38477 1030.4844 L 211.38477 1003.8457 L 226.80664 1003.8457 z M 216.81445 968.6543 C 217.70505 977.93922 219.54249 986.35745 222.33008 993.91797 L 228.29102 993.91797 C 232.48502 993.91797 235.86029 992.70591 238.41602 990.28125 C 239.81102 988.92202 240.82152 987.40404 241.45508 985.73242 C 240.07257 981.68754 239.05616 977.18583 238.33203 972.3125 C 235.78635 969.8755 232.43998 968.6543 228.29102 968.6543 L 216.81445 968.6543 z M 238.33203 972.3125 C 238.35967 972.33895 238.38857 972.36389 238.41602 972.39062 C 240.97174 974.81529 242.25 977.76317 242.25 981.23633 C 242.25 982.84348 241.98224 984.34154 241.45508 985.73242 C 242.83782 989.77801 244.55287 993.41009 246.60547 996.62695 C 250.64555 992.375 252.66797 987.24484 252.66797 981.23633 C 252.66797 974.87979 250.40838 969.53991 245.88672 965.21484 C 243.41124 962.81217 240.51948 961.07965 237.21484 960.01172 C 237.3825 964.37443 237.76047 968.46592 238.33203 972.3125 z M 260.55469 1010.0742 C 264.28661 1012.0958 268.3474 1013.3279 272.73438 1013.7773 C 270.63099 1010.783 269.57617 1007.3434 269.57617 1003.4531 C 269.57617 998.40724 271.34412 994.08079 274.88281 990.47656 C 278.48704 986.87234 282.77938 985.07031 287.75977 985.07031 C 292.80568 985.07031 297.09803 986.87234 300.63672 990.47656 C 302.85092 992.69076 304.38239 995.1792 305.23633 997.9375 C 309.22217 992.18798 312.10774 985.01751 313.85352 976.41992 L 306.83008 976.41992 L 306.33789 987.82227 C 304.63408 984.28357 301.91497 981.36782 298.17969 979.07422 C 294.50993 976.78062 290.51257 975.63477 286.1875 975.63477 C 278.91352 975.63477 272.72082 978.35387 267.60938 983.79297 C 262.43239 989.23207 259.84375 995.78598 259.84375 1003.4531 C 259.84375 1005.7606 260.08369 1007.966 260.55469 1010.0742 z M 305.23633 997.9375 C 305.04397 998.21498 304.8596 998.50259 304.66211 998.77344 C 297.27056 1008.9104 287.97831 1013.9805 276.57422 1013.9805 C 275.26655 1013.9805 273.98851 1013.9058 272.73438 1013.7773 C 273.35922 1014.6669 274.07235 1015.5177 274.88281 1016.3281 C 278.42151 1019.8668 282.71385 1021.6367 287.75977 1021.6367 C 292.80568 1021.6367 297.09803 1019.8668 300.63672 1016.3281 C 304.24094 1012.7894 306.04297 1008.499 306.04297 1003.4531 C 306.04297 1001.5071 305.77241 999.6691 305.23633 997.9375 z M 310.26953 921.37695 C 308.70987 917.5982 306.86575 914.153 304.66211 911.13086 C 303.84407 910.03235 302.99379 909.01634 302.12891 908.03711 L 302.12891 939.69531 C 302.12891 945.86493 300.75769 950.32095 298.01562 953.23438 C 295.27357 956.1478 291.76053 957.60352 287.30469 957.60352 C 282.93455 957.60352 279.42175 956.14781 276.67969 953.23438 C 273.93764 950.32095 272.56641 946.63553 272.56641 942.17969 L 272.56641 912.01758 L 264.33984 912.01758 L 264.33984 942.17969 C 264.33984 948.86345 266.48141 954.51877 270.85156 958.97461 C 275.22171 963.51614 280.70663 965.74414 287.30469 965.74414 C 293.98845 965.74414 299.47335 963.51639 303.75781 959.06055 C 308.04227 954.60471 310.26953 948.09285 310.26953 939.69531 L 310.26953 921.37695 z M 287.83008 898.02344 C 286.60569 897.58752 285.35101 897.22746 284.06445 896.94336 C 284.94694 897.71934 286.02614 898.05078 287.30469 898.05078 C 287.48141 898.05078 287.65657 898.04052 287.83008 898.02344 z " />
    </g>
    <g
       aria-label="ڤــنتون"
       id="text61070"
       style="font-size:85.6892px;line-height:1.25;font-family:MadaniArabic-Regular;-inkscape-font-specification:MadaniArabic-Regular;text-align:end;letter-spacing:0px;text-anchor:end;white-space:pre;fill:#befcff;stroke-width:3.49083;fill-opacity:1">
      <path
         d="m 489.70226,938.06723 v 8.22617 h 49.1856 v -20.82248 c 0,-6.16962 -2.05654,-11.39666 -6.16962,-15.68112 -4.11308,-4.19877 -9.25443,-6.341 -15.25268,-6.341 -5.82686,0 -10.79684,1.97085 -14.73854,5.91255 -4.02739,3.9417 -5.99824,8.7403 -5.99824,14.22441 0,2.99912 0.59982,5.74117 1.97085,8.31185 1.37102,2.57068 3.1705,4.62722 5.48411,6.16962 z m 14.56717,-13.19613 c 0,-3.59895 1.28533,-6.76945 3.85601,-9.34013 2.57068,-2.57067 5.65549,-3.9417 9.34012,-3.9417 3.59895,0 6.76945,1.28534 9.34013,3.85601 2.57067,2.57068 3.85601,5.74118 3.85601,9.42582 v 13.19613 h -13.19614 c -3.68463,0 -6.76944,-1.28534 -9.34012,-3.85601 -2.57068,-2.57068 -3.85601,-5.65549 -3.85601,-9.34012 z m 16.79508,-34.10431 c -1.02827,1.02827 -1.45672,2.14223 -1.45672,3.42757 0,1.37103 0.42845,2.48499 1.45672,3.42757 0.94258,1.02827 2.05654,1.45672 3.42757,1.45672 1.28534,0 2.39929,-0.42845 3.42757,-1.45672 0.94258,-0.94258 1.45671,-2.05654 1.45671,-3.42757 0,-1.28534 -0.51413,-2.3993 -1.45671,-3.42757 -1.02828,-0.94258 -2.14223,-1.45671 -3.42757,-1.45671 -1.37103,0 -2.48499,0.51413 -3.42757,1.45671 z m -15.68112,3.42757 c 0,1.37103 0.42844,2.48499 1.37102,3.42757 0.94258,1.02827 2.05654,1.45672 3.42757,1.45672 1.28534,0 2.3993,-0.42845 3.42757,-1.45672 0.94258,-0.94258 1.45671,-2.05654 1.45671,-3.42757 0,-1.28534 -0.51413,-2.3993 -1.45671,-3.42757 -1.02827,-0.94258 -2.14223,-1.45671 -3.42757,-1.45671 -1.37103,0 -2.48499,0.51413 -3.42757,1.45671 -0.94258,1.02827 -1.37102,2.14223 -1.37102,3.42757 z m 8.82598,-14.39578 c -0.85689,0.85689 -1.28534,1.97085 -1.28534,3.1705 0,1.19965 0.42845,2.22792 1.28534,3.08481 0.85689,0.85689 1.88517,1.28534 3.1705,1.28534 1.19965,0 2.22792,-0.42845 3.08481,-1.28534 0.8569,-0.85689 1.28534,-1.88516 1.28534,-3.08481 0,-1.19965 -0.42844,-2.31361 -1.28534,-3.1705 -0.85689,-0.8569 -1.88516,-1.28534 -3.08481,-1.28534 -1.28533,0 -2.31361,0.42844 -3.1705,1.28534 z"
         style="font-family:'NKL MadaniArabic-Regular';-inkscape-font-specification:'NKL MadaniArabic-Regular';fill:#befcff;fill-opacity:1"
         id="path5419" />
      <path
         d="m 491.41611,946.2934 v -8.22617 h -34.27568 v 8.22617 z"
         style="font-family:'NKL MadaniArabic-Regular';-inkscape-font-specification:'NKL MadaniArabic-Regular';fill:#befcff;fill-opacity:1"
         id="path5421" />
      <path
         d="m 458.85428,946.2934 v -8.22617 H 424.5786 v 8.22617 z"
         style="font-family:'NKL MadaniArabic-Regular';-inkscape-font-specification:'NKL MadaniArabic-Regular';fill:#befcff;fill-opacity:1"
         id="path5423" />
      <path
         d="m 399.64319,946.2934 h 2.48499 c 4.7986,0 8.39754,-1.88517 10.88253,-5.82687 2.31361,3.9417 5.91255,5.82687 10.79684,5.82687 h 2.48499 v -8.22617 h -2.48499 c -4.54153,0 -6.76945,-2.82774 -6.76945,-8.65461 V 903.4488 h -8.14047 v 25.96382 c 0,5.82687 -2.31361,8.65461 -6.76945,8.65461 h -2.48499 z m 8.22617,-52.69886 c 0,1.45671 0.42844,2.65636 1.45671,3.68463 1.02827,1.02827 2.22792,1.45672 3.68464,1.45672 1.37103,0 2.65637,-0.51414 3.68464,-1.54241 0.94258,-0.94258 1.45671,-2.14223 1.45671,-3.59894 0,-1.37103 -0.51413,-2.57068 -1.5424,-3.59895 -1.02827,-1.02827 -2.22792,-1.5424 -3.59895,-1.5424 -1.45672,0 -2.65637,0.51413 -3.68464,1.5424 -1.02827,1.02827 -1.45671,2.22792 -1.45671,3.59895 z"
         style="font-family:'NKL MadaniArabic-Regular';-inkscape-font-specification:'NKL MadaniArabic-Regular';fill:#befcff;fill-opacity:1"
         id="path5425" />
      <path
         d="m 368.36665,946.2934 h 5.65549 c 4.79859,0 8.39754,-1.88517 10.88253,-5.82687 2.31361,3.9417 5.91255,5.82687 10.79684,5.82687 h 5.65548 v -8.22617 h -5.65548 c -4.54153,0 -6.76945,-2.82774 -6.76945,-8.65461 V 903.4488 h -8.14047 v 25.96382 c 0,5.82687 -2.31361,8.65461 -6.76945,8.65461 h -5.65549 z m 20.30834,-56.04074 c -1.02827,1.02827 -1.45671,2.14223 -1.45671,3.51326 0,1.37102 0.42844,2.57067 1.45671,3.51325 0.94258,1.02827 2.14223,1.45672 3.51326,1.45672 1.37103,0 2.48499,-0.42845 3.51326,-1.45672 0.94258,-0.94258 1.45671,-2.14223 1.45671,-3.51325 0,-1.37103 -0.51413,-2.48499 -1.45671,-3.51326 -1.02827,-0.94258 -2.14223,-1.45672 -3.51326,-1.45672 -1.37103,0 -2.57068,0.51414 -3.51326,1.45672 z m -15.8525,3.51326 c 0,1.37102 0.42845,2.57067 1.37103,3.51325 0.94258,1.02827 2.14223,1.45672 3.51325,1.45672 1.37103,0 2.48499,-0.42845 3.51326,-1.45672 0.94258,-0.94258 1.45672,-2.14223 1.45672,-3.51325 0,-1.37103 -0.51414,-2.48499 -1.45672,-3.51326 -1.02827,-0.94258 -2.14223,-1.45672 -3.51326,-1.45672 -1.37102,0 -2.57067,0.51414 -3.51325,1.45672 -0.94258,1.02827 -1.37103,2.14223 -1.37103,3.51326 z"
         style="font-family:'NKL MadaniArabic-Regular';-inkscape-font-specification:'NKL MadaniArabic-Regular';fill:#befcff;fill-opacity:1"
         id="path5427" />
    </g>
    <text
       xml:space="preserve"
       style="font-size:211.187px;line-height:1.25;font-family:MadaniArabic-Regular;-inkscape-font-specification:MadaniArabic-Regular;text-align:end;letter-spacing:-10px;text-anchor:end;white-space:pre;fill:#00adb5;stroke-width:2.93316"
       x="-413.10135"
       y="1031.9307"
       id="text3198"><tspan
         sodipodi:role="line"
         id="tspan3196"
         x="-423.10135"
         y="1031.9307"
         style="font-style:normal;font-variant:normal;font-weight:normal;font-stretch:normal;font-family:'NKL MadaniArabic-Regular';-inkscape-font-specification:'NKL MadaniArabic-Regular';stroke-width:2.93316"
         dx="0">#10</tspan></text>
    <g
       aria-label="Pantun"
       id="g3241"
       style="font-size:72px;line-height:1.25;font-family:MadaniArabic-Regular;-inkscape-font-specification:MadaniArabic-Regular;text-align:end;letter-spacing:0px;text-anchor:end;white-space:pre;fill:#befcff;stroke-width:2.93316;fill-opacity:1"
       transform="matrix(1.3652366,0,0,1.3652366,-183.61672,541.3687)">
      <path
         d="m 417.41541,318.66401 h 5.544 l 0.864,-12.96 h 5.904 v 12.96 h 9.504 v 6.336 h -9.504 v 18.432 q 0,4.176 1.944,6.408 1.944,2.232 5.328,2.232 1.728,0 3.024,-0.504 l 1.8,6.264 q -2.448,1.08 -5.76,1.08 -5.904,0 -9.648,-3.744 -3.672,-3.816 -3.672,-11.664 v -18.504 h -5.328 z"
         id="path3235"
         style="fill:#befcff;fill-opacity:1" />
      <path
         d="m 448.44735,318.66401 h 7.056 v 20.088 q 0,6.48 3.024,9.792 3.024,3.312 7.704,3.312 4.608,0 7.632,-3.312 3.096,-3.312 3.096,-9.792 v -20.088 h 6.984 v 39.6 h -6.48 l -0.36,-7.056 q -1.728,3.384 -4.968,5.544 -3.24,2.088 -7.488,2.088 -7.272,0 -11.736,-5.112 -4.464,-5.112 -4.464,-14.976 z"
         id="path3237"
         style="fill:#befcff;fill-opacity:1" />
      <path
         d="m 494.23925,358.26401 v -39.6 h 6.48 l 0.36,6.984 q 1.728,-3.384 4.896,-5.472 3.24,-2.088 7.56,-2.088 7.272,0 11.736,5.112 4.464,5.04 4.464,14.904 v 20.16 h -7.056 v -20.16 q 0,-6.408 -3.024,-9.72 -3.024,-3.384 -7.704,-3.384 -4.608,0 -7.704,3.312 -3.024,3.312 -3.024,9.792 v 20.16 z"
         id="path3239"
         style="fill:#befcff;fill-opacity:1" />
    </g>
  </g>
  <g
     inkscape:groupmode="layer"
     id="layer6"
     inkscape:label="Teks Utama"
     style="display:inline">
    <text
       xml:space="preserve"
       style="font-size:26.4859px;line-height:1.25;font-family:MadaniArabic-Regular;-inkscape-font-specification:MadaniArabic-Regular;text-align:start;direction:rtl;text-anchor:start;display:inline;fill:#befcff;fill-opacity:1;stroke-width:1.10358"
       x="946.31006"
       y="909.32965"
       id="text164138"
       inkscape:export-filename="D:\Niskala's Void\Project\Design\Jumaat Jawi\10_jumaatjawiwebp.webp"
       inkscape:export-xdpi="300.01199"
       inkscape:export-ydpi="300.01199"><tspan
         sodipodi:role="line"
         x="946.31006"
         y="909.32965"
         id="tspan166100"
         style="font-style:normal;font-variant:normal;font-weight:normal;font-stretch:normal;font-family:'NKL MadaniArabic-Regular';-inkscape-font-specification:'NKL MadaniArabic-Regular';direction:rtl;fill:#befcff;fill-opacity:1;stroke-width:1.10358">تمتله سوده سيري اين⹁</tspan><tspan
         sodipodi:role="line"
         x="946.31006"
         y="944.67175"
         style="font-style:normal;font-variant:normal;font-weight:normal;font-stretch:normal;font-family:'NKL MadaniArabic-Regular';-inkscape-font-specification:'NKL MadaniArabic-Regular';direction:rtl;fill:#befcff;fill-opacity:1;stroke-width:1.10358"
         id="tspan83654">تياد لاݢي ڤرنچاڠن سلڤس اين⹁</tspan><tspan
         sodipodi:role="line"
         x="946.31006"
         y="980.01392"
         style="font-style:normal;font-variant:normal;font-weight:normal;font-stretch:normal;font-family:'NKL MadaniArabic-Regular';-inkscape-font-specification:'NKL MadaniArabic-Regular';direction:rtl;fill:#befcff;fill-opacity:1;stroke-width:1.10358"
         id="tspan83656">ڤرݢي ککداي ممبلي ميݢي⁏</tspan><tspan
         sodipodi:role="line"
         x="946.31006"
         y="1015.356"
         style="font-style:normal;font-variant:normal;font-weight:normal;font-stretch:normal;font-family:'NKL MadaniArabic-Regular';-inkscape-font-specification:'NKL MadaniArabic-Regular';direction:rtl;fill:#befcff;fill-opacity:1;stroke-width:1.10358"
         id="tspan84780">تريما کاسيه دان جومڤا لاݢي.</tspan></text>
    <text
       xml:space="preserve"
       style="font-style:normal;font-variant:normal;font-weight:normal;font-stretch:normal;font-size:28px;line-height:1.25;font-family:Kufam;-inkscape-font-specification:Kufam;text-align:center;text-anchor:middle;fill:#e6feff;fill-opacity:1"
       x="539.71997"
       y="798.01434"
       id="text167531"
       inkscape:export-filename="D:\Niskala's Void\Project\Design\Jumaat Jawi\7_jumaatjawiwebp.webp"
       inkscape:export-xdpi="300.01199"
       inkscape:export-ydpi="300.01199"><tspan
         sodipodi:role="line"
         x="539.71997"
         y="798.01434"
         style="font-style:normal;font-variant:normal;font-weight:normal;font-stretch:normal;font-size:28px;font-family:Kufam;-inkscape-font-specification:Kufam;text-align:center;text-anchor:middle;fill:#e6feff;fill-opacity:1"
         id="tspan168640">Belek manga eh ternyata Jawi, Tetapi itu hanyalah mimpi</tspan><tspan
         sodipodi:role="line"
         x="539.71997"
         y="833.01434"
         style="font-style:normal;font-variant:normal;font-weight:normal;font-stretch:normal;font-size:28px;font-family:Kufam;-inkscape-font-specification:Kufam;text-align:center;text-anchor:middle;fill:#e6feff;fill-opacity:1"
         id="tspan69579">Peliharalah sungguh khazanah ini, Semoga ianya tak akan mati.</tspan></text>
    <g
       id="g152783"
       style="fill:#e6feff;fill-opacity:1">
      <text
         xml:space="preserve"
         style="font-style:normal;font-variant:normal;font-weight:normal;font-stretch:normal;font-size:72px;line-height:1.35;font-family:'NKL Bahij Nassim';-inkscape-font-specification:'NKL Bahij Nassim';text-align:end;text-anchor:end;fill:#e6feff;fill-opacity:1"
         x="841.41211"
         y="405.81622"
         id="text149079"><tspan
           sodipodi:role="line"
           id="tspan149077"
           x="841.41211"
           y="405.81622"
           rotate="0 0 0 0 0 0 0 0 0 0 0 0 0 0 0 0 0 0 0 0 0 0 0 0 0"
           style="font-style:normal;font-variant:normal;font-weight:normal;font-stretch:normal;font-family:'NKL Bahij Nassim';-inkscape-font-specification:'NKL Bahij Nassim';text-align:start;direction:rtl;text-anchor:start;fill:#e6feff;fill-opacity:1">بيليق منݢ إيه ترڽات جاوي</tspan><tspan
           sodipodi:role="line"
           x="841.41211"
           y="503.01624"
           id="tspan24233"
           rotate="0 0 0 0 0 0 0 0 0 0 0 0 0 0 0 0 0 0 0 0 0 0 0 0 0"
           style="font-style:normal;font-variant:normal;font-weight:normal;font-stretch:normal;font-family:'NKL Bahij Nassim';-inkscape-font-specification:'NKL Bahij Nassim';text-align:start;direction:rtl;text-anchor:start;fill:#e6feff;fill-opacity:1">تتاڤي روڤاڽ هاڽاله ميمڤي</tspan><tspan
           sodipodi:role="line"
           x="841.41211"
           y="600.21625"
           id="tspan24235"
           rotate="0 0 0 0 0 0 0 0 0 0 0 0 0 0 0 0 0 0 0 0 0 0 0 0 0 0 0"
           style="font-style:normal;font-variant:normal;font-weight:normal;font-stretch:normal;font-family:'NKL Bahij Nassim';-inkscape-font-specification:'NKL Bahij Nassim';text-align:start;direction:rtl;text-anchor:start;fill:#e6feff;fill-opacity:1">ڤليهاراله سوڠݢوه خزانه اين<tspan
   style="font-style:normal;font-variant:normal;font-weight:normal;font-stretch:normal;font-family:'NKL STV';-inkscape-font-specification:'NKL STV';fill:#e6feff;fill-opacity:1"
   id="tspan99960" /></tspan><tspan
           sodipodi:role="line"
           x="841.41211"
           y="697.4162"
           id="tspan24237"
           rotate="0 0 0 0 0 0 0 0 0 0 0 0 0 0 0 0 0 0 0 0 0 0 0"
           style="font-style:normal;font-variant:normal;font-weight:normal;font-stretch:normal;font-family:'NKL Bahij Nassim';-inkscape-font-specification:'NKL Bahij Nassim';text-align:start;direction:rtl;text-anchor:start;fill:#e6feff;fill-opacity:1">سموݢ اياڽ تق اکن ماتي.</tspan></text>
      <text
         xml:space="preserve"
         style="font-style:normal;font-variant:normal;font-weight:normal;font-stretch:normal;font-size:72px;line-height:1.25;font-family:Kitab;-inkscape-font-specification:Kitab;text-align:end;direction:rtl;text-anchor:end;fill:#e6feff;fill-opacity:1"
         x="230.7132"
         y="408.00146"
         id="text4515"><tspan
           sodipodi:role="line"
           id="tspan4513"
           x="230.7132"
           y="408.00146"
           style="font-style:normal;font-variant:normal;font-weight:normal;font-stretch:normal;font-family:'NKL STV';-inkscape-font-specification:'NKL STV';direction:rtl;fill:#e6feff;fill-opacity:1">⹁</tspan><tspan
           sodipodi:role="line"
           x="230.7132"
           y="506.8681"
           style="font-style:normal;font-variant:normal;font-weight:normal;font-stretch:normal;font-family:'NKL STV';-inkscape-font-specification:'NKL STV';direction:rtl;fill:#e6feff;fill-opacity:1"
           id="tspan114128"
           rotate="0 0 0 0 0 0">⁏    </tspan><tspan
           sodipodi:role="line"
           x="230.7132"
           y="605.73474"
           style="font-style:normal;font-variant:normal;font-weight:normal;font-stretch:normal;font-family:'NKL STV';-inkscape-font-specification:'NKL STV';direction:rtl;fill:#e6feff;fill-opacity:1"
           id="tspan114132">⹁</tspan></text>
    </g>
    <text
       xml:space="preserve"
       style="font-size:26.4859px;line-height:1.25;font-family:MadaniArabic-Regular;-inkscape-font-specification:MadaniArabic-Regular;text-align:start;text-anchor:start;display:inline;fill:#befcff;fill-opacity:1;stroke-width:1.10358"
       x="932.31012"
       y="1069.3297"
       id="text4720"><tspan
         sodipodi:role="line"
         x="932.31012"
         y="1069.3297"
         id="tspan4718"
         style="font-style:normal;font-variant:normal;font-weight:normal;font-stretch:normal;font-family:'NKL MadaniArabic-Regular';-inkscape-font-specification:'NKL MadaniArabic-Regular';fill:#befcff;fill-opacity:1;stroke-width:1.10358">v2.1_Akhir</tspan></text>
    <text
       xml:space="preserve"
       style="font-style:normal;font-variant:normal;font-weight:normal;font-stretch:normal;font-size:72px;line-height:1.25;font-family:Kitab;-inkscape-font-specification:Kitab;text-align:end;text-anchor:end;fill:#eeeeee;fill-opacity:1"
       x="1418.9949"
       y="589.12994"
       id="text102531"><tspan
         sodipodi:role="line"
         id="tspan102529"
         x="1418.9949"
         y="589.12994" /></text>
  </g>
</svg>
