<?xml version="1.0" encoding="UTF-8" standalone="no"?>
<!-- Created with Inkscape (http://www.inkscape.org/) -->

<svg
   width="285.75mm"
   height="285.72354mm"
   viewBox="0 0 285.75 285.72354"
   version="1.1"
   id="svg5"
   inkscape:version="1.2.1 (9c6d41e410, 2022-07-14)"
   sodipodi:docname="Salam Jumaat Jawi.svg"
   inkscape:export-filename="Salam Jumaat Jawi.png"
   inkscape:export-xdpi="96"
   inkscape:export-ydpi="96"
   xmlns:inkscape="http://www.inkscape.org/namespaces/inkscape"
   xmlns:sodipodi="http://sodipodi.sourceforge.net/DTD/sodipodi-0.dtd"
   xmlns="http://www.w3.org/2000/svg"
   xmlns:svg="http://www.w3.org/2000/svg">
  <sodipodi:namedview
     id="namedview7"
     pagecolor="#505050"
     bordercolor="#eeeeee"
     borderopacity="1"
     inkscape:showpageshadow="0"
     inkscape:pageopacity="0"
     inkscape:pagecheckerboard="0"
     inkscape:deskcolor="#505050"
     inkscape:document-units="mm"
     showgrid="false"
     inkscape:zoom="0.4204826"
     inkscape:cx="619.52622"
     inkscape:cy="605.25691"
     inkscape:window-width="1920"
     inkscape:window-height="1053"
     inkscape:window-x="-9"
     inkscape:window-y="-9"
     inkscape:window-maximized="1"
     inkscape:current-layer="layer1" />
  <defs
     id="defs2">
    <inkscape:path-effect
       effect="bspline"
       id="path-effect1781"
       is_visible="true"
       lpeversion="1"
       weight="33.333333"
       steps="2"
       helper_size="0"
       apply_no_weight="true"
       apply_with_weight="true"
       only_selected="false" />
    <inkscape:path-effect
       effect="bspline"
       id="path-effect1669"
       is_visible="true"
       lpeversion="1"
       weight="33.333333"
       steps="2"
       helper_size="0"
       apply_no_weight="true"
       apply_with_weight="true"
       only_selected="false" />
  </defs>
  <g
     inkscape:label="Layer 1"
     inkscape:groupmode="layer"
     id="layer1"
     transform="translate(327.02939,-3.5594988)"
     style="display:inline">
    <rect
       style="fill:#1c1f24;stroke-width:5.83813;stroke-linecap:square;stroke-miterlimit:5;paint-order:markers stroke fill"
       id="rect563"
       width="285.75"
       height="285.72354"
       x="-327.02939"
       y="3.5594988" />
    <g
       aria-label="تمـ"
       id="text236"
       style="font-size:50.8px;line-height:0.9;font-family:Amiri;-inkscape-font-specification:Amiri;text-align:center;direction:rtl;text-anchor:middle;fill:#f1f1f4;fill-opacity:1;stroke-width:2;stroke-linecap:square;stroke-miterlimit:5;paint-order:markers stroke fill"
       transform="matrix(2.1204775,0,0,2.1204775,-514.42783,-70.751233)">
      <path
         d="m 105.84877,106.6546 q 0.3556,1.4224 -0.8636,1.9812 -1.1176,0.508 -1.2192,-1.0668 -0.0508,-2.2352 0.6096,-4.2164 2.7432,-7.8232 8.0264,-8.5852 2.6416,-0.4064 4.6228,1.6764 0.6096,0.6604 0.4572,1.2192 -0.6096,2.1844 -1.3716,3.4544 -0.3048,0.4572 -0.762,0.0508 -3.048,-2.6924 -5.6896,-1.1684 -3.3528,1.8288 -3.81,3.7592 -0.3556,1.4732 0,2.8956 z m 6.9088,-21.844 q 0.1016,-0.1524 0.4064,-0.1016 1.016,0.3556 1.8796,0.8636 0.9144,0.508 1.7272,1.2192 0.2032,0.2032 0.0508,0.4572 l -2.4384,3.8608 q -0.1016,0.1524 -0.4572,-0.1016 -0.1524,-0.1524 -0.8636,-0.5588 -0.7112,-0.4572 -2.032,-1.2192 l -1.9304,2.9972 q -0.1524,0.254 -0.508,-0.0508 -0.2032,-0.1524 -1.0668,-0.7112 -0.8636,-0.5588 -2.4892,-1.524 -0.2032,-0.1524 -0.0508,-0.3048 l 2.4892,-3.7084 q 0.1016,-0.1524 0.4064,-0.1016 0.8636,0.254 1.6256,0.7112 0.762,0.4064 1.4224,0.9652 z"
         id="path443"
         style="fill:#f1f1f4;fill-opacity:1" />
      <path
         d="m 105.59476,105.3338 q -0.0508,1.3716 1.27,3.6068 0.508,0.8128 1.0668,1.4224 0.6096,0.6096 1.27,1.016 0.254,0.1524 0.8636,0.3556 0.6096,0.1524 1.5748,0.4064 0.762,0.2032 1.3208,0.4572 0.5588,0.2032 1.016,0.4572 0.8636,0.4064 0.8636,1.3716 -0.0508,2.6416 -0.4572,4.1656 -0.1524,0.8128 -0.8128,0.4064 -4.7244,-2.5908 -6.1976,-2.5908 -1.4732,0 -4.1656,1.2192 -1.3208,0.6096 -2.3876,0.9652 -1.016005,0.3048 -1.828804,0.3048 -0.6096,0 -0.9652,-1.1176 -0.3556,-1.1684 -0.1524,-2.286 0.2032,-1.1176 1.1176,-1.1684 4.114804,-0.3556 6.096004,-1.7272 -2.0828,-3.7592 -0.8128,-7.8232 1.4224,-3.2004 1.3208,0.5588 z"
         id="path445"
         style="fill:#f1f1f4;fill-opacity:1" />
    </g>
    <path
       id="path795"
       style="fill:#f1f1f4;fill-opacity:1;stroke-width:4.08066;stroke-linecap:square;stroke-miterlimit:5;paint-order:markers stroke fill"
       d="m -149.38907,22.195571 a 94.714165,124.27436 0 0 0 -50.55092,21.413163 l -2.32751,2.140954 a 94.714165,124.27436 0 0 0 -38.32634,84.606722 l -0.0129,-0.46457 -21.23953,24.05538 22.41517,17.98391 -0.007,-0.26045 a 94.714165,124.27436 0 0 0 15.56443,46.85864 94.714165,124.27436 0 0 0 131.515487,29.64522 94.714165,124.27436 0 0 0 23.580473,-172.334182 94.714165,124.27436 0 0 0 -80.6111,-53.644787 z" />
    <g
       id="g1406"
       transform="translate(-5.2916666,13.229168)"
       style="fill:#1c1f24;fill-opacity:1">
      <g
         id="g707"
         transform="translate(-140.45725,-35.731017)"
         style="fill:#1c1f24;fill-opacity:1">
        <path
           d="m 55.085755,165.14364 -2.356445,4.48965 -3.001368,-0.42168 -3.100586,-0.17364 -2.356445,0.0744 q -0.818554,0 -1.314648,0.0496 -0.471289,0.0496 -1.364258,0.27285 -0.967383,0.14883 -1.488281,0.27285 -0.520899,0.0992 -1.141016,0.37207 l -5.382617,2.55488 q -2.406055,1.11621 -5.109765,2.03399 -2.703711,0.91777 -5.705079,0.91777 h -4.390429 v -4.83691 h 4.390429 q 4.241602,0 9.376172,-1.73633 5.159375,-1.73633 5.680274,-2.85254 -1.537891,-0.96738 -4.688086,-1.86035 -3.125391,-0.91778 -5.109766,-0.91778 l -1.066601,0.0496 q -0.446485,0 -1.016993,0.19844 -2.480468,0.44649 -3.795117,1.51309 -1.314648,1.0666 -3.075781,3.79511 l -0.446484,-0.22324 q 1.909961,-4.63847 4.464843,-7.01972 2.951758,-2.82774 7.342188,-2.82774 2.778125,0 5.357812,0.91777 1.116211,0.37208 2.207617,0.84336 1.438672,0.69454 2.306836,1.06661 2.728516,1.14101 5.233789,1.73632 l 4.514453,0.96739 z m -13.617773,16.12304 -2.579688,4.09278 -4.539258,-2.72852 2.629297,-3.91914 z"
           id="path675"
           style="font-size:50.8px;line-height:0.9;font-family:'45_Sarchia_Iraq';-inkscape-font-specification:'45_Sarchia_Iraq';text-align:center;direction:rtl;text-anchor:middle;fill:#1c1f24;fill-opacity:1;stroke-width:2;stroke-linecap:square;stroke-miterlimit:5;paint-order:markers stroke fill" />
        <path
           d="m 18.895728,175.58641 h -0.37207 q -1.190625,0 -2.43086,-0.49609 -1.240234,-0.5209 -2.728515,-1.68672 -1.934766,-1.51309 -2.951758,-3.34863 l -0.148828,1.28984 -0.4464845,1.78594 -0.2976562,0.64492 q -0.1240234,0.47129 -0.6945312,1.43867 -0.024805,0.19844 -0.4464844,0.49609 -0.1488281,0.27286 -0.6945312,0.37207 H 7.2623298 l -2.4804687,-0.66972 -1.4386719,-0.5209 -1.5626953,-0.64492 -2.13320308,-0.84336 -1.43867182,-0.54571 -1.2898438,-0.64492 -2.3068359,-0.86816 q -1.0169921,1.01699 -1.661914,1.6123 -0.9177734,0.86817 -1.6123047,1.43868 l -1.3890626,0.81855 q -0.42168,0.27285 -1.240234,0.37207 h -0.272852 v -4.83691 h 0.868164 q 1.7611331,0 3.4974612,-1.53789 l 1.7115234,-1.81075 1.2898437,-1.36425 2.8773437,-3.29903 q 1.61230469,-1.88515 2.30683593,-2.43086 0.91777347,-0.84336 1.88515617,-0.84336 0.6945313,0 1.2650391,0.27286 l 1.3394531,0.96738 2.8029296,3.02617 q 3.0013671,3.22461 5.6306641,5.38262 0.595312,0.47129 1.984375,1.11621 1.16582,0.5209 2.083594,0.5209 h 0.917773 z M 6.9398688,169.41004 q -0.4216796,-1.68672 -1.4386718,-3.10058 -1.5626953,-2.30684 -3.6958984,-2.87735 -0.2728516,0 -1.61230466,1.06661 l -2.05878904,1.98437 q 0.4464844,0.32246 0.7689453,0.5209 0.91777343,0.5457 2.5052734,1.33945 3.0509765,1.38906 4.9857421,2.05879 0.4960938,-0.39687 0.5457031,-0.99219 z"
           id="path677"
           style="font-size:50.8px;line-height:0.9;font-family:'45_Sarchia_Iraq';-inkscape-font-specification:'45_Sarchia_Iraq';text-align:center;direction:rtl;text-anchor:middle;fill:#1c1f24;fill-opacity:1;stroke-width:2;stroke-linecap:square;stroke-miterlimit:5;paint-order:markers stroke fill" />
        <path
           d="m -11.068328,175.58641 h -2.902149 q -2.257226,0 -4.241601,-0.84336 -1.984375,-0.86816 -2.951758,-2.6541 -0.967383,0.66973 -1.95957,1.28984 -0.545703,0.37207 -1.736328,1.0418 -2.728516,1.16582 -6.746875,1.16582 h -2.058789 v -4.83691 h 1.413867 q 7.664648,0 9.971484,-3.42305 -0.471289,-1.21543 -2.505273,-2.25723 -1.041797,-0.5705 -1.984375,-0.81855 -0.917774,-0.24805 -1.934766,-0.24805 -0.768945,0 -1.289844,0.22324 l -0.09922,-0.32246 q 0,-1.11621 0.79375,-3.22461 0.818554,-2.1332 1.513086,-2.50527 l 2.505273,-0.32246 2.579687,-0.14883 1.066602,0.0496 1.066602,0.0496 q 0.644921,0 1.066601,0.14883 l 1.066602,0.32246 q 2.009179,0.64492 3.100586,2.00918 1.091406,1.36426 1.091406,3.07578 0,3.37344 -3.373438,5.85391 0,0.79375 2.133203,1.24023 1.389063,0.29766 2.753321,0.29766 h 1.661914 z"
           id="path679"
           style="font-size:50.8px;line-height:0.9;font-family:'45_Sarchia_Iraq';-inkscape-font-specification:'45_Sarchia_Iraq';text-align:center;direction:rtl;text-anchor:middle;fill:#1c1f24;fill-opacity:1;stroke-width:2;stroke-linecap:square;stroke-miterlimit:5;paint-order:markers stroke fill" />
        <path
           d="m -33.045275,175.58641 h -1.711524 q -1.934765,0 -3.497461,-1.43867 -2.182812,-1.93477 -3.150195,-6.37481 l -0.471289,-2.80293 -2.058789,2.57969 q -1.488281,1.88516 -2.505273,2.67891 l -1.513086,0.27285 -2.406055,0.0992 h -1.21543 -0.818554 q -1.438672,0 -2.306836,-0.22324 -1.711524,-0.37207 -2.356445,-0.96739 l 0.223242,-0.89297 0.892968,-1.28984 q 0.545704,-0.86816 2.331641,-2.95176 l 1.116211,-0.84336 2.133203,-1.04179 2.75332,-0.94258 5.506641,-1.71152 v -5.03536 l 1.389062,-3.02617 0.42168,0.22324 q -0.297656,1.78594 -0.297656,4.81211 0,7.14375 1.686719,10.41797 0.545703,1.11621 1.984375,2.40606 1.463476,1.21543 2.75332,1.21543 h 1.116211 z m -8.830469,-11.26133 v -0.37207 l -0.04961,-0.64492 q 0,-0.59531 -0.07441,-0.79375 v -2.08359 l -1.240235,1.16582 -1.339453,1.14101 q -0.694531,0.57051 -5.655468,1.81074 -1.785938,0.42168 -1.934766,0.96739 0.198437,0.5457 1.934766,0.5457 l 1.761132,0.19844 1.934766,0.0496 h 1.289844 l 0.471289,-0.0496 q 0.421679,0 1.066601,-0.32246 0.967383,-0.5209 1.835547,-1.61231 z m 5.92832,-18.25625 -2.629297,4.06797 -4.514453,-2.6789 2.678907,-3.94395 z m -6.821289,0 -2.406054,4.06797 -4.564063,-2.6789 2.480469,-3.94395 z"
           id="path681"
           style="font-size:50.8px;line-height:0.9;font-family:'45_Sarchia_Iraq';-inkscape-font-specification:'45_Sarchia_Iraq';text-align:center;direction:rtl;text-anchor:middle;fill:#1c1f24;fill-opacity:1;stroke-width:2;stroke-linecap:square;stroke-miterlimit:5;paint-order:markers stroke fill" />
      </g>
      <g
         id="g720"
         transform="translate(-8.8187734,6.9485183)"
         style="fill:#1c1f24;fill-opacity:1">
        <path
           d="m -57.453102,165.14364 -2.356445,4.48965 -3.001367,-0.42168 -3.100586,-0.17364 -2.356445,0.0744 q -0.818555,0 -1.314649,0.0496 -0.471289,0.0496 -1.364258,0.27285 -0.967382,0.14883 -1.488281,0.27285 -0.520898,0.0992 -1.141015,0.37207 l -5.382617,2.55488 q -2.406055,1.11621 -5.109766,2.03399 -2.703711,0.91777 -5.705078,0.91777 h -4.39043 v -4.83691 h 4.39043 q 4.241601,0 9.376172,-1.73633 5.159375,-1.73633 5.680273,-2.85254 -1.537891,-0.96738 -4.688086,-1.86035 -3.12539,-0.91778 -5.109765,-0.91778 l -1.066602,0.0496 q -0.446484,0 -1.016992,0.19844 -2.480469,0.44649 -3.795117,1.51309 -1.314649,1.0666 -3.075781,3.79511 l -0.446485,-0.22324 q 1.909961,-4.63847 4.464844,-7.01972 2.951758,-2.82774 7.342187,-2.82774 2.778125,0 5.357813,0.91777 1.116211,0.37208 2.207617,0.84336 1.438672,0.69454 2.306836,1.06661 2.728515,1.14101 5.233789,1.73632 l 4.514453,0.96739 z m -13.617773,16.12304 -2.579687,4.09278 -4.539258,-2.72852 2.629297,-3.91914 z"
           id="path683"
           style="font-size:50.8px;line-height:0.9;font-family:'45_Sarchia_Iraq';-inkscape-font-specification:'45_Sarchia_Iraq';text-align:center;direction:rtl;text-anchor:middle;fill:#1c1f24;fill-opacity:1;stroke-width:2;stroke-linecap:square;stroke-miterlimit:5;paint-order:markers stroke fill" />
        <path
           d="m -93.023022,175.58641 h -1.463476 q -1.488282,0 -3.100586,-0.64492 -2.133203,-0.79375 -3.274216,-2.0836 l -0.96739,-1.33945 q -0.79375,-1.66191 -0.79375,-5.35781 v -1.28984 -0.54571 q 0,-1.90996 -0.14882,-3.15019 l -0.4961,-3.81992 -1.28984,-6.10196 -0.14883,-0.89297 -0.17363,-0.5457 1.6123,-3.27422 q 0.0992,0.22324 0.14883,0.42168 0.32246,0.86817 0.39688,1.33945 l 0.27285,1.5627 0.19843,1.48828 0.79375,5.63067 q 0,4.46484 0.4961,8.16074 0,1.0666 0.967381,2.55488 0.79375,0.96738 1.984375,1.73633 l 0.843359,0.5209 1.066602,0.44648 q 1.041797,0.34727 1.686719,0.34727 h 1.389062 z"
           id="path685"
           style="font-size:50.8px;line-height:0.9;font-family:'45_Sarchia_Iraq';-inkscape-font-specification:'45_Sarchia_Iraq';text-align:center;direction:rtl;text-anchor:middle;fill:#1c1f24;fill-opacity:1;stroke-width:2;stroke-linecap:square;stroke-miterlimit:5;paint-order:markers stroke fill" />
        <path
           d="m -111.45291,166.03661 q 0,7.88789 -4.04316,14.60996 -4.04317,6.74687 -9.07852,6.74687 -2.30683,0 -4.34082,-0.79375 -0.76894,-0.27285 -1.6123,-0.64492 -0.81856,-0.34727 -2.40606,-1.24023 l 0.69453,-0.54571 2.03399,0.64492 1.21543,0.17364 h 0.86816 q 2.13321,0 4.83692,-1.24024 2.70371,-1.24023 4.44004,-3.00136 2.1332,-2.13321 3.89433,-5.38262 1.78594,-3.24942 1.78594,-5.87871 v -0.76895 l -0.12402,-0.62011 -0.14883,-0.64493 -0.42168,-0.69453 -0.76895,1.01699 -0.89297,0.79375 q -0.59531,0.4961 -1.66191,0.4961 -1.66191,0 -2.85254,-1.19063 -1.21543,-1.33945 -1.21543,-2.95175 0,-1.24024 0.49609,-2.72852 0.5209,-1.51309 1.68672,-3.54707 0.47129,-1.26504 1.48828,-2.18281 0.27286,-0.42168 0.76895,-0.59532 l 0.89297,-0.17363 q 1.56269,0 3.07578,3.12539 0.69453,1.33946 1.01699,3.27422 l 0.19844,1.66191 z m -4.19199,-3.32383 q -0.14883,-0.84336 -0.59531,-1.01699 -0.37207,-0.5209 -1.21543,-0.5209 -1.11621,0 -1.11621,1.24023 0,0.69453 0.24804,1.0666 0.27286,0.37207 0.96739,0.42168 0.59531,0 1.01699,-0.27285 0.49609,-0.5209 0.69453,-0.91777 z"
           id="path687"
           style="font-size:50.8px;line-height:0.9;font-family:'45_Sarchia_Iraq';-inkscape-font-specification:'45_Sarchia_Iraq';text-align:center;direction:rtl;text-anchor:middle;fill:#1c1f24;fill-opacity:1;stroke-width:2;stroke-linecap:square;stroke-miterlimit:5;paint-order:markers stroke fill" />
        <path
           d="m -135.01735,165.34207 v 0.32247 q 0,1.38906 -0.59532,3.84472 -0.5705,2.43086 -1.43867,3.89434 -1.51308,2.08359 -8.03672,4.29121 -3.10058,1.0666 -5.03535,1.53789 -3.175,0.71934 -6.92051,1.14102 -3.7455,0.42167 -7.66464,0.42167 l -3.6959,-0.0496 -5.68028,-0.22325 q -2.57968,0 -5.23378,-0.42168 l -3.07579,-0.5457 q -6.84609,-1.21543 -11.78222,-3.10059 -4.48965,-1.66191 -7.01973,-3.54707 l -1.66191,-1.24023 -1.86035,-1.43867 q -1.78594,-1.38906 -3.07578,-2.82774 l 1.24023,-0.34726 4.11758,1.98437 4.14238,1.93477 q 3.89434,1.78594 14.41152,3.44785 1.98438,0.29766 4.26641,0.57051 2.30684,0.27285 5.10977,0.49609 1.86035,0 2.90214,0.0496 5.35782,0.22324 6.10196,0.22324 4.93613,0 8.55761,-0.27285 3.64629,-0.27285 7.14375,-1.0666 5.7795,-1.28984 8.78086,-2.85254 2.57969,-1.38906 2.95176,-2.35644 0,-0.4961 -1.56269,-1.19063 l -0.5209,-0.14883 -1.017,-0.32246 -2.03398,-0.49609 q -1.88516,-0.47129 -5.15937,-1.5875 -3.00137,-1.28985 -3.27422,-2.40606 l -0.0496,-0.44648 q 0,-0.91777 0.42168,-3.7207 0.44648,-2.80293 0.81855,-3.44786 1.71153,-4.09277 5.8291,-6.59804 3.44785,-2.0836 6.54844,-2.0836 1.71152,0 2.50527,0.74414 l 0.39688,1.11622 0.14883,1.71152 q 0,1.98437 -0.5209,2.48047 l -0.91777,-0.27285 -0.86817,-0.27286 -1.93476,-0.14882 q -3.62149,0 -7.06934,2.87734 -2.72852,2.30684 -2.57969,3.32383 0.27285,1.28984 3.6711,2.38125 l 6.05234,1.81074 q 3.47266,1.0666 4.16719,2.82773 z m -24.70547,20.93516 -2.55488,4.01836 -4.66329,-2.72852 2.67891,-3.91914 z m -6.69727,0 -2.55488,4.01836 -4.56406,-2.72852 2.62929,-3.91914 z"
           id="path689"
           style="font-size:50.8px;line-height:0.9;font-family:'45_Sarchia_Iraq';-inkscape-font-specification:'45_Sarchia_Iraq';text-align:center;direction:rtl;text-anchor:middle;fill:#1c1f24;fill-opacity:1;stroke-width:2;stroke-linecap:square;stroke-miterlimit:5;paint-order:markers stroke fill" />
      </g>
      <g
         id="g1388"
         transform="translate(0,15.875)"
         style="fill:#1c1f24;fill-opacity:1">
        <g
           id="g725"
           transform="translate(-263.16603,-92.208415)"
           style="fill:#1c1f24;fill-opacity:1">
          <path
             d="m 170.65081,166.63192 q 0,0.5457 -0.17364,1.19062 -0.14882,0.64493 -0.5209,1.66192 l -1.11621,2.92695 q -0.22324,0.64492 -0.49609,1.19063 -0.27285,0.5457 -0.79375,1.28984 -1.51309,0 -3.22461,-0.91777 l -2.90215,-2.23243 q -1.31465,1.31465 -5.35781,1.86036 l -6.05234,0.79375 q -1.76114,0 -1.76114,-1.16582 v -0.37208 q -0.59531,0.32247 -1.78593,0.71934 -1.16582,0.39688 -2.92696,0.89297 -4.39043,1.11621 -7.66465,1.11621 h -1.73632 v -4.83691 h 1.5875 q 3.57187,0 8.03672,-0.79375 4.48964,-0.79375 6.64765,-2.35645 1.53789,-1.0666 2.6541,-3.52226 l 1.73633,-3.86954 0.29766,0.22325 -1.26504,3.89433 -1.66192,4.61367 q 0.19844,0.22325 0.32247,0.27286 h 1.11621 l 2.57968,-0.14883 2.18282,-0.17364 q 2.72851,-0.47128 3.96875,-1.98437 l 0.91777,-2.45566 1.0666,-3.77032 0.47129,0.32246 -0.94258,3.49747 q -0.37207,1.53789 -0.74414,3.96875 0.29766,0.5705 1.63711,1.43867 l 1.93477,0.91777 0.37207,0.14883 h 0.44648 l 0.42168,-0.14883 q 0.14883,-0.22324 0.22324,-0.5209 0.0992,-0.29765 0.19844,-0.62012 l 0.0496,-0.74414 q 0,-1.11621 -0.27285,-2.18281 l -0.89297,-2.75332 2.18281,-3.15019 0.76895,-0.81856 0.37207,2.67891 0.14883,3.32383 z"
             id="path669"
             style="font-size:50.8px;line-height:0.9;font-family:'45_Sarchia_Iraq';-inkscape-font-specification:'45_Sarchia_Iraq';text-align:center;direction:rtl;text-anchor:middle;fill:#1c1f24;fill-opacity:1;stroke-width:2;stroke-linecap:square;stroke-miterlimit:5;paint-order:markers stroke fill" />
          <path
             d="m 134.46075,175.58641 h -1.33945 q -2.45566,0 -4.34082,-1.90996 -1.88515,-1.93477 -2.82773,-5.65547 l -0.76895,-3.15019 -0.27285,-4.16719 -0.5209,-7.04453 q -2.6293,10.83965 -5.68027,15.32929 -3.49746,5.03536 -10.44277,7.09414 -1.83555,0.4961 -6.8709,1.017 l -5.829105,0.27285 -3.12539,-0.12403 q -1.265039,0 -2.033985,-0.24804 l 0.272852,-0.54571 q 2.158008,-0.27285 6.101953,-1.24023 2.430859,-0.5457 5.729885,-1.66191 4.51445,-1.51309 8.21035,-3.64629 l 0.0496,-1.81074 q 0,-2.15801 -0.62012,-4.51446 -0.59531,-2.35644 -1.73633,-4.19199 -1.88515,-3.1998 -2.77812,-3.1998 l -0.22324,0.0496 -0.37207,0.96739 -0.22325,1.28984 -0.24804,0.22324 -0.37207,0.0992 -2.05879,-4.88652 -0.89297,-2.25723 0.27285,-0.64492 0.19844,-0.74414 0.47129,-0.94258 q 0.66972,-1.78594 1.04179,-2.15801 1.53789,0.54571 4.34082,3.64629 3.24942,3.54707 4.44004,6.8709 l 0.27285,0.66973 0.24805,1.28984 q 0.0744,0.44649 0.12402,0.91777 0.0496,0.47129 0.0496,1.46348 0,4.39043 -1.43867,7.54063 1.5875,-0.86817 3.96875,-2.72852 0.99219,-0.79375 2.67891,-2.90215 1.31465,-1.71152 3.57187,-7.24297 2.1084,-5.333 2.40606,-7.81347 0,-1.21543 0.59531,-2.20762 0.22324,-0.47129 0.96738,-1.21543 0.32246,0.91777 0.47129,2.03398 0.17364,1.11622 0.17364,2.53008 l 0.22324,7.16856 v 1.43867 l 0.0992,1.56269 0.0992,1.06661 q 0.0744,0.59531 0.22325,0.81855 0.91777,4.2168 3.6959,6.79648 1.98437,1.86036 3.59668,1.86036 h 0.42167 z"
             id="path671"
             style="font-size:50.8px;line-height:0.9;font-family:'45_Sarchia_Iraq';-inkscape-font-specification:'45_Sarchia_Iraq';text-align:center;direction:rtl;text-anchor:middle;fill:#1c1f24;fill-opacity:1;stroke-width:2;stroke-linecap:square;stroke-miterlimit:5;paint-order:markers stroke fill" />
        </g>
        <text
           xml:space="preserve"
           style="font-style:normal;font-variant:normal;font-weight:normal;font-stretch:normal;font-size:92.4965px;line-height:0.9;font-family:Amiri;-inkscape-font-specification:Amiri;text-align:center;direction:rtl;text-anchor:middle;fill:#1c1f24;fill-opacity:1;stroke-width:3.64158;stroke-linecap:square;stroke-miterlimit:5;paint-order:markers stroke fill"
           x="-187.17061"
           y="83.440979"
           id="text917"><tspan
             sodipodi:role="line"
             id="tspan915"
             style="font-style:normal;font-variant:normal;font-weight:normal;font-stretch:normal;font-size:92.4965px;font-family:'Arabic Typesetting';-inkscape-font-specification:'Arabic Typesetting, Normal';font-variant-ligatures:normal;font-variant-caps:normal;font-variant-numeric:normal;font-variant-east-asian:normal;font-feature-settings:'ss02', 'ss03', 'ss04';fill:#1c1f24;fill-opacity:1;stroke-width:3.64158"
             x="-187.17061"
             y="83.440979">م</tspan></text>
      </g>
    </g>
  </g>
</svg>
