<?xml version="1.0" encoding="UTF-8" standalone="no"?>
<!-- Created with Inkscape (http://www.inkscape.org/) -->

<svg
   width="810.88739"
   height="477.4213"
   viewBox="0 0 214.54728 126.31772"
   version="1.1"
   id="svg1170"
   xml:space="preserve"
   inkscape:version="1.2 (dc2aedaf03, 2022-05-15)"
   sodipodi:docname="Selamat Datang.svg"
   inkscape:export-filename="Selamat Datang.webp"
   inkscape:export-xdpi="96"
   inkscape:export-ydpi="96"
   xmlns:inkscape="http://www.inkscape.org/namespaces/inkscape"
   xmlns:sodipodi="http://sodipodi.sourceforge.net/DTD/sodipodi-0.dtd"
   xmlns:xlink="http://www.w3.org/1999/xlink"
   xmlns="http://www.w3.org/2000/svg"
   xmlns:svg="http://www.w3.org/2000/svg"><sodipodi:namedview
     id="namedview1172"
     pagecolor="#505050"
     bordercolor="#eeeeee"
     borderopacity="1"
     inkscape:showpageshadow="0"
     inkscape:pageopacity="0"
     inkscape:pagecheckerboard="0"
     inkscape:deskcolor="#505050"
     inkscape:document-units="mm"
     showgrid="false"
     inkscape:zoom="1.1893044"
     inkscape:cx="107.20552"
     inkscape:cy="329.60443"
     inkscape:window-width="1920"
     inkscape:window-height="1051"
     inkscape:window-x="-9"
     inkscape:window-y="-9"
     inkscape:window-maximized="1"
     inkscape:current-layer="g815" /><defs
     id="defs1167" /><g
     inkscape:label="Layer 1"
     inkscape:groupmode="layer"
     id="layer1"><image
       width="214.54729"
       height="126.31772"
       preserveAspectRatio="none"
       xlink:href="Banner%20Embed%5Cgambar%5Cfubuki.png"
       id="image1315"
       x="0"
       y="0" /><g
       id="g815"
       inkscape:label="RumiJawi"
       style="fill:#60c6df;fill-opacity:1"
       transform="translate(11.788197,-126.29421)"><text
         xml:space="preserve"
         style="font-style:normal;font-variant:normal;font-weight:600;font-stretch:normal;font-size:11.4843px;font-family:Montserrat-Arabic;-inkscape-font-specification:'Montserrat-Arabic Semi-Bold';font-feature-settings:'ss04';letter-spacing:0px;fill:#ffffff;fill-opacity:1;stroke:#4cbbe9;stroke-width:4.03049;stroke-linecap:round;stroke-miterlimit:5;stroke-dasharray:96.7317, 4.03049;stroke-dashoffset:0;stroke-opacity:1;paint-order:markers stroke fill"
         x="41.865238"
         y="220.08839"
         id="text809"><tspan
           sodipodi:role="line"
           id="tspan807"
           style="font-style:normal;font-variant:normal;font-weight:600;font-stretch:normal;font-size:11.4843px;font-family:Montserrat-Arabic;-inkscape-font-specification:'Montserrat-Arabic Semi-Bold';fill:#ffffff;fill-opacity:1;stroke:#4cbbe9;stroke-width:4.03049;stroke-linecap:round;stroke-linejoin:round;stroke-dasharray:96.7317, 4.03049;stroke-dashoffset:0;stroke-opacity:1;paint-order:markers stroke fill"
           x="41.865238"
           y="220.08839">SELAMAT DATANG</tspan></text><path
         id="text813"
         style="font-style:normal;font-variant:normal;font-weight:500;font-stretch:normal;font-size:12.9806px;font-family:Montserrat-Arabic;-inkscape-font-specification:'Montserrat-Arabic Medium';font-feature-settings:'ss04';fill:#ffffff;fill-opacity:1;stroke:#4cbbe9;stroke-width:4.55565;stroke-linecap:round;stroke-linejoin:round;stroke-miterlimit:5;stroke-dasharray:109.335, 4.55565;stroke-dashoffset:0;stroke-opacity:1;paint-order:markers stroke fill"
         d="M 63.017573 227.6782 C 62.53729 227.6782 62.199535 228.0283 62.199535 228.52156 C 62.199535 229.01482 62.53729 229.35252 63.017573 229.35252 C 63.497854 229.35252 63.848013 229.01482 63.848013 228.52156 C 63.848013 228.0283 63.497854 227.6782 63.017573 227.6782 z M 61.953038 229.57318 C 61.446796 229.57318 61.057486 229.94944 61.057486 230.48165 C 61.057486 231.01385 61.446796 231.40356 61.953038 231.40356 C 62.472262 231.40356 62.848591 231.01385 62.848591 230.48165 C 62.848591 229.94944 62.472262 229.57318 61.953038 229.57318 z M 64.120865 229.57318 C 63.614621 229.57318 63.225312 229.94944 63.225312 230.48165 C 63.225312 231.01385 63.614621 231.40356 64.120865 231.40356 C 64.640088 231.40356 65.016417 231.01385 65.016417 230.48165 C 65.016417 229.94944 64.640088 229.57318 64.120865 229.57318 z M 73.113597 229.79952 L 73.113597 239.52192 L 75.112442 239.52192 L 75.112442 229.79952 L 73.113597 229.79952 z M 116.76726 229.79952 L 116.76726 236.58825 C 116.76726 237.38007 116.52044 237.7179 115.71565 237.7179 L 114.53432 237.7179 L 114.53432 231.6299 L 112.5484 231.6299 L 112.5484 237.7179 L 110.92576 237.7179 L 110.92576 239.52192 L 115.96214 239.52192 C 116.83184 239.52192 117.48129 239.31409 117.94859 238.89871 C 118.40291 239.3011 119.02591 239.52192 119.81772 239.52192 L 120.68744 239.52192 L 121.36233 239.52192 C 122.30991 239.52192 123.0106 239.31409 123.49088 238.89871 C 123.97117 239.31409 124.64659 239.52192 125.5812 239.52192 C 126.5158 239.52192 127.20363 239.31402 127.68391 238.91163 C 128.15121 239.31402 128.82618 239.52192 129.76079 239.52192 C 131.78576 239.52192 132.69446 238.54826 132.69446 236.60117 L 132.69446 232.96677 L 130.6951 232.96677 L 130.6951 236.58825 C 130.6951 237.45795 130.44868 237.7179 129.44918 237.7179 C 128.98188 237.7179 128.65751 237.66593 128.43684 237.51016 C 128.48876 237.23757 128.51435 236.93867 128.51435 236.60117 L 128.51435 233.61582 L 126.51551 233.61582 L 126.51551 236.58825 C 126.51551 237.45795 126.26909 237.7179 125.26959 237.7179 C 124.80229 237.7179 124.46448 237.65295 124.24381 237.51016 C 124.29573 237.23757 124.32184 236.92569 124.32184 236.60117 L 124.32184 234.26488 L 122.323 234.26488 L 122.323 236.58825 C 122.323 237.41901 122.07621 237.7179 121.15459 237.7179 L 120.68744 237.7179 L 119.441 237.7179 C 119.12947 237.7179 118.88279 237.63997 118.68808 237.51016 C 118.74 237.22459 118.76611 236.92569 118.76611 236.60117 L 118.76611 229.79952 L 116.76726 229.79952 z M 69.167068 230.22792 C 68.660825 230.22792 68.271516 230.6171 68.271516 231.14931 C 68.271516 231.68151 68.660825 232.0583 69.167068 232.0583 C 69.686292 232.0583 70.063138 231.68151 70.063138 231.14931 C 70.063138 230.6171 69.686292 230.22792 69.167068 230.22792 z M 71.334895 230.22792 C 70.828652 230.22792 70.439342 230.6171 70.439342 231.14931 C 70.439342 231.68151 70.828652 232.0583 71.334895 232.0583 C 71.854118 232.0583 72.230447 231.68151 72.230447 231.14931 C 72.230447 230.6171 71.854118 230.22792 71.334895 230.22792 z M 93.259138 230.22792 C 92.752895 230.22792 92.363585 230.6171 92.363585 231.14931 C 92.363585 231.68151 92.752895 232.0583 93.259138 232.0583 C 93.778361 232.0583 94.15469 231.68151 94.15469 231.14931 C 94.15469 230.6171 93.778361 230.22792 93.259138 230.22792 z M 95.426964 230.22792 C 94.920721 230.22792 94.531412 230.6171 94.531412 231.14931 C 94.531412 231.68151 94.920721 232.0583 95.426964 232.0583 C 95.946188 232.0583 96.322517 231.68151 96.322517 231.14931 C 96.322517 230.6171 95.946188 230.22792 95.426964 230.22792 z M 78.396479 231.74669 L 77.99392 233.49904 C 80.057833 233.94038 81.369278 235.4461 81.836579 237.43213 C 81.044763 237.61386 80.200796 237.7179 79.266193 237.7179 C 78.331591 237.7179 77.526688 237.62684 76.66997 237.43213 L 76.66997 239.27543 C 77.474766 239.43119 78.34451 239.52192 79.279113 239.52192 C 81.044472 239.52192 82.680324 239.21044 84.017325 238.63929 C 83.822616 235.06963 81.706529 232.44764 78.396479 231.74669 z M 105.53901 232.53837 C 102.65732 232.53837 102.42353 236.238 102.29373 236.97789 C 102.20286 237.48414 101.93032 237.7179 101.41109 237.7179 L 101.22919 237.7179 L 100.16518 237.7179 C 99.853642 237.7179 99.606959 237.63997 99.412251 237.51016 C 99.464173 237.22459 99.489765 236.92569 99.489765 236.60117 L 99.489765 232.96677 L 97.50384 232.96677 L 97.50384 236.58825 C 97.50384 237.38007 97.244102 237.7179 96.439305 237.7179 L 91.987381 237.7179 C 91.182584 237.7179 90.766783 237.2375 90.766783 236.43271 C 90.766783 235.78368 91.026472 235.19943 91.623579 234.60233 L 90.066051 233.51195 C 89.235293 234.26483 88.767939 235.19949 88.767939 236.44563 C 88.767939 238.34079 89.858121 239.52192 91.753287 239.52192 L 96.686319 239.52192 C 97.568999 239.52192 98.230843 239.30123 98.685163 238.87287 C 99.178426 239.28825 99.827535 239.52192 100.63233 239.52192 L 101.22919 239.52192 L 101.9046 239.52192 C 102.5796 239.52192 103.12433 239.31423 103.52673 238.97674 C 104.48729 239.4051 105.31807 239.52192 106.032 239.52192 C 107.08343 239.52192 108.62834 239.24926 109.91342 238.66513 C 110.01726 235.26421 108.03128 232.53837 105.53901 232.53837 z M 62.988634 232.55129 C 62.23576 232.55129 61.612489 232.655 61.067304 232.79779 L 59.418826 235.53715 C 59.73036 236.47176 60.275464 237.27615 60.963435 237.9122 C 59.548551 238.3146 58.276777 239.23649 58.276777 240.91099 C 58.276777 242.89702 60.106696 244.29889 62.495124 244.29889 C 63.196076 244.29889 64.066151 244.13005 64.598355 243.88341 L 64.079007 242.19618 C 63.676609 242.37791 63.027328 242.50727 62.495124 242.50727 C 61.184085 242.50727 60.275621 241.87155 60.275621 240.91099 C 60.275621 239.95042 61.19704 239.62601 62.391254 239.47025 C 62.754711 239.43131 63.105436 239.35337 63.429951 239.26251 C 64.040038 239.43126 64.702128 239.52192 65.377119 239.52192 L 67.843118 239.52192 L 71.218106 239.52192 L 71.218106 232.96677 L 69.219261 232.96677 L 69.219261 237.7179 L 67.843118 237.7179 L 65.818435 237.7179 C 66.506407 236.92608 66.843696 236.00444 66.843696 235.21263 C 66.843696 233.57707 65.377062 232.55129 62.988634 232.55129 z M 105.61704 234.34291 C 106.56462 234.34291 107.56389 235.73155 107.84946 237.45797 C 107.21341 237.62671 106.59011 237.7179 106.04492 237.7179 C 105.43483 237.7179 104.94166 237.58772 104.27965 237.25023 C 104.3835 236.22476 104.53965 234.34291 105.61704 234.34291 z M 62.962796 234.35583 C 64.325758 234.35583 64.844852 234.70626 64.844852 235.23846 C 64.844852 236.0173 64.442252 236.83506 63.468708 237.31534 C 62.391319 236.83506 61.599681 235.9002 61.249205 234.64108 C 61.820351 234.4334 62.339728 234.35583 62.962796 234.35583 z " /><g
         aria-label="ุด"
         id="text9681"
         style="font-weight:500;font-size:12.9806px;font-family:Montserrat-Arabic;-inkscape-font-specification:'Montserrat-Arabic Medium';font-feature-settings:'ss04';fill:#efffff;stroke:#4cbbe9;stroke-width:4.55565;stroke-linecap:round;stroke-linejoin:round;stroke-miterlimit:5;stroke-dasharray:109.335, 4.55565;paint-order:markers stroke fill" /></g></g></svg>
