<?xml version="1.0" encoding="UTF-8" standalone="no"?>
<!-- Created with Inkscape (http://www.inkscape.org/) -->

<svg
   width="62.110939mm"
   height="15.56343mm"
   viewBox="0 0 62.11094 15.56343"
   version="1.1"
   id="svg5"
   inkscape:version="1.2 (dc2aedaf03, 2022-05-15)"
   sodipodi:docname="SariKataShirayuki.svg"
   inkscape:export-filename="D:\Niskala's Void\Project\Design\Shirayuki\SariKataShirayuki.png"
   inkscape:export-xdpi="96"
   inkscape:export-ydpi="96"
   xmlns:inkscape="http://www.inkscape.org/namespaces/inkscape"
   xmlns:sodipodi="http://sodipodi.sourceforge.net/DTD/sodipodi-0.dtd"
   xmlns="http://www.w3.org/2000/svg"
   xmlns:svg="http://www.w3.org/2000/svg">
  <sodipodi:namedview
     id="namedview7"
     pagecolor="#505050"
     bordercolor="#eeeeee"
     borderopacity="1"
     inkscape:pageshadow="0"
     inkscape:pageopacity="0"
     inkscape:pagecheckerboard="0"
     inkscape:document-units="mm"
     showgrid="false"
     showguides="true"
     inkscape:guide-bbox="true"
     inkscape:snap-global="false"
     inkscape:zoom="3.9999998"
     inkscape:cx="407.00002"
     inkscape:cy="41.625002"
     inkscape:window-width="1920"
     inkscape:window-height="1051"
     inkscape:window-x="-9"
     inkscape:window-y="-9"
     inkscape:window-maximized="1"
     inkscape:current-layer="layer1"
     inkscape:showpageshadow="0"
     inkscape:deskcolor="#505050">
    <sodipodi:guide
       position="63.082816,4.2798226"
       orientation="0,-1"
       id="guide7046"
       inkscape:locked="false" />
    <sodipodi:guide
       position="53.524966,2.1195025"
       orientation="0,-1"
       id="guide7115"
       inkscape:locked="false" />
    <sodipodi:guide
       position="50.382656,13.706753"
       orientation="0,-1"
       id="guide7135"
       inkscape:locked="false" />
    <sodipodi:guide
       position="31.750985,0.18012251"
       orientation="0,-1"
       id="guide10993"
       inkscape:locked="false" />
    <sodipodi:guide
       position="39.712955,14.993083"
       orientation="0,-1"
       id="guide7832"
       inkscape:locked="false" />
  </sodipodi:namedview>
  <defs
     id="defs2" />
  <g
     inkscape:label="Layer 1"
     inkscape:groupmode="layer"
     id="layer1"
     transform="translate(-123.22968,-99.417183)">
    <rect
       style="fill:#0d1117;fill-opacity:1;stroke:none;stroke-width:5.39654;stroke-linejoin:bevel"
       id="rect1755"
       width="62.110939"
       height="15.56343"
       x="190.39452"
       y="99.987534"
       ry="0"
       inkscape:export-filename="D:\Niskala's Void\Project\Design\Shirayuki\SariKataShirayuki.png"
       inkscape:export-xdpi="401.47958"
       inkscape:export-ydpi="401.47958" />
    <rect
       style="fill:#0d1117;fill-opacity:1;stroke:none;stroke-width:5.39654;stroke-linejoin:bevel"
       id="rect915"
       width="62.110939"
       height="15.56343"
       x="123.22968"
       y="99.417183"
       ry="0"
       inkscape:export-filename="D:\Niskala's Void\Project\Design\Shirayuki\SariKataShirayuki.png"
       inkscape:export-xdpi="401.47958"
       inkscape:export-ydpi="401.47958" />
    <text
       xml:space="preserve"
       style="font-style:normal;font-variant:normal;font-weight:normal;font-stretch:normal;font-size:10.5833px;line-height:1.25;font-family:'DecoType Thuluth';-inkscape-font-specification:'DecoType Thuluth';stroke-width:0.0700042"
       x="134.52026"
       y="77.675499"
       id="text12251"><tspan
         sodipodi:role="line"
         id="tspan12249"
         style="font-style:normal;font-variant:normal;font-weight:normal;font-stretch:normal;font-family:'DecoType Thuluth';-inkscape-font-specification:'DecoType Thuluth';stroke-width:0.0700042"
         x="134.52026"
         y="77.675499" /></text>
    <g
       aria-label="ﮑ"
       id="text40101"
       style="font-size:10.5833px;line-height:1.25;font-family:'DecoType Thuluth II';-inkscape-font-specification:'DecoType Thuluth II';stroke-width:0.0700042" />
    <g
       id="g1555"
       transform="translate(-0.13753874,-0.19858464)">
      <g
         id="g15163"
         inkscape:export-filename="D:\Niskala's Void\Project\Design\Shirayuki\SariKataShirayuki.png"
         inkscape:export-xdpi="440.87274"
         inkscape:export-ydpi="440.87274"
         style="font-size:10.5833px;line-height:1.25;font-family:'DecoType Thuluth';-inkscape-font-specification:'DecoType Thuluth';stroke-width:0.264583">
        <g
           id="g8185"
           inkscape:export-filename="D:\Niskala's Void\Project\Design\Shirayuki\SariKataShirayuki.png"
           inkscape:export-xdpi="300"
           inkscape:export-ydpi="300">
          <g
             id="g8167"
             inkscape:export-filename="C:\Users\Niskala5570\Desktop\g8167.png"
             inkscape:export-xdpi="96"
             inkscape:export-ydpi="96">
            <path
               id="path6982"
               d="m 177.23407,110.54178 q -0.47025,0 -0.87333,-0.44958 -0.30489,-0.34107 -0.41857,-0.71831 -0.14987,-0.49092 -0.28939,-1.87068 -0.15503,-1.53995 -0.35657,-2.87836 -0.0568,-0.39274 -0.26355,-1.0542 -0.18603,-0.60978 -0.18603,-0.64079 0.0724,-0.24287 0.16536,-0.62528 0.0155,-0.0258 0.0413,-0.0258 0.12919,0 0.36174,0.78031 0.21704,0.72864 0.32556,1.40043 0.18603,1.18856 0.29455,2.43395 0.0517,0.67696 0.10852,1.35392 0.0982,0.78548 0.48576,1.22473 0.30489,0.34623 0.60461,0.34623 z m 5.42085,-1.45727 q 0,1.1007 -0.77515,1.1007 -0.24287,0 -0.43408,-0.1757 -0.12919,-0.16019 -0.26355,-0.31522 -0.093,0.1912 -0.27388,0.44441 -0.23254,0.32556 -0.69246,0.32556 -0.3359,0 -0.55294,-0.21187 -0.24288,-0.24288 -0.21187,-0.68729 -0.58394,0.44441 -0.894,0.60978 -0.67179,0.3669 -1.32291,0.3669 0,-0.36174 0,-0.72347 0.75447,0 1.2454,-0.21187 0.30489,-0.12919 1.08003,-0.65629 0.0827,-0.0568 0.11369,-0.0568 0.0465,0 0.0465,0.0827 0,0.031 -0.005,0.0827 -0.005,0.0517 -0.0413,0.27388 0.22737,0.45476 0.64078,0.45476 0.56327,0 0.85783,-0.65629 0.10852,-0.23771 0.31006,-0.42892 0.0207,-0.0103 0.0413,-0.0155 0.031,0 0.031,0.0568 0,0.0517 -0.11885,0.44959 0.23254,0.31006 0.56327,0.31006 0.10335,0 0.24805,-0.0517 0.17053,-0.062 0.17053,-0.12919 0,-0.0568 -0.0879,-0.17053 -0.0879,-0.11886 -0.0879,-0.18604 -0.0258,-0.35656 0.10852,-0.57877 0.0155,-0.0258 0.0362,-0.0258 0.0775,0 0.17053,0.25321 0.0982,0.24805 0.0982,0.47026 z"
               style="fill:#ffffff" />
            <path
               d="m 175.32911,109.57548 q 0,0.12919 -0.0465,0.3359 -0.0568,0.24288 -0.11885,0.24288 -0.0414,0 -0.0775,-0.0879 -0.2067,-0.37207 -0.78031,-0.37207 -0.58911,0 -1.35909,0.62528 -0.37723,0.30489 -1.72082,1.64847 -0.72863,0.72347 -1.16788,0.72864 -0.42374,0.005 -0.72347,-0.31006 -0.29972,-0.31522 -0.29972,-0.75447 0,-0.92501 0.62528,-2.04638 0.0775,-0.13953 0.16537,-0.13953 0.0258,0 0.0258,0.0362 0,0.0568 -0.0724,0.19637 -0.56844,1.12654 -0.5271,1.88618 0.031,0.56327 0.44442,0.56327 0.59944,-0.005 1.4676,-0.82682 0.78031,-0.76481 1.55546,-1.52962 0.96118,-0.82165 1.79316,-0.82165 0.36174,0 0.58911,0.18087 0.22738,0.1757 0.22738,0.44441 z"
               id="path6984"
               style="fill:#ffffff" />
            <path
               d="m 171.82581,107.55805 c -0.0483,0.15847 -0.29287,0.40652 -0.73381,0.74413 -0.49265,0.37552 -1.01974,0.68902 -1.58129,0.94051 -0.69246,0.31006 -1.32119,0.46337 -1.88618,0.45992 -0.53055,-0.003 -0.95602,-0.20832 -1.27641,-0.61495 -0.29627,-0.37895 -0.43408,-0.8337 -0.41341,-1.36425 0.0275,-0.67179 0.17395,-1.27296 0.43925,-1.8035 0.14125,-0.27905 0.23943,-0.41858 0.29456,-0.41858 0.0138,0.003 0.0207,0.0171 0.0207,0.0413 0,0.0792 -0.0517,0.22738 -0.15503,0.44442 -0.2446,0.50643 -0.36001,1.00596 -0.34623,1.49861 0.0103,0.40997 0.15675,0.7562 0.43924,1.03869 0.2825,0.2825 0.62529,0.42375 1.02836,0.42375 0.596,0 1.24023,-0.14125 1.93269,-0.42375 0.53399,-0.21359 1.03009,-0.48231 1.48828,-0.80615 0.40652,-0.28249 0.59083,-0.44958 0.55294,-0.50126 -0.062,-0.0896 -0.28938,-0.17053 -0.68213,-0.24288 -0.50298,-0.0965 -0.83715,-0.17914 -1.00252,-0.24804 -0.34451,-0.14125 -0.51676,-0.34278 -0.51676,-0.60461 0,-0.68902 0.29283,-1.37804 0.87849,-2.06705 0.42375,-0.49954 0.79754,-0.74931 1.12138,-0.74931 0.26527,0 0.39791,0.19292 0.39791,0.57877 0,0.29628 -0.0827,0.44442 -0.24805,0.44442 -0.0138,0 -0.0362,-0.0517 -0.0672,-0.15503 -0.031,-0.1068 -0.11713,-0.1602 -0.25838,-0.1602 -0.27216,0 -0.596,0.23082 -0.97151,0.69247 -0.3893,0.47887 -0.58395,0.80615 -0.58395,0.98185 0,0.0103 0.002,0.0189 0.005,0.0258 0.13781,0.19637 0.42203,0.34107 0.85266,0.43408 0.63389,0.13781 1.00424,0.2291 1.11104,0.27389 0.17225,0.0724 0.25838,0.24977 0.25838,0.53226 0,0.18259 -0.0327,0.38413 -0.0982,0.60462 z m -2.88605,3.02176 c 0.0517,0 -0.0224,0.14468 -0.0672,0.27905 -0.0551,0.16192 -0.1137,0.27733 -0.1757,0.34623 -0.1378,-0.0758 -0.27388,-0.15159 -0.40824,-0.22738 -0.18948,-0.11024 -0.28422,-0.1912 -0.28422,-0.24288 0,-0.0207 0.0362,-0.12058 0.10852,-0.29972 0.0724,-0.1757 0.1223,-0.26355 0.14986,-0.26355 0.45131,0.19292 0.59772,0.40825 0.67696,0.40825 z m -0.97106,0.17423 c 0.0738,0 -0.0224,0.18948 -0.0672,0.31006 -0.0517,0.14469 -0.10851,0.21704 -0.17053,0.21704 -0.031,0 -0.15675,-0.0655 -0.37724,-0.19637 -0.24115,-0.14125 -0.36173,-0.24116 -0.36173,-0.29972 0,-0.0413 0.0827,-0.25321 0.24804,-0.63562 0.10335,0.0999 0.27128,0.2128 0.49609,0.3514 0.19446,0.11989 0.11408,0.25321 0.23255,0.25321 z"
               id="path6986"
               style="fill:#ffffff"
               sodipodi:nodetypes="ccccccccsccsscccccscssscscscccsccscccsccssscscscsss" />
            <path
               id="path6990"
               d="m 161.52855,110.73817 q -0.47025,0 -0.87333,-0.44958 -0.30489,-0.34107 -0.41857,-0.71831 -0.14987,-0.49092 -0.28939,-1.87068 -0.15503,-1.53995 -0.35657,-2.87836 -0.0568,-0.39274 -0.26355,-1.0542 -0.18603,-0.60978 -0.18603,-0.64079 0.0724,-0.24287 0.16536,-0.62528 0.0155,-0.0258 0.0413,-0.0258 0.12919,0 0.36174,0.78031 0.21704,0.72864 0.32556,1.40043 0.18603,1.18856 0.29455,2.43395 0.0517,0.67696 0.10852,1.35392 0.0982,0.78548 0.48576,1.22473 0.30489,0.34623 0.60461,0.34623 z m 7.12099,-8.91416 q 0.0103,0.0724 0.0103,0.1447 0,0.58911 -0.63045,1.4366 -0.44958,0.57877 -0.89917,1.16271 -0.0413,0.0672 -0.0879,0.0879 -0.0517,0.0258 -0.0517,-0.031 0,-0.0465 0.031,-0.12403 0.13953,-0.35656 0.76481,-1.18338 0.54777,-0.72864 0.5426,-0.91467 -0.005,-0.23255 -0.49092,-0.23255 -0.88367,0 -3.19876,0.77515 -1.32292,0.44441 -2.76468,1.15755 -1.41593,0.70279 -1.54513,0.96117 -0.0103,0.0155 -0.0258,0.0517 0.16019,0.12402 0.42374,0.25321 0.15503,0.0724 0.31523,0.14987 0.2067,0.11885 0.2067,0.17053 0,0.0465 -0.13952,0.0413 -0.0672,-0.0103 -0.23771,-0.031 0.10335,0.20154 1.46243,1.17305 1.33842,0.96635 1.52445,1.37459 0.0465,0.56844 0.0465,0.48576 0,0.48059 -0.22221,0.83199 -0.14469,0.22737 -0.80098,0.65112 -0.80615,0.52193 -1.35392,0.52193 v -0.72347 q 0.60978,0 1.48311,-0.53226 0.80099,-0.48576 0.75448,-0.60462 -0.0827,-0.21187 -1.64848,-1.42109 -1.60713,-1.24023 -1.88618,-1.76733 -0.10335,0 -0.10335,-0.0517 -0.0258,-0.18603 -0.0258,-0.51159 0.031,-0.14987 0.0827,-0.10852 0.0413,-0.28422 0.1602,-0.58911 0.3669,-0.30489 1.52962,-0.90951 1.36425,-0.7183 2.56314,-1.14204 2.29959,-0.81649 3.73102,-0.894 0.43409,-0.0207 0.48059,0.34106 z"
               style="fill:#ffffff" />
            <path
               d="m 156.5333,107.13149 q 0,0.0827 -0.0724,0.28422 -0.0827,0.24288 -0.18603,0.34623 -0.20154,-0.11368 -0.40308,-0.2222 -0.27905,-0.16537 -0.27905,-0.24805 0,-0.0362 0.10335,-0.28939 0.10853,-0.27388 0.15503,-0.27388 0.68213,0.29455 0.68213,0.40307 z m -1.04386,0.29456 q 0,0.12919 -0.062,0.31006 -0.0775,0.21704 -0.1757,0.21704 -0.0413,0 -0.37207,-0.19637 -0.36173,-0.21188 -0.36173,-0.29973 0,-0.0568 0.25321,-0.63561 0.15503,0.16019 0.49092,0.35139 0.22738,0.13436 0.22738,0.25322 z m 3.74136,1.31774 q 0,0.75448 -0.34106,1.0387 -0.66146,0.54776 -1.79317,0.9095 -1.76733,0.56327 -2.82669,0.56327 -0.98702,0 -1.53995,-0.50126 -0.5271,-0.47542 -0.5271,-1.2764 0,-0.54261 0.31522,-1.2299 0.0568,-0.11886 0.093,-0.11886 0.0155,0.005 0.0155,0.0362 0,0.031 -0.0103,0.0827 l -0.0775,0.47025 q -0.0517,0.31523 -0.0517,0.50126 0,0.64079 0.62011,1.00252 0.51677,0.30489 1.2144,0.30489 1.01802,0 2.36677,-0.38757 0.83715,-0.24288 1.50895,-0.51159 0.80615,-0.32556 0.79581,-0.48059 -0.0155,-0.23771 -0.25321,-0.56327 -0.23771,-0.32556 -0.23771,-0.34624 0,-0.0258 0.0568,-0.26354 0.062,-0.23771 0.0724,-0.33073 0.19637,0.0465 0.40307,0.46508 0.19637,0.39274 0.19637,0.63562 z"
               id="path6992"
               style="fill:#ffffff" />
            <path
               id="path6996"
               d="m 145.95186,111.46667 q 0,0.0827 -0.0672,0.28939 -0.0827,0.23771 -0.18086,0.35139 -0.20154,-0.11368 -0.40825,-0.22737 -0.27905,-0.1602 -0.27905,-0.24288 0,-0.031 0.10336,-0.28939 0.11368,-0.27905 0.16019,-0.27905 0.67179,0.29972 0.67179,0.39791 z m -1.03869,0.31006 q 0,0.11885 -0.062,0.29972 -0.0827,0.21704 -0.1757,0.21704 -0.0465,0 -0.37724,-0.19637 -0.35656,-0.20671 -0.35656,-0.29456 0,-0.0672 0.25321,-0.63561 0.14986,0.14986 0.49092,0.35139 0.22738,0.12919 0.22738,0.25839 z m 1.30741,-2.11873 q -0.5581,0 -0.89917,-0.56327 -0.33073,-0.5426 -0.38757,-1.48828 -0.0207,-0.34106 -0.21704,-1.03869 -0.0207,0.24288 -0.1912,0.78548 -0.1602,0.32556 -0.28939,0.43408 -0.0672,0.0568 -0.29455,0.13436 0,0.0258 0.062,0.30489 0.062,0.27905 0.062,0.34623 0.0155,0.64078 -0.1757,1.1007 -0.13953,0.34106 -1.31258,1.16789 -1.16788,0.83198 -2.32543,1.40559 -0.39274,0.10335 -2.57348,0.53743 -0.1912,0.0362 -0.1912,-0.0362 0,-0.0258 0.0724,-0.0517 1.59679,-0.64078 3.21426,-1.50894 0.5116,-0.25322 1.6123,-0.91984 0.47025,-0.33073 0.94568,-0.66663 0.49609,-0.37723 0.49609,-0.5736 0,-0.34623 -0.34106,-0.96118 -0.34107,-0.61495 -0.34107,-0.62528 0,-0.37724 0.093,-0.71314 0.0982,0 0.25321,0.22738 0.1602,0.22221 0.33073,0.22221 0.47542,0 0.62012,-0.44959 0.0568,-0.3824 0.11885,-0.7648 0.0413,-0.1292 0.20671,-0.26872 0.12919,0.13436 0.2067,0.41341 0.10335,0.35657 0.31523,1.54512 0.21704,1.18855 0.93017,1.28157 z m 5.42084,-1.45727 q 0,1.1007 -0.77514,1.1007 -0.24288,0 -0.43408,-0.1757 -0.12919,-0.16019 -0.26355,-0.31522 -0.093,0.1912 -0.27389,0.44441 -0.23254,0.32556 -0.69246,0.32556 -0.33589,0 -0.55293,-0.21187 -0.24288,-0.24288 -0.21188,-0.68729 -0.58394,0.44441 -0.894,0.60978 -0.67179,0.3669 -1.32291,0.3669 0,-0.36174 0,-0.72347 0.75447,0 1.2454,-0.21187 0.30489,-0.12919 1.08003,-0.65629 0.0827,-0.0568 0.11369,-0.0568 0.0465,0 0.0465,0.0827 0,0.031 -0.005,0.0827 -0.005,0.0517 -0.0413,0.27388 0.22738,0.45476 0.64079,0.45476 0.56327,0 0.85782,-0.65629 0.10852,-0.23771 0.31006,-0.42892 0.0207,-0.0103 0.0413,-0.0155 0.031,0 0.031,0.0568 0,0.0517 -0.11886,0.44959 0.23254,0.31006 0.56327,0.31006 0.10335,0 0.24805,-0.0517 0.17053,-0.062 0.17053,-0.12919 0,-0.0568 -0.0879,-0.17053 -0.0879,-0.11886 -0.0879,-0.18604 -0.0258,-0.35656 0.10852,-0.57877 0.0155,-0.0258 0.0362,-0.0258 0.0775,0 0.17054,0.25321 0.0982,0.24805 0.0982,0.47026 z m -0.82165,-2.44946 q 0,0.0775 -0.0672,0.28422 -0.0827,0.24288 -0.1757,0.34623 -0.20671,-0.11368 -0.41341,-0.2222 -0.27905,-0.16537 -0.27905,-0.24805 0,-0.0362 0.0982,-0.28939 0.10852,-0.27388 0.1602,-0.27388 0.67696,0.28938 0.67696,0.40307 z m -0.85266,-0.76481 q 0,0.34107 -0.21187,0.61495 -0.29973,-0.15503 -0.60462,-0.31006 -0.14986,-0.0878 -0.14986,-0.18086 0,0.0207 0.18604,-0.63562 0.13436,0.10335 0.51159,0.28422 0.26872,0.12402 0.26872,0.22737 z m -0.18603,1.05937 q 0,0.12919 -0.062,0.31006 -0.0775,0.21704 -0.17053,0.21704 -0.0465,0 -0.3824,-0.19637 -0.36174,-0.21188 -0.36174,-0.29973 0,-0.0568 0.25322,-0.63561 0.15503,0.15502 0.49609,0.35139 0.22738,0.13436 0.22738,0.25322 z"
               style="fill:#ffffff" />
            <path
               d="m 141.60617,107.62364 q 0.0207,0.25838 0.0207,0.50126 0,0.85782 -0.20154,1.23506 -0.0775,0.14469 -0.11369,0.14469 -0.0568,0 -0.0155,-0.33072 0.0517,-0.41858 0.005,-0.87333 -0.18604,-1.47794 -0.51677,-4.44416 -0.0413,-0.5426 -0.13952,-1.56579 -0.0155,-0.0568 -0.13953,-0.30489 -0.031,-0.0568 0.16537,-0.65629 0.0103,-0.0362 0.031,-0.0362 0.0517,0 0.1447,0.22221 0.16019,0.34107 0.31522,0.68213 0.24805,0.5271 0.24805,0.65629 0,0.0413 -0.031,0.0413 -0.0207,0 -0.0672,-0.031 -0.12919,-0.0982 -0.27388,-0.24804 -0.0103,0.14469 0.21187,1.90168 0.26872,2.09289 0.35657,3.10575 z"
               id="path6998"
               style="fill:#ffffff" />
            <path
               id="path7002"
               style="fill:#ffffff"
               d="m 138.05947,109.46162 c -0.0758,0.007 -0.15675,0.0103 -0.24288,0.0103 -0.007,0.0379 -0.0224,0.1171 -0.0465,0.23771 -0.0689,0.36863 -0.21876,0.68041 -0.44958,0.93535 -0.46509,0.42374 -1.00769,0.83887 -1.62781,1.24539 -0.5581,0.36173 -1.01974,0.61667 -1.38492,0.76481 -0.75447,0.11025 -1.42971,0.27561 -2.02571,0.49609 -0.12403,0.0448 -0.22393,0.0672 -0.29972,0.0672 -0.0483,0 -0.0724,-0.0103 -0.0724,-0.031 0,-0.0448 0.0947,-0.10853 0.28422,-0.1912 0.57877,-0.25149 1.17994,-0.53571 1.8035,-0.85266 0.76481,-0.38585 1.5589,-0.863 2.38228,-1.43144 0.8027,-0.55465 1.2075,-0.89572 1.21439,-1.02319 -0.0172,-0.0827 -0.0413,-0.15503 -0.0724,-0.21704 -0.65457,0 -1.06281,-0.0344 -1.22472,-0.10335 -0.0896,-0.0379 -0.17226,-0.10505 -0.24805,-0.20154 -0.0896,-0.11024 -0.13436,-0.21704 -0.13436,-0.32039 0.003,-0.28939 0.0946,-0.56155 0.27388,-0.81648 0.17915,-0.25839 0.36518,-0.38758 0.55811,-0.38758 0.1378,0 0.31694,0.11369 0.53743,0.34107 0.23082,0.23771 0.38757,0.49092 0.47026,0.75964 0.11369,0 0.21532,-0.002 0.30489,-0.005 z m -1.02319,-0.72864 c -0.031,-0.0413 -0.0689,-0.0947 -0.11369,-0.16019 -0.0689,-0.10335 -0.16192,-0.15848 -0.27905,-0.16537 -0.0827,-0.003 -0.14987,0.0156 -0.20154,0.0569 -0.0517,0.0379 -0.0758,0.0964 -0.0724,0.1757 0.0551,0.0482 0.27734,0.0792 0.66663,0.093 z m 2.64065,-0.95601 c 0.0448,0.36173 -0.0758,0.71141 -0.36173,1.04903 -0.11369,0.13436 -0.28939,0.26872 -0.5271,0.40308 -0.27905,0.15503 -0.52193,0.23254 -0.72863,0.23254 v -0.72347 c 0.31005,0 0.63217,-0.0913 0.96634,-0.27388 0.30317,-0.16881 0.44097,-0.28595 0.41341,-0.3514 -0.0482,-0.12058 -0.23596,-0.37035 -0.56327,-0.74931 -0.3135,-0.36173 -0.53054,-0.72347 -0.65112,-1.0852 -0.0724,0 -0.1068,-0.0189 -0.10335,-0.0568 0.0138,-0.13091 0.0345,-0.30661 0.062,-0.5271 0.0172,-0.10335 0.0516,-0.13265 0.10335,-0.0879 0.1757,0.12058 0.38757,0.27389 0.63562,0.45992 0.0861,0.0724 0.12919,0.12919 0.12919,0.17053 0,0.0345 -0.0276,0.0517 -0.0827,0.0517 -0.10335,0 -0.1912,-0.007 -0.26355,-0.0207 0.031,0.0896 0.20153,0.31005 0.51159,0.66145 0.27561,0.32039 0.42891,0.60289 0.45992,0.84749 z m 0.36253,2.20904 c 0,0.0551 -0.0241,0.1516 -0.0723,0.28939 -0.0551,0.15847 -0.1137,0.27388 -0.1757,0.34623 -0.42374,-0.23771 -0.63562,-0.38929 -0.63562,-0.45475 0,-0.0275 0.0327,-0.13089 0.0982,-0.31006 0.0724,-0.19637 0.12575,-0.29455 0.1602,-0.29455 0.41686,0.20671 0.62528,0.34795 0.62528,0.42374 z m -0.9095,0.27389 c 0.0207,0.0345 0.002,0.14815 -0.0568,0.34106 -0.0551,0.19293 -0.11542,0.28939 -0.18087,0.28939 -0.0275,0 -0.12571,-0.0534 -0.29455,-0.1602 -0.18604,-0.11369 -0.27906,-0.19981 -0.27906,-0.25838 0,-0.0551 0.0827,-0.27045 0.24805,-0.64595 0.12402,0.12402 0.24805,0.21704 0.37207,0.27905 0.093,0.0448 0.15676,0.0965 0.1912,0.15503 z"
               sodipodi:nodetypes="cccccccsscccccccccscccccccccccsccccccccccccssccsscccsccccccscscccc" />
            <path
               id="path7006"
               style="fill:#ffffff"
               d="m 132.58549,109.33068 c -0.16536,0.0138 -0.49781,0.062 -0.99735,0.14469 -0.23082,0.0448 -0.55294,0.15677 -0.96635,0.3359 0.15503,0.0379 0.45303,0.1171 0.894,0.23771 0.22738,0.0655 0.3738,0.15504 0.43925,0.26872 0.0448,0.0758 0.0672,0.20842 0.0672,0.3979 0,0.16881 -0.0637,0.4048 -0.1912,0.70797 -0.0965,0.22737 -0.65113,0.59427 -1.66398,1.1007 -1.05075,0.52365 -1.86551,0.78548 -2.44429,0.78548 -0.38585,0 -0.75447,-0.1068 -1.10587,-0.32039 -0.60289,-0.36518 -0.90433,-0.97324 -0.90433,-1.82417 0,-0.78893 0.18603,-1.52101 0.5581,-2.19625 0.0483,-0.0861 0.081,-0.12919 0.0982,-0.12919 0.0275,0 0.0241,0.0706 -0.0103,0.21188 -0.0724,0.23771 -0.14297,0.47542 -0.21187,0.71313 -0.12058,0.44441 -0.18087,0.8027 -0.18087,1.07487 0,0.53743 0.17742,0.96634 0.53227,1.28673 0.33761,0.30661 0.77342,0.45992 1.30741,0.45992 0.49609,0 1.15238,-0.17225 1.96886,-0.51676 0.4582,-0.19293 0.89573,-0.41341 1.31258,-0.66146 0.37551,-0.22393 0.56327,-0.35828 0.56327,-0.40307 0,-0.10335 -0.21876,-0.2136 -0.65629,-0.33073 -0.67523,-0.17915 -1.0473,-0.2825 -1.1162,-0.31006 -0.19293,-0.0758 -0.29456,-0.17914 -0.30489,-0.31005 0,-0.0241 0.0241,-0.1206 0.0723,-0.28939 0.0551,-0.18948 0.10164,-0.30317 0.13953,-0.34106 0.21704,-0.14469 0.68385,-0.32039 1.40042,-0.5271 0.42719,-0.12403 0.894,-0.22049 1.40043,-0.28939 z m -1.40218,4.45016 c 0.0551,0 -0.0224,0.14987 -0.0672,0.28422 -0.0551,0.16191 -0.11542,0.27904 -0.18087,0.3514 -0.45819,-0.25494 -0.68729,-0.4117 -0.68729,-0.47026 0,-0.0241 0.0344,-0.1206 0.10335,-0.28939 0.0758,-0.18604 0.1292,-0.27905 0.1602,-0.27905 0.44786,0.19981 0.60289,0.40308 0.67179,0.40308 z m -1.03352,0.29972 c -0.0827,0 -0.0207,0.18603 -0.062,0.31006 -0.0517,0.14469 -0.11023,0.21704 -0.1757,0.21704 -0.031,0 -0.15674,-0.0655 -0.37723,-0.19637 -0.24116,-0.13781 -0.36174,-0.236 -0.36174,-0.29456 0,-0.062 0.0844,-0.27732 0.25322,-0.64595 0.10336,0.10335 0.26872,0.22048 0.49609,0.3514 0.15159,0.0896 0.31006,0.25838 0.22738,0.25838 z m 9.55669,-13.66404 c 0.007,0.0483 0.0103,0.0965 0.0103,0.1447 0,0.39274 -0.21015,0.87161 -0.63045,1.4366 -0.29973,0.38585 -0.59945,0.77342 -0.89917,1.16271 -0.0275,0.0448 -0.0568,0.0741 -0.0879,0.0879 -0.0345,0.0172 -0.0517,0.007 -0.0517,-0.031 0,-0.031 0.0103,-0.0723 0.031,-0.12403 0.093,-0.23771 0.34796,-0.63217 0.76481,-1.18338 0.36518,-0.48576 0.54605,-0.79065 0.5426,-0.91467 -0.003,-0.15503 -0.16698,-0.23255 -0.49093,-0.23255 -0.58911,0 -1.65536,0.25838 -3.19876,0.77515 -0.88194,0.29627 -1.8035,0.68212 -2.76468,1.15755 -0.94395,0.46853 -1.45899,0.78892 -1.54512,0.96117 -0.007,0.0103 -0.0155,0.0276 -0.0258,0.0517 0.1068,0.0827 0.24805,0.16708 0.42375,0.25321 0.10335,0.0483 0.20843,0.0982 0.31523,0.14987 0.1378,0.0792 0.2067,0.13608 0.2067,0.17053 0,0.031 -0.0465,0.0448 -0.13953,0.0413 -0.0448,-0.007 -0.12404,-0.0172 -0.23771,-0.031 0.0689,0.13436 0.55639,0.52538 1.46244,1.17305 0.89228,0.64423 1.40043,1.10243 1.52445,1.37459 0.031,0.37896 0.0465,0.54088 0.0465,0.48576 0,0.32039 -0.0741,0.59772 -0.22221,0.83199 -0.0965,0.15158 -0.36345,0.36862 -0.80098,0.65112 -0.53743,0.34795 -0.98874,0.52193 -1.35392,0.52193 v -0.72347 c 0.40652,0 0.90089,-0.17742 1.48311,-0.53226 0.53399,-0.32384 0.78548,-0.52538 0.75447,-0.60462 -0.0551,-0.14125 -0.60462,-0.61494 -1.64847,-1.42109 -1.07142,-0.82682 -1.70015,-1.41593 -1.88618,-1.76733 -0.0689,0 -0.10335,-0.0172 -0.10335,-0.0517 -0.0172,-0.12402 -0.0258,-0.29455 -0.0258,-0.51159 0.0207,-0.0999 0.0482,-0.13609 0.0827,-0.10852 0.0275,-0.18948 0.0809,-0.38585 0.1602,-0.58911 0.2446,-0.20326 0.75447,-0.50643 1.52961,-0.90951 0.90951,-0.47887 1.76389,-0.85955 2.56315,-1.14204 1.53306,-0.54433 2.77673,-0.84233 3.73102,-0.894 0.28939,-0.0138 0.44958,0.0999 0.48059,0.34106 z"
               sodipodi:nodetypes="cccccsccscscsccscsccsccccccccsccsccssscscsccsscscccscccsccccccscccccccccccccccccccccc" />
          </g>
          <text
             xml:space="preserve"
             style="font-style:normal;font-variant:normal;font-weight:normal;font-stretch:normal;font-size:3.03331px;line-height:1.25;font-family:Althea;-inkscape-font-specification:Althea;fill:#ffffff;fill-opacity:1;stroke:none;stroke-width:0.0200641"
             x="146.40025"
             y="113.85497"
             id="text8651"><tspan
               sodipodi:role="line"
               id="tspan8649"
               style="font-style:normal;font-variant:normal;font-weight:normal;font-stretch:normal;font-family:Althea;-inkscape-font-specification:Althea;fill:#ffffff;stroke-width:0.0200641"
               x="146.40025"
               y="113.85497">Sari Kata Syirayuki</tspan></text>
          <path
             d="m 137.74373,104.32642 q 0.0282,0.0799 -0.009,0.18333 -0.0329,0.0987 -0.08,0.0846 -0.13162,-0.0423 -0.29614,-0.14102 -0.20213,0.36195 -0.81791,0.93073 -0.6205,0.56879 -0.82263,0.56879 -0.0423,0 -0.0564,-0.0329 0.38546,-0.33375 0.77561,-0.6722 0.64399,-0.55938 0.77561,-0.84612 -0.12691,-0.0799 -0.25383,-0.15982 -0.11751,-0.10342 -0.11751,-0.28674 0,-0.10342 0.15041,-0.30555 0.15042,-0.20213 0.25383,-0.20213 0.31025,0 0.31025,0.37136 0,0.15042 -0.0658,0.32434 0.12222,0.0611 0.25383,0.18333 z m -0.39486,-0.21623 q 0.0188,-0.0564 0.0188,-0.11751 0,-0.23504 -0.14572,-0.23504 -0.0188,0 -0.0329,0.005 -0.0846,0.0141 -0.0987,0.0987 -0.0141,0.10342 0.25853,0.24914 z"
             id="path15383"
             style="fill:#ffffff;stroke-width:0.0636785" />
          <path
             d="m 135.37998,109.66823 -0.0188,0.25384 q -0.38546,0.18333 -1.25508,0.61579 -0.58288,0.29615 -1.60763,0.87432 l 0.0235,-0.25853 q 0.48418,-0.27734 1.59824,-0.87432 0.45126,-0.23034 1.25978,-0.6111 z"
             id="path15535"
             style="fill:#ffffff;stroke-width:0.0636785" />
          <path
             d="m 175.08432,110.97753 -0.0188,0.25384 q -0.38546,0.18333 -1.25508,0.61579 -0.58288,0.29615 -1.60763,0.87432 l 0.0235,-0.25853 q 0.48418,-0.27734 1.59824,-0.87432 0.45126,-0.23034 1.25978,-0.6111 z"
             id="path15537"
             style="fill:#ffffff;stroke-width:0.0636785" />
          <path
             d="m 151.54976,109.6355 -0.0188,0.25384 q -0.38546,0.18333 -1.25508,0.61579 -0.58288,0.29615 -1.60763,0.87432 l 0.0235,-0.25853 q 0.48418,-0.27734 1.59824,-0.87432 0.45126,-0.23034 1.25978,-0.6111 z"
             id="path15543"
             style="fill:#ffffff;stroke-width:0.0636785" />
          <path
             d="m 145.06876,102.79444 -0.0188,0.25384 q -0.38546,0.18333 -1.25508,0.61579 -0.58288,0.29615 -1.60763,0.87432 l 0.0235,-0.25853 q 0.48418,-0.27734 1.59824,-0.87432 0.45126,-0.23034 1.25978,-0.6111 z"
             id="path15545"
             style="fill:#ffffff;stroke-width:0.0636785" />
          <g
             aria-label="}"
             id="text1092"
             style="font-family:'Dima thuluth';-inkscape-font-specification:'Dima thuluth';fill:#ffffff;stroke-width:0.0700042"
             transform="matrix(0.44079139,0,0,0.44079139,112.81044,69.074673)">
            <path
               d="m 159.42143,83.787694 q 0.17991,-0.03175 0.22225,0.03175 0.0423,0.05292 0,0.137583 -0.0317,0.08467 -0.13759,0.179916 -0.0952,0.08467 -0.21166,0.116417 -0.21167,0.05292 -0.4445,0.105833 -0.22225,0.04233 -0.45508,0.116416 -0.46567,0.126999 -0.92075,0.264582 -0.45508,0.137583 -0.91016,0.285749 -0.87842,0.28575 -1.80975,0.550332 -0.92075,0.264583 -1.77799,0.571498 -0.81492,0.296333 -1.56633,0.560915 -0.74083,0.253999 -1.4605,0.518582 -0.73024,0.275166 -1.46049,0.560915 -0.73025,0.296332 -1.51341,0.645581 -0.0529,0.02117 -0.15875,0.07408 -0.11642,0.0635 -0.23284,0.127 -0.127,0.0635 -0.23283,0.09525 -0.10583,0.04233 -0.127,0.02117 -0.0847,-0.07408 -0.0318,-0.169333 0.0423,-0.08467 0.13758,-0.169333 0.0952,-0.08467 0.21167,-0.158749 0.10583,-0.0635 0.15875,-0.09525 0.26458,-0.126999 0.58208,-0.264582 0.30692,-0.127 0.635,-0.264583 0.3175,-0.137583 0.635,-0.264582 0.3175,-0.116417 0.59266,-0.232833 0.889,-0.338666 1.7145,-0.624415 0.83608,-0.285749 1.65099,-0.550331 0.81492,-0.275166 1.64041,-0.539748 0.83608,-0.264583 1.7145,-0.571499 0.39158,-0.137583 0.889,-0.296332 0.49741,-0.15875 0.89958,-0.253999 0.14816,-0.03175 0.42333,-0.116417 0.28575,-0.08467 0.56091,-0.169332 0.28575,-0.08467 0.508,-0.148167 0.22225,-0.0635 0.27517,-0.07408 z"
               id="path2116" />
          </g>
          <path
             style="font-family:'DecoType Thuluth II';-inkscape-font-specification:'DecoType Thuluth II';fill:#ffffff;stroke-width:0.0700042"
             d="m 182.25607,111.52067 h 0.0103 q 0.0723,0.0413 0.0723,0.13953 v 0.0982 q -0.0723,0.43408 -0.2222,0.43408 h -0.0517 q -0.0827,0 -0.26872,-0.0672 -0.20153,0.21187 -0.40307,0.21187 h -0.0258 q -0.26355,-0.0465 -0.30489,-0.0465 -0.44958,0 -1.0852,0.70797 -0.35657,0.34106 -0.59428,0.34106 0,0.0155 -0.11885,0.0362 l -0.0103,-0.0258 q 0.36174,-0.19637 0.66146,-0.47025 0.67696,-0.78548 0.84232,-0.81649 0.18604,-0.11885 0.41341,-0.11885 l 0.30489,0.062 h 0.0568 q 0.1602,0 0.3359,-0.34623 l 0.031,-0.0207 h 0.0258 q 0.0258,0 0.0258,0.0207 v 0.0155 q 0,0.0465 -0.0517,0.16536 0.0568,0.031 0.18086,0.031 h 0.10336 l -0.0362,-0.16536 q 0,-0.0672 0.10852,-0.18604 z"
             id="path6894" />
          <path
             style="font-family:'DecoType Thuluth II';-inkscape-font-specification:'DecoType Thuluth II';fill:#ffffff;stroke-width:0.0700042"
             d="m 176.61608,103.76779 h 0.0155 q 0.57361,0.43408 0.57361,1.05936 v 0.1292 q 0,0.30489 -0.13953,0.45991 h -0.0103 q -0.0258,0 -0.0258,-0.0362 0.0362,-0.1912 0.0362,-0.34106 0,-0.48576 -0.58911,-1.01285 0.0155,-0.0982 0.13953,-0.25838 z"
             id="path7081" />
          <path
             style="font-family:'DecoType Thuluth II';-inkscape-font-specification:'DecoType Thuluth II';fill:#ffffff;stroke-width:0.0700042"
             d="m 168.38345,106.23717 q -0.20154,0.64078 -0.20154,0.81648 0,0.26872 0.13436,0.26872 0.0982,0 0.21187,-0.23771 h 0.0103 l 0.0155,0.0207 q -0.093,0.50126 -0.26872,0.50126 h -0.0413 q -0.12919,0 -0.18086,-0.17054 -0.0103,-0.0724 -0.0103,-0.11368 v -0.13953 q 0,-0.41341 0.31006,-0.94567 z"
             id="path7091" />
          <path
             style="font-family:'DecoType Thuluth II';-inkscape-font-specification:'DecoType Thuluth II';fill:#ffffff;stroke-width:0.0700042"
             d="m 173.43665,104.69413 h 0.0207 q 0.66662,0.38757 0.66662,1.0697 v 0.0724 q 0,0.35139 -0.3824,1.09553 l -0.031,0.15503 q 0,0.29456 0.2067,0.29456 0.13953,0 0.30489,-0.26355 h 0.0465 q -0.13436,0.56844 -0.3979,0.56844 h -0.0775 q -0.27388,-0.0362 -0.27388,-0.38758 v -0.0362 q 0,-0.31005 0.36173,-1.00252 0.0362,-0.1757 0.0362,-0.25838 v -0.0827 q 0,-0.48059 -0.67179,-0.96634 v -0.0155 q 0.0982,-0.1602 0.19121,-0.24288 z"
             id="path7089" />
          <path
             style="font-family:'DecoType Thuluth II';-inkscape-font-specification:'DecoType Thuluth II';fill:#ffffff;stroke-width:0.0700042"
             d="m 152.89028,105.2164 q -0.43924,1.39526 -0.43924,1.77767 0,0.58394 0.28938,0.58394 0.21704,0 0.46509,-0.51676 h 0.0207 l 0.0362,0.0465 q -0.20153,1.09036 -0.58911,1.09036 h -0.0878 q -0.28422,0 -0.3979,-0.37206 -0.0207,-0.15503 -0.0207,-0.24805 v -0.30489 q 0,-0.89917 0.67695,-2.05672 z"
             id="path7103" />
          <path
             style="font-family:'DecoType Thuluth II';-inkscape-font-specification:'DecoType Thuluth II';fill:#ffffff;stroke-width:0.0700042"
             d="m 173.75081,101.12104 q 0.12919,0 0.27388,0.25838 0.0103,0.0258 0.0103,0.0724 v 0.031 q -0.0465,0.25838 -0.11369,0.25838 -0.0155,0 -0.18604,-0.17053 l -0.0723,-0.031 q -0.19121,0 -0.37724,1.11103 -0.12402,0.34624 -0.18603,0.34624 -0.0465,0 -0.0879,-0.33073 -0.19637,-0.57878 -0.34624,-0.74931 h -0.0465 l -0.0724,0.0568 h -0.0413 q -0.1447,0 -0.32039,-0.27388 v -0.031 q 0.14986,-0.29972 0.23254,-0.36174 h 0.031 q 0.47026,0 0.70797,1.08521 v 0.0155 h 0.0155 q 0.20154,-1.28674 0.57878,-1.28674 z"
             id="path7101" />
          <path
             style="font-family:'DecoType Thuluth II';-inkscape-font-specification:'DecoType Thuluth II';fill:#ffffff;stroke-width:0.0700042"
             d="m 163.92343,104.424 0.14626,-0.0327 q 0.26224,-0.0586 0.33249,0.0898 l 0.0113,0.0504 q -0.0878,0.19965 -0.16342,0.21656 -0.10052,-0.14169 -0.20136,-0.11915 l -0.20173,0.0451 q -0.51382,0.14127 -0.54171,0.25345 l 0.002,0.0101 q 0.10221,0.12541 0.9767,0.24768 0.26918,0.11458 0.30751,0.28605 0.0451,0.20174 -0.24103,0.4616 l -0.0101,0.002 q -0.20677,0.0462 -1.15251,-0.0866 -0.42108,-0.10711 -0.49321,-0.42987 l -0.0124,-0.0554 -0.001,-0.0527 0.0202,-0.005 q 0.21049,0.25477 1.06256,0.32382 0.59479,0.0789 0.66539,0.0631 l -0.007,-0.0303 q -0.0485,-0.21686 -0.76488,-0.29502 -0.5427,-0.10641 -0.57651,-0.2577 l -0.005,-0.0202 q -0.0439,-0.19667 0.58111,-0.57466 0.15967,-0.0674 0.26557,-0.0911 z"
             id="path7109" />
          <path
             style="font-family:'DecoType Thuluth II';-inkscape-font-specification:'DecoType Thuluth II';fill:#ffffff;stroke-width:0.0700042"
             d="m 161.81681,107.7861 q -0.20154,0.64079 -0.20154,0.81649 0,0.26871 0.13436,0.26871 0.0982,0 0.21187,-0.23771 h 0.0103 l 0.0155,0.0207 q -0.093,0.50126 -0.26872,0.50126 h -0.0413 q -0.12919,0 -0.18087,-0.17053 -0.0103,-0.0724 -0.0103,-0.11369 v -0.13952 q 0,-0.41341 0.31006,-0.94568 z"
             id="path7119" />
          <path
             style="font-family:'DecoType Thuluth II';-inkscape-font-specification:'DecoType Thuluth II';fill:#ffffff;stroke-width:0.0700042"
             d="m 157.9154,103.40601 h 0.0155 q 0.57361,0.43408 0.57361,1.05937 v 0.12919 q 0,0.30489 -0.13953,0.45992 h -0.0103 q -0.0258,0 -0.0258,-0.0362 0.0362,-0.19121 0.0362,-0.34107 0,-0.48575 -0.58911,-1.01285 0.0155,-0.0982 0.13953,-0.25838 z"
             id="path7115" />
          <path
             style="font-family:'DecoType Thuluth II';-inkscape-font-specification:'DecoType Thuluth II';fill:#ffffff;stroke-width:0.0700042"
             d="m 177.94552,111.68532 q 0.13952,0 0.29972,0.28422 0.0155,0.0258 0.0155,0.0775 v 0.031 q -0.0568,0.28422 -0.12402,0.28422 -0.0207,0 -0.20671,-0.1912 l -0.0775,-0.031 q -0.20671,0 -0.40824,1.21439 -0.13436,0.37724 -0.20671,0.37724 -0.0465,0 -0.093,-0.36174 -0.21187,-0.63045 -0.37723,-0.81648 h -0.0517 l -0.0775,0.062 h -0.0465 q -0.15503,0 -0.34623,-0.29972 v -0.031 q 0.16019,-0.33073 0.25321,-0.39274 h 0.031 q 0.51676,0 0.76997,1.17822 v 0.0155 h 0.0155 q 0.22221,-1.40043 0.63046,-1.40043 z"
             id="path7131" />
          <path
             style="font-family:'DecoType Thuluth II';-inkscape-font-specification:'DecoType Thuluth II';fill:#ffffff;stroke-width:0.0700042"
             d="m 174.40641,112.73076 q -0.20154,0.64079 -0.20154,0.81649 0,0.26871 0.13436,0.26871 0.0982,0 0.21187,-0.23771 h 0.0103 l 0.0155,0.0207 q -0.093,0.50126 -0.26872,0.50126 h -0.0413 q -0.12919,0 -0.18087,-0.17053 -0.0103,-0.0724 -0.0103,-0.11369 v -0.13952 q 0,-0.41341 0.31006,-0.94568 z"
             id="path7143" />
          <path
             style="font-family:'DecoType Thuluth II';-inkscape-font-specification:'DecoType Thuluth II';fill:#ffffff;stroke-width:0.0700042"
             d="m 143.44666,112.35117 h 0.0103 q 0.0724,0.0413 0.0724,0.13953 v 0.0982 q -0.0724,0.43408 -0.22221,0.43408 h -0.0517 q -0.0827,0 -0.26871,-0.0672 -0.20154,0.21187 -0.40308,0.21187 h -0.0258 q -0.26355,-0.0465 -0.30489,-0.0465 -0.44958,0 -1.0852,0.70797 -0.35656,0.34106 -0.59427,0.34106 0,0.0155 -0.11886,0.0362 l -0.0103,-0.0258 q 0.36174,-0.19637 0.66146,-0.47026 0.67696,-0.78547 0.84232,-0.81648 0.18604,-0.11886 0.41341,-0.11886 l 0.30489,0.062 h 0.0569 q 0.16019,0 0.33589,-0.34623 l 0.031,-0.0207 h 0.0258 q 0.0258,0 0.0258,0.0207 v 0.0155 q 0,0.0465 -0.0517,0.16537 0.0568,0.031 0.18087,0.031 h 0.10335 l -0.0362,-0.16537 q 0,-0.0672 0.10852,-0.18603 z"
             id="path7141" />
          <path
             style="font-family:'DecoType Thuluth II';-inkscape-font-specification:'DecoType Thuluth II';fill:#ffffff;stroke-width:0.0700042"
             d="m 181.03455,102.73038 q 0.13952,0 0.29972,0.28422 0.0155,0.0258 0.0155,0.0775 v 0.031 q -0.0568,0.28422 -0.12402,0.28422 -0.0207,0 -0.20671,-0.1912 l -0.0775,-0.031 q -0.20671,0 -0.40824,1.21439 -0.13436,0.37724 -0.20671,0.37724 -0.0465,0 -0.093,-0.36174 -0.21187,-0.63045 -0.37723,-0.81648 h -0.0517 l -0.0775,0.062 h -0.0465 q -0.15503,0 -0.34623,-0.29972 v -0.031 q 0.16019,-0.33073 0.25321,-0.39274 h 0.031 q 0.51676,0 0.76997,1.17822 v 0.0155 h 0.0155 q 0.2222,-1.40043 0.63045,-1.40043 z"
             id="path7159" />
          <path
             style="font-family:'DecoType Thuluth II';-inkscape-font-specification:'DecoType Thuluth II';fill:#ffffff;stroke-width:0.0700042"
             d="m 170.5125,112.87 q -0.20154,0.64079 -0.20154,0.81649 0,0.26871 0.13436,0.26871 0.0982,0 0.21187,-0.23771 h 0.0103 l 0.0155,0.0207 q -0.093,0.50126 -0.26872,0.50126 h -0.0413 q -0.12919,0 -0.18086,-0.17053 -0.0103,-0.0724 -0.0103,-0.11369 v -0.13952 q 0,-0.41341 0.31006,-0.94568 z"
             id="path7157" />
          <path
             style="font-family:'DecoType Thuluth II';-inkscape-font-specification:'DecoType Thuluth II';fill:#ffffff;stroke-width:0.0700042"
             d="m 151.35531,101.68929 q -0.20154,0.64079 -0.20154,0.81648 0,0.26872 0.13436,0.26872 0.0982,0 0.21187,-0.23771 h 0.0103 l 0.0155,0.0207 q -0.093,0.50126 -0.26871,0.50126 h -0.0413 q -0.12919,0 -0.18086,-0.17053 -0.0103,-0.0724 -0.0103,-0.11369 v -0.13953 q 0,-0.41341 0.31006,-0.94567 z"
             id="path7155" />
          <path
             style="font-family:'DecoType Thuluth II';-inkscape-font-specification:'DecoType Thuluth II';fill:#ffffff;stroke-width:0.0700042"
             d="m 145.23429,112.8366 q -0.20154,0.64078 -0.20154,0.81648 0,0.26872 0.13436,0.26872 0.0982,0 0.21187,-0.23771 h 0.0103 l 0.0155,0.0207 q -0.093,0.50126 -0.26872,0.50126 h -0.0413 q -0.12919,0 -0.18086,-0.17053 -0.0103,-0.0724 -0.0103,-0.11369 v -0.13953 q 0,-0.41341 0.31006,-0.94567 z"
             id="path7169" />
          <path
             style="font-family:'DecoType Thuluth II';-inkscape-font-specification:'DecoType Thuluth II';fill:#ffffff;stroke-width:0.0700042"
             d="m 143.97606,100.72949 h 0.0775 q 0.19637,0 0.23254,0.24804 v 0.10852 q 0,0.50126 -0.80615,1.13171 l -0.0775,0.0155 v -0.0155 q 0.63562,-0.69246 0.63562,-0.89916 v -0.0155 q 0,-0.093 -0.093,-0.13953 h -0.13953 q -0.0568,0 -0.17053,0.0775 -0.031,0 -0.031,-0.0465 0.0827,-0.46509 0.37207,-0.46509 z"
             id="path7177" />
          <path
             style="font-family:'DecoType Thuluth II';-inkscape-font-specification:'DecoType Thuluth II';fill:#ffffff;stroke-width:0.0700042"
             d="m 146.99406,102.88098 q -0.24805,0.79065 -0.24805,1.01286 0,0.33073 0.16536,0.33073 0.12403,0 0.26355,-0.29456 h 0.0103 l 0.0207,0.0258 q -0.11369,0.62012 -0.33073,0.62012 h -0.0517 q -0.16019,0 -0.22737,-0.21188 -0.0103,-0.0879 -0.0103,-0.13952 V 104.054 q 0,-0.51677 0.38241,-1.17306 z"
             id="path7175" />
          <path
             style="font-family:'DecoType Thuluth II';-inkscape-font-specification:'DecoType Thuluth II';fill:#ffffff;stroke-width:0.0700042"
             d="m 131.55555,106.0514 q -0.20154,0.64078 -0.20154,0.81648 0,0.26872 0.13436,0.26872 0.0982,0 0.21187,-0.23771 h 0.0103 l 0.0155,0.0207 q -0.093,0.50126 -0.26872,0.50126 h -0.0413 q -0.12919,0 -0.18087,-0.17053 -0.0103,-0.0724 -0.0103,-0.11369 v -0.13953 q 0,-0.41341 0.31006,-0.94567 z"
             id="path7183" />
          <path
             style="font-family:'DecoType Thuluth II';-inkscape-font-specification:'DecoType Thuluth II';fill:#ffffff;stroke-width:0.0700042"
             d="m 134.24619,103.00428 h 0.14986 q 0.26872,0 0.30489,0.1602 v 0.0517 q -0.12919,0.1757 -0.2067,0.1757 -0.0672,-0.1602 -0.17053,-0.1602 H 134.117 q -0.53226,0.0258 -0.58394,0.12919 v 0.0103 q 0.0724,0.1447 0.89917,0.45475 0.23771,0.17054 0.23771,0.34624 0,0.2067 -0.3359,0.3979 h -0.0103 q -0.21188,0 -1.10588,-0.33589 -0.38757,-0.19637 -0.38757,-0.5271 v -0.0568 l 0.0103,-0.0517 h 0.0207 q 0.14986,0.29455 0.96634,0.54777 0.56328,0.2067 0.63562,0.2067 v -0.031 q 0,-0.22221 -0.68212,-0.45475 -0.50643,-0.22221 -0.50643,-0.37724 v -0.0207 q 0,-0.20153 0.69246,-0.43408 0.17053,-0.031 0.27905,-0.031 z"
             id="path7181" />
          <path
             style="font-family:'DecoType Thuluth II';-inkscape-font-specification:'DecoType Thuluth II';fill:#ffffff;stroke-width:0.0700042"
             d="m 126.37955,106.0548 q -0.43925,1.39526 -0.43925,1.77767 0,0.58394 0.28938,0.58394 0.21704,0 0.46509,-0.51677 h 0.0207 l 0.0362,0.0465 q -0.20153,1.09037 -0.5891,1.09037 h -0.0879 q -0.28422,0 -0.39791,-0.37207 -0.0207,-0.15502 -0.0207,-0.24804 v -0.30489 q 0,-0.89917 0.67696,-2.05672 z"
             id="path7197" />
          <path
             style="font-family:'DecoType Thuluth II';-inkscape-font-specification:'DecoType Thuluth II';fill:#ffffff;stroke-width:0.0700042"
             d="m 129.68845,104.12204 q 0.12402,0 0.25838,0.22221 v 0.031 q 0,0.13435 -0.10336,0.2222 h -0.0155 q -0.1602,-0.14469 -0.18087,-0.14469 h -0.0775 q -0.12402,0 -0.32556,0.89917 -0.22221,0.44441 -0.38757,0.58394 -0.58911,0.45475 -1.08004,0.60461 -0.68729,0.22221 -0.72863,0.22221 l -0.0155,-0.0207 q 0.10852,-0.0827 0.83198,-0.43925 0.72347,-0.37723 1.0697,-0.64078 0,-0.0207 0.12919,-0.12919 0,-0.26355 -0.34106,-0.80615 h -0.0775 q 0,0.0465 -0.0775,0.0465 -0.11369,0 -0.28422,-0.20154 v -0.0207 q 0.062,-0.1757 0.1912,-0.28422 h 0.0569 q 0.3979,0 0.60978,0.80098 v 0.0465 h 0.0103 q 0.1912,-0.99218 0.53744,-0.99218 z"
             id="path7191" />
          <g
             aria-label="}"
             id="g7830"
             style="font-family:'Dima thuluth';-inkscape-font-specification:'Dima thuluth';fill:#ffffff;stroke-width:0.0700042"
             transform="matrix(0.44079139,0,0,0.44079139,96.238432,63.51981)">
            <path
               d="m 141.81682,86.936654 q 0.17991,-0.03175 0.22225,0.03175 0.0423,0.05292 0,0.137583 -0.0317,0.08467 -0.13759,0.179916 -0.0952,0.08467 -0.21166,0.116417 -0.21167,0.05292 -0.4445,0.105833 -0.22225,0.04233 -0.45508,0.116416 -0.46567,0.126999 -0.92075,0.264582 -0.45508,0.137583 -0.91016,0.285749 -0.87842,0.28575 -1.80975,0.550332 -0.92075,0.264583 -1.77799,0.571498 -0.81492,0.296333 -1.56633,0.560915 -0.74083,0.253999 -1.4605,0.518582 -0.73024,0.275166 -1.46049,0.560915 -0.73025,0.296332 -1.51341,0.645581 -0.0529,0.02117 -0.15875,0.07408 -0.11642,0.0635 -0.23284,0.127 -0.127,0.0635 -0.23283,0.09525 -0.10583,0.04233 -0.127,0.02117 -0.0847,-0.07408 -0.0318,-0.169333 0.0423,-0.08467 0.13758,-0.169333 0.0952,-0.08467 0.21167,-0.158749 0.10583,-0.0635 0.15875,-0.09525 0.26458,-0.126999 0.58208,-0.264582 0.30692,-0.127 0.635,-0.264583 0.3175,-0.137583 0.635,-0.264582 0.3175,-0.116417 0.59266,-0.232833 0.889,-0.338666 1.7145,-0.624415 0.83608,-0.285749 1.65099,-0.550331 0.81492,-0.275166 1.64041,-0.539748 0.83608,-0.264583 1.7145,-0.571499 0.39158,-0.137583 0.889,-0.296332 0.49741,-0.15875 0.89958,-0.253999 0.14816,-0.03175 0.42333,-0.116417 0.28575,-0.08467 0.56091,-0.169332 0.28575,-0.08467 0.508,-0.148167 0.22225,-0.0635 0.27517,-0.07408 z"
               id="path7828" />
          </g>
          <path
             style="font-family:'DecoType Thuluth II';-inkscape-font-specification:'DecoType Thuluth II';fill:#ffffff;stroke-width:0.0700042"
             d="m 149.82347,100.69552 q 0.12919,0 0.27388,0.25838 0.0103,0.0258 0.0103,0.0724 v 0.031 q -0.0465,0.25838 -0.11369,0.25838 -0.0155,0 -0.18604,-0.17053 l -0.0723,-0.031 q -0.19121,0 -0.37724,1.11103 -0.12402,0.34624 -0.18603,0.34624 -0.0465,0 -0.0879,-0.33073 -0.19637,-0.57878 -0.34624,-0.74931 h -0.0465 l -0.0724,0.0568 h -0.0413 q -0.1447,0 -0.32039,-0.27388 v -0.031 q 0.14986,-0.29972 0.23254,-0.36174 h 0.031 q 0.47026,0 0.70797,1.08521 v 0.0155 h 0.0155 q 0.20154,-1.28674 0.57878,-1.28674 z"
             id="path14785" />
          <path
             style="font-family:'DecoType Thuluth II';-inkscape-font-specification:'DecoType Thuluth II';fill:#ffffff;stroke-width:0.0700042"
             d="m 170.3256,101.22047 h 0.0775 q 0.19637,0 0.23254,0.24804 v 0.10852 q 0,0.50126 -0.80615,1.13171 l -0.0775,0.0155 v -0.0155 q 0.63562,-0.69246 0.63562,-0.89916 v -0.0155 q 0,-0.093 -0.093,-0.13953 h -0.13953 q -0.0568,0 -0.17053,0.0775 -0.031,0 -0.031,-0.0465 0.0827,-0.46509 0.37207,-0.46509 z"
             id="path14789" />
          <path
             style="font-family:'DecoType Thuluth II';-inkscape-font-specification:'DecoType Thuluth II';fill:#ffffff;stroke-width:0.0700042"
             d="m 154.85767,100.60912 q -0.20154,0.64079 -0.20154,0.81648 0,0.26872 0.13436,0.26872 0.0982,0 0.21187,-0.23771 h 0.0103 l 0.0155,0.0207 q -0.093,0.50126 -0.26871,0.50126 h -0.0413 q -0.12919,0 -0.18086,-0.17053 -0.0103,-0.0724 -0.0103,-0.11369 v -0.13953 q 0,-0.41341 0.31006,-0.94567 z"
             id="path15050" />
          <path
             style="font-family:'DecoType Thuluth II';-inkscape-font-specification:'DecoType Thuluth II';fill:#ffffff;stroke-width:0.0456343"
             d="m 165.49693,109.31074 q 0.0909,0 0.19538,0.18528 0.0101,0.0168 0.0101,0.0505 v 0.0202 q -0.037,0.18528 -0.0808,0.18528 -0.0135,0 -0.13475,-0.12464 l -0.0505,-0.0202 q -0.13475,0 -0.26612,0.79164 -0.0876,0.24591 -0.13475,0.24591 -0.0303,0 -0.0606,-0.23581 -0.13811,-0.41098 -0.2459,-0.53225 h -0.0337 l -0.0505,0.0404 h -0.0303 q -0.10106,0 -0.2257,-0.19538 v -0.0202 q 0.10442,-0.2156 0.16506,-0.25602 h 0.0202 q 0.33687,0 0.50193,0.76806 v 0.0101 h 0.0101 q 0.14486,-0.91291 0.41099,-0.91291 z"
             id="path974" />
        </g>
        <path
           d="m 167.99217,100.38663 q 0.0672,0 0.0568,0.11369 -0.005,0.11369 -0.0672,0.11369 -1.21439,-0.0103 -4.09276,1.0852 -2.63032,0.99735 -3.44681,1.60197 -0.0155,0.0103 -0.0362,0.0103 -0.11886,0 -0.11886,-0.12402 0,-0.031 0.0207,-0.0465 0.96634,-0.69764 3.68451,-1.72083 2.88871,-1.0852 3.99975,-1.03352 z"
           id="path14148"
           style="font-family:'DecoType Thuluth II';-inkscape-font-specification:'DecoType Thuluth II';fill:#ffffff;stroke-width:0.0700042" />
      </g>
      <g
         aria-label="نيسکاﮐ‍اﻹ"
         id="text27572"
         style="font-size:10.5833px;line-height:1.25;font-family:'DecoType Thuluth';-inkscape-font-specification:'DecoType Thuluth';fill:#ffffff;stroke-width:0.0700042"
         transform="matrix(0.12353637,0.02333073,-0.02333073,0.12353637,119.38419,93.139107)"
         inkscape:export-filename="D:\Niskala's Void\Project\Design\Shirayuki\SariKataShirayuki.png"
         inkscape:export-xdpi="440.87274"
         inkscape:export-ydpi="440.87274">
        <g
           id="g48165">
          <path
             d="m 176.62598,134.63448 q 0,0.34624 -0.21188,0.60978 -0.30489,-0.15502 -0.60461,-0.31005 -0.15503,-0.0827 -0.15503,-0.1757 0,0.0103 0.19121,-0.64596 0.13435,0.11369 0.51159,0.28939 0.26872,0.12919 0.26872,0.23254 z"
             id="path42901"
             style="fill:#ffffff" />
          <path
             d="m 175.44111,141.08143 q 0,0.12919 -0.0672,0.31006 -0.0775,0.21704 -0.1757,0.21704 -0.0413,0 -0.31006,-0.15503 -0.29455,-0.1757 -0.29455,-0.26355 0,-0.0827 0.25321,-0.63562 0.15503,0.15503 0.42891,0.31523 0.16537,0.093 0.16537,0.21187 z"
             id="path42899"
             style="fill:#ffffff" />
          <path
             d="m 176.42812,140.76104 q 0,0.0827 -0.0672,0.28422 -0.0827,0.24288 -0.18087,0.3514 -0.1912,-0.10852 -0.38757,-0.21188 -0.25322,-0.15503 -0.25322,-0.23771 0.18087,-0.56327 0.25838,-0.56327 0.63045,0.27389 0.63045,0.37724 z"
             id="path42897"
             style="fill:#ffffff" />
          <path
             id="path36404"
             style="fill:#ffffff;stroke-width:0.264583"
             transform="scale(0.26458333)"
             d="m 657.58008,522.67383 c -0.10687,0.004 -0.2723,0.0916 -0.4961,0.26172 -0.45566,0.84631 -0.7291,1.39319 -0.82031,1.64062 -0.62501,1.21084 -1.41928,1.76422 -2.38281,1.66016 -0.59895,-0.0651 -1.20443,-0.52083 -1.81641,-1.36719 0.28647,-0.91187 0.42969,-1.37412 0.42969,-1.38672 0,-0.0912 -0.0391,-0.13672 -0.11719,-0.13672 -0.0521,0 -0.1172,0.0195 -0.19531,0.0586 -0.57293,0.57292 -1.0026,1.10026 -1.28906,1.58203 -0.32552,0.53384 -0.8073,1.00912 -1.44531,1.42578 -0.71615,0.44271 -1.41276,0.66406 -2.08985,0.66406 -1.15885,0 -2.01825,-0.63804 -2.57812,-1.91406 0.13026,-0.44276 0.22796,-0.78129 0.29297,-1.01563 0.0781,-0.2475 0.11718,-0.42328 0.11718,-0.52734 0,-0.0576 -0.015,-0.0989 -0.043,-0.12109 -0.0171,0.0342 -0.1914,0.12099 -0.52343,0.25781 -2.55207,1.34113 -4.51173,2.01172 -5.87891,2.01172 -0.53382,0 -0.92432,-0.0976 -1.17187,-0.29297 -0.35158,-0.28645 -0.69647,-1.58803 -0.69647,-1.88737 0,-0.31332 -0.46182,0.0982 -0.48828,0.0332 l -0.25,0.21093 c -0.14211,0.50782 0.0807,1.81248 0.14572,2.54167 0.0651,0.72918 0.41667,1.2956 1.05469,1.69922 0.46874,0.28645 0.93748,0.42968 1.40625,0.42968 0.27344,0 0.97007,-0.22786 2.08984,-0.68359 1.3021,-0.52082 2.3047,-1.0612 3.00782,-1.62109 -0.0781,1.18488 0.16926,2.11587 0.74218,2.79296 0.52082,0.61199 1.23047,0.91797 2.12891,0.91797 1.09375,0 2.12892,-0.4427 3.10547,-1.32812 0.63791,-0.72917 1.06758,-1.27605 1.28906,-1.64063 0.27336,0.82034 0.43613,1.26955 0.48828,1.34766 0.32552,0.50779 0.89194,0.76172 1.69922,0.76172 1.27605,0 2.41536,-1.13284 3.41797,-3.39844 0.0391,0.65104 0.20835,1.18491 0.50781,1.60156 0.5599,0.79428 1.59505,1.21095 3.10547,1.25 v -2.73437 c -0.50782,0 -1.01562,-0.14325 -1.52344,-0.42969 -0.4297,-0.31252 -0.72268,-0.65756 -0.8789,-1.03516 -0.15647,-0.37747 -0.26703,-0.65741 -0.33203,-0.83984 0.13001,-0.40358 0.16266,-0.65097 0.0976,-0.74219 -0.0244,-0.0326 -0.0608,-0.0486 -0.10937,-0.0469 z m -12.4336,0.82422 c 0.006,-0.0114 -0.006,-0.0176 -0.0352,-0.0176 0.013,0.003 0.0254,0.0103 0.0352,0.0176 z m 22.62068,5.00305 c -0.39063,0 -0.89843,-0.15625 -1.52341,-0.46874 -0.72917,-0.3646 -1.26303,-0.79429 -1.60157,-1.28908 -0.27344,-0.41666 -0.39061,-0.93098 -0.3515,-1.54296 -0.57293,1.17188 -1.03518,1.92709 -1.38675,2.26564 -0.71614,0.69009 -1.5755,1.03514 -2.57809,1.03514 v -2.73438 c 1.22394,0 2.12889,-0.20833 2.71484,-0.62498 0.15622,-0.10407 0.35153,-0.38402 0.58594,-0.83985 0.27343,-0.53385 0.43619,-0.83332 0.48827,-0.89843 0.65104,-0.84636 0.97656,-1.01563 0.97656,-0.50782 0,0.18243 -0.052,0.42331 -0.1561,0.72265 0.065,0.18242 0.16919,0.41029 0.31257,0.6836 0.15622,0.26041 0.53382,0.57291 1.1328,0.93751 0.59895,0.35155 1.06119,0.52732 1.38671,0.52732 z m 6.13282,-6.36718 c 0.18217,1.3672 -0.27356,2.68881 -1.36721,3.96483 -0.42968,0.50782 -1.10024,1.01564 -2.01169,1.52346 -1.04167,0.58593 -1.95964,0.87889 -2.75392,0.87889 v -2.73438 c 1.17188,0 2.39584,-0.34505 3.67189,-1.03514 1.14583,-0.63803 1.66666,-1.08074 1.5625,-1.32812 -0.18243,-0.45573 -0.89857,-1.39975 -2.14844,-2.83204 -1.18491,-1.36718 -2.00522,-2.73436 -2.46093,-4.10154 -0.23705,-1.36203 -0.22763,-1.76618 0.29532,-2.51069 0.28189,-0.44216 1.01293,1.63827 1.54021,2.47161 0.11717,0.35155 0.75519,1.18487 1.91407,2.49997 1.04166,1.21093 1.6276,2.27864 1.75782,3.20311 z"
             sodipodi:nodetypes="sccscsscccsccsccscsccscscccscccscccccscsssccccsccscccscscccccscccccccccccss" />
          <path
             id="path36412"
             style="fill:#ffffff"
             d="m 167.11543,139.04055 c -0.31351,0 -0.60462,-0.14986 -0.87333,-0.44958 -0.20326,-0.22738 -0.34279,-0.46681 -0.41858,-0.7183 -0.0999,-0.32729 -0.19637,-0.95085 -0.28939,-1.87068 -0.10335,-1.02664 -0.22221,-1.9861 -0.35656,-2.87837 -0.0379,-0.26183 -0.12572,-0.61323 -0.26355,-1.0542 -0.12403,-0.40652 -0.18604,-0.62011 -0.18604,-0.64078 0.0483,-0.16192 0.10339,-0.37035 0.16537,-0.62529 0.0103,-0.0172 0.0241,-0.0258 0.0413,-0.0258 0.0861,0 0.2067,0.2601 0.36173,0.78031 0.14469,0.48575 0.25321,0.95256 0.32556,1.40042 0.12403,0.79237 0.22221,1.60369 0.29456,2.43396 0.0345,0.45131 0.0706,0.90261 0.10852,1.35391 0.0655,0.52365 0.22738,0.9319 0.48575,1.22473 0.20326,0.23082 0.4048,0.34623 0.60462,0.34623 z m 7.79611,-8.03139 c 0,0.39274 -0.21015,0.87161 -0.63045,1.4366 -0.29972,0.38585 -0.59944,0.77342 -0.89917,1.16271 -0.0275,0.0448 -0.0568,0.0741 -0.0879,0.0879 -0.0345,0.0172 -0.0517,0.007 -0.0517,-0.031 0,-0.031 0.0103,-0.0723 0.031,-0.12402 0.093,-0.23771 0.34796,-0.63218 0.76481,-1.18339 0.36518,-0.48576 0.54605,-0.79065 0.5426,-0.91467 -0.003,-0.15503 -0.17472,-0.1621 -0.49092,-0.23254 -0.96148,-0.21418 -2.15689,0.0489 -3.91284,0.35186 -0.91179,0.20743 -1.7542,0.36732 -2.71538,0.84274 -0.94395,0.46853 -1.45899,0.78893 -1.54512,0.96118 -0.007,0.0103 -0.0155,0.0276 -0.0258,0.0517 0.65096,0.6616 1.44116,1.29204 2.03088,1.75697 0.89227,0.64423 1.40042,1.10242 1.52445,1.37458 0.031,0.37896 0.0465,0.54088 0.0465,0.48576 0,0.32039 -0.0741,0.59772 -0.22221,0.83199 -0.0965,0.15158 -0.36346,0.36862 -0.80098,0.65112 -0.53743,0.34795 -0.98874,0.52193 -1.35392,0.52193 v -0.72347 c 0.40652,0 0.90089,-0.17742 1.48311,-0.53226 0.53399,-0.32384 0.78548,-0.52538 0.75447,-0.60462 -0.0551,-0.14125 -0.60462,-0.61494 -1.64847,-1.42109 -1.07143,-0.82682 -1.70016,-1.41593 -1.88619,-1.76733 -0.14213,-0.22375 -0.10334,-0.4507 -0.12915,-0.56329 0.0207,-0.0999 0.0482,-0.13608 0.0827,-0.10852 0.0275,-0.18948 0.0809,-0.38585 0.1602,-0.58911 0.2446,-0.20326 0.75447,-0.50643 1.52962,-0.9095 0.9095,-0.47887 1.69288,-0.65687 2.51384,-0.82724 1.55255,-0.30152 3.26228,-0.63795 4.44511,-0.47072 0.43678,0.026 0.46948,0.24026 0.49091,0.48573 z"
             sodipodi:nodetypes="ccccccccsscccsccccccscccsccccccccccccsccccccccc" />
          <path
             id="path43063"
             style="fill:#ffffff;stroke-width:0.0700042"
             d="m 166.82742,129.60232 c -1.31648,-0.2487 -4.48684,0.16921 -5.67374,0.69686 -0.18858,0.0978 -0.36686,0.21436 -0.55035,0.32143 -0.16138,0.12408 -0.33296,0.23583 -0.48421,0.37207 -0.27637,0.24896 -0.50347,0.51179 -0.63924,0.863 -0.1459,0.37743 -0.13496,0.88796 -0.0827,1.29604 0.21034,0.63433 0.62631,1.25493 0.93483,1.56011 1.25745,1.22301 2.14113,2.07051 2.651,2.54248 0.25149,0.35829 0.43065,0.64768 0.53743,0.86817 0.0241,0.0413 0.0586,0.13952 0.10336,0.29455 0.0379,0.13087 0.0655,0.19637 0.0827,0.19637 0.0276,0 0.05,-0.14297 0.0672,-0.42891 h 5.3e-4 c 0.0138,-0.25839 -0.0654,-0.55983 -0.23771,-0.90434 -0.15847,-0.3135 -0.34796,-0.57533 -0.56844,-0.78548 -1.51461,-1.44016 -2.48664,-2.40867 -2.91662,-2.90576 -0.0898,-0.10994 -0.16614,-0.23082 -0.25115,-0.34469 -0.28605,-0.44515 -0.23893,-0.81267 0.0346,-1.22215 0.2457,-0.35979 0.4971,-0.51578 0.83457,-0.78393 0.17933,-0.10681 0.35333,-0.22301 0.53795,-0.32039 2.63822,-1.15886 6.2887,-0.89334 8.04153,-0.47829 0.20716,-0.0393 -0.99501,-0.68539 -2.42154,-0.83714 z"
             sodipodi:nodetypes="cccsscccccsccccccccccc" />
          <path
             d="m 164.80582,137.79152 q 0.0155,0.1912 0.0155,0.36173 0,0.74931 -0.35657,1.6123 -0.11885,0.28939 -0.28422,0.51677 -0.31006,0.42374 -0.75447,0.63045 -0.18604,0.0879 -1.27124,0.51676 -0.2067,0.0827 -0.27905,0.0827 -0.0413,0 -0.0413,-0.0258 0,-0.0568 0.21187,-0.20153 0.74931,-0.5116 0.863,-0.59428 0.62528,-0.45475 0.91983,-0.79065 0.22738,-0.25838 0.45475,-0.51159 0.23772,-0.28422 0.24805,-0.41341 0.0103,-0.0879 0.0103,-0.20671 0,-0.74414 -0.39791,-3.00239 -0.44958,-2.54247 -0.47542,-2.80085 -0.13953,-0.14986 -0.12403,-0.21704 0.0258,-0.10336 0.14987,-0.62012 0.0155,-0.062 0.0465,-0.062 0.0465,0 0.10336,0.13436 0.12402,0.1757 0.66145,1.33841 0.062,0.15503 -0.0362,0.1602 -0.0362,0 -0.0982,-0.0568 -0.0879,-0.0827 -0.24287,-0.22221 0.093,0.61495 0.42374,2.46496 0.1912,1.07486 0.25321,1.90685 z"
             id="path36414"
             style="fill:#ffffff" />
        </g>
      </g>
      <text
         xml:space="preserve"
         style="font-size:0.934474px;line-height:1.25;font-family:'DecoType Thuluth II';-inkscape-font-specification:'DecoType Thuluth II';fill:#ffffff;stroke-width:0.023362"
         x="133.80827"
         y="114.52622"
         id="text54812"
         transform="rotate(-0.16855339)"
         inkscape:export-filename="D:\Niskala's Void\Project\Design\Shirayuki\SariKataShirayuki.png"
         inkscape:export-xdpi="440.87274"
         inkscape:export-ydpi="440.87274"><tspan
           sodipodi:role="line"
           id="tspan54810"
           style="fill:#ffffff;stroke-width:0.023362"
           x="133.80827"
           y="114.52622"> ١٤٤٣ </tspan></text>
    </g>
    <text
       xml:space="preserve"
       style="font-size:10.5833px;line-height:1.25;font-family:'DecoType Thuluth II';-inkscape-font-specification:'DecoType Thuluth II';stroke-width:0.0700042"
       x="171.26712"
       y="79.403946"
       id="text11214"><tspan
         sodipodi:role="line"
         id="tspan11212"
         style="font-style:normal;font-variant:normal;font-weight:normal;font-stretch:normal;font-family:Amiri;-inkscape-font-specification:Amiri;stroke-width:0.0700042"
         x="171.26712"
         y="79.403946">30pt</tspan><tspan
         sodipodi:role="line"
         style="font-style:normal;font-variant:normal;font-weight:normal;font-stretch:normal;font-family:Amiri;-inkscape-font-specification:Amiri;stroke-width:0.0700042"
         x="171.26712"
         y="93.120903"
         id="tspan13330">Decotype</tspan></text>
    <g
       aria-label="ساري‌کات‌شيرايوکي"
       id="text1753"
       style="font-size:10.5833px;font-family:'Old Antic Decorative';-inkscape-font-specification:'Old Antic Decorative';font-feature-settings:'ss01', 'ss02';text-align:justify;opacity:0.97619;fill:#ffffff;stroke-width:10;stroke-linecap:round;stroke-linejoin:round;stroke-miterlimit:5;paint-order:stroke fill markers">
      <path
         d="m 250.52564,103.10805 q 0,0.56844 -0.39791,1.10587 -0.32556,0.42892 -0.79065,0.61495 -0.16536,0.062 -0.77514,0.18604 -0.43408,0.0879 -0.62012,0.27388 l 0.18604,-0.33073 q 0.0775,-0.0465 0.15503,-0.12402 0.45475,-0.10852 1.31257,-0.3824 0.30489,-0.12403 0.50643,-0.55811 0.17053,-0.3824 0.17053,-0.75447 0,-0.81649 -0.54777,-0.81649 -0.79581,0 -0.79581,0.76481 0,0.40308 0.43925,0.40308 0.27388,0 0.27388,-0.23255 0,-0.21187 -0.2067,-0.42374 0.37207,0.0879 0.37207,0.43925 0,0.1912 -0.16537,0.32556 -0.16536,0.13436 -0.36173,0.13436 -0.27905,0 -0.43925,-0.22221 -0.13953,-0.20154 -0.13953,-0.49093 0,-0.15503 0.062,-0.28422 -0.6718,0.33073 -1.21956,0.33073 -0.53227,0 -0.86817,-0.25838 -0.37206,-0.28422 -0.37206,-0.80098 0,-0.31006 0.17053,-0.53227 0.18603,-0.24804 0.48575,-0.24804 0.18087,0 0.30489,0.12919 0.12403,0.12919 0.12403,0.31005 0,0.48059 -0.50643,0.64596 0.24288,-0.22221 0.24288,-0.43408 0,-0.13436 -0.093,-0.23771 -0.093,-0.10852 -0.22221,-0.10852 -0.25321,0 -0.25321,0.40307 0,0.45475 0.30489,0.70797 0.28422,0.23771 0.7493,0.23771 0.75965,0 1.17822,-0.31006 0.21188,-0.1602 0.41858,-0.32556 0.24288,-0.15503 0.50643,-0.15503 0.37207,0 0.60461,0.33073 0.20671,0.29972 0.20671,0.68729 z m -0.0103,7.152 h -4.59402 v -0.75448 h 1.19372 v -1.13687 q 0,-0.37724 -0.37723,-0.37724 0.81131,-0.24805 1.13171,-0.75447 v 2.26858 h 0.56843 v -1.51411 q 0,-0.37724 -0.37723,-0.37724 0.89917,-0.25838 1.13171,-0.75447 v 2.64582 h 0.56844 v -1.89135 q 0,-0.37723 -0.37724,-0.37723 0.85266,-0.26355 1.13171,-0.75448 z m -0.1602,2.77501 q -0.34106,1.4056 -1.33841,1.4056 -0.3514,0 -1.00252,-0.27905 -0.64595,-0.27389 -0.99735,-0.27389 -0.30489,0 -0.69246,0.1602 0.49609,-0.56327 1.01285,-0.56327 0.3669,0 0.62528,0.38757 -0.005,-0.0465 -0.005,-0.11886 0,-0.2222 0.11885,-0.3979 0.13436,-0.20154 0.34623,-0.20154 0.27905,0 0.57878,0.30489 -0.44442,-0.093 -0.40308,-0.093 -0.18603,0 -0.30489,0.18604 -0.10852,0.16536 -0.10852,0.36173 0,0.28422 0.59428,0.28422 0.48576,0 0.89917,-0.29972 0.45475,-0.33073 0.45475,-0.80098 z"
         id="path1761" />
      <path
         d="m 246.43287,110.26005 h -0.5736 q 0,0.39274 -0.21187,0.66662 -0.15503,0.20671 -0.53744,0.46509 v -10.2009 q 0.0775,0.58394 0.30489,0.83716 0.26355,0.29455 0.82682,0.29455 -0.17053,0 -0.26355,0.0982 l -0.11885,0.27905 v 6.80576 h 0.5736 z"
         id="path1763" />
      <path
         d="m 244.12812,101.52159 -0.0879,0.0207 q -0.0517,-0.093 -0.12403,-0.12402 -0.0827,0.0258 -0.23254,0.37724 -0.11885,0.28421 -0.14986,0.47542 -0.0827,-0.42892 -0.25321,-0.4961 l -0.13436,0.005 q -0.20671,0.0103 -0.20671,-0.25838 0,-0.18087 0.1602,-0.18087 0.17053,0 0.30489,0.23255 0.093,0.1912 0.18087,0.3824 0.11885,-0.82682 0.35656,-0.82682 0.093,0 0.18604,0.1602 z m -0.0207,5.38984 q -1.41593,-0.26355 -1.41593,-1.41077 0,-0.34106 0.27388,-0.97151 0.27905,-0.63045 0.27905,-0.97668 0,-0.28422 -0.16019,-0.67179 0.56327,0.53743 0.56327,1.0697 0,0.34106 -0.38757,0.56843 0.0465,-0.005 0.11885,-0.005 0.21704,0 0.39791,0.12402 0.20154,0.13436 0.20154,0.34106 0,0.27906 -0.30489,0.57878 0.005,-0.062 0.0517,-0.20154 0.0413,-0.12402 0.0413,-0.20154 0,-0.1757 -0.1912,-0.29972 -0.17053,-0.11369 -0.35657,-0.11369 -0.28421,0 -0.28421,0.59428 0,0.48059 0.30489,0.89917 0.33072,0.45475 0.79581,0.45475 z m 0.27905,3.34862 q 0,0.48059 -0.32556,0.80615 -0.32556,0.32556 -0.80615,0.32556 -0.46509,0 -0.75448,-0.3359 -0.26871,-0.32039 -0.26871,-0.79581 0,0.27905 0.18087,0.50643 0.1912,0.24804 0.46508,0.24804 0.29456,0 0.52193,-0.23254 0.22738,-0.22738 0.22738,-0.52193 v -1.13171 q 0,-0.34107 -0.37207,-0.38241 0.9095,-0.26871 1.13171,-0.75447 z"
         id="path1765" />
      <path
         d="m 241.90604,104.64284 c -0.93707,-0.20671 -1.4056,-0.60634 -1.4056,-1.19889 0,-0.19293 0.0913,-0.46337 0.27389,-0.81132 0.18603,-0.3514 0.27905,-0.62356 0.27905,-0.81648 0,-0.13436 -0.0775,-0.33418 -0.23254,-0.59945 0.42374,0.29283 0.63561,0.59945 0.63561,0.91984 0,0.21359 -0.12919,0.37207 -0.38757,0.47542 0.031,-0.003 0.0723,-0.005 0.12402,-0.005 0.13436,0 0.26183,0.0327 0.38241,0.0982 0.14125,0.0758 0.21187,0.1757 0.21187,0.29972 0,0.16537 -0.10163,0.32901 -0.30489,0.49092 0.003,-0.0345 0.0188,-0.0896 0.0465,-0.16536 0.031,-0.0758 0.0465,-0.13608 0.0465,-0.18087 0,-0.0999 -0.0689,-0.18603 -0.20671,-0.25838 -0.11369,-0.062 -0.22737,-0.093 -0.34106,-0.093 -0.18948,0 -0.28422,0.16881 -0.28422,0.50643 0,0.29973 0.10852,0.56672 0.32556,0.80098 0.22049,0.23427 0.47887,0.3514 0.77515,0.3514 z m 0.40307,5.61721 h -1.43143 l -0.98702,-1.74666 -0.2067,0.35657 0.74414,1.30741 c 0.0896,0.15847 0.13435,0.3514 0.13435,0.57877 0,0.36863 -0.13436,0.67696 -0.40307,0.92501 -0.26872,0.25149 -0.58911,0.37723 -0.96118,0.37723 -0.39619,0 -0.70797,-0.14297 -0.93534,-0.42891 -0.21015,-0.26527 -0.31523,-0.61323 -0.31523,-1.04386 0,-0.14469 0.12919,-0.44097 0.38758,-0.88883 l 0.50642,-0.82682 -0.43408,-0.71314 c -0.1757,-0.3135 -0.26355,-0.57705 -0.26355,-0.79064 0,-0.32039 0.13091,-0.596 0.39274,-0.82682 0.0724,-0.0655 0.33762,-0.23944 0.79582,-0.52193 l 0.58394,1.00768 c 0.25493,-0.39618 0.3824,-0.69073 0.3824,-0.88366 0,-0.33417 -0.0827,-0.62701 -0.24804,-0.8785 -0.19981,-0.30317 -0.47198,-0.45475 -0.81649,-0.45475 -0.43063,0 -0.80615,0.11369 -1.12654,0.34107 -0.21359,0.15158 -0.49437,0.44097 -0.84232,0.86816 0.46509,-1.0542 0.99046,-1.68465 1.57612,-1.89136 -0.0448,-0.11024 -0.0672,-0.2601 -0.0672,-0.44958 0,-0.19981 0.0999,-0.40824 0.29973,-0.62528 0.23427,-0.25838 0.37035,-0.44097 0.40824,-0.54777 -0.0827,0.0724 -0.17397,0.10852 -0.27388,0.10852 -0.10335,0 -0.19293,-0.0362 -0.26872,-0.10852 -0.0758,-0.0724 -0.11369,-0.1602 -0.11369,-0.26355 0,-0.0999 0.0379,-0.18776 0.11369,-0.26355 0.0792,-0.0792 0.16881,-0.11885 0.26872,-0.11885 0.11369,0 0.21359,0.0517 0.29972,0.15503 0.0896,0.10335 0.13436,0.21703 0.13436,0.34106 0,0.15847 -0.062,0.38585 -0.18604,0.68213 -0.12058,0.29627 -0.18087,0.4892 -0.18087,0.57877 0,0.0758 0.0344,0.14125 0.10336,0.19637 0.0172,0.0103 0.11022,0.062 0.27905,0.15503 0.49953,0.27216 0.84404,0.53743 1.03352,0.79581 0.23427,0.31695 0.3514,0.75103 0.3514,1.30224 0,0.28939 -0.0775,0.58395 -0.23254,0.88367 l -0.47542,0.79581 1.02836,1.76216 c 0.12057,-0.0241 0.18086,-0.14988 0.18086,-0.37723 0.0379,0.26527 0.12055,0.48403 0.24805,0.65629 0.0896,0.11713 0.26183,0.27561 0.51676,0.47542 z m -0.22737,0.85266 c 0,0.18603 -0.0947,0.27905 -0.28422,0.27905 -0.18604,0 -0.27906,-0.093 -0.27906,-0.27905 0,-0.18948 0.093,-0.28422 0.27906,-0.28422 0.18948,0 0.28422,0.0947 0.28422,0.28422 z m -0.75965,0 c 0,0.18603 -0.0947,0.27905 -0.28421,0.27905 -0.18604,0 -0.27906,-0.093 -0.27906,-0.27905 0,-0.18948 0.093,-0.28422 0.27906,-0.28422 0.18947,0 0.28421,0.0947 0.28421,0.28422 z m 3.87463,2.93521 c -0.28938,-0.1068 -0.52709,-0.1602 -0.71313,-0.1602 -0.22393,0 -0.5426,0.0913 -0.95601,0.27389 -0.40996,0.18603 -0.72691,0.27905 -0.95085,0.27905 -0.73035,0 -1.2006,-0.46853 -1.41076,-1.4056 l 0.22221,0.062 c 0,0.3135 0.15159,0.58049 0.45475,0.80098 0.27561,0.19981 0.57533,0.29972 0.89917,0.29972 0.34106,0 0.53916,-0.0947 0.59428,-0.28422 -0.0517,-0.36518 -0.19119,-0.54777 -0.41858,-0.54777 -0.0551,0 -0.12231,0.0121 -0.20154,0.0362 -0.0999,0.031 -0.16536,0.0499 -0.19637,0.0568 0.19982,-0.20326 0.39274,-0.30489 0.57877,-0.30489 0.16537,0 0.28939,0.0827 0.37207,0.24804 0.0689,0.13781 0.0982,0.29456 0.0878,0.47026 0.14814,-0.25838 0.35829,-0.38757 0.63045,-0.38757 0.32384,0 0.60794,0.24346 1.00769,0.56327 z m -5.71947,-6.26317 -0.42374,-0.72863 c -0.11713,0.0655 -0.1757,0.17226 -0.1757,0.32039 0,0.0689 0.13091,0.32556 0.39274,0.76998 z m 0.3514,2.95589 c 0,-0.10335 -0.0189,-0.18776 -0.0568,-0.25322 l -0.51677,-0.88883 -0.51676,0.88883 c -0.0379,0.0655 -0.0568,0.14987 -0.0568,0.25322 0,0.15847 0.0551,0.29111 0.16536,0.3979 0.11369,0.11025 0.24977,0.16537 0.40824,0.16537 0.15159,0 0.28422,-0.0568 0.39791,-0.17053 0.11713,-0.11025 0.1757,-0.24116 0.1757,-0.39274 z"
         id="path1767"
         sodipodi:nodetypes="cscscscscsccscssccccccccscscscccscccscssccsccssssscscscccscccccscsssssssssscscscccscsccsscsscccsccccccscsccc" />
      <path
         d="m 236.74875,111.39176 c -0.40652,-0.0655 -0.65973,-0.4427 -0.75964,-1.13171 h -7.17784 v -0.75448 h 7.17784 v -1.52445 c 0,-0.0655 -0.031,-0.1292 -0.093,-0.1912 -0.062,-0.062 -0.12573,-0.093 -0.1912,-0.093 -0.18948,0 -0.28422,0.0947 -0.28422,0.28421 v 0.96118 h -5.82392 l 4.18061,-4.20128 -2.1394,-2.13423 c -0.0758,-0.0758 -0.15847,-0.11369 -0.24804,-0.11369 -0.0758,0 -0.16364,0.0379 -0.26355,0.11369 0.13436,-0.28939 0.20154,-0.59255 0.20154,-0.9095 0,-0.21359 -0.0672,-0.44441 -0.20154,-0.69246 l 3.73103,3.72586 -3.44164,3.45197 h 3.2401 c 0,-0.82682 0.34623,-1.24023 1.03869,-1.24023 0.29283,0 0.54088,0.10163 0.74414,0.30489 0.20671,0.19981 0.31006,0.44441 0.31006,0.7338 z m -0.0724,-6.27867 c -0.37207,-0.031 -0.6959,-0.17914 -0.97151,-0.44441 -0.28939,-0.27905 -0.43408,-0.60117 -0.43408,-0.96635 0,-0.22737 0.0913,-0.55121 0.27388,-0.97151 0.18603,-0.4203 0.27905,-0.74586 0.27905,-0.97669 0,-0.18948 -0.0534,-0.41341 -0.16019,-0.67179 0.37551,0.35829 0.56327,0.71486 0.56327,1.0697 0,0.22737 -0.12919,0.41685 -0.38758,0.56844 0.031,-0.003 0.0706,-0.005 0.11886,-0.005 0.14469,0 0.27733,0.0413 0.39791,0.12403 0.13435,0.0896 0.20153,0.20325 0.20153,0.34106 0,0.18603 -0.10163,0.37896 -0.30489,0.57877 0.003,-0.0413 0.0206,-0.10851 0.0517,-0.20153 0.0275,-0.0827 0.0413,-0.14987 0.0413,-0.20154 0,-0.11713 -0.0637,-0.21704 -0.1912,-0.29972 -0.11369,-0.0758 -0.23254,-0.11369 -0.35657,-0.11369 -0.18948,0 -0.28422,0.19809 -0.28422,0.59428 0,0.32039 0.10163,0.62011 0.30489,0.89916 0.22049,0.30317 0.48576,0.45475 0.79582,0.45475 z m -5.9221,-1.54512 c 0,0.73036 -0.46853,1.20061 -1.40559,1.41076 l 0.062,-0.2222 c 0.3135,0 0.58049,-0.15159 0.80098,-0.45476 0.19981,-0.27561 0.29972,-0.57533 0.29972,-0.89916 0,-0.34107 -0.0947,-0.53916 -0.28422,-0.59428 -0.36518,0.0517 -0.54777,0.19119 -0.54777,0.41858 0,0.0551 0.0121,0.12231 0.0362,0.20154 0.031,0.0999 0.0499,0.16536 0.0568,0.19637 -0.20326,-0.19982 -0.30489,-0.39275 -0.30489,-0.57878 0,-0.16537 0.0827,-0.28939 0.24805,-0.37207 0.1378,-0.0689 0.29455,-0.0982 0.47025,-0.0879 -0.25838,-0.14814 -0.38757,-0.35829 -0.38757,-0.63045 0,-0.32384 0.18776,-0.65974 0.56327,-1.00769 -0.1068,0.28939 -0.1602,0.52711 -0.1602,0.71314 0,0.22393 0.0913,0.5426 0.27389,0.95601 0.18603,0.40997 0.27905,0.72691 0.27905,0.95084 z m 7.75439,9.42058 c 0.11864,0.23727 -0.0947,0.47887 -0.28422,0.64079 -0.1757,0.15159 -0.39963,0.22738 -0.67179,0.22738 -0.2136,0 -0.40652,-0.0465 -0.57878,-0.13953 -0.16881,-0.0896 -0.33762,-0.18087 -0.50642,-0.27388 -0.39619,-0.17915 -0.89573,-0.26872 -1.49862,-0.26872 -0.27561,0 -0.52193,0.0655 -0.73897,0.19637 -0.25838,0.15158 -0.38757,0.35656 -0.38757,0.61495 0,0.22737 0.0982,0.34106 0.29456,0.34106 0.0896,0 0.17397,-0.0276 0.25321,-0.0827 0.0792,-0.0551 0.11886,-0.12576 0.11886,-0.21187 0,-0.11369 -0.0947,-0.236 -0.28422,-0.36691 0.39962,0.0586 0.59944,0.23086 0.59944,0.51677 0,0.27216 -0.16881,0.40824 -0.50643,0.40824 -0.19982,0 -0.37551,-0.0603 -0.52709,-0.18087 -0.16192,-0.12747 -0.24288,-0.28938 -0.24288,-0.48575 0,-0.30661 0.15847,-0.54088 0.47542,-0.7028 0.25149,-0.13091 0.54604,-0.19637 0.88366,-0.19637 0.48231,0 0.99218,0.093 1.52962,0.27905 -0.0448,-0.1378 -0.0672,-0.2446 -0.0672,-0.32039 0,-0.15503 0.0758,-0.28422 0.22738,-0.38757 0.13435,-0.093 0.28249,-0.13953 0.44441,-0.13953 0.14469,0 0.27733,0.031 0.39791,0.093 0.15158,0.0758 0.22738,0.17742 0.22738,0.30489 0,0.18948 -0.14642,0.31178 -0.43925,0.3669 0.16192,-0.0999 0.24288,-0.22049 0.24288,-0.36174 0,-0.13091 -0.10508,-0.19637 -0.31523,-0.19637 -0.34451,0 -0.51676,0.1378 -0.51676,0.41341 0,0.20671 0.1223,0.36174 0.3669,0.46509 0.17914,0.0758 0.38929,0.11369 0.63045,0.11369 0.18258,0 0.32728,-0.0706 0.43408,-0.21187 0.0965,-0.12747 0.14469,-0.28595 0.14469,-0.47543 0,-0.23082 -0.0758,-0.45992 -0.22737,-0.68729 -0.16537,-0.24805 -0.6004,-0.3752 -0.81399,-0.41654 -0.34406,-0.0544 -1.32112,-0.0666 -1.98946,-0.23202 -0.13781,-0.0517 -0.30662,-0.21359 -0.50643,-0.48576 0.66376,0.28589 0.56327,0.28078 0.98702,0.35657 0.54088,0.093 1.32456,0.0718 1.46236,0.1235 0.35055,0.11124 0.97444,0.26375 1.16539,0.71109 0.14469,0.21015 0.1169,0.45083 0.21704,0.65112 z"
         id="path1769"
         sodipodi:nodetypes="cccccssssccccscsccccscscccscscscscsccscsscccccccscsccsscscscccscsccscsssscsscscscscscscssscscssccccccss" />
      <path
         d="m 229.26085,110.26005 h -0.57361 q 0,0.39274 -0.21187,0.66662 -0.15503,0.20671 -0.53743,0.46509 v -10.2009 q 0.0775,0.58394 0.30489,0.83716 0.26355,0.29455 0.82682,0.29455 -0.17053,0 -0.26355,0.0982 l -0.11886,0.27905 v 6.80576 h 0.57361 z"
         id="path1771" />
      <path
         d="m 225.95357,103.11322 c 0,0.44786 -0.1912,0.85266 -0.5736,1.21439 -0.3514,0.33073 -0.75792,0.53743 -1.21956,0.62012 -0.21704,0.0379 -0.43236,0.0758 -0.64596,0.11369 -0.26871,0.0586 -0.47025,0.13611 -0.60461,0.23254 l 0.22221,-0.33073 c 0.0792,-0.0413 0.13952,-0.0827 0.18087,-0.12402 l 0.79064,-0.20671 c 0.16881,-0.031 0.42031,-0.0896 0.75448,-0.1757 0.23082,-0.0827 0.42374,-0.26182 0.57877,-0.53743 0.14469,-0.25493 0.21704,-0.51331 0.21704,-0.77514 0,-0.54433 -0.23599,-0.81649 -0.70796,-0.81649 -0.24116,0 -0.4427,0.0655 -0.60462,0.19637 -0.17569,0.14125 -0.26354,0.33073 -0.26354,0.56844 0,0.26871 0.17053,0.40307 0.51159,0.40307 0.21359,0 0.32039,-0.0775 0.32039,-0.23254 0,-0.15503 -0.081,-0.29627 -0.24288,-0.42374 0.29283,0.0585 0.43925,0.20495 0.43925,0.43924 0,0.13781 -0.0706,0.2515 -0.21187,0.34107 -0.12747,0.0792 -0.26355,0.11885 -0.40824,0.11885 -0.18603,0 -0.34623,-0.062 -0.48059,-0.18603 -0.13091,-0.12403 -0.19637,-0.27733 -0.19637,-0.45992 0,-0.0689 0.0224,-0.18603 0.0672,-0.3514 -0.46509,0.22393 -0.98013,0.3359 -1.54512,0.3359 -0.3514,0 -0.65457,-0.0879 -0.90951,-0.26355 -0.28939,-0.19637 -0.43408,-0.46337 -0.43408,-0.80098 0,-0.22049 0.0724,-0.4048 0.21704,-0.55294 0.14814,-0.15159 0.33245,-0.22738 0.55294,-0.22738 0.33762,0 0.50643,0.15848 0.50643,0.47543 0,0.29627 -0.19982,0.49953 -0.59945,0.60978 0.18948,-0.16537 0.28422,-0.30834 0.28422,-0.42892 0,-0.093 -0.0396,-0.17397 -0.11885,-0.24288 -0.0758,-0.0689 -0.1602,-0.10335 -0.25322,-0.10335 -0.19637,0 -0.29455,0.13264 -0.29455,0.39791 0,0.3135 0.13264,0.55638 0.39791,0.72863 0.22737,0.14469 0.50815,0.21704 0.84232,0.21704 0.1757,0 0.41513,-0.031 0.7183,-0.093 0.33073,-0.0689 0.55293,-0.14125 0.66662,-0.21704 0.28939,-0.19293 0.4582,-0.30317 0.50643,-0.33073 0.19293,-0.0999 0.38757,-0.14986 0.58394,-0.14986 0.27561,0 0.50298,0.0999 0.68213,0.29972 0.18259,0.19981 0.27388,0.43925 0.27388,0.7183 z m -1.46243,3.82921 c 0,0.18603 -0.093,0.27905 -0.27906,0.27905 -0.18948,0 -0.28422,-0.093 -0.28422,-0.27905 0,-0.18948 0.0947,-0.28422 0.28422,-0.28422 0.18604,0 0.27906,0.0947 0.27906,0.28422 z m -0.75965,0 c 0,0.18603 -0.093,0.27905 -0.27905,0.27905 -0.18948,0 -0.28422,-0.093 -0.28422,-0.27905 0,-0.18948 0.0947,-0.28422 0.28422,-0.28422 0.18603,0 0.27905,0.0947 0.27905,0.28422 z m 3.37446,4.44933 c -0.26527,-0.13781 -0.44613,-0.28939 -0.5426,-0.45475 -0.0655,-0.11025 -0.13781,-0.3359 -0.21704,-0.67696 h -6.07196 c 0.2446,-0.10335 0.42547,-0.25494 0.5426,-0.45475 0.0758,-0.13091 0.15503,-0.35657 0.23771,-0.67696 0.0896,0.25149 0.21532,0.37723 0.37724,0.37723 h 4.91441 v -1.24023 c 0,-0.16191 -0.0947,-0.24287 -0.28422,-0.24287 0.31351,-0.11025 0.54433,-0.24633 0.69247,-0.40825 0.13091,-0.15158 0.24804,-0.39273 0.35139,-0.72346 z"
         id="path1773"
         sodipodi:nodetypes="ccccccccccsscssscscscscscscsscscsscscscscccssssssssssccccccscscccc" />
      <path
         d="m 220.31052,103.10805 c 0,0.37896 -0.13263,0.74758 -0.3979,1.10587 -0.21704,0.28595 -0.55075,0.38569 -0.86081,0.50971 -0.11024,0.0413 -0.4037,0.0215 -0.81022,0.10424 -0.28939,0.0586 -0.4961,0.14989 -0.62012,0.27388 l 0.18603,-0.33073 c 0.0517,-0.031 0.10334,-0.0723 0.15503,-0.12402 0.30317,-0.0724 0.84593,-0.0127 1.41782,-0.19531 0.20326,-0.0827 0.37207,-0.26872 0.50643,-0.55811 0.11369,-0.25493 0.17053,-0.50642 0.17053,-0.75447 0,-0.54433 -0.18259,-0.81649 -0.54777,-0.81649 -0.53054,0 -0.79581,0.25494 -0.79581,0.76481 0,0.26872 0.14642,0.40308 0.43925,0.40308 0.18259,0 0.27388,-0.0775 0.27388,-0.23255 0,-0.14125 -0.0689,-0.28249 -0.20671,-0.42374 0.24805,0.0586 0.37207,0.20502 0.37207,0.43925 0,0.12747 -0.0551,0.23599 -0.16536,0.32556 -0.11024,0.0896 -0.23082,0.13436 -0.36173,0.13436 -0.18604,0 -0.33246,-0.0741 -0.43925,-0.22221 -0.093,-0.13436 -0.13953,-0.298 -0.13953,-0.49093 0,-0.10335 0.0207,-0.19809 0.062,-0.28422 -0.44786,0.22049 -0.85438,0.33073 -1.21956,0.33073 -0.35484,0 -0.64423,-0.0861 -0.86816,-0.25838 -0.24805,-0.18948 -0.37207,-0.45647 -0.37207,-0.80098 0,-0.20671 0.0568,-0.38413 0.17053,-0.53227 0.12403,-0.16536 0.28595,-0.24804 0.48576,-0.24804 0.12058,0 0.22221,0.0431 0.30489,0.12919 0.0827,0.0861 0.12402,0.18948 0.12402,0.31005 0,0.32039 -0.16881,0.53571 -0.50642,0.64596 0.16192,-0.14814 0.24288,-0.29283 0.24288,-0.43408 0,-0.0896 -0.031,-0.16881 -0.093,-0.23771 -0.062,-0.0724 -0.13607,-0.10852 -0.22221,-0.10852 -0.16881,0 -0.25321,0.13436 -0.25321,0.40307 0,0.30317 0.10163,0.53916 0.30489,0.70797 0.18948,0.15847 0.43925,0.23771 0.7493,0.23771 0.50643,0 0.89917,-0.10335 1.17822,-0.31006 0.14125,-0.1068 0.28077,-0.21532 0.41858,-0.32556 0.16192,-0.10335 0.33073,-0.15503 0.50643,-0.15503 0.24805,0 0.44958,0.11024 0.60461,0.33073 0.1378,0.19981 0.2067,0.42891 0.2067,0.68729 z m -1.85001,2.41328 c 0,0.18948 -0.093,0.28422 -0.27905,0.28422 -0.18948,0 -0.28422,-0.0947 -0.28422,-0.28422 0,-0.18603 0.0947,-0.27905 0.28422,-0.27905 0.18603,0 0.27905,0.093 0.27905,0.27905 z m 0.38241,0.74931 c 0,0.18603 -0.0947,0.27905 -0.28422,0.27905 -0.18603,0 -0.27905,-0.093 -0.27905,-0.27905 0,-0.18948 0.093,-0.28422 0.27905,-0.28422 0.18948,0 0.28422,0.0947 0.28422,0.28422 z m -0.75964,0 c 0,0.18603 -0.0947,0.27905 -0.28422,0.27905 -0.18603,0 -0.27905,-0.093 -0.27905,-0.27905 0,-0.18948 0.093,-0.28422 0.27905,-0.28422 0.18948,0 0.28422,0.0947 0.28422,0.28422 z m 2.21691,3.98941 h -4.59402 v -0.75448 h 1.19372 v -1.13687 c 0,-0.25149 -0.12575,-0.37724 -0.37724,-0.37724 0.54088,-0.16537 0.91812,-0.41686 1.13171,-0.75447 v 2.26858 h 0.56844 v -1.51411 c 0,-0.25149 -0.12574,-0.37724 -0.37723,-0.37724 0.59944,-0.17225 0.97668,-0.42374 1.13171,-0.75447 v 2.64582 h 0.56843 v -1.89135 c 0,-0.25149 -0.12574,-0.37723 -0.37723,-0.37723 0.56844,-0.1757 0.94568,-0.42719 1.13171,-0.75448 z"
         id="path1775"
         sodipodi:nodetypes="sccccccccssssscssscscscscssscscsscsccscsssssssssssssssssccccsccccsccccsccc" />
      <path
         d="m 215.84053,103.05638 c 0,0.4203 -0.1378,0.80787 -0.41341,1.16271 -0.27561,0.3514 -0.61667,0.57533 -1.02319,0.67179 -0.1757,0.0379 -0.34968,0.0776 -0.52193,0.11886 -0.20671,0.0551 -0.36518,0.13092 -0.47543,0.22737 l 0.1757,-0.33072 c 0.062,-0.0413 0.11023,-0.0827 0.1447,-0.12403 0.29283,-0.0827 0.72002,-0.2222 1.28157,-0.41857 0.19293,-0.0792 0.34451,-0.27389 0.45475,-0.58395 0.093,-0.25149 0.13953,-0.5047 0.13953,-0.75964 0,-0.18259 -0.0396,-0.34623 -0.11886,-0.49092 -0.0965,-0.17225 -0.2291,-0.25838 -0.39791,-0.25838 -0.19292,0 -0.36345,0.0603 -0.51159,0.18086 -0.15847,0.12747 -0.23771,0.28423 -0.23771,0.47026 0,0.34451 0.1378,0.51676 0.41341,0.51676 0.16881,0 0.25321,-0.0775 0.25321,-0.23254 0,-0.16192 -0.0637,-0.30317 -0.1912,-0.42375 0.23427,0.0724 0.3514,0.21704 0.3514,0.43408 0,0.13091 -0.0499,0.24116 -0.14986,0.33073 -0.0999,0.0896 -0.21532,0.13436 -0.34623,0.13436 -0.15503,0 -0.28423,-0.0655 -0.38758,-0.19637 -0.10335,-0.13091 -0.15503,-0.27561 -0.15503,-0.43408 0,-0.14125 0.0172,-0.26355 0.0517,-0.3669 -0.36518,0.22393 -0.77514,0.33589 -1.22989,0.33589 -0.31351,0 -0.57189,-0.0999 -0.77515,-0.29972 -0.20326,-0.19981 -0.30489,-0.45475 -0.30489,-0.76481 0,-0.19981 0.0517,-0.37379 0.15503,-0.52193 0.11713,-0.17225 0.27044,-0.25838 0.45992,-0.25838 0.12402,0 0.2222,0.0482 0.29455,0.14469 0.0758,0.093 0.11369,0.20326 0.11369,0.33073 0,0.29283 -0.1602,0.49609 -0.48059,0.60978 0.15159,-0.13436 0.22738,-0.27733 0.22738,-0.42891 0,-0.0792 -0.0293,-0.15675 -0.0878,-0.23254 -0.0586,-0.0758 -0.1275,-0.11369 -0.20671,-0.11369 -0.15847,0 -0.23771,0.13263 -0.23771,0.3979 0,0.29283 0.0913,0.52366 0.27389,0.69247 0.18259,0.16881 0.42202,0.25321 0.7183,0.25321 0.14469,0 0.33589,-0.031 0.5736,-0.093 0.25839,-0.0689 0.43581,-0.14125 0.53227,-0.21704 0.13091,-0.10679 0.26355,-0.21531 0.39791,-0.32556 0.15158,-0.10335 0.31005,-0.15503 0.47542,-0.15503 0.23771,0 0.42891,0.11369 0.5736,0.34107 0.12747,0.19981 0.19121,0.42547 0.19121,0.67696 z m 0.11368,7.20367 h -2.01537 c -0.031,0.33762 -0.14124,0.60634 -0.33073,0.80615 -0.20326,0.21704 -0.47025,0.32556 -0.80098,0.32556 -0.31006,0 -0.56155,-0.11197 -0.75447,-0.3359 -0.17915,-0.21359 -0.26872,-0.47886 -0.26872,-0.79581 0,0.18603 0.0603,0.35484 0.18087,0.50643 0.12747,0.16536 0.28249,0.24804 0.46508,0.24804 0.19637,0 0.37035,-0.0775 0.52193,-0.23254 0.15159,-0.15159 0.22738,-0.32556 0.22738,-0.52193 v -1.13171 c 0,-0.22738 -0.12402,-0.35485 -0.37207,-0.38241 0.60633,-0.17914 0.98357,-0.43063 1.13171,-0.75447 v 1.51411 h 1.12654 v -1.13687 c 0,-0.22393 -0.0947,-0.34968 -0.28422,-0.37724 0.31695,-0.1068 0.55294,-0.24288 0.70797,-0.40824 0.15503,-0.16881 0.26355,-0.40997 0.32556,-0.72347 v 2.64582 h 0.13952 z m -0.41341,1.14721 c 0,0.18603 -0.0947,0.27905 -0.28422,0.27905 -0.18603,0 -0.27905,-0.093 -0.27905,-0.27905 0,-0.18948 0.093,-0.28422 0.27905,-0.28422 0.18948,0 0.28422,0.0947 0.28422,0.28422 z m -0.75964,0 c 0,0.18603 -0.0947,0.27905 -0.28422,0.27905 -0.18603,0 -0.27905,-0.093 -0.27905,-0.27905 0,-0.18948 0.093,-0.28422 0.27905,-0.28422 0.18948,0 0.28422,0.0947 0.28422,0.28422 z"
         id="path1777"
         sodipodi:nodetypes="cccccccccscscssscssssscssscscscscsssscccsccccccscccscssccccsccccccssssssssss" />
      <path
         d="m 211.99581,110.26005 h -1.51411 c -0.0413,0.29627 -0.11024,0.52193 -0.20671,0.67696 -0.10679,0.16536 -0.28766,0.31694 -0.5426,0.45475 v -10.2009 c 0.0448,0.38585 0.14643,0.66491 0.30489,0.83716 0.1757,0.19637 0.45131,0.29455 0.82682,0.29455 -0.25493,0 -0.3824,0.12575 -0.3824,0.37724 v 6.80576 c 0.25493,-0.062 0.3824,-0.18774 0.3824,-0.37723 0,0.39618 0.093,0.67695 0.27905,0.84232 0.15503,0.13781 0.43925,0.23427 0.85266,0.28939 z m -2.80189,2.02571 c 0.29544,0 -0.31006,0.5047 -0.46509,0.75964 -0.16192,0.29283 -0.24288,0.57361 -0.24288,0.84232 0,0.16537 0.0999,0.24805 0.29972,0.24805 0.15159,0 0.22738,-0.0689 0.22738,-0.20671 0,-0.13091 -0.0517,-0.24805 -0.15503,-0.3514 0.20671,0.0448 0.31006,0.18605 0.31006,0.42375 0,0.11369 -0.0448,0.21015 -0.13436,0.28939 -0.0896,0.0827 -0.1912,0.12402 -0.30489,0.12402 -0.12402,0 -0.23254,-0.0517 -0.32556,-0.15503 -0.0896,-0.0999 -0.13436,-0.21359 -0.13436,-0.34106 0,-0.10335 0.0258,-0.2446 0.0775,-0.42375 -0.32383,0.1757 -0.59082,0.26355 -0.80098,0.26355 -0.44441,0 -0.66662,-0.29283 -0.66662,-0.8785 0,-0.15503 0.0586,-0.29627 0.1757,-0.42374 0.11714,-0.12747 0.25322,-0.1912 0.40824,-0.1912 0.19982,0 0.29972,0.11713 0.29972,0.3514 0,0.25838 -0.13091,0.43063 -0.39274,0.51676 0.12748,-0.11369 0.19121,-0.23599 0.19121,-0.3669 0,-0.10335 -0.0568,-0.15503 -0.17054,-0.15503 -0.2067,0 -0.31005,0.15503 -0.31005,0.46508 0,0.24805 0.15331,0.37207 0.45991,0.37207 0.2825,0 0.53916,-0.11024 0.76998,-0.33072 0.21016,-0.19982 0.35313,-0.44442 0.42891,-0.73381 0.0275,-0.10679 0.0947,-0.25665 0.20154,-0.44958 0.16882,0.11713 0.13609,0.3514 0.25322,0.3514 z"
         id="path1779"
         sodipodi:nodetypes="cccccccsccscscssscscscscssssscsssscccss" />
      <path
         d="m 208.81772,104.59633 q -1.40559,-0.31006 -1.40559,-1.19889 0,-0.28939 0.27388,-0.81132 0.27905,-0.5271 0.27905,-0.81648 0,-0.20154 -0.23254,-0.59945 0.63562,0.43925 0.63562,0.91984 0,0.32039 -0.38757,0.47542 0.0465,-0.005 0.12402,-0.005 0.20154,0 0.3824,0.0982 0.21188,0.11369 0.21188,0.29972 0,0.24805 -0.30489,0.49093 0.005,-0.0517 0.0465,-0.16537 0.0465,-0.11369 0.0465,-0.18087 0,-0.14986 -0.2067,-0.25838 -0.17053,-0.093 -0.34106,-0.093 -0.28422,0 -0.28422,0.50642 0,0.44959 0.32556,0.80099 0.33072,0.35139 0.77514,0.35139 z m 0.0517,6.79543 q -0.34623,-0.17053 -0.5116,-0.47026 -0.0827,-0.14469 -0.23771,-0.66145 h -0.94567 v -0.75448 h 0.94567 v -1.13687 q 0,-0.3359 -0.28422,-0.37724 0.47542,-0.1757 0.67696,-0.41858 0.1447,-0.1757 0.35657,-0.71313 z m -0.96635,-0.43925 q 0,0.27905 -0.28422,0.27905 -0.28422,0 -0.28422,-0.27905 0,-0.28422 0.28422,-0.28422 0.28422,0 0.28422,0.28422 z m 0,0.70796 q 0,0.27906 -0.28422,0.27906 -0.28422,0 -0.28422,-0.27906 0,-0.28421 0.28422,-0.28421 0.28422,0 0.28422,0.28421 z"
         id="path1781" />
      <path
         d="m 206.90053,105.11309 c -0.37207,-0.031 -0.6959,-0.17914 -0.97151,-0.44441 -0.28939,-0.27905 -0.43408,-0.60117 -0.43408,-0.96635 0,-0.22737 0.0913,-0.55121 0.27388,-0.97151 0.18603,-0.4203 0.27905,-0.74586 0.27905,-0.97669 0,-0.1378 -0.0775,-0.36173 -0.23254,-0.67179 0.42375,0.34795 0.63562,0.70452 0.63562,1.0697 0,0.22737 -0.12919,0.41685 -0.38757,0.56844 0.031,-0.003 0.0706,-0.005 0.11885,-0.005 0.14469,0 0.27733,0.0413 0.39791,0.12403 0.13436,0.0896 0.20154,0.20325 0.20154,0.34106 0,0.18603 -0.10163,0.37896 -0.30489,0.57877 0.003,-0.0413 0.0206,-0.10851 0.0517,-0.20153 0.0275,-0.0827 0.0413,-0.14987 0.0413,-0.20154 0,-0.11713 -0.0637,-0.21704 -0.1912,-0.29972 -0.11369,-0.0758 -0.23254,-0.11369 -0.35656,-0.11369 -0.18948,0 -0.28422,0.19809 -0.28422,0.59428 0,0.32039 0.10163,0.62011 0.30489,0.89916 0.22048,0.30317 0.48575,0.45475 0.79581,0.45475 z m 0.72864,5.14696 h -0.38241 c 0,0.32039 -0.10852,0.58911 -0.32556,0.80615 -0.21704,0.21704 -0.48576,0.32556 -0.80615,0.32556 -0.31695,0 -0.58222,-0.11024 -0.79581,-0.33073 -0.21015,-0.21704 -0.31523,-0.48403 -0.31523,-0.80098 0,0.17914 0.0758,0.34967 0.22738,0.51159 0.15503,0.16192 0.32211,0.24288 0.50126,0.24288 0.22737,0 0.40996,-0.0689 0.54777,-0.2067 0.1378,-0.13781 0.2067,-0.3204 0.2067,-0.54777 h -1.23506 v -0.75448 c 0,-0.74758 0.41169,-1.15754 1.23506,-1.22989 0.11025,-0.003 0.267,-0.0378 0.47026,-0.10335 0.0827,-0.0586 0.17914,-0.1499 0.28938,-0.27389 v 1.60713 h 0.38241 z m -1.3994,2.02571 c 0.29543,0 -0.31006,0.5047 -0.46508,0.75964 -0.16192,0.29283 -0.24288,0.57361 -0.24288,0.84232 0,0.16537 0.0999,0.24805 0.29972,0.24805 0.15158,0 0.22738,-0.0689 0.22738,-0.20671 0,-0.13091 -0.0517,-0.24805 -0.15503,-0.3514 0.2067,0.0448 0.31006,0.18605 0.31006,0.42375 0,0.11369 -0.0448,0.21015 -0.13436,0.28939 -0.0896,0.0827 -0.19121,0.12402 -0.30489,0.12402 -0.12403,0 -0.23255,-0.0517 -0.32556,-0.15503 -0.0896,-0.0999 -0.13436,-0.21359 -0.13436,-0.34106 0,-0.10335 0.0258,-0.2446 0.0775,-0.42375 -0.32384,0.1757 -0.59083,0.26355 -0.80098,0.26355 -0.44442,0 -0.66662,-0.29283 -0.66662,-0.8785 0,-0.15503 0.0586,-0.29627 0.1757,-0.42374 0.11713,-0.12747 0.25321,-0.1912 0.40824,-0.1912 0.19981,0 0.29972,0.11713 0.29972,0.3514 0,0.25838 -0.13092,0.43063 -0.39274,0.51676 0.12746,-0.11369 0.1912,-0.23599 0.1912,-0.3669 0,-0.10335 -0.0568,-0.15503 -0.17053,-0.15503 -0.20671,0 -0.31006,0.15503 -0.31006,0.46508 0,0.24805 0.1533,0.37207 0.45992,0.37207 0.2825,0 0.53916,-0.11024 0.76998,-0.33072 0.21015,-0.19982 0.35312,-0.44442 0.42891,-0.73381 0.0275,-0.10679 0.0947,-0.25665 0.20154,-0.44958 0.1688,0.11713 0.13607,0.3514 0.25321,0.3514 z m 0.25735,-2.78019 v -0.47542 c -0.34795,0 -0.52193,0.15847 -0.52193,0.47542 z"
         id="path1783"
         sodipodi:nodetypes="ccscscscscsccscsscccccsscccssccsccccccscssscscscscssssscsssscccsscccc" />
      <path
         d="m 204.40974,111.39176 q -0.60978,-0.0982 -0.75965,-1.13171 h -7.17783 v -0.75448 h 7.17783 v -1.52445 q 0,-0.0982 -0.093,-0.1912 -0.093,-0.093 -0.1912,-0.093 -0.28422,0 -0.28422,0.28421 v 0.96118 h -5.82392 l 4.18061,-4.20128 -2.1394,-2.13423 q -0.11368,-0.11369 -0.24804,-0.11369 -0.11369,0 -0.26355,0.11369 0.20154,-0.43408 0.20154,-0.9095 0,-0.32039 -0.20154,-0.69246 l 3.73102,3.72586 -3.44164,3.45197 h 3.24011 q 0,-1.24023 1.03869,-1.24023 0.43925,0 0.74414,0.30489 0.31006,0.29972 0.31006,0.7338 z m -0.0724,-6.27867 q -0.5581,-0.0465 -0.97151,-0.44441 -0.43409,-0.41858 -0.43409,-0.96635 0,-0.34106 0.27389,-0.97151 0.27905,-0.63045 0.27905,-0.97669 0,-0.28422 -0.1602,-0.67179 0.56328,0.53744 0.56328,1.0697 0,0.34106 -0.38758,0.56844 0.0465,-0.005 0.11886,-0.005 0.21704,0 0.39791,0.12403 0.20153,0.13435 0.20153,0.34106 0,0.27905 -0.30489,0.57877 0.005,-0.062 0.0517,-0.20153 0.0413,-0.12403 0.0413,-0.20154 0,-0.1757 -0.1912,-0.29972 -0.17053,-0.11369 -0.35657,-0.11369 -0.28422,0 -0.28422,0.59428 0,0.48058 0.30489,0.89916 0.33073,0.45475 0.79582,0.45475 z m -5.9221,-1.54512 q 0,1.09554 -1.4056,1.41076 l 0.062,-0.2222 q 0.47025,0 0.80098,-0.45476 0.29972,-0.41341 0.29972,-0.89916 0,-0.5116 -0.28422,-0.59428 -0.54777,0.0775 -0.54777,0.41858 0,0.0827 0.0362,0.20154 0.0465,0.14986 0.0568,0.19637 -0.30489,-0.29973 -0.30489,-0.57878 0,-0.24805 0.24805,-0.37207 0.2067,-0.10335 0.47025,-0.0879 -0.38757,-0.22221 -0.38757,-0.63045 0,-0.48576 0.56327,-1.00769 -0.1602,0.43409 -0.1602,0.71314 0,0.33589 0.27389,0.95601 0.27905,0.61495 0.27905,0.95084 z m 4.74905,9.42058 q 0,0.39791 -0.28422,0.64079 -0.26355,0.22738 -0.67179,0.22738 -0.3204,0 -0.57878,-0.13953 -0.25321,-0.13436 -0.50642,-0.27388 -0.59428,-0.26872 -1.49862,-0.26872 -0.41341,0 -0.73897,0.19637 -0.38757,0.22737 -0.38757,0.61495 0,0.34106 0.29456,0.34106 0.13435,0 0.25321,-0.0827 0.11885,-0.0827 0.11885,-0.21187 0,-0.17054 -0.28421,-0.36691 0.59944,0.0879 0.59944,0.51677 0,0.40824 -0.50643,0.40824 -0.29972,0 -0.5271,-0.18087 -0.24287,-0.1912 -0.24287,-0.48575 0,-0.45992 0.47542,-0.7028 0.37723,-0.19637 0.88366,-0.19637 0.72347,0 1.52962,0.27905 -0.0672,-0.2067 -0.0672,-0.32039 0,-0.23255 0.22738,-0.38757 0.20153,-0.13953 0.44441,-0.13953 0.21704,0 0.39791,0.093 0.22737,0.11368 0.22737,0.30489 0,0.28422 -0.43924,0.3669 0.24287,-0.14986 0.24287,-0.36174 0,-0.19637 -0.31522,-0.19637 -0.51676,0 -0.51676,0.41341 0,0.31006 0.3669,0.46509 0.26871,0.11369 0.63045,0.11369 0.27388,0 0.43408,-0.21187 0.14469,-0.19121 0.14469,-0.47543 0,-0.34623 -0.22737,-0.68729 -0.24805,-0.37207 -0.56844,-0.43408 -0.5426,-0.0775 -1.54512,-0.32556 -0.20671,-0.0775 -0.50643,-0.48576 0.3514,0.24288 0.98702,0.35657 0.81131,0.13952 1.01802,0.21704 0.56327,0.2067 0.91984,0.72863 0.21704,0.31523 0.21704,0.65112 z"
         id="path1785" />
      <path
         d="m 197.06137,110.26005 h -1.05936 l -1.00252,-1.74666 -0.20671,0.35657 0.74931,1.30741 q 0.10335,0.18086 0.10335,0.62528 0,0.53743 -0.37207,0.894 -0.3669,0.36173 -0.9095,0.36173 -0.62012,0 -0.97151,-0.42891 -0.32556,-0.40308 -0.32556,-1.03353 0,-0.19637 0.12919,-0.41857 l 0.75447,-1.30741 -0.44442,-0.72347 q -0.25321,-0.45475 -0.25321,-0.78031 0,-0.47542 0.39274,-0.82682 0.11886,-0.10336 0.79581,-0.52193 l 0.58911,1.00768 q 0.37724,-0.62011 0.37724,-0.925 0,-0.47026 -0.24288,-0.85266 -0.28422,-0.43925 -0.72347,-0.43925 -0.40307,0 -0.84232,0.12402 -0.46509,0.13436 -0.72863,0.40825 -0.24805,0.34106 -0.4961,0.67696 0.67179,-1.53479 1.57613,-1.89136 -0.062,-0.14986 -0.062,-0.34106 0,-0.3824 0.30489,-0.7183 0.3514,-0.38757 0.40307,-0.56327 -0.13436,0.10852 -0.27388,0.10852 -0.37724,0 -0.37724,-0.37207 0,-0.3824 0.37724,-0.3824 0.2067,0 0.33073,0.19637 0.0982,0.16536 0.0982,0.3824 0,0.20671 -0.18603,0.59428 -0.18087,0.3824 -0.18087,0.58394 0,0.17053 0.45992,0.40307 0.58911,0.30489 0.85266,0.60462 0.45992,0.52193 0.45992,1.39526 0,0.43924 -0.23255,0.9095 l -0.48059,0.81648 1.02836,1.76216 h 0.58911 z m -0.40824,0.66145 q 0,0.27906 -0.28422,0.27906 -0.27905,0 -0.27905,-0.27906 0,-0.28422 0.27905,-0.28422 0.28422,0 0.28422,0.28422 z m 0,0.70797 q 0,0.27905 -0.28422,0.27905 -0.27905,0 -0.27905,-0.27905 0,-0.28422 0.27905,-0.28422 0.28422,0 0.28422,0.28422 z m 0.63562,2.41845 q -0.43408,-0.1602 -0.71314,-0.1602 -0.33589,0 -0.95601,0.27389 -0.61494,0.27905 -0.95084,0.27905 -1.09554,0 -1.41076,-1.4056 l 0.22221,0.062 q 0,0.47025 0.45475,0.80098 0.41341,0.29972 0.89916,0.29972 0.5116,0 0.59428,-0.28422 -0.0775,-0.54777 -0.41858,-0.54777 -0.0827,0 -0.20153,0.0362 -0.14987,0.0465 -0.19637,0.0568 0.29972,-0.30489 0.57877,-0.30489 0.24805,0 0.37207,0.24804 0.10335,0.20671 0.0879,0.47026 0.22221,-0.38757 0.63045,-0.38757 0.48576,0 1.00769,0.56327 z m -2.70267,-6.26317 -0.41341,-0.72863 q -0.18087,0.093 -0.18087,0.29455 0,0.16537 0.14469,0.41341 0.11886,0.19121 0.24288,0.38241 z m 0.36173,2.89904 q 0,-0.18086 -0.58394,-1.0852 -0.57361,0.91984 -0.57361,1.14205 0,0.23771 0.16537,0.3979 0.17053,0.16537 0.40824,0.16537 0.26355,0 0.42375,-0.18087 0.16019,-0.1757 0.16019,-0.43925 z"
         id="path1787" />
    </g>
    <text
       xml:space="preserve"
       style="font-style:normal;font-variant:normal;font-weight:normal;font-stretch:normal;font-size:10.5833px;font-family:'Old Antic Decorative';-inkscape-font-specification:'Old Antic Decorative';font-feature-settings:'ss01', 'ss02';text-align:justify;opacity:0.97619;fill:#ffffff;stroke-width:10;stroke-linecap:round;stroke-linejoin:round;stroke-miterlimit:5;paint-order:stroke fill markers"
       x="192.33299"
       y="127.19157"
       id="text1759"><tspan
         sodipodi:role="line"
         id="tspan1757"
         style="font-style:normal;font-variant:normal;font-weight:normal;font-stretch:normal;font-size:10.5833px;font-family:'Old Antic Decorative';-inkscape-font-specification:'Old Antic Decorative';fill:#ffffff;stroke-width:10"
         x="192.33299"
         y="127.19157">ساري‌کات‌شيرايوکي</tspan></text>
    <text
       xml:space="preserve"
       style="font-style:normal;font-variant:normal;font-weight:normal;font-stretch:normal;font-size:2.59641px;font-family:'Old English Text MT';-inkscape-font-specification:'Old English Text MT';font-feature-settings:'ss01', 'ss02';text-align:justify;opacity:0.97619;fill:#ffffff;stroke-width:2.45331;stroke-linecap:round;stroke-linejoin:round;stroke-miterlimit:5;paint-order:stroke fill markers"
       x="210.09323"
       y="114.41482"
       id="text2001"><tspan
         sodipodi:role="line"
         id="tspan1999"
         style="font-style:normal;font-variant:normal;font-weight:normal;font-stretch:normal;font-family:'Old English Text MT';-inkscape-font-specification:'Old English Text MT';stroke-width:2.45331"
         x="210.09323"
         y="114.41482">Sari Kata Syirayuki</tspan></text>
  </g>
</svg>
